<?xml version="1.0" encoding="UTF-8"?>
<svg width="24" height="24" version="1.1" viewBox="0 0 6.35 6.35" xmlns="http://www.w3.org/2000/svg" xmlns:cc="http://creativecommons.org/ns#" xmlns:dc="http://purl.org/dc/elements/1.1/" xmlns:rdf="http://www.w3.org/1999/02/22-rdf-syntax-ns#">
 <g transform="translate(0 -290.65)">
  <path transform="matrix(.26458 0 0 .26458 0 290.65)" d="m5 5v14h14v-2h-4v-2h-2v2h-2v-2h-2v2h-2v-2h2v-2h2v-2h-2v-2h-2v-4zm6 8v2h2v-2zm2 0h2v-2h-2zm2-2h4v-2h-4zm-6-6v2h2v-2zm4 0v2h2v-2zm4 0v2h2v-2zm0 8v2h2v-2z" stroke-linecap="square" stroke-opacity=".5283" style="paint-order:stroke fill markers"/>
 </g>
</svg>
