<?xml version="1.0" encoding="UTF-8"?>
<svg width="24" height="24" version="1.1" viewBox="0 0 6.35 6.35" xmlns="http://www.w3.org/2000/svg" xmlns:cc="http://creativecommons.org/ns#" xmlns:dc="http://purl.org/dc/elements/1.1/" xmlns:rdf="http://www.w3.org/1999/02/22-rdf-syntax-ns#">
 <g transform="translate(0 -290.65)">
  <path transform="matrix(.26458 0 0 .26458 0 290.65)" d="m3 6v12h2v-12zm3 0v10h1v-10zm2 0v10h1v-10zm3 0v12h2v-12zm3 0v10h1v-10zm2 0v10h2v-10zm4 0v12h1v-12zm-19 11v1h1v-1zm5 0v1h4v-1zm8 0v1h5v-1zm8 0v1h1v-1z" stroke-linecap="square" stroke-opacity=".5283" style="paint-order:stroke fill markers"/>
 </g>
</svg>
