<?xml version="1.0" encoding="UTF-8"?>
<svg width="24" height="24" version="1.1" viewBox="0 0 6.35 6.35" xmlns="http://www.w3.org/2000/svg" xmlns:cc="http://creativecommons.org/ns#" xmlns:dc="http://purl.org/dc/elements/1.1/" xmlns:rdf="http://www.w3.org/1999/02/22-rdf-syntax-ns#">
 <g transform="translate(0 -290.65)">
  <path transform="matrix(.26458 0 0 .26458 0 290.65)" d="m2 6v12h2v-12zm3 0v12h1v-12zm2 0v12h2v-2h-1v-2h1v-4h-1v-2h1v2h1v-4zm2 8v2h1v-2zm1 2v2h3v-4h-1v-2h1v-4h-1v-2h-1v5h-1v2h1v3zm3-8h1v4h-1v2h1v4h1v-2h1v2h1v-2h1v2h2v-12h-2v6h-2v2h-1v-2h1v-2h-1v-2h1v-2h-3zm3 0v2h1v-2zm5-2v12h1v-12z" stroke-linecap="square" stroke-opacity=".5283" style="paint-order:stroke fill markers"/>
 </g>
</svg>
