<?xml version="1.0" encoding="UTF-8"?>
<svg width="24" height="24" version="1.1" viewBox="0 0 6.35 6.35" xmlns="http://www.w3.org/2000/svg" xmlns:cc="http://creativecommons.org/ns#" xmlns:dc="http://purl.org/dc/elements/1.1/" xmlns:rdf="http://www.w3.org/1999/02/22-rdf-syntax-ns#">
 <g transform="translate(0 -290.65)">
  <path transform="matrix(.26458 0 0 .26458 0 290.65)" d="m5 5v6h6v-6h-6zm8 0v6h6v-6h-6zm-7 1h4v4h-4v-4zm8 0h4v4h-4v-4zm-7 1v2h2v-2h-2zm8 0v2h2v-2h-2zm-10 6v6h6v-6h-6zm8 0v2h2v-2h-2zm2 2v2h2v-2h-2zm2 0h2v-2h-2v2zm0 2v2h2v-2h-2zm-2 0h-2v2h2v-2zm-9-3h4v4h-4v-4zm1 1v2h2v-2h-2z" stroke-linecap="square" stroke-opacity=".5283" style="paint-order:stroke fill markers"/>
 </g>
</svg>
