<?xml version="1.0" encoding="UTF-8"?>
<svg width="24" height="24" version="1.1" viewBox="0 0 6.35 6.35" xmlns="http://www.w3.org/2000/svg" xmlns:cc="http://creativecommons.org/ns#" xmlns:dc="http://purl.org/dc/elements/1.1/" xmlns:rdf="http://www.w3.org/1999/02/22-rdf-syntax-ns#">
 <g transform="translate(0 -290.65)">
  <path transform="matrix(.26458 0 0 .26458 0 290.65)" d="m11.99 3c-4.0183 0.0044514-7.5469 2.6722-8.6465 6.5371 1.0048-1.3514 2.7621-2.5371 5.6543-2.5371 2.4167 0 4.0006 1.2454 4.7031 2.6504 0.35126 0.70254 0.53674 1.5753 0.53674 2.2455 0 1.2028-0.84575 1.5353-0.81206 1.9821 0.019831 0.26295 0.70362 1.122 2.5741 1.122 4.4923 0 4.9224-3.0904 4.9688-3.7461-0.38807-4.6651-4.2876-8.2538-8.9688-8.2539zm-2.9922 5.0039c-3.0962 0-4.502 1.3532-5.248 2.7305-0.46743 0.86296-0.632 1.6906-0.69922 2.2188 0.47936 4.4944 4.2177 7.936 8.7363 8.043-0.67314-0.14896-1.3382-0.3899-1.9473-0.79102-1.0654-0.70156-1.9254-1.8656-2.3242-3.5938-0.52935-2.382 0.14782-4.1048 1.1953-5.1523 2.459-2.459 4.1037-1.4312 4.0898-1.459-0.54748-1.095-1.7194-1.9961-3.8027-1.9961zm-0.50977 8.3848c0.35121 1.5219 1.0497 2.4184 1.9062 2.9824 0.85651 0.56406 2.4166 1.1527 3.4489 1.1823 1.0427 0 1.618-0.21236 2.7132-0.79163s2.329-1.7849 3.0965-3.025c0.21225-0.34295-0.09166-0.63669-0.4429-0.46439-3.9255 1.9257-9.4386 0.08344-9.4386-4.3822 0 0-2.0552 1.0252-1.2833 4.4986z" fill-opacity=".99696" stroke-linecap="square" stroke-width="2" style="paint-order:stroke fill markers"/>
 </g>
</svg>
