<?xml version="1.0" encoding="UTF-8"?>
<svg width="24" height="24" version="1.1" viewBox="0 0 6.35 6.35" xmlns="http://www.w3.org/2000/svg" xmlns:cc="http://creativecommons.org/ns#" xmlns:dc="http://purl.org/dc/elements/1.1/" xmlns:rdf="http://www.w3.org/1999/02/22-rdf-syntax-ns#">
 <g transform="translate(0 -290.65)" stroke-linejoin="round">
  <path transform="matrix(.26458 0 0 .26458 0 290.65)" d="m8 6a6 6 0 0 0-6 6 6 6 0 0 0 6 6 6 6 0 0 0 3.1875-0.91797 7 7 0 0 1-2.1875-5.082 7 7 0 0 1 2.1875-5.082 6 6 0 0 0-3.1875-0.91797z" style="paint-order:stroke fill markers"/>
  <path transform="matrix(.26458 0 0 .26458 0 290.65)" d="m16 6a6 6 0 0 0-3.1875 0.91797 7 7 0 0 1 2.1875 5.082 7 7 0 0 1-2.1875 5.082 6 6 0 0 0 3.1875 0.91797 6 6 0 0 0 6-6 6 6 0 0 0-6-6z" style="paint-order:stroke fill markers"/>
  <path transform="matrix(.26458 0 0 .26458 0 290.65)" d="m12 7.5293a6 6 0 0 0-2 4.4707 6 6 0 0 0 2 4.4707 6 6 0 0 0 2-4.4707 6 6 0 0 0-2-4.4707z" style="paint-order:stroke fill markers"/>
 </g>
</svg>
