<?xml version="1.0" encoding="UTF-8"?>
<svg width="24" height="24" version="1.1" viewBox="0 0 6.35 6.35" xmlns="http://www.w3.org/2000/svg" xmlns:cc="http://creativecommons.org/ns#" xmlns:dc="http://purl.org/dc/elements/1.1/" xmlns:rdf="http://www.w3.org/1999/02/22-rdf-syntax-ns#">
 <g transform="translate(0 -290.65)">
  <path transform="matrix(.26458 0 0 .26458 0 290.65)" d="m6 8.8582v6.1418h1v-2.2829c1.7377 0.72845 3-0.77702 3-1.8816s-0.91019-1.9773-2-1.9773c-0.37021 0-0.69988 0.042834-1 0.09375v-0.09375zm1 1.1187c1.4661-0.5935 2 0.30629 2 0.85859 0 0.55226-0.68428 1.4067-2 0.88159z" stroke-linecap="round" stroke-linejoin="round" stroke-width="2" style="paint-order:stroke fill markers"/>
  <path d="m3.2799 292.96c-0.25778-0.0105-0.39326 0.11782-0.39326 0.11782l0.091467 0.21911c0.32573-0.18518 0.45511-0.0189 0.45889 0.0915-0.27101-0.0295-0.65939 0.0716-0.65939 0.4346 0 0.0901 0.11668 0.27337 0.33021 0.27337 0.10808 0 0.22269-4e-3 0.33073-0.0315v0.0227h0.26562v-0.69402c7.4e-6 -0.15434-0.095719-0.37955-0.30644-0.41961-0.041768-8e-3 -0.080996-0.0125-0.11782-0.0139zm0.01757 0.63458c0.055134-5e-3 0.10575 3e-3 0.14108 0.0238v0.16795c-0.082829 0.0376-0.39274 0.14402-0.39274-2e-3 0-0.10895 0.13232-0.17833 0.25166-0.19017z" color="#000000" color-rendering="auto" dominant-baseline="auto" image-rendering="auto" shape-rendering="auto" solid-color="#000000" stop-color="#000000" style="font-feature-settings:normal;font-variant-alternates:normal;font-variant-caps:normal;font-variant-east-asian:normal;font-variant-ligatures:normal;font-variant-numeric:normal;font-variant-position:normal;font-variation-settings:normal;inline-size:0;isolation:auto;mix-blend-mode:normal;shape-margin:0;shape-padding:0;text-decoration-color:#000000;text-decoration-line:none;text-decoration-style:solid;text-indent:0;text-orientation:mixed;text-transform:none;white-space:normal"/>
  <path d="m3.931 293.03 0.42013 1.0496c-0.11336 0.20897-0.17398 0.40566-0.5147 0.40566v0.26355c0.52968 0 0.64013-0.32115 0.78031-0.60152l0.00156-4e-3 0.44544-1.1136h-0.28577l-0.2806 0.7028-0.2806-0.7028z" color="#000000" color-rendering="auto" dominant-baseline="auto" image-rendering="auto" shape-rendering="auto" solid-color="#000000" stop-color="#000000" style="font-feature-settings:normal;font-variant-alternates:normal;font-variant-caps:normal;font-variant-east-asian:normal;font-variant-ligatures:normal;font-variant-numeric:normal;font-variant-position:normal;font-variation-settings:normal;inline-size:0;isolation:auto;mix-blend-mode:normal;shape-margin:0;shape-padding:0;text-decoration-color:#000000;text-decoration-line:none;text-decoration-style:solid;text-indent:0;text-orientation:mixed;text-transform:none;white-space:normal"/>
  <path d="m1.1182 294.5c-0.060188 0.0784 0.99844 0.91248 2.3214 0.91248 1.0583 0 1.7668-0.61286 1.6913-0.71131-0.075542-0.0985-0.63294 0.44673-1.6913 0.44673-1.3229 0-2.2612-0.72634-2.3214-0.6479z" color="#000000" color-rendering="auto" dominant-baseline="auto" image-rendering="auto" shape-rendering="auto" solid-color="#000000" stop-color="#000000" style="font-feature-settings:normal;font-variant-alternates:normal;font-variant-caps:normal;font-variant-east-asian:normal;font-variant-ligatures:normal;font-variant-numeric:normal;font-variant-position:normal;font-variation-settings:normal;inline-size:0;isolation:auto;mix-blend-mode:normal;shape-margin:0;shape-padding:0;text-decoration-color:#000000;text-decoration-line:none;text-decoration-style:solid;text-indent:0;text-orientation:mixed;text-transform:none;white-space:normal"/>
  <path d="m5.3418 294.21c-0.27118 4e-3 -0.60057 0.27423-0.55637 0.34484 0.050361 0.0804 0.074253-0.0481 0.44114-0.0499 0.27376 0.18132 0.19164 0.43019 0.29147 0.40349 0.075831-0.0203 0.084421-0.52135-0.17624-0.69841z" color="#000000" color-rendering="auto" dominant-baseline="auto" image-rendering="auto" shape-rendering="auto" solid-color="#000000" stop-color="#000000" style="font-feature-settings:normal;font-variant-alternates:normal;font-variant-caps:normal;font-variant-east-asian:normal;font-variant-ligatures:normal;font-variant-numeric:normal;font-variant-position:normal;font-variation-settings:normal;inline-size:0;isolation:auto;mix-blend-mode:normal;shape-margin:0;shape-padding:0;text-decoration-color:#000000;text-decoration-line:none;text-decoration-style:solid;text-indent:0;text-orientation:mixed;text-transform:none;white-space:normal"/>
 </g>
</svg>
