<?xml version="1.0" encoding="UTF-8"?>
<svg width="24" height="24" version="1.1" viewBox="0 0 6.35 6.35" xmlns="http://www.w3.org/2000/svg" xmlns:cc="http://creativecommons.org/ns#" xmlns:dc="http://purl.org/dc/elements/1.1/" xmlns:rdf="http://www.w3.org/1999/02/22-rdf-syntax-ns#">
 <g transform="translate(0 -290.65)">
  <path transform="matrix(.26458 0 0 .26458 0 290.65)" d="m2 4c-1.108 0-2 0.89199-2 2v12c0 1.108 0.89202 2 2 2h20c1.108 0 2-0.89203 2-2v-12c0-1.108-0.89202-2-2-2h-20zm9.75 4c1.375 0 2.75 0.5 2.75 0.5v2s-3-1-3 0c0 0.99999 3.5 0.99999 3.5 3 0 4-6 2-6 2v-2s3.5 0.99999 3.5 0c0-1-3.5-1-3.5-3 0-2 1.375-2.5 2.75-2.5z" stroke-linecap="round" stroke-linejoin="round" stroke-width="2" style="paint-order:stroke fill markers"/>
 </g>
</svg>
