<?xml version="1.0" encoding="UTF-8"?>
<svg width="24" height="24" version="1.1" viewBox="0 0 6.35 6.35" xmlns="http://www.w3.org/2000/svg" xmlns:cc="http://creativecommons.org/ns#" xmlns:dc="http://purl.org/dc/elements/1.1/" xmlns:rdf="http://www.w3.org/1999/02/22-rdf-syntax-ns#">
 <g transform="translate(0 -290.65)">
  <path transform="matrix(.26458 0 0 .26458 0 290.65)" d="m2 4c-1.108 0-2 0.89199-2 2v12c0 1.108 0.89202 2 2 2h20c1.108 0 2-0.89203 2-2v-12c0-1.108-0.89202-2-2-2h-20zm9.0078 3.5-1.125 5.4004c-0.088868 0.67506 0.52148 0.81641 0.52148 0.81641l-0.28125 1.1543s-1.7972-0.3957-1.5898-1.9707l1.125-5.1758 1.3496-0.22461zm2.3145 2.0566c1.9896-0.12816 2.4355 1.5293 2.4355 2.4434 1e-6 1.35-1.5754 3.2353-3.8535 2.8027l-0.42188 1.6973h-1.3496l1.5527-6.5371c0.6371-0.25088 1.1776-0.37601 1.6367-0.40625zm0.28906 1.2441c-0.39836-0.037417-0.79688 0.14844-0.79688 0.14844l-0.65625 2.7305c0.9 0.12091 2.25-0.32968 2.25-1.6797 0-0.89987-0.39851-1.1614-0.79688-1.1992z" stroke-linecap="round" stroke-linejoin="round" stroke-width="2" style="paint-order:stroke fill markers"/>
 </g>
</svg>
