<?xml version="1.0" encoding="UTF-8"?>
<svg width="24" height="24" version="1.1" viewBox="0 0 6.35 6.35" xmlns="http://www.w3.org/2000/svg" xmlns:cc="http://creativecommons.org/ns#" xmlns:dc="http://purl.org/dc/elements/1.1/" xmlns:rdf="http://www.w3.org/1999/02/22-rdf-syntax-ns#">
 <g transform="translate(0 -290.65)" stroke-linecap="round" stroke-linejoin="round" stroke-width="3.2">
  <path transform="matrix(.26458 0 0 .26458 0 290.65)" d="m6 10h2v8h-2z" style="paint-order:stroke fill markers"/>
  <path transform="matrix(.26458 0 0 .26458 0 290.65)" d="m14.58 9.5938c1.6504-0.080504 3.3635 0.45126 3.4199 2.8457v5.5605h-2v-5.5605c0-1.7032-4-1.7032-4 0v5.5605h-2v-8h2v0.73633c0.76787-0.82911 1.4083-1.0963 2.5801-1.1426z" style="paint-order:stroke fill markers"/>
  <path transform="matrix(.26458 0 0 .26458 0 290.65)" d="m6.9785 5.5c0.0073323-3.78e-5 0.014152-3.78e-5 0.021484 0 0.8284 7.56e-5 1.4999 0.6716 1.5 1.5-6.05e-5 0.8284-0.6716 1.4999-1.5 1.5-0.8284-7.56e-5 -1.4999-0.6716-1.5-1.5-2.95e-5 -0.81986 0.65873-1.4879 1.4785-1.5z" style="paint-order:stroke fill markers"/>
 </g>
</svg>
