<?xml version="1.0" encoding="UTF-8"?>
<svg width="24" height="24" version="1.1" viewBox="0 0 6.35 6.35" xmlns="http://www.w3.org/2000/svg" xmlns:cc="http://creativecommons.org/ns#" xmlns:dc="http://purl.org/dc/elements/1.1/" xmlns:rdf="http://www.w3.org/1999/02/22-rdf-syntax-ns#">
 <g transform="translate(0 -290.65)">
  <path transform="matrix(.26458 0 0 .26458 0 290.65)" d="m16 2c-2.238 0.74599-3.1825 2.952-3.5195 4.0254-0.91695-0.072895-1.8726 0.097108-2.5293 0.33594 0 0-0.12944 0.56349-0.066406 1.1094 0.66219-0.30964 1.3842-0.47031 2.1152-0.4707 1.8957-1e-7 3.5252 1.0682 4.373 2.623-1.0746-0.71188-2.373-0.62305-2.373-0.62305 4.5 3 1 7-2 7-2 0-3.5-2.1527-3.5-3 0.89296-1.7145 2.5-1.5 2.5-1.5s1-0.5 1-1.5c-2 0-1.9121-0.93514-3-2-0.31457-0.58778 0-2 0-2s-1.1847 0.42196-2 1.5c-0.80149-1.1226-0.5-2-0.5-2s-3.5 1.5-3.5 6.5c0 5 4.0294 9 9 9 5 0 9-4 9-9 0-4-0.7516-5.3372-2-7 0.233 1.165 0.32332 2.0265 0.33984 2.6973-1.3548-3.7839-3.3398-4.15-3.3398-5.6973z" fill-opacity=".94468" stroke-linecap="square" stroke-linejoin="bevel" stroke-width="4" style="paint-order:stroke fill markers"/>
 </g>
</svg>
