<?xml version="1.0" encoding="UTF-8"?>
<svg width="24" height="24" version="1.1" viewBox="0 0 6.35 6.35" xmlns="http://www.w3.org/2000/svg" xmlns:cc="http://creativecommons.org/ns#" xmlns:dc="http://purl.org/dc/elements/1.1/" xmlns:rdf="http://www.w3.org/1999/02/22-rdf-syntax-ns#">
 <g transform="translate(0 -290.65)">
  <path d="m1.5452 294.35c-0.19539 0-0.19539-0.0427-0.27354-0.0427s-0.078154 0.0427-0.27354 0.0427c-0.11723 0-0.46892-0.34193-0.46892-0.68386 0-0.23447 0.19539-0.48845 0.42985-0.48845 0.15766 0 0.2052 0.0781 0.31262 0.0781 0.10741 0 0.19539-0.0781 0.31262-0.0781 0.11723 0 0.20784 0.0629 0.27354 0.1563-0.27062 0.16269-0.20949 0.52512 0.039076 0.62524-0.069488 0.18247-0.23446 0.39077-0.35169 0.39077zm-0.22225-1.1967c-0.042389-0.1582 0.10824-0.35294 0.3175-0.39076 0.040706 0.21392-0.16119 0.39076-0.3175 0.39076z" stroke-width=".0015643"/>
  <path d="m2.3812 292.77v1.5875h0.26458v-0.52917h0.26458c0.29225 0 0.52917-0.23691 0.52917-0.52916s-0.23692-0.52917-0.52917-0.52917zm0.26458 0.26458h0.26458c0.14613 0 0.26458 0.11845 0.26458 0.26458 0 0.14612-0.082275 0.26459-0.26458 0.26459h-0.26458z" stroke-linecap="round" stroke-linejoin="round" stroke-width=".52917" style="paint-order:stroke fill markers"/>
  <path d="m4.0737 293.23c-0.25778-0.0105-0.39326 0.11782-0.39326 0.11782l0.091467 0.21911c0.32573-0.18518 0.45511-0.0189 0.45889 0.0915-0.27101-0.0295-0.65939 0.0716-0.65939 0.4346 0 0.0901 0.11668 0.27337 0.33021 0.27337 0.10808 0 0.22269-4e-3 0.33073-0.0315v0.0227h0.26562v-0.69402c7.4e-6 -0.15434-0.095719-0.37955-0.30644-0.41961-0.041768-8e-3 -0.080996-0.0125-0.11782-0.0139zm0.01757 0.63458c0.055134-5e-3 0.10575 3e-3 0.14108 0.0238v0.16795c-0.082829 0.0376-0.39274 0.14402-0.39274-2e-3 0-0.10895 0.13232-0.17833 0.25166-0.19017z" color="#000000" color-rendering="auto" dominant-baseline="auto" image-rendering="auto" shape-rendering="auto" solid-color="#000000" stop-color="#000000" style="font-feature-settings:normal;font-variant-alternates:normal;font-variant-caps:normal;font-variant-east-asian:normal;font-variant-ligatures:normal;font-variant-numeric:normal;font-variant-position:normal;font-variation-settings:normal;inline-size:0;isolation:auto;mix-blend-mode:normal;shape-margin:0;shape-padding:0;text-decoration-color:#000000;text-decoration-line:none;text-decoration-style:solid;text-indent:0;text-orientation:mixed;text-transform:none;white-space:normal"/>
  <path d="m4.7248 293.3 0.42013 1.0496c-0.11336 0.20897-0.17398 0.40566-0.5147 0.40566v0.26355c0.52968 0 0.64013-0.32115 0.78031-0.60152l0.00156-4e-3 0.44544-1.1136h-0.28577l-0.2806 0.7028-0.2806-0.7028z" color="#000000" color-rendering="auto" dominant-baseline="auto" image-rendering="auto" shape-rendering="auto" solid-color="#000000" stop-color="#000000" style="font-feature-settings:normal;font-variant-alternates:normal;font-variant-caps:normal;font-variant-east-asian:normal;font-variant-ligatures:normal;font-variant-numeric:normal;font-variant-position:normal;font-variation-settings:normal;inline-size:0;isolation:auto;mix-blend-mode:normal;shape-margin:0;shape-padding:0;text-decoration-color:#000000;text-decoration-line:none;text-decoration-style:solid;text-indent:0;text-orientation:mixed;text-transform:none;white-space:normal"/>
 </g>
</svg>
