<?xml version="1.0" encoding="UTF-8"?>
<svg width="24" height="24" version="1.1" viewBox="0 0 6.35 6.35" xmlns="http://www.w3.org/2000/svg" xmlns:cc="http://creativecommons.org/ns#" xmlns:dc="http://purl.org/dc/elements/1.1/" xmlns:rdf="http://www.w3.org/1999/02/22-rdf-syntax-ns#">
 <g transform="translate(0 -290.65)">
  <path d="m4.3754 291.79v5.2e-4c-0.078697-4e-3 -0.2792 0.0178-0.62632 0.25373-0.1936-0.0544-0.39943-0.0822-0.60513-0.0822-0.2057 0-0.41153 0.0277-0.60513 0.0822-0.46283-0.31159-0.66559-0.24805-0.66559-0.24805-0.1331 0.33275-0.047972 0.58083-0.023771 0.64131-0.15428 0.1694-0.24805 0.38742-0.24805 0.6506 0 0.84189 0.46518 1.0889 0.95446 1.1725 0 0-0.11834 0.0819-0.11834 0.25735-0.52917 0.14179-0.58549-0.52916-1.1147-0.26458-0.23665 0.11833-0.23665 0.38291 0 0.26458 0.52917-0.26458 0.33084 0.43339 1.0583 0.52917 0.06527 0.49578 0 0.60481-0.26458 0.75757-0.22914 0.1323 0.16668 0.14126 0.2651 0.1323 0.12165-0.0111 0.26947-0.0521 0.37827-0.13023-0.00252 0.0929-0.029877 0.17819-0.1142 0.26252-0.18709 0.18709 0.17276 0.16751 0.2651 0.13229 0.22179-0.0846 0.26407-0.13229 0.26407-0.66146 0 0.52917 0.042274 0.57686 0.26407 0.66146 0.09234 0.0352 0.45219 0.0548 0.2651-0.13229-0.084329-0.0843-0.11169-0.16962-0.1142-0.26252 0.10881 0.0781 0.25662 0.11914 0.37827 0.13023 0.098421 9e-3 0.49424 0 0.2651-0.1323-0.26458-0.15276-0.26458-0.2284-0.26458-0.62528 0-0.6126-0.074774-0.86183-0.18862-0.92656 0.4707-0.0918 0.9064-0.34954 0.9064-1.1648 0-0.2662-0.093255-0.4812-0.24753-0.6506 0.024199-0.0605 0.10882-0.30856-0.024288-0.64131 0 0-0.013041-4e-3 -0.039274-6e-3zm-1.7679 1.0986c0.17053 5e-3 0.36897 0.0419 0.56741 0.0419 0.52917 0 1.0583-0.26458 1.0583 0.52917 0 0.52917-0.52917 0.52917-1.0583 0.52917-0.52917 0-1.0583 0-1.0583-0.52917 0-0.49609 0.20671-0.57878 0.49093-0.57103zm-0.028939 0.33642a0.19844 0.29766 0 0 0-0.1974 0.29765 0.19844 0.29766 0 0 0 0.19844 0.29766 0.19844 0.29766 0 0 0 0.19844-0.29766 0.19844 0.29766 0 0 0-0.19844-0.29765 0.19844 0.29766 0 0 0-0.00103 0zm1.1906 0a0.19844 0.29766 0 0 0-0.1974 0.29765 0.19844 0.29766 0 0 0 0.19844 0.29766 0.19844 0.29766 0 0 0 0.19844-0.29766 0.19844 0.29766 0 0 0-0.19844-0.29765 0.19844 0.29766 0 0 0-0.00103 0z" stroke-linecap="round" stroke-linejoin="round" stroke-width=".85344" style="paint-order:stroke fill markers"/>
 </g>
</svg>
