<?xml version="1.0" encoding="UTF-8"?>
<svg width="24" height="24" version="1.1" viewBox="0 0 6.35 6.35" xmlns="http://www.w3.org/2000/svg" xmlns:cc="http://creativecommons.org/ns#" xmlns:dc="http://purl.org/dc/elements/1.1/" xmlns:rdf="http://www.w3.org/1999/02/22-rdf-syntax-ns#">
 <g transform="translate(0 -290.65)">
  <path d="m4.2031 296.21c-0.60476 0-0.60476-0.13229-0.84667-0.13229-0.2419 0-0.2419 0.13229-0.84667 0.13229-0.36286 0-1.4514-1.0583-1.4514-2.1167 0-0.72572 0.60476-1.5119 1.3305-1.5119 0.48799 0 0.63515 0.24191 0.96762 0.24191 0.33247 0 0.60476-0.24191 0.96762-0.24191 0.36286 0 0.64331 0.19475 0.84667 0.48381-0.83764 0.50355-0.64841 1.6254 0.12095 1.9352-0.21508 0.56477-0.72571 1.2095-1.0886 1.2095zm-0.76351-3.7042c-0.1312-0.48966 0.31991-1.0924 0.96762-1.2095 0.12599 0.66214-0.48381 1.2095-0.96762 1.2095z" stroke-width=".0048418"/>
 </g>
</svg>
