<?xml version="1.0" encoding="UTF-8"?>
<svg width="24" height="24" version="1.1" viewBox="0 0 6.35 6.35" xmlns="http://www.w3.org/2000/svg" xmlns:cc="http://creativecommons.org/ns#" xmlns:dc="http://purl.org/dc/elements/1.1/" xmlns:rdf="http://www.w3.org/1999/02/22-rdf-syntax-ns#">
 <g transform="translate(0 -290.65)" stroke-linecap="square" stroke-linejoin="bevel" stroke-width="1.0583">
  <path d="m2.929 292.09c-1.1799-9e-3 -1.6061 0.94103-1.6061 0.94103s-0.083686-0.26552 0.12609-0.84646c-0.42061 0.44252-0.65518 1.0297-0.65526 1.6402 0 1.3151 1.0661 2.3812 2.3812 2.3812s2.3812-1.0661 2.3812-2.3812c0-0.53203-0.17643-1.0216-0.47129-1.418 0 0 0.46558 1.8354-1.1421 2.0102-1.3152 0.14295-1.193-1.013-0.90018-1.3859-0.63286 0.19748-0.66146 0.79375-0.66146 0.79375s-0.044446-1.0814 0.79375-1.7198c-0.08546-0.01-0.16732-0.0144-0.24598-0.015z" style="paint-order:stroke fill markers"/>
  <path d="m3.1724 291.44c-0.5486 6.2e-4 -1.0802 0.19065-1.5048 0.53795 0 0 1.6429-0.81397 2.4779 0.13643 0.59451 0.67671 0.55474 1.4092 0.40282 1.8298 0.52622-0.52312 0.32435-1.6332 0.162-1.9414-0.41468-0.35051-0.94982-0.56276-1.5353-0.56276z" style="paint-order:stroke fill markers"/>
 </g>
</svg>
