<?xml version="1.0" encoding="UTF-8"?>
<svg width="24" height="24" version="1.1" viewBox="0 0 6.35 6.35" xmlns="http://www.w3.org/2000/svg" xmlns:cc="http://creativecommons.org/ns#" xmlns:dc="http://purl.org/dc/elements/1.1/" xmlns:rdf="http://www.w3.org/1999/02/22-rdf-syntax-ns#">
 <g transform="translate(0 -290.65)">
  <path transform="matrix(.26458 0 0 .26458 0 290.65)" d="m2 4c-1.108 0-2 0.89199-2 2v12c0 1.108 0.89202 2 2 2h20c1.108 0 2-0.89203 2-2v-12c0-1.108-0.89202-2-2-2zm7.6969 4.998-2.4785 6.002-1.3828-0.001906-1.0996-4.9864c-0.14291-0.53337-1.5037-0.39018-1.4219-1.0117h2.4277l0.92383 4.1992 1.7344-4.1992zm0.70703 0.0019531h1.2344l-1.3184 5.998h-1.2344zm7.8555 0h0.64648l1.248 5.998h-1.2266l-0.24805-1.1992h-1.873l-0.46094 1.1992-1.3453 0.001953 2.066-5.1992c0.31769-0.8239 0.8463-0.80078 1.1934-0.80078zm-3.8281 0.00781c0.47801 0.033865 0.97812 0.18655 1.4609 0.48438l-0.66992 1.0938c-0.82642-0.51031-1.6188-0.26519-1.9258 0.02734-0.15352 0.14665-0.16629 0.22878-0.15234 0.2832 0.01399 0.05386 0.10487 0.2368 0.57617 0.41406 0.73134 0.27549 1.2562 0.70894 1.4648 1.2832 0.20864 0.57426 0.02364 1.2066-0.36719 1.625-0.78166 0.83777-2.2691 1.078-3.873 0.33203l0.53906-1.1621c1.229 0.57271 2.1278 0.25316 2.3984-0.03711 0.13536-0.14513 0.14201-0.21486 0.10352-0.32031-0.03846-0.10564-0.20906-0.32633-0.7168-0.51758-0.70552-0.26581-1.2113-0.71151-1.3613-1.2949-0.15002-0.58333 0.10957-1.1559 0.50195-1.5293 0.49048-0.46745 1.2248-0.73833 2.0215-0.68164zm3.5938 1.6348-0.75391 1.957h1.1582z" stroke-linecap="round" stroke-linejoin="round" stroke-width="2" style="paint-order:stroke fill markers"/>
 </g>
</svg>
