<?xml version="1.0" encoding="UTF-8"?>
<svg width="24" height="24" version="1.1" viewBox="0 0 6.35 6.35" xmlns="http://www.w3.org/2000/svg" xmlns:cc="http://creativecommons.org/ns#" xmlns:dc="http://purl.org/dc/elements/1.1/" xmlns:rdf="http://www.w3.org/1999/02/22-rdf-syntax-ns#">
 <g transform="translate(0 -290.65)">
  <path transform="matrix(.26458 0 0 .26458 0 290.65)" d="m2 4c-1.108 0-2 0.89199-2 2v12c0 1.108 0.89202 2 2 2h20c1.108 0 2-0.89203 2-2v-12c0-1.108-0.89202-2-2-2h-20zm12.41 3c0.23077 1.2128-0.91267 2.2148-1.7988 2.2148-0.24031-0.89688 0.61246-2.0004 1.7988-2.2148zm-3.8633 2.3535c0.89381 0 1.1645 0.44336 1.7734 0.44336s1.1069-0.44336 1.7715-0.44336c0.66462 0 1.1783 0.3574 1.5508 0.88672-1.5342 0.92232-1.1865 2.9773 0.22266 3.5449-0.39395 1.0345-1.3295 2.2148-1.9941 2.2148-1.1077 0-1.1077-0.24219-1.5508-0.24219-0.44308 0-0.44308 0.24219-1.5508 0.24219-0.66462 0-2.6582-1.9384-2.6582-3.877 0-1.3293 1.1063-2.7695 2.4355-2.7695z" stroke-linecap="round" stroke-linejoin="round" stroke-width="2" style="paint-order:stroke fill markers"/>
 </g>
</svg>
