<?xml version="1.0" encoding="UTF-8"?>
<svg width="24" height="24" version="1.1" viewBox="0 0 6.35 6.35" xmlns="http://www.w3.org/2000/svg" xmlns:cc="http://creativecommons.org/ns#" xmlns:dc="http://purl.org/dc/elements/1.1/" xmlns:rdf="http://www.w3.org/1999/02/22-rdf-syntax-ns#">
 <g transform="translate(0 -290.65)">
  <path transform="matrix(.26458 0 0 .26458 0 290.65)" d="m19.844 1.2832a5 14 45 0 0-5.5273 2.0195 9 9 0 0 0-2.3164-0.30273 9 9 0 0 0-0.009766 0 9 9 0 0 0-8.8984 7.7148c4.5429-4.34 7.9414-5.0762 7.9414-5.0762-0.96613 0.78505-1.9411 1.6619-2.8984 2.6191-2.0285 2.0285-3.6945 4.1323-4.8906 6.0762-0.0054638 0.00888-0.012134 0.018472-0.017578 0.027344a5 14 45 0 0-1.4551 7.332 5 14 45 0 0 3.5742 0.3125 4.5 13.5 45 0 1-2.8672-0.3125 4.5 13.5 45 0 1 1.2051-6.25 9 9 0 0 0 8.3164 5.5566 9 9 0 0 0 8.7754-7h-5.8262c-0.23806 1.4207-1.4588 2.5-2.9492 2.5-1.662 0-3-1.338-3-3v-0.5h6 1 4.9434a9 9 0 0 0 0.056641-1 9 9 0 0 0-5.5059-8.2949 4.5 13.5 45 0 1 6.0762-1.1035 4.5 13.5 45 0 1 0.30859 2.8789 5 14 45 0 0-0.30859-3.5859 5 14 45 0 0-1.7266-0.61133zm-7.8438 6.2168c1.662 0 3 1.338 3 3v0.5h-6v-0.5c0-1.662 1.338-3 3-3z" stroke-linecap="square" stroke-opacity=".5283" stroke-width=".94868" style="paint-order:stroke fill markers"/>
 </g>
</svg>
