<?xml version="1.0" encoding="UTF-8"?>
<svg width="24" height="24" version="1.1" viewBox="0 0 6.35 6.35" xmlns="http://www.w3.org/2000/svg" xmlns:cc="http://creativecommons.org/ns#" xmlns:dc="http://purl.org/dc/elements/1.1/" xmlns:rdf="http://www.w3.org/1999/02/22-rdf-syntax-ns#">
 <g transform="translate(0 -290.65)">
  <path transform="matrix(.26458 0 0 .26458 0 290.65)" d="m11.99 3a9 9 0 0 0-8.9902 9 9 9 0 0 0 9 9 9 9 0 0 0 9-9 9 9 0 0 0-9-9 9 9 0 0 0-0.009766 0zm-0.083984 2a7 7 0 0 1 0.09375 0 7 7 0 0 1 7 7 7 7 0 0 1-7 7 7 7 0 0 1-7-7 7 7 0 0 1 6.9062-7zm1.1641 1.0742-0.51758 1.9336 0.96484 0.25781 0.51758-1.9316-0.96484-0.25977zm-2.1406 0.0019531-0.9668 0.25781 0.51758 1.9316 0.96875-0.25977-0.51953-1.9297zm-2.8184 1.3281-0.70703 0.70703 1.4121 1.4141 0.70898-0.70898-1.4141-1.4121zm8.1309 0.35352-5.6562 2.8281-2.8281 5.6562 5.6562-2.8281 2.8281-5.6562zm1.4238 2.2051-1.9316 0.51758 0.25977 0.96875 1.9297-0.51953-0.25781-0.9668zm-11.332 0.0019532-0.25977 0.96484 1.9336 0.51758 0.25781-0.96484-1.9316-0.51758zm4.959 1.3281 1.4141 1.4141-2.8281 1.4141 1.4141-2.8281zm-3.2871 1.2578-1.9297 0.51953 0.25781 0.9668 1.9316-0.51758-0.25977-0.96875zm7.9863 0.001953-0.25781 0.96484 1.9316 0.51758 0.25976-0.96484-1.9336-0.51758zm-0.80859 1.9219-0.70898 0.70898 1.4141 1.4121 0.70703-0.70703-1.4121-1.4141zm-4.7012 1.2598-0.51758 1.9316 0.96484 0.25976 0.51758-1.9316-0.96484-0.25977zm3.0371 0-0.96875 0.25977 0.51953 1.9297 0.9668-0.25781-0.51758-1.9316z" style="paint-order:stroke fill markers"/>
 </g>
</svg>
