<?xml version="1.0" encoding="UTF-8"?>
<svg width="24" height="24" version="1.1" viewBox="0 0 6.35 6.35" xmlns="http://www.w3.org/2000/svg" xmlns:cc="http://creativecommons.org/ns#" xmlns:dc="http://purl.org/dc/elements/1.1/" xmlns:rdf="http://www.w3.org/1999/02/22-rdf-syntax-ns#">
 <g transform="translate(0 -290.65)">
  <path d="m1.0986 295.38c0.15079 6e-3 1.0142 0.54984 2.2014 0.54984 1.0131 0 1.5467-0.44519 1.619-0.35089 0.072314 0.0942-0.6059 0.64441-1.619 0.64441-1.2664 0-2.2797-0.76216-2.2221-0.83716 0.0036-5e-3 0.010618-7e-3 0.02067-6e-3z" stroke-linecap="round" stroke-linejoin="round" stroke-width=".52917" style="paint-order:stroke fill markers"/>
  <path d="m5.0529 295.3c0.077275 5e-3 0.13989 0.0235 0.16898 0.0625 0.15088 0.20221-0.21124 0.70215-0.29249 0.69815-0.10696-5e-3 0.19766-0.42241 0.097152-0.56069-0.08009-0.1102-0.52878 0.0534-0.55294-0.0419-0.015891-0.0627 0.34747-0.17285 0.57929-0.15813z" stroke-linecap="round" stroke-linejoin="round" stroke-width=".52917" style="paint-order:stroke fill markers"/>
  <path d="m3.176 291.26-0.92708 0.51315v1.0118l0.92708 0.5147 0.92552-0.5147v-1.0118zm-0.50281 0.56999 0.50281 0.27906 0.50178-0.27906 0.15916 0.0879v0.12661l-0.52917 0.29404v0.59583l-0.13229 0.0734-0.13229-0.0734v-0.59583l-0.52917-0.29404v-0.12609z" style="paint-order:stroke markers fill"/>
  <path d="m4.2344 293.03-0.92708 0.51314v1.0118l0.92708 0.5147 0.92552-0.5147v-1.0118zm-0.50281 0.56999 0.50281 0.27905 0.50178-0.27905 0.15916 0.0879v0.12661l-0.52917 0.29403v0.59583l-0.13229 0.0734-0.13229-0.0734v-0.59583l-0.52917-0.29403v-0.12609z" style="paint-order:stroke markers fill"/>
  <path d="m2.1177 293.03-0.92708 0.51314v1.0118l0.92708 0.5147 0.92552-0.5147v-1.0118zm-0.50281 0.56999 0.50281 0.27905 0.50178-0.27905 0.15916 0.0879v0.12661l-0.52917 0.29403v0.59583l-0.13229 0.0734-0.13229-0.0734v-0.59583l-0.52917-0.29403v-0.12609z" style="paint-order:stroke markers fill"/>
 </g>
</svg>
