<?xml version="1.0" encoding="UTF-8"?>
<svg width="24" height="24" version="1.1" viewBox="0 0 6.35 6.35" xmlns="http://www.w3.org/2000/svg" xmlns:cc="http://creativecommons.org/ns#" xmlns:dc="http://purl.org/dc/elements/1.1/" xmlns:rdf="http://www.w3.org/1999/02/22-rdf-syntax-ns#">
 <g transform="translate(0 -290.65)">
  <path transform="matrix(.26458 0 0 .26458 0 290.65)" d="m11.99 3c-2.199 0.0030247-4.3208 0.81104-5.9648 2.2715l2.5586 4.6465c0.71492-1.1731 1.9818-1.8973 3.3555-1.918 0.060547 0 0.44726 0.014682 0.63867 0.042969l7.9375 1.043c-1.1806-3.5752-3.5156-6.0859-8.5254-6.0859zm-6.7715 3.084c-1.4302 1.6391-2.2184 3.7407-2.2188 5.916-6.26e-5 4.3147 3.0619 8.0223 7.2988 8.8379l2.1289-4.8613c-0.14206 0.015447-0.28484 0.023271-0.42773 0.023438-1.6169-7.86e-4 -3.0744-0.97498-3.6934-2.4688h-0.00195zm10.291 4c0.32122 0.58757 0.48978 1.2464 0.49023 1.916 2.26e-4 0.70208-0.18434 1.3919-0.53516 2l-4.0293 6.9805c0.1879 0.012414 0.37614 0.018927 0.56445 0.019531 4.9706 0 9-4.0294 9-9 1e-6 -0.60752-0.06151-1.2135-0.18359-1.8086z" style="paint-order:stroke fill markers"/>
  <circle cx="3.175" cy="293.82" r=".79375" stroke-linecap="square" stroke-width=".52917" style="paint-order:stroke fill markers"/>
 </g>
</svg>
