<?xml version="1.0" encoding="UTF-8"?>
<svg width="24" height="24" version="1.1" viewBox="0 0 6.35 6.35" xmlns="http://www.w3.org/2000/svg" xmlns:cc="http://creativecommons.org/ns#" xmlns:dc="http://purl.org/dc/elements/1.1/" xmlns:rdf="http://www.w3.org/1999/02/22-rdf-syntax-ns#">
 <g transform="translate(0 -290.65)">
  <path transform="matrix(.26458 0 0 .26458 0 290.65)" d="m2 4c-1.108 0-2 0.89199-2 2v12c0 1.108 0.89202 2 2 2h20c1.108 0 2-0.89203 2-2v-12c0-1.108-0.89202-2-2-2h-20zm17.098 6.5762c0.29206 0.018548 0.52873 0.088964 0.63867 0.23633 0.57024 0.76426-0.79837 2.6538-1.1055 2.6387-0.40428-0.020221 0.74706-1.5965 0.36719-2.1191-0.3027-0.4165-1.9985 0.20199-2.0898-0.1582-0.060061-0.23698 1.3133-0.6533 2.1895-0.59766zm-14.945 0.30273c0.56991 0.022909 3.8331 2.0781 8.3203 2.0781 3.8291 0 5.8458-1.6826 6.1191-1.3262 0.27331 0.35622-2.29 2.4355-6.1191 2.4355-4.7864 0-8.6162-2.8806-8.3984-3.1641 0.01361-0.017736 0.040131-0.024965 0.078125-0.023438z" stroke-linecap="round" stroke-linejoin="round" stroke-width="2" style="paint-order:stroke fill markers"/>
 </g>
</svg>
