<?xml version="1.0" encoding="UTF-8"?>
<svg width="24" height="24" version="1.1" viewBox="0 0 6.35 6.35" xmlns="http://www.w3.org/2000/svg" xmlns:cc="http://creativecommons.org/ns#" xmlns:dc="http://purl.org/dc/elements/1.1/" xmlns:rdf="http://www.w3.org/1999/02/22-rdf-syntax-ns#">
 <g transform="translate(0 -290.65)">
  <path transform="matrix(.26458 0 0 .26458 0 290.65)" d="m2 4c-1.108 0-2 0.89199-2 2v12c0 1.108 0.89202 2 2 2h20c1.108 0 2-0.89203 2-2v-12c0-1.108-0.89202-2-2-2h-20zm6.9395 4a4 4 0 0 1 0.060547 0 4 4 0 0 1 2.25 0.69336 5 5 0 0 0-1.25 3.3066 5 5 0 0 0 1.25 3.3066 4 4 0 0 1-2.25 0.69336 4 4 0 0 1-4-4 4 4 0 0 1 3.9395-4zm6 0a4 4 0 0 1 0.060547 0 4 4 0 0 1 4 4 4 4 0 0 1-4 4 4 4 0 0 1-2.25-0.69336 5 5 0 0 0 1.25-3.3066 5 5 0 0 0-1.25-3.3066 4 4 0 0 1 2.1895-0.69336zm-2.9395 1.3555a4 4 0 0 1 1 2.6445 4 4 0 0 1-1 2.6445 4 4 0 0 1-1-2.6445 4 4 0 0 1 1-2.6445z" stroke-linecap="round" stroke-linejoin="round" stroke-width="2" style="paint-order:stroke fill markers"/>
 </g>
</svg>
