<?xml version="1.0" encoding="UTF-8"?>
<svg width="24" height="24" version="1.1" viewBox="0 0 6.35 6.35" xmlns="http://www.w3.org/2000/svg" xmlns:cc="http://creativecommons.org/ns#" xmlns:dc="http://purl.org/dc/elements/1.1/" xmlns:rdf="http://www.w3.org/1999/02/22-rdf-syntax-ns#">
 <g transform="translate(0 -290.65)">
  <path transform="matrix(.26458 0 0 .26458 0 290.65)" d="m11.98 2a10 10 0 0 0-9.9805 10 10 10 0 0 0 10 10 10 10 0 0 0 10-10 10 10 0 0 0-10-10 10 10 0 0 0-0.019531 0zm0.019531 2a8 8 0 0 1 8 8 8 8 0 0 1-8 8 8 8 0 0 1-8-8 8 8 0 0 1 8-8zm4.5371 3.6914c-0.29744-0.015158-1.0552 0.067092-2.3672 0.95898-0.73172-0.20561-1.5097-0.31055-2.2871-0.31055-0.77745 0-1.5554 0.10456-2.2871 0.31055-1.7493-1.1777-2.5156-0.9375-2.5156-0.9375-0.50306 1.2576-0.18131 2.1952-0.089844 2.4238-0.58309 0.64025-0.9375 1.4643-0.9375 2.459 0 3.4985 2.1251 4.287 4.1602 4.5156h3.3281c2.0351-0.22866 4.1719-1.0057 4.1719-4.5156 0-1.0061-0.35246-1.8187-0.93555-2.459 0.091464-0.22866 0.41126-1.1662-0.091797-2.4238 0 0-0.049291-0.016432-0.14844-0.021484zm-6.6816 4.1504c0.64453 0.017582 1.3945 0.1582 2.1445 0.1582 2 0 4-1 4 2 0 2-2 2-4 2-2 0-4 1.3e-5 -4-2 0-1.875 0.78125-2.1875 1.8555-2.1582zm-0.10938 0.9082a0.75 1.125 0 0 0-0.74609 1.125 0.75 1.125 0 0 0 0.75 1.125 0.75 1.125 0 0 0 0.75-1.125 0.75 1.125 0 0 0-0.75-1.125 0.75 1.125 0 0 0-0.0039062 0zm4.5 0a0.75 1.125 0 0 0-0.74609 1.125 0.75 1.125 0 0 0 0.75 1.125 0.75 1.125 0 0 0 0.75-1.125 0.75 1.125 0 0 0-0.75-1.125 0.75 1.125 0 0 0-0.003906 0z" stroke-linecap="round" stroke-linejoin="round" stroke-width="3.2256" style="paint-order:stroke fill markers"/>
 </g>
</svg>
