<?xml version="1.0" encoding="UTF-8"?>
<svg width="24" height="24" version="1.1" viewBox="0 0 6.35 6.35" xmlns="http://www.w3.org/2000/svg" xmlns:cc="http://creativecommons.org/ns#" xmlns:dc="http://purl.org/dc/elements/1.1/" xmlns:rdf="http://www.w3.org/1999/02/22-rdf-syntax-ns#">
 <g transform="translate(0 -290.65)">
  <path d="m3.1727 291.44h0.00235c0.63151 9e-5 1.2371 0.25104 1.6836 0.69763l-0.74879 0.74879c-0.24805-0.24809-0.58399-0.38829-0.93482-0.38834-0.73063 0-1.3232 0.59252-1.3232 1.3232 0 0.73061 0.59255 1.3232 1.3232 1.3232 0.52597-7e-5 1.0023-0.31207 1.2127-0.79414h-0.6837v-1.0581h1.7929c0.03954 0.17361 0.059341 0.35106 0.059299 0.52904 0 1.3151-1.0661 2.3812-2.3812 2.3812-1.3151 0-2.3812-1.0661-2.3812-2.3812 0-1.3141 1.0648-2.3798 2.3789-2.3812z"/>
 </g>
</svg>
