<?xml version="1.0" encoding="UTF-8"?>
<svg width="24" height="24" version="1.1" viewBox="0 0 6.35 6.35" xmlns="http://www.w3.org/2000/svg" xmlns:cc="http://creativecommons.org/ns#" xmlns:dc="http://purl.org/dc/elements/1.1/" xmlns:rdf="http://www.w3.org/1999/02/22-rdf-syntax-ns#">
 <g transform="translate(0 -290.65)">
  <path d="m2.3812 295.94c-1.3229 0-1.5713-0.3492-1.8521-0.52917 0.79375 0.21268 1.2358-0.11701 1.6074-0.40826 0 0-1.0782 0.14368-1.0782-0.65007 0.26458 0.10959 0.52917 0 0.52917 0s-1.0583-0.26459-0.92604-1.0583c0.26373 0.20239 0.66146 0.13229 0.66146 0.13229s-0.94034-0.39687-0.79375-1.4552c1.7168 0.93704 1.7435 0.95584 2.6458 1.0012-0.18117-0.72063 0.26458-1.2658 1.0583-1.2658 0.31231 0 0.66051 0.13199 0.85862 0.34302 0.26585 0.0712 0.66273-0.0123 0.66273-0.0123s-0.11643 0.24656-0.26458 0.33073c0.12285 0.0224 0.33073-0.0661 0.33073-0.0661s-0.023946 0.17131-0.43498 0.47596c0.27697 2.1038-1.6817 3.1621-3.0046 3.1621z" stroke-width=".017757"/>
 </g>
</svg>
