<?xml version="1.0" encoding="UTF-8"?>
<svg width="24" height="24" version="1.1" viewBox="0 0 6.35 6.35" xmlns="http://www.w3.org/2000/svg" xmlns:cc="http://creativecommons.org/ns#" xmlns:dc="http://purl.org/dc/elements/1.1/" xmlns:rdf="http://www.w3.org/1999/02/22-rdf-syntax-ns#">
 <g transform="translate(0 -290.65)">
  <path transform="matrix(.26458 0 0 .26458 0 290.65)" d="m2 4c-1.108 0-2 0.89199-2 2v12c0 1.108 0.89202 2 2 2h20c1.108 0 2-0.89203 2-2v-12c0-1.108-0.89202-2-2-2zm2.1875 2h1.875l2.1875 5h-1.875l-0.33398-1h-1.832l-0.33398 1h-1.875zm4.8125 0h2l1 3.5 1-3.5h2v5h-1.5v-3l-1 3h-1l-1-3v3h-1.5zm-3.875 1.25-0.58398 1.75h1.168zm5.875 5.75h4v1h-2.5v1h2.5v1h-2.5v1h2.5v1h-4v-3zm5 0h1.5664l1.4336 1.793 1.4336-1.793h1.5664l-1.9375 2.5 1.9375 2.5h-1.5664l-1.4336-1.793-1.4336 1.793h-1.5664l1.9375-2.5z" stroke-linecap="round" stroke-linejoin="round" stroke-width="2" style="paint-order:stroke fill markers"/>
 </g>
</svg>
