<?xml version="1.0" encoding="UTF-8"?>
<svg width="24" height="24" version="1.1" viewBox="0 0 6.35 6.35" xmlns="http://www.w3.org/2000/svg" xmlns:cc="http://creativecommons.org/ns#" xmlns:dc="http://purl.org/dc/elements/1.1/" xmlns:rdf="http://www.w3.org/1999/02/22-rdf-syntax-ns#">
 <g transform="translate(0 -290.65)" stroke-linecap="round" stroke-linejoin="bevel" stroke-width=".21167">
  <path d="m4.5794 292.62c-0.00451 0.0602-0.011218 0.12066-0.019844 0.18149-0.037641 0.26546-0.11086 0.52279-0.23606 0.71561-0.25479 0.3924-0.73632 0.51884-1.0794 0.51884h-0.4502l-0.16702 1.2704h-0.32081l-0.083509 0.635h0.85411l0.16702-1.27h0.635c0.27614 0 0.71268-0.13102 0.90248-0.42332 0.1898-0.29232 0.29808-0.96382 0.16702-1.27-0.077324-0.18066-0.1997-0.29421-0.36876-0.35802z" style="paint-order:stroke fill markers"/>
  <path d="m2.0332 291.71-0.44566 3.3867h0.85411l0.16702-1.27h0.635c0.27614 0 0.71268-0.13102 0.90248-0.42333 0.1898-0.29231 0.29808-0.96381 0.16702-1.27-0.13106-0.3062-0.38783-0.42334-0.79085-0.42334z" style="paint-order:stroke fill markers"/>
 </g>
</svg>
