<?xml version="1.0" encoding="UTF-8"?>
<svg width="24" height="24" version="1.1" viewBox="0 0 6.35 6.35" xmlns="http://www.w3.org/2000/svg" xmlns:cc="http://creativecommons.org/ns#" xmlns:dc="http://purl.org/dc/elements/1.1/" xmlns:rdf="http://www.w3.org/1999/02/22-rdf-syntax-ns#">
 <g transform="translate(0 -290.65)">
  <path transform="matrix(.26458 0 0 .26458 0 290.65)" d="m10.998 6.0039v6.4961l4.4004 3.2988 1.2031-1.6016-3.6035-2.6953v-5.498z" style="paint-order:fill markers stroke"/>
  <path d="m5.5562 291.18v1.5875h-1.5875v-0.52917h0.60616a2.1167 2.1167 0 0 0-1.3999-0.52917 2.1167 2.1167 0 0 0-2.1167 2.1167 2.1167 2.1167 0 0 0 2.1167 2.1167 2.1167 2.1167 0 0 0 2.1167-2.1167 2.1167 2.1167 0 0 0-0.067179-0.52917h0.5426a2.6458 2.6458 0 0 1 0.053744 0.52917 2.6458 2.6458 0 0 1-2.6458 2.6458 2.6458 2.6458 0 0 1-2.6458-2.6458 2.6458 2.6458 0 0 1 2.6458-2.6458 2.6458 2.6458 0 0 1 1.8521 0.75654v-0.75654z" style="paint-order:fill markers stroke"/>
 </g>
</svg>
