<?xml version="1.0" encoding="UTF-8"?>
<svg width="24" height="24" version="1.1" viewBox="0 0 6.35 6.35" xmlns="http://www.w3.org/2000/svg" xmlns:cc="http://creativecommons.org/ns#" xmlns:dc="http://purl.org/dc/elements/1.1/" xmlns:rdf="http://www.w3.org/1999/02/22-rdf-syntax-ns#">
 <g transform="translate(0 -290.65)">
  <path d="m3.7042 291.18c1.4613 0 2.6458 1.1846 2.6458 2.6458-1.8e-6 1.4612-1.1846 2.6458-2.6458 2.6458-0.73063 0-1.3919-0.29633-1.8707-0.77514l-1.8335-1.8707 1.8335-1.8707c0.4788-0.47881 1.1401-0.77514 1.8707-0.77514zm0 0.52916c-0.5845 0-1.1135 0.23708-1.4965 0.62012l-1.4593 1.4966 1.4583 1.4976 0.00103-1e-3c0.38304 0.38304 0.91205 0.62012 1.4965 0.62012 1.169 0 2.1167-0.94767 2.1167-2.1167 1.8e-6 -1.169-0.94766-2.1167-2.1167-2.1167z" style="paint-order:fill markers stroke"/>
  <path d="m3.4392 292.24v1.7188l1.1641 0.87305 0.31836-0.42383-0.95312-0.71289v-1.4551z" color="#000000" color-rendering="auto" dominant-baseline="auto" image-rendering="auto" shape-rendering="auto" solid-color="#000000" style="font-feature-settings:normal;font-variant-alternates:normal;font-variant-caps:normal;font-variant-ligatures:normal;font-variant-numeric:normal;font-variant-position:normal;isolation:auto;mix-blend-mode:normal;shape-padding:0;text-decoration-color:#000000;text-decoration-line:none;text-decoration-style:solid;text-indent:0;text-orientation:mixed;text-transform:none;white-space:normal"/>
 </g>
</svg>
