<?xml version="1.0" encoding="UTF-8"?>
<svg width="24" height="24" version="1.1" viewBox="0 0 6.35 6.35" xmlns="http://www.w3.org/2000/svg" xmlns:cc="http://creativecommons.org/ns#" xmlns:dc="http://purl.org/dc/elements/1.1/" xmlns:rdf="http://www.w3.org/1999/02/22-rdf-syntax-ns#">
 <g transform="translate(0 -290.65)">
  <path transform="matrix(.26458 0 0 .26458 0 290.65)" d="m11 3v2.127c-1.7661 0.456-3 2.049-3 3.873-1e-7 2.2091 1.7909 4 4 4 1.1046 1.5e-5 2 0.89544 2 2-1.5e-5 1.1046-0.89544 2-2 2-1.1046-1.5e-5 -2-0.89544-2-2-3.9e-5 -0.27129 0.05512-0.53976 0.16211-0.78906l-1.8379-0.78711c-0.21373 0.498-0.32403 1.0342-0.32422 1.5762 8.612e-4 1.8233 1.2346 3.4153 3 3.8711v2.1289h2v-2.127c1.7661-0.456 3-2.049 3-3.873 0-2.2091-1.7909-4-4-4-1.1046-1.5e-5 -2-0.89544-2-2 1.5e-5 -1.1046 0.89544-2 2-2 1.1046 1.51e-5 2 0.89544 2 2 3.9e-5 0.27129-0.05512 0.53976-0.16211 0.78906l1.8379 0.78711c0.21373-0.498 0.32403-1.0342 0.32422-1.5762-8.61e-4 -1.8233-1.2346-3.4153-3-3.8711v-2.1289z" stroke-linecap="round" stroke-linejoin="round" stroke-width="4" style="paint-order:stroke fill markers"/>
 </g>
</svg>
