<?xml version="1.0" encoding="UTF-8"?>
<svg width="24" height="24" version="1.1" viewBox="0 0 6.35 6.35" xmlns="http://www.w3.org/2000/svg" xmlns:cc="http://creativecommons.org/ns#" xmlns:dc="http://purl.org/dc/elements/1.1/" xmlns:rdf="http://www.w3.org/1999/02/22-rdf-syntax-ns#">
 <g transform="translate(0 -290.65)">
  <path transform="matrix(.26458 0 0 .26458 0 290.65)" d="m4.9395 5.6562-1.875 0.68555 1.2344 3.6582h-2.2988v2h2.9746l0.67578 2h-3.6504v2h4.3242l0.67578 2h2l0.89062-2h4.2207l0.88867 2h2l0.67578-2h4.3242v-2h-3.6465l0.67578-2h2.9707v-2h-2.2949l1.2383-3.6582-1.8828-0.68555-1.5781 4.3438h-3.5645l-0.91797-2h-2l-0.91992 2h-3.5625l-1.5781-4.3438zm2.3047 6.3438h1.916l-0.91797 2h-0.27148l-0.72656-2zm4.4258 0h0.66602l0.88867 2h-2.4453l0.89062-2zm3.168 0h1.918l-0.72852 2h-0.27148l-0.91797-2z" color="#000000" color-rendering="auto" dominant-baseline="auto" image-rendering="auto" shape-rendering="auto" solid-color="#000000" stop-color="#000000" style="font-feature-settings:normal;font-variant-alternates:normal;font-variant-caps:normal;font-variant-east-asian:normal;font-variant-ligatures:normal;font-variant-numeric:normal;font-variant-position:normal;font-variation-settings:normal;inline-size:0;isolation:auto;mix-blend-mode:normal;shape-margin:0;shape-padding:0;text-decoration-color:#000000;text-decoration-line:none;text-decoration-style:solid;text-indent:0;text-orientation:mixed;text-transform:none;white-space:normal"/>
 </g>
</svg>
