<?xml version="1.0" encoding="UTF-8"?>
<svg width="24" height="24" version="1.1" viewBox="0 0 6.35 6.35" xmlns="http://www.w3.org/2000/svg" xmlns:cc="http://creativecommons.org/ns#" xmlns:dc="http://purl.org/dc/elements/1.1/" xmlns:rdf="http://www.w3.org/1999/02/22-rdf-syntax-ns#">
 <g transform="translate(0 -290.65)">
  <path transform="matrix(.26458 0 0 .26458 0 290.65)" d="m2 4c-1.108 0-2 0.89203-2 2v12c0 1.108 0.89202 2 2 2h20c1.108 0 2-0.89199 2-2v-12c0-1.108-0.89202-2-2-2zm0 2h20v12h-20zm2.9609 4c-0.53199 0-0.96094 0.42893-0.96094 0.96094v1.0781c0 0.53201 0.42895 0.96094 0.96094 0.96094h2.0781c0.53199 0 0.96094-0.42893 0.96094-0.96094v-1.0781c0-0.53201-0.42895-0.96094-0.96094-0.96094zm-0.96094 4v1h3v-1zm4 0v1h3v-1zm4 0v1h3v-1zm4 0v1h3v-1z" stroke-linecap="round" stroke-linejoin="round" stroke-width="2" style="paint-order:stroke fill markers"/>
 </g>
</svg>
