<?xml version="1.0" encoding="UTF-8"?>
<svg width="24" height="24" version="1.1" viewBox="0 0 6.35 6.35" xmlns="http://www.w3.org/2000/svg" xmlns:cc="http://creativecommons.org/ns#" xmlns:dc="http://purl.org/dc/elements/1.1/" xmlns:rdf="http://www.w3.org/1999/02/22-rdf-syntax-ns#">
 <g transform="translate(0 -290.65)">
  <path transform="matrix(.26458 0 0 .26458 0 290.65)" d="m6 4c-1.108 0-2 0.89203-2 2v7c0 1.108 0.89202 2 2 2h5c0 2-2 2-2 2v1h6v-1s-2 1.3e-5 -2-2h5c1.108 0 2-0.89203 2-2v-7c0-1.108-0.89202-2-2-2h-12zm0 2h12v7h-12v-7zm0 14v2h12v-2h-12zm15 0c-0.55399 0-1 0.446-1 1v1h2v-1c0-0.554-0.44601-1-1-1z" style="paint-order:fill markers stroke"/>
 </g>
</svg>
