<?xml version="1.0" encoding="UTF-8"?>
<svg width="24" height="24" version="1.1" viewBox="0 0 6.35 6.35" xmlns="http://www.w3.org/2000/svg" xmlns:cc="http://creativecommons.org/ns#" xmlns:dc="http://purl.org/dc/elements/1.1/" xmlns:rdf="http://www.w3.org/1999/02/22-rdf-syntax-ns#">
 <g transform="translate(0 -290.65)">
  <path transform="matrix(.26458 0 0 .26458 0 290.65)" d="m12 7a5 5 0 0 0-2.998 1h-5.002c-1.108 0-2 0.89203-2 2v4c0 1.108 0.89202 2 2 2h2v1h2v-1h1a5 5 0 0 0 3 1 5 5 0 0 0 2.998-1h1.002v1h2v-1h2c1.108 0 2-0.89203 2-2v-4c0-1.108-0.89202-2-2-2h-5a5 5 0 0 0-3-1zm-0.052734 2a3 3 0 0 1 0.001953 0 3 3 0 0 1 0.050781 0 3 3 0 0 1 3 3 3 3 0 0 1-3 3 3 3 0 0 1-3-3 3 3 0 0 1 2.9473-3zm-7.9473 1h3.418a5 5 0 0 0-0.41797 2 5 5 0 0 0 0.41797 2h-3.418v-4zm12.582 0h3.418v4h-3.418a5 5 0 0 0 0.41797-2 5 5 0 0 0-0.41797-2zm-4.582 0.5a1.5 1.5 0 0 0-1.5 1.5 1.5 1.5 0 0 0 1.5 1.5 1.5 1.5 0 0 0 1.5-1.5 1.5 1.5 0 0 0-1.5-1.5z" style="paint-order:fill markers stroke"/>
 </g>
</svg>
