<?xml version="1.0" encoding="UTF-8"?>
<svg width="24" height="24" version="1.1" viewBox="0 0 6.35 6.35" xmlns="http://www.w3.org/2000/svg" xmlns:cc="http://creativecommons.org/ns#" xmlns:dc="http://purl.org/dc/elements/1.1/" xmlns:rdf="http://www.w3.org/1999/02/22-rdf-syntax-ns#">
 <g transform="translate(0 -290.65)">
  <path transform="matrix(.26458 0 0 .26458 0 290.65)" d="m2 4v1h2v2h-2v1h2v8h-2v1h2v2h-2v1h20v-1h-2v-2h2v-1h-2v-8h2v-1h-2v-2h2v-1zm6 1h2v2h-2zm6 0h2v2h-2zm-8 3h12v8h-12zm2 9h2v2h-2zm6 0h2v2h-2z" style="paint-order:fill markers stroke"/>
 </g>
</svg>
