<?xml version="1.0" encoding="UTF-8"?>
<svg width="24" height="24" version="1.1" viewBox="0 0 6.35 6.35" xmlns="http://www.w3.org/2000/svg" xmlns:cc="http://creativecommons.org/ns#" xmlns:dc="http://purl.org/dc/elements/1.1/" xmlns:rdf="http://www.w3.org/1999/02/22-rdf-syntax-ns#">
 <g transform="translate(0 -290.65)">
  <path transform="matrix(.26458 0 0 .26458 0 290.65)" d="m14.227 3c-1.1344 0.14934-1.1126 1.2122-1.1582 1.8262 0 0-0.57621-0.15931-1.0684 0.17383-0.58555 0.39636-1 1-1 1 0.47414-0.00298 0.9619-0.033171 1.6406-0.44531 0 0-0.80082 2.6015-1.7696 3.7456 0 0 0.19173 0.2785 0.35994 0.27585-0.03274 0.30185-0.02553 0.3997-0.01172 0.43164-1.0167 0.26953-1.2428 0.058554-2.2193-0.007812-1.4231-0.089731-2.3717 0.29493-3 1 0 0-2.2037 0.30936-3 1-1.1262 0.97672-2 4-2 4s2.0706-1.238 3-2c0.72911-0.59773 2-2 2-2v2c-0.96972 0.48484-1.455 1.2603-2 2-0.58787 0.83637-1 2-1 2l2 2c0.17769-1.0824 0.33546-2.1753 1-3 0.51731-0.77868 1.2513-1.3949 2-2l-1 2c0.8112 0.6551 1.8752 1.29 2 2v1h2v-1c-0.35336-0.94516-1.1204-1.5226-2-2 0.68703-0.80999 1.3965-1.4103 2-3l2 1h1c-0.67289 0.91915-0.94453 1.9338-1 3 0.50906 0.59972 1.0873 1.1731 1 2h2c-0.05399-0.86385-0.44663-1.4887-1-2 0.10997-0.75176 0.28079-1.4803 1-2 0.96221-0.09824 1.8971-0.26741 3 0-0.08649 0.95149-0.53883 1.4808-1 2l2 2 1-4s-1-2-3-2c0.80576-0.61828 0.02419-1.8228 1-4 0.60047 0.30921 1.2525 0.89694 2 2l1-1s-1-4-2-4c0 0-2.2969 0.046862-3.2344 1.8438-1.7734-0.52663-2.0123-1.2216-2.3848-1.5664 0.18568 0.08621 0.75439-0.64447-0.38086-1.7383l0.09848-0.15555s0.72138-0.11113 0.90152-0.38352c0.18387-0.27804 0-1 0-1h0.35938c-0.58714-0.43292-0.49206-0.92533-1.1328-1zm-0.22656 5.1875c0.49471 0.43284 0.97409 1.0747 2.0938 1.1484-0.69928 0.45412-1.0894 0.60091-2.0938 0.66406-0.36583-0.68086-0.23265-1.1606 0-1.8125z"/>
 </g>
</svg>
