<?xml version="1.0" encoding="UTF-8"?>
<svg width="24" height="24" version="1.1" viewBox="0 0 6.35 6.35" xmlns="http://www.w3.org/2000/svg" xmlns:cc="http://creativecommons.org/ns#" xmlns:dc="http://purl.org/dc/elements/1.1/" xmlns:rdf="http://www.w3.org/1999/02/22-rdf-syntax-ns#">
 <g transform="translate(0 -290.65)">
  <path transform="matrix(.26458 0 0 .26458 0 290.65)" d="m2 4v16h20v-16h-20zm2 2h16v8.2344l-3-0.74609-3.8828 0.9668-5.1152-4.0977-4.002 3.2012v-7.5586zm12.951 1a2 2 0 0 0-1.9512 2 2 2 0 0 0 2 2 2 2 0 0 0 2-2 2 2 0 0 0-2-2 2 2 0 0 0-0.048828 0zm0.048828 1a1 1 0 0 1 1 1 1 1 0 0 1-1 1 1 1 0 0 1-1-1 1 1 0 0 1 1-1zm-8.998 3.6426 4.8789 3.9043 4.1191-1.0332 3 0.75391v2.7324h-16v-3.1562l4.002-3.2012z" stroke-linecap="square" stroke-linejoin="round" style="paint-order:stroke fill markers"/>
 </g>
</svg>
