<?xml version="1.0" encoding="UTF-8"?>
<svg width="24" height="24" version="1.1" viewBox="0 0 6.35 6.35" xmlns="http://www.w3.org/2000/svg" xmlns:cc="http://creativecommons.org/ns#" xmlns:dc="http://purl.org/dc/elements/1.1/" xmlns:rdf="http://www.w3.org/1999/02/22-rdf-syntax-ns#">
 <g transform="translate(0 -290.65)">
  <path transform="matrix(.26458 0 0 .26458 0 290.65)" d="m11.98 2c-5.5152 0.010772-9.9805 4.4848-9.9805 10 0 5.5228 4.4772 10 10 10 5.5228 0 10-4.4772 10-10 0-5.5228-4.4772-10-10-10zm0.019531 2c1.1349 2.223e-4 2.2567 0.2419 3.291 0.70898l-2.291 2.291 0.5 1 1.5 1v-2l1-1v3.5h-1l-1.5-1-2 2.5 0.5 1-1.5 0.5v1.5h1.5l1-2 1.5 1.5 1.5 0.5 0.5-1 0.5 1 1.5 0.5-1 1-3.5-0.5-0.5-1-3 0.5-1 4 0.64062 1.2812c-3.6008-0.86046-6.1408-4.0791-6.1406-7.7812 1.053e-4 -2.2171 0.9203-4.3348 2.541-5.8477l0.45898-0.15234 2-1 0.25781-0.51562c0.87872-0.32052 1.8068-0.48446 2.7422-0.48438zm-3 1.5-0.5 1 0.5 0.5 1.5-1zm2 3.5-1 0.5 1 1 1-0.5-0.5-2zm8 2.5 0.5 1-2.5 0.5v-1z" fill-opacity=".947" style="paint-order:stroke fill markers"/>
 </g>
</svg>
