<?xml version="1.0" encoding="UTF-8"?>
<svg width="24" height="24" version="1.1" viewBox="0 0 6.35 6.35" xmlns="http://www.w3.org/2000/svg" xmlns:cc="http://creativecommons.org/ns#" xmlns:dc="http://purl.org/dc/elements/1.1/" xmlns:rdf="http://www.w3.org/1999/02/22-rdf-syntax-ns#">
 <g transform="translate(0 -290.65)">
  <path transform="matrix(.26458 0 0 .26458 0 290.65)" d="m11.98 2c-5.5152 0.010772-9.9805 4.4848-9.9805 10 0 5.5228 4.4772 10 10 10 5.5228 0 10-4.4772 10-10 0-5.5228-4.4772-10-10-10zm-0.65625 2.0293-0.32422 0.9707-2 1v0.5h1l1-0.5 3 1v0.5l2 2 2.5-1 1 2.5h0.43555c0.04236 0.33166 0.06389 0.66565 0.06445 1-4e-6 4.4183-3.5817 8-8 8-2.8632 2.1e-4 -5.5082-1.5297-6.9355-4.0117l0.43555-3.4883-1.4434-1.4434c0.44802-3.7702 3.4844-6.7063 7.2676-7.0273zm2.6758 3.4707-5-0.5-1.5 3 1.5 1.5 2.5 0.5-0.5 2.5 1 2h1.5l2-2.5 1.5-4-1 0.5zm2.5 6.5-1 1 0.5 0.5z" fill-opacity=".947" style="paint-order:stroke fill markers"/>
 </g>
</svg>
