<?xml version="1.0" encoding="UTF-8"?>
<svg width="24" height="24" version="1.1" viewBox="0 0 6.35 6.35" xmlns="http://www.w3.org/2000/svg" xmlns:cc="http://creativecommons.org/ns#" xmlns:dc="http://purl.org/dc/elements/1.1/" xmlns:rdf="http://www.w3.org/1999/02/22-rdf-syntax-ns#">
 <g transform="translate(0 -290.65)">
  <path transform="matrix(.26458 0 0 .26458 0 290.65)" d="m11.98 2a10 10 0 0 0-9.9805 10 10 10 0 0 0 9.9805 10 5 10 0 0 0 0.019531 0 10 10 0 0 0 10-10 10 10 0 0 0-9.9805-10 5 10 0 0 0-0.019531 0 10 10 0 0 0-0.019531 0zm-0.48047 2.0156v3.9805a19 9 0 0 1-3.0488-0.15625 4 9 0 0 1 1.5039-3.5742 8 8 0 0 1 1.5449-0.25zm1 0a8 8 0 0 1 1.5449 0.25195 4 9 0 0 1 1.502 3.5723 19 9 0 0 1-3.0469 0.15625v-3.9805zm-3.9648 0.77344a5 10 0 0 0-1.0586 2.9512 19 9 0 0 1-2.0508-0.29688 8 8 0 0 1 3.1094-2.6543zm6.9297 0a8 8 0 0 1 3.1094 2.6543 19 9 0 0 1-2.0508 0.29883 5 10 0 0 0-1.0586-2.9531zm-10.58 3.5566a20 10 0 0 0 2.3945 0.37109 5 10 0 0 0-0.2793 3.2832 5 10 0 0 0 0.27734 3.2832 20 10 0 0 0-2.3926 0.37109 8 8 0 0 1-0.88477-3.6543 8 8 0 0 1 0.88477-3.6543zm14.23 0a8 8 0 0 1 0.88477 3.6543 8 8 0 0 1-0.88477 3.6543 20 10 0 0 0-2.3945-0.37109 5 10 0 0 0 0.2793-3.2832 5 10 0 0 0-0.27734-3.2832 20 10 0 0 0 2.3926-0.37109zm-10.857 0.47852a20 10 0 0 0 3.2422 0.17188v6.0078a20 10 0 0 0-3.2422 0.17383 4 9 0 0 1-0.25781-3.1777 4 9 0 0 1 0.25781-3.1758zm7.4844 0a4 9 0 0 1 0.25781 3.1758 4 9 0 0 1-0.25781 3.1758 20 10 0 0 0-3.2422-0.17188v-6.0078a20 10 0 0 0 3.2422-0.17188zm-4.2422 7.1797v3.9805a8 8 0 0 1-1.5449-0.25195 4 9 0 0 1-1.502-3.5723 19 9 0 0 1 3.0469-0.15625zm1 0a19 9 0 0 1 3.0469 0.15625 4 9 0 0 1-1.5039 3.5742 8 8 0 0 1-1.543 0.25v-3.9805zm-5.0234 0.25391a5 10 0 0 0 1.0586 2.9531 8 8 0 0 1-3.1094-2.6543 19 9 0 0 1 2.0508-0.29883zm9.0469 0.001954a19 9 0 0 1 2.0508 0.29688 8 8 0 0 1-3.1094 2.6543 5 10 0 0 0 1.0586-2.9512z" stroke-linecap="square" stroke-linejoin="bevel" stroke-width="4.4721" style="paint-order:stroke fill markers"/>
 </g>
</svg>
