<?xml version="1.0" encoding="UTF-8"?>
<svg width="24" height="24" version="1.1" viewBox="0 0 6.35 6.35" xmlns="http://www.w3.org/2000/svg" xmlns:cc="http://creativecommons.org/ns#" xmlns:dc="http://purl.org/dc/elements/1.1/" xmlns:rdf="http://www.w3.org/1999/02/22-rdf-syntax-ns#">
 <g transform="translate(0 -290.65)">
  <path transform="matrix(.26458 0 0 .26458 0 290.65)" d="m11.98 2a10 10 0 0 0-9.9805 10 10 10 0 0 0 10 10 10 10 0 0 0 10-10 10 10 0 0 0-10-10 10 10 0 0 0-0.019531 0zm0.019531 2a8 8 0 0 1 0.71484 0.03125c0.15467 0.33062 0.30779 0.71674 0.44726 1.1816 0.2308 0.76932 0.42156 1.7115 0.56641 2.75a19 9 0 0 1-1.7285 0.037109 19 9 0 0 1-1.7266-0.039062c0.14304-1.0376 0.33185-1.9792 0.5625-2.748 0.13908-0.46359 0.29108-0.84958 0.44531-1.1797a8 8 0 0 1 0.71875-0.033203zm1.8867 0.22461a8 8 0 0 1 1.7988 0.67578 6 9 0 0 1 1.5664 2.748 19 9 0 0 1-2.5156 0.25781 3 10 0 0 0-0.84961-3.6816zm-3.7715 0.0019531a3 10 0 0 0-0.85156 3.6797 19 9 0 0 1-2.5137-0.25781 6 9 0 0 1 1.5625-2.748 8 8 0 0 1 1.8027-0.67383zm-3.9961 2.3496a7 10 0 0 0-0.36914 0.92188 19 9 0 0 1-0.32422-0.054688 8 8 0 0 1 0.69336-0.86719zm11.76 0a8 8 0 0 1 0.69531 0.86719 19 9 0 0 1-0.32617 0.054688 7 10 0 0 0-0.36914-0.92188zm-12.994 1.7695a20 10 0 0 0 0.57031 0.10352 7 10 0 0 0-0.45508 3.5508 7 10 0 0 0 0.45898 3.5508 20 10 0 0 0-0.57422 0.10352 8 8 0 0 1-0.88477-3.6543 8 8 0 0 1 0.88477-3.6543zm14.23 0a8 8 0 0 1 0.88477 3.6543 8 8 0 0 1-0.88477 3.6543 20 10 0 0 0-0.57031-0.10352 7 10 0 0 0 0.45508-3.5508 7 10 0 0 0-0.45898-3.5508 20 10 0 0 0 0.57422-0.10352zm-12.672 0.25977a20 10 0 0 0 2.7051 0.29102 3 10 0 0 0-0.14844 3.1035 3 10 0 0 0 0.14844 3.1016 20 10 0 0 0-2.7051 0.29102 6 9 0 0 1-0.44336-3.3926 6 9 0 0 1 0.44336-3.3945zm11.113 0a6 9 0 0 1 0.44336 3.3945 6 9 0 0 1-0.44336 3.3945 20 10 0 0 0-2.7051-0.29102 3 10 0 0 0 0.14844-3.1035 3 10 0 0 0-0.14844-3.1035 20 10 0 0 0 2.7051-0.29102zm-7.3945 0.35156a20 10 0 0 0 1.8379 0.042969 20 10 0 0 0 1.8398-0.042969c0.097115 0.95887 0.16406 1.9699 0.16406 3.041 0 1.073-0.066629 2.085-0.16406 3.0449a20 10 0 0 0-1.8398-0.042969 20 10 0 0 0-0.11719 0 20 10 0 0 0-1.7188 0.042969c-0.095933-0.95992-0.16211-1.9719-0.16211-3.0449 1e-6 -1.0711 0.064549-2.0822 0.16016-3.041zm1.8281 7.043a19 9 0 0 1 0.009766 0 19 9 0 0 1 1.7266 0.039062c-0.14474 1.0347-0.33427 1.9749-0.56445 2.7422-0.13942 0.46472-0.29266 0.85286-0.44726 1.1855a8 8 0 0 1-0.71484 0.033203 8 8 0 0 1-0.7168-0.03125c-0.15488-0.33302-0.3076-0.72194-0.44726-1.1875-0.23033-0.76775-0.41756-1.7087-0.56055-2.7441a19 9 0 0 1 1.7148-0.037109zm-2.7266 0.09375a3 10 0 0 0 0.84961 3.6816 8 8 0 0 1-1.7988-0.67578 6 9 0 0 1-1.5664-2.748 19 9 0 0 1 2.5156-0.25781zm5.4727 0a19 9 0 0 1 2.5137 0.25781 6 9 0 0 1-1.5625 2.748 8 8 0 0 1-1.8027 0.67383 3 10 0 0 0 0.85156-3.6797zm-8.9844 0.4082a7 10 0 0 0 0.36914 0.92188 8 8 0 0 1-0.69531-0.86719 19 9 0 0 1 0.32617-0.054688zm12.498 0a19 9 0 0 1 0.32422 0.054688 8 8 0 0 1-0.69336 0.86719 7 10 0 0 0 0.36914-0.92188z" stroke-linecap="square" stroke-linejoin="bevel" stroke-width="4" style="paint-order:stroke fill markers"/>
 </g>
</svg>
