<?xml version="1.0" encoding="UTF-8"?>
<svg width="24" height="24" version="1.1" viewBox="0 0 6.35 6.35" xmlns="http://www.w3.org/2000/svg" xmlns:cc="http://creativecommons.org/ns#" xmlns:dc="http://purl.org/dc/elements/1.1/" xmlns:rdf="http://www.w3.org/1999/02/22-rdf-syntax-ns#">
 <g transform="translate(0 -290.65)">
  <path transform="matrix(.26458 0 0 .26458 0 290.65)" d="m11.98 2c-5.5152 0.010772-9.9805 4.4848-9.9805 10 0 5.5228 4.4772 10 10 10 5.5228 0 10-4.4772 10-10 0-5.5228-4.4772-10-10-10zm0.019531 2c4.4183-1e-7 8 3.5817 8 8 5.67e-4 3.877-2.7789 7.1964-6.5957 7.877l3.5957-2.877 2-3-4-2h-3l-1 3 2 2-0.49219 2.9824c-0.16904 0.011235-0.3384 0.017097-0.50781 0.017578-4.4183 0-8-3.5817-8-8 2.25e-4 -2.0657 0.79948-4.0512 2.2305-5.541l1.7695 4.041 4 1.5-3-2 2-2 1 1 3-3-2.5-1.5-0.5 0.5-0.94336-0.94336c0.31306-0.037453 0.62806-0.056367 0.94336-0.056641z" stroke-linecap="square" stroke-linejoin="bevel" stroke-width="4" style="paint-order:stroke fill markers"/>
 </g>
</svg>
