<?xml version="1.0" encoding="UTF-8"?>
<svg width="24" height="24" version="1.1" viewBox="0 0 6.35 6.35" xmlns="http://www.w3.org/2000/svg" xmlns:cc="http://creativecommons.org/ns#" xmlns:dc="http://purl.org/dc/elements/1.1/" xmlns:rdf="http://www.w3.org/1999/02/22-rdf-syntax-ns#">
 <g transform="translate(0 -290.65)">
  <path transform="matrix(.26458 0 0 .26458 0 290.65)" d="m11.98 2c-5.5152 0.010772-9.9805 4.4848-9.9805 10 0 5.5228 4.4772 10 10 10 5.5228 0 10-4.4772 10-10 0-5.5228-4.4772-10-10-10zm2.9258 2.5469c3.0714 1.1976 5.0936 4.1565 5.0938 7.4531-4e-6 4.4183-3.5817 8-8 8-4.4183-4e-6 -8-3.5817-8-8 5.441e-4 -0.84941 0.13636-1.6933 0.40234-2.5l0.59766-1h1l0.5 3h0.5v-1.5l1.5-1 0.5 2 1 1-0.5-1 1.5-0.5 2-2.5 1.5-2.5-0.5-0.5zm0.09375 0.95312-0.5 1.5-1 0.5 1.5 0.5zm-2.5 4.5 0.5 1.5 0.5-0.5-0.5-1.5zm-3.5 1.5 1.5 2.5 2.5 0.5 1.5-1-1.5 0.5-2.5-1zm3 0-1 1v0.5h1l0.5-1zm2 1 3 2-1-1.5zm1 2-1.5 0.5-2 1 0.5 1.5 2-0.5 1.5 1 1.5-1.5-1.5-2z" fill-opacity=".947" style="paint-order:stroke fill markers"/>
 </g>
</svg>
