<?xml version="1.0" encoding="UTF-8"?>
<svg width="24" height="24" version="1.1" viewBox="0 0 6.35 6.35" xmlns="http://www.w3.org/2000/svg" xmlns:cc="http://creativecommons.org/ns#" xmlns:dc="http://purl.org/dc/elements/1.1/" xmlns:rdf="http://www.w3.org/1999/02/22-rdf-syntax-ns#">
 <g transform="translate(0 -290.65)">
  <path transform="matrix(.26458 0 0 .26458 0 290.65)" d="m12 2a10 10 0 0 0-10 10 10 10 0 0 0 10 10 10 10 0 0 0 10-10 10 10 0 0 0-10-10zm0 2a8 8 0 0 1 8 8 8 8 0 0 1-8 8 8 8 0 0 1-8-8 8 8 0 0 1 8-8zm-4 3v10h2v-3h1.5859l2.998 3h1.416v-1.418l-1.7988-1.7949c1.3804-0.50438 2.2987-1.8174 2.2988-3.2871 0-1.933-1.567-3.5-3.5-3.5h-5zm2 2h3c0.82843 0 1.5 0.67157 1.5 1.5 0 0.82843-0.67157 1.5-1.5 1.5h-3v-3z" style="paint-order:fill markers stroke"/>
 </g>
</svg>
