<?xml version="1.0" encoding="UTF-8"?>
<svg width="24" height="24" version="1.1" viewBox="0 0 6.35 6.35" xmlns="http://www.w3.org/2000/svg" xmlns:cc="http://creativecommons.org/ns#" xmlns:dc="http://purl.org/dc/elements/1.1/" xmlns:rdf="http://www.w3.org/1999/02/22-rdf-syntax-ns#">
 <g transform="translate(0 -290.65)">
  <path transform="matrix(.26458 0 0 .26458 0 290.65)" d="m18.709 3.293-1.418 1.4102 1.2969 1.2969h-12.588c-2.2091 2.19e-5 -4 1.7909-4 4h2c8.6e-6 -1.1046 0.89543-2 2-2h12.588l-1.2969 1.2949 1.418 1.4102 3.7051-3.7051z" style="paint-order:fill markers stroke"/>
  <path d="m1.3999 296.13 0.37517-0.3731-0.34313-0.34314h3.3305c0.5845 0 1.0583-0.47383 1.0583-1.0583h-0.52917c-4e-7 0.29225-0.23692 0.52917-0.52917 0.52917h-3.3305l0.34313-0.34262-0.37517-0.3731-0.98031 0.9803z" style="paint-order:fill markers stroke"/>
 </g>
</svg>
