<?xml version="1.0" encoding="UTF-8"?>
<svg width="24" height="24" version="1.1" viewBox="0 0 6.35 6.35" xmlns="http://www.w3.org/2000/svg" xmlns:cc="http://creativecommons.org/ns#" xmlns:dc="http://purl.org/dc/elements/1.1/" xmlns:rdf="http://www.w3.org/1999/02/22-rdf-syntax-ns#">
 <g transform="translate(0 -290.65)">
  <path transform="matrix(.26458 0 0 .26458 0 290.65)" d="m12 2a10 10 0 0 0-7.0664 2.9336l2.8262 2.8262a6 6 0 0 1 4.2402-1.7598 6 6 0 0 1 4.2402 1.7598l2.8262-2.8262a10 10 0 0 0-7.0664-2.9336z" style="paint-order:stroke markers fill"/>
  <path transform="matrix(.26458 0 0 .26458 0 290.65)" d="m9 10c-0.55401 0-1 0.44599-1 1v2c0 0.55401 0.44599 1 1 1h1c1 0 1-1 2-1s1 1 2 1h1c0.55401 0 1-0.44599 1-1v-2c0-0.55401-0.44599-1-1-1h-6zm1 1a1 1 0 0 1 1 1 1 1 0 0 1-1 1 1 1 0 0 1-1-1 1 1 0 0 1 1-1zm4 0a1 1 0 0 1 1 1 1 1 0 0 1-1 1 1 1 0 0 1-1-1 1 1 0 0 1 1-1z" style="paint-order:stroke markers fill"/>
  <path transform="matrix(.26458 0 0 .26458 0 290.65)" d="m18.912 7.9883-1.4805 1.4805a6 6 0 0 1 0.56836 2.5312 6 6 0 0 1-6 6 6 6 0 0 1-6-6 6 6 0 0 1 0.57227-2.5273l-1.4785-1.4785a8 8 0 0 0-1.0938 4.0059 8 8 0 0 0 8 8 8 8 0 0 0 8-8 8 8 0 0 0-1.0879-4.0117z" style="paint-order:stroke markers fill"/>
 </g>
</svg>
