<?xml version="1.0" encoding="UTF-8"?>
<svg width="24" height="24" version="1.1" viewBox="0 0 6.35 6.35" xmlns="http://www.w3.org/2000/svg" xmlns:cc="http://creativecommons.org/ns#" xmlns:dc="http://purl.org/dc/elements/1.1/" xmlns:rdf="http://www.w3.org/1999/02/22-rdf-syntax-ns#">
 <g transform="translate(0 -290.65)">
  <path transform="matrix(.26458 0 0 .26458 0 290.65)" d="m21.002 5.127-1.5586 1.041c-3.7677 2.5243-11.166 2.4677-14.887 0l-1.5586-1.0332v13.76l1.5645-0.9082c3.8824-2.6443 11.265-2.3334 14.896 0.01563l1.543 0.83398zm-2 3.2051v2.668h-2.002v2h2.002v2.6543c-3.0752-2.0868-10.434-2.3273-14.004 0.023437v-2.6777h2.002v-2h-2.002v-2.6602c3.1027 2.1479 10.458 2.2879 14.004-0.0078126z" color="#000000" color-rendering="auto" dominant-baseline="auto" image-rendering="auto" shape-rendering="auto" solid-color="#000000" style="font-feature-settings:normal;font-variant-alternates:normal;font-variant-caps:normal;font-variant-ligatures:normal;font-variant-numeric:normal;font-variant-position:normal;isolation:auto;mix-blend-mode:normal;paint-order:stroke markers fill;shape-padding:0;text-decoration-color:#000000;text-decoration-line:none;text-decoration-style:solid;text-indent:0;text-orientation:mixed;text-transform:none;white-space:normal"/>
  <path d="m4.1565 291.63-0.37517-0.37517-0.34158 0.34262v-0.6842h-0.52917v0.6842l-0.3421-0.34262-0.37517 0.37517 0.98237 0.9803z" style="paint-order:stroke markers fill"/>
  <path d="m4.1566 296.02-0.37517 0.37517-0.34158-0.34262v0.6842h-0.52917v-0.6842l-0.3421 0.34262-0.37517-0.37517 0.98237-0.9803z" style="paint-order:stroke markers fill"/>
 </g>
</svg>
