<?xml version="1.0" encoding="UTF-8"?>
<svg width="24" height="24" version="1.1" viewBox="0 0 6.35 6.35" xmlns="http://www.w3.org/2000/svg" xmlns:cc="http://creativecommons.org/ns#" xmlns:dc="http://purl.org/dc/elements/1.1/" xmlns:rdf="http://www.w3.org/1999/02/22-rdf-syntax-ns#">
 <g transform="translate(0 -290.65)">
  <path d="m2.3812 293.3c-0.14658 0-0.26458 0.118-0.26458 0.26458v0.52917c0 0.14658 0.118 0.26458 0.26458 0.26458h0.26458c0.26458 0 0.26458-0.26458 0.52917-0.26458 0.26458 0 0.26458 0.26458 0.52917 0.26458h0.26458c0.14658 0 0.26458-0.118 0.26458-0.26458v-0.52917c0-0.14658-0.118-0.26458-0.26458-0.26458zm0.26458 0.26458a0.26458 0.26458 0 0 1 0.26458 0.26459 0.26458 0.26458 0 0 1-0.26458 0.26458 0.26458 0.26458 0 0 1-0.26458-0.26458 0.26458 0.26458 0 0 1 0.26458-0.26459zm1.0583 0a0.26458 0.26458 0 0 1 0.26458 0.26459 0.26458 0.26458 0 0 1-0.26458 0.26458 0.26458 0.26458 0 0 1-0.26458-0.26458 0.26458 0.26458 0 0 1 0.26458-0.26459z" style="paint-order:stroke markers fill"/>
  <path transform="matrix(.26458 0 0 .26458 0 290.65)" d="m6 6.8047a10 4 0 0 0-4 3.1953 10 4 0 0 0 1.7383 2.2461c0.61438-0.35966 1.3942-0.66551 2.2617-0.92774v-4.5137zm12 0.0019531v4.5117c0.86583 0.26171 1.6441 0.567 2.2578 0.92578a10 4 0 0 0 1.7422-2.2441 10 4 0 0 0-4-3.1934z" style="paint-order:stroke markers fill"/>
  <path d="m0.52917 293.69v1.1906c0 0.5845 1.1846 1.0583 2.6458 1.0583 1.4613 0 2.6458-0.47383 2.6458-1.0583v-1.1906c0.028246 0.21455-0.36468 0.4921-0.57878 0.57774-0.56498 0.22599-1.2782 0.34778-2.066 0.34778-0.78782 0-1.5036-0.12179-2.0686-0.34778-0.21396-0.0856-0.57826-0.34675-0.57826-0.57774z" style="paint-order:stroke markers fill"/>
 </g>
</svg>
