<?xml version="1.0" encoding="UTF-8"?>
<svg width="24" height="24" version="1.1" viewBox="0 0 6.35 6.35" xmlns="http://www.w3.org/2000/svg" xmlns:cc="http://creativecommons.org/ns#" xmlns:dc="http://purl.org/dc/elements/1.1/" xmlns:rdf="http://www.w3.org/1999/02/22-rdf-syntax-ns#">
 <g transform="translate(0 -290.65)">
  <path d="m2.6458 292.24v1.0583h0.79375v-0.26458h-0.52917v-0.79375z" style="paint-order:stroke markers fill"/>
  <path d="m3.174 294.35v1e-3h-0.52813v1.0583h0.26458v-0.26459h0.15916l0.36897 0.36897 0.1788-0.1788-0.25425-0.25425c0.2378-0.18854 0.17524-0.7307-0.18914-0.7307zm-0.26355 0.26562h0.26355c0.088193 0 0.088193 0.26406 0 0.26406v5.2e-4h-0.26355z" style="paint-order:stroke markers fill"/>
  <path d="m5.2917 291.44h-4.2333v4.7625h4.2333zm-0.52917 0.52916v1.5875h-1.3229v0.52917h1.3229v1.5875h-3.175v-1.5875h1.3229v-0.52917h-1.3229v-1.5875z" style="paint-order:stroke markers fill"/>
 </g>
</svg>
