<?xml version="1.0" encoding="UTF-8"?>
<svg width="24" height="24" version="1.1" viewBox="0 0 6.35 6.35" xmlns="http://www.w3.org/2000/svg" xmlns:cc="http://creativecommons.org/ns#" xmlns:dc="http://purl.org/dc/elements/1.1/" xmlns:rdf="http://www.w3.org/1999/02/22-rdf-syntax-ns#">
 <g transform="translate(0 -290.65)">
  <path transform="matrix(.26458 0 0 .26458 0 290.65)" d="m2 6c-1.108 0-2 0.89202-2 2v8c-2.9606e-16 1.108 0.89202 2 2 2h20c1.108 0 2-0.89202 2-2v-3h-2v2h-2v-2h-2v-2h2v-2h2v2h2v-3c0-1.108-0.89202-2-2-2h-20zm2 2h2c1.108 0 2 0.89199 2 2v1c0 0.36699-0.1043 0.7052-0.27539 1 0.1711 0.29518 0.27539 0.63301 0.27539 1v1c0 1.108-0.89197 2-2 2h-2c-1.108 0-2-0.89199-2-2v-1c0-0.36695 0.1043-0.70482 0.27539-1-0.1711-0.29499-0.27539-0.63301-0.27539-1v-1c0-1.108 0.89197-2 2-2zm6 0h2v3l3-3h3l-2.9004 2.9004 2.9434 5.0996h-2.3105l-2.0996-3.6328-1.6328 1.6328v2h-2v-8zm-6 2v1h2v-1h-2zm0 3v1h2v-1h-2z" style="paint-order:stroke markers fill"/>
 </g>
</svg>
