<?xml version="1.0" encoding="UTF-8"?>
<svg width="24" height="24" version="1.1" viewBox="0 0 6.35 6.35" xmlns="http://www.w3.org/2000/svg" xmlns:cc="http://creativecommons.org/ns#" xmlns:dc="http://purl.org/dc/elements/1.1/" xmlns:rdf="http://www.w3.org/1999/02/22-rdf-syntax-ns#">
 <g transform="translate(0 -290.65)">
  <path transform="matrix(.26458 0 0 .26458 0 290.65)" d="m12 2a10 10 0 0 0-10 10h4a6 6 0 0 1 6-6 6 6 0 0 1 6 6h4a10 10 0 0 0-10-10z" style="paint-order:stroke markers fill"/>
  <path d="m2.3812 293.3c-0.14658 0-0.26458 0.118-0.26458 0.26458v0.52917c0 0.14658 0.118 0.26458 0.26458 0.26458h0.26458c0.26458 0 0.26458-0.26458 0.52917-0.26458s0.26458 0.26458 0.52917 0.26458h0.26458c0.14658 0 0.26458-0.118 0.26458-0.26458v-0.52917c0-0.14658-0.118-0.26458-0.26458-0.26458zm0.26458 0.26458a0.26458 0.26458 0 0 1 0.26458 0.26459 0.26458 0.26458 0 0 1-0.26458 0.26458 0.26458 0.26458 0 0 1-0.26458-0.26458 0.26458 0.26458 0 0 1 0.26458-0.26459zm1.0583 0a0.26458 0.26458 0 0 1 0.26458 0.26459 0.26458 0.26458 0 0 1-0.26458 0.26458 0.26458 0.26458 0 0 1-0.26458-0.26458 0.26458 0.26458 0 0 1 0.26458-0.26459z" style="paint-order:stroke markers fill"/>
  <path transform="matrix(.26458 0 0 .26458 0 290.65)" d="m4.2656 14a8 8 0 0 0 7.7344 6 8 8 0 0 0 7.7402-6h-2.0918a6 6 0 0 1-5.6484 4 6 6 0 0 1-5.6504-4h-2.084z" style="paint-order:stroke markers fill"/>
 </g>
</svg>
