<?xml version="1.0" encoding="UTF-8"?>
<svg width="24" height="24" version="1.1" viewBox="0 0 6.35 6.35" xmlns="http://www.w3.org/2000/svg" xmlns:cc="http://creativecommons.org/ns#" xmlns:dc="http://purl.org/dc/elements/1.1/" xmlns:rdf="http://www.w3.org/1999/02/22-rdf-syntax-ns#">
 <g transform="translate(0 -290.65)">
  <path d="m0 292.5v2.6458h6.35v-2.6458zm0.52917 0.52917h2.3812v0.52916h0.52917v-0.52916h2.3812v1.5875h-2.3812v-0.52917h-0.52917v0.52917h-2.3812z" style="paint-order:stroke markers fill"/>
  <path d="m4.2333 293.3v1.0583h0.79375v-0.26458h-0.52917v-0.79375z" style="paint-order:stroke markers fill"/>
  <path d="m1.851 293.29v1e-3h-0.52813v1.0583h0.26458v-0.26458h0.15916l0.36897 0.36897 0.1788-0.1788-0.25425-0.25425c0.2378-0.18855 0.17524-0.7307-0.18914-0.7307zm-0.26355 0.26561h0.26355c0.088193 0 0.088193 0.26407 0 0.26407v5.2e-4h-0.26355z" style="paint-order:stroke markers fill"/>
 </g>
</svg>
