<?xml version="1.0" encoding="UTF-8"?>
<svg width="24" height="24" version="1.1" viewBox="0 0 6.35 6.35" xmlns="http://www.w3.org/2000/svg" xmlns:cc="http://creativecommons.org/ns#" xmlns:dc="http://purl.org/dc/elements/1.1/" xmlns:rdf="http://www.w3.org/1999/02/22-rdf-syntax-ns#">
 <g transform="translate(0 -290.65)">
  <path transform="matrix(.26458 0 0 .26458 0 290.65)" d="m17.6 2.5605-12.785 16.66 1.5879 1.2188 12.783-16.66-1.5859-1.2188zm-11.6 3.4395c-2.216 0-4 1.784-4 4v4c0 1.7498 1.1187 3.2163 2.6777 3.7617l1.3223-1.7227v-0.039062c-1.108 0-2-0.89197-2-2v-4c0-1.108 0.89197-2 2-2h6.168l1.5352-2h-7.7031zm12.686 0.068359-1.4824 1.9316h0.79688c1.108 0 2 0.89197 2 2v4c0 1.108-0.89197 2-2 2v2c2.216 0 4-1.784 4-4v-4c0-1.9811-1.4288-3.6071-3.3145-3.9316zm-10.734 3.9316c-1.0855 0.026508-1.9515 0.91422-1.9512 2-1.301e-4 0.94884 0.66645 1.7672 1.5957 1.959l2.1914-2.8555c-0.33908-0.67621-1.0307-1.1032-1.7871-1.1035-0.016275-1.987e-4 -0.032553-1.987e-4 -0.048828 0zm8.0488 0c-0.01628-1.987e-4 -0.25557 0.014163-0.35742 0.033203l-1.6348 2.1309c0.085358 1.037 0.95164 1.8354 1.9922 1.8359 1.1046 0 2-0.89543 2-2s-0.89543-2-2-2zm-3.4375 4.0469-2.0039 2.6113c0.58469-0.41242 0.87141-0.66016 1.4453-0.66016 0.66666 0 0.85412 0.27722 1.6895 0.83398 0.83534 0.55688 2.1361 1.166 4.3027 1.166v-2c-1.8333 0-2.5228-0.38306-3.1875-0.82617-0.56583-0.37722-1.2371-0.95917-2.2461-1.125zm-6.5293 1.9492c-0.012046 3.3e-5 -0.019105 0.001953-0.03125 0.001953v0.039062l0.03125-0.041015z" style="paint-order:stroke markers fill"/>
 </g>
</svg>
