<?xml version="1.0" encoding="UTF-8"?>
<svg width="24" height="24" version="1.1" viewBox="0 0 6.35 6.35" xmlns="http://www.w3.org/2000/svg" xmlns:cc="http://creativecommons.org/ns#" xmlns:dc="http://purl.org/dc/elements/1.1/" xmlns:rdf="http://www.w3.org/1999/02/22-rdf-syntax-ns#">
 <g transform="translate(0 -290.65)">
  <path transform="matrix(.26458 0 0 .26458 0 290.65)" d="m4 6c-1.108 0-2 0.89203-2 2v8c0 1.108 0.89202 2 2 2h16c1.108 0 2-0.89203 2-2v-8c0-1.108-0.89202-2-2-2h-16zm3.9395 2a4 4 0 0 1 0.060547 0 4 4 0 0 1 3.1738 1.5664l-1.5879 1.2168a2 2 0 0 0-1.5859-0.7832 2 2 0 0 0-0.048828 0 2 2 0 0 0-1.9512 2 2 2 0 0 0 2 2 2 2 0 0 0 1.5996-0.80078l1.6016 1.2012a4 4 0 0 1-3.2012 1.5996 4 4 0 0 1-4-4 4 4 0 0 1 3.9395-4zm9 0a4 4 0 0 1 0.060547 0 4 4 0 0 1 3.1738 1.5664l-1.5879 1.2168a2 2 0 0 0-1.5859-0.7832 2 2 0 0 0-0.048828 0 2 2 0 0 0-1.9512 2 2 2 0 0 0 2 2 2 2 0 0 0 1.5996-0.80078l1.6016 1.2012a4 4 0 0 1-3.2012 1.5996 4 4 0 0 1-4-4 4 4 0 0 1 3.9395-4z" style="paint-order:stroke markers fill"/>
 </g>
</svg>
