<?xml version="1.0" encoding="UTF-8"?>
<svg width="24" height="24" version="1.1" viewBox="0 0 6.35 6.35" xmlns="http://www.w3.org/2000/svg" xmlns:cc="http://creativecommons.org/ns#" xmlns:dc="http://purl.org/dc/elements/1.1/" xmlns:rdf="http://www.w3.org/1999/02/22-rdf-syntax-ns#">
 <g transform="translate(0 -290.65)">
  <path transform="matrix(.26458 0 0 .26458 0 290.65)" d="m4 6c-1.108 0-2 0.89202-2 2v8c0 1.108 0.89202 2 2 2h16c1.108 0 2-0.89202 2-2v-8c0-1.108-0.89202-2-2-2zm0 2h2v3h3v-3h2v8h-2v-3h-3v3h-2zm9 0h4s3 0 3 4-3 4-3 4h-4v-6zm2 2v4h2s1 0 1-2-1-2-1-2z" style="paint-order:stroke markers fill"/>
 </g>
</svg>
