<?xml version="1.0" encoding="UTF-8"?>
<svg width="24" height="24" version="1.1" viewBox="0 0 6.35 6.35" xmlns="http://www.w3.org/2000/svg" xmlns:cc="http://creativecommons.org/ns#" xmlns:dc="http://purl.org/dc/elements/1.1/" xmlns:rdf="http://www.w3.org/1999/02/22-rdf-syntax-ns#">
 <g transform="translate(0 -290.65)">
  <circle cx="2.1167" cy="293.82" r=".52917" style="paint-order:stroke markers fill"/>
  <circle cx="4.2333" cy="293.82" r=".52917" style="paint-order:stroke markers fill"/>
  <path transform="matrix(.26458 0 0 .26458 0 290.65)" d="m6 6c-2.216 0-4 1.784-4 4v4c0 2.216 1.784 4 4 4v-2c-1.108 0-2-0.89197-2-2v-4c0-1.108 0.89197-2 2-2h12c1.108 0 2 0.89197 2 2v4c0 1.108-0.89197 2-2 2v2c2.216 0 4-1.784 4-4v-4c0-2.216-1.784-4-4-4h-12zm6.0039 7.998c-1.3333 0-2.142 0.73072-2.8066 1.1738-0.66466 0.44311-1.362 0.82617-3.1953 0.82617v2c2.1667 0 3.4674-0.60914 4.3027-1.166 0.83534-0.55691 1.0326-0.83398 1.6992-0.83398 0.66666 0 0.85412 0.27722 1.6895 0.83398 0.83534 0.55688 2.1361 1.166 4.3027 1.166v-2c-1.8333 0-2.5228-0.38306-3.1875-0.82617-0.66466-0.44311-1.4714-1.1738-2.8047-1.1738z" color="#000000" color-rendering="auto" dominant-baseline="auto" image-rendering="auto" shape-rendering="auto" solid-color="#000000" style="font-feature-settings:normal;font-variant-alternates:normal;font-variant-caps:normal;font-variant-ligatures:normal;font-variant-numeric:normal;font-variant-position:normal;isolation:auto;mix-blend-mode:normal;shape-padding:0;text-decoration-color:#000000;text-decoration-line:none;text-decoration-style:solid;text-indent:0;text-orientation:mixed;text-transform:none;white-space:normal"/>
 </g>
</svg>
