<?xml version="1.0" encoding="UTF-8"?>
<svg width="24" height="24" version="1.1" viewBox="0 0 6.35 6.35" xmlns="http://www.w3.org/2000/svg" xmlns:cc="http://creativecommons.org/ns#" xmlns:dc="http://purl.org/dc/elements/1.1/" xmlns:rdf="http://www.w3.org/1999/02/22-rdf-syntax-ns#">
 <defs>
  <style type="text/css">.ColorScheme-Text {
        color:#4d4d4d;
      }</style>
 </defs>
 <g transform="translate(0 -290.65)">
  <path transform="matrix(.26458 0 0 .26458 0 290.65)" d="m10 6c-2.7614 0-5 2.2386-5 5-4.57e-5 0.011339-4.57e-5 0.025771 0 0.037109-1.7215 0.24832-2.9994 1.7235-3 3.4629-3.691e-4 1.7401 1 3.5 3.5 3.5h14c1.3807 0 2.5-1.1193 2.5-2.5s-1.1193-2.5-2.5-2.5c-0.1845 3.7e-4 -0.36708 0.029353-0.54688 0.070312a3.5 3.5 0 0 0 0.046875-0.57031 3.5 3.5 0 0 0-3.5-3.5 3.5 3.5 0 0 0-1.0723 0.16797c-0.51707-1.93-2.7175-3.1676-4.4277-3.168zm0.001953 2.0039a2.0002 2.0002 0 0 0 0.015625 0c0.37498 0.0037418 1.0281 0.18642 1.5352 0.52344 0.51217 0.34042 0.84266 0.77699 0.94531 1.1602a2.0002 2.0002 0 0 0 2.5391 1.3867c0.14852-0.047736 0.30885-0.074295 0.46484-0.074219 0.85212 0 1.498 0.6479 1.498 1.5-1.3e-5 0.081902-0.008128 0.16142-0.021484 0.24219a2.0002 2.0002 0 0 0 2.4062 2.2812c0.10516-0.023434 0.1477-0.021523 0.11914-0.021485 0.29981 0 0.49414 0.20216 0.49414 0.50195 0 0.29983-0.19433 0.49414-0.49414 0.49414h-14.004c-0.7807 0-0.98303-0.18455-1.166-0.39844-0.18298-0.21384-0.33213-0.61296-0.33203-1.0996 2.627e-4 -0.76029 0.53165-1.3763 1.2832-1.4844a2.0002 2.0002 0 0 0 1.7129-1.9863c-1.7e-5 -0.004233-1.7e-5 -0.017251 0-0.021485a2.0002 2.0002 0 0 0 0-0.007812c0-1.6806 1.3234-2.9961 3.0039-2.9961z" stroke-linecap="round" stroke-linejoin="round" stroke-width="2.3333" style="paint-order:stroke fill markers"/>
 </g>
</svg>
