<?xml version="1.0" encoding="UTF-8"?>
<svg width="24" height="24" version="1.1" viewBox="0 0 6.35 6.35" xmlns="http://www.w3.org/2000/svg" xmlns:cc="http://creativecommons.org/ns#" xmlns:dc="http://purl.org/dc/elements/1.1/" xmlns:rdf="http://www.w3.org/1999/02/22-rdf-syntax-ns#">
 <defs>
  <style type="text/css">.ColorScheme-Text {
        color:#4d4d4d;
      }</style>
 </defs>
 <g transform="translate(0 -290.65)">
  <path transform="matrix(.26458 0 0 .26458 0 290.65)" d="m10 6c-2.7614 0-5 2.2386-5 5-4.57e-5 0.011339-4.57e-5 0.025771 0 0.037109-1.7215 0.24832-2.9994 1.7235-3 3.4629-3.691e-4 1.7401 1 3.5 3.5 3.5h14c1.3807 0 2.5-1.1193 2.5-2.5s-1.1193-2.5-2.5-2.5c-0.1845 3.7e-4 -0.36708 0.029353-0.54688 0.070312a3.5 3.5 0 0 0 0.046875-0.57031 3.5 3.5 0 0 0-3.5-3.5 3.5 3.5 0 0 0-1.0723 0.16797c-0.51707-1.93-2.7175-3.1676-4.4277-3.168z" stroke-linecap="round" stroke-linejoin="round" stroke-width="2.3333" style="paint-order:stroke fill markers"/>
 </g>
</svg>
