<?xml version="1.0" encoding="UTF-8"?>
<svg width="24" height="24" version="1.1" viewBox="0 0 6.35 6.35" xmlns="http://www.w3.org/2000/svg" xmlns:cc="http://creativecommons.org/ns#" xmlns:dc="http://purl.org/dc/elements/1.1/" xmlns:rdf="http://www.w3.org/1999/02/22-rdf-syntax-ns#">
 <g transform="translate(0 -290.65)">
  <path transform="matrix(.26458 0 0 .26458 0 290.65)" d="m15.93 5.5a2.5 2.5 0 0 0-2.4297 2.5 2.5 2.5 0 0 0 0.003906 0.12695l-3.9043 1.9531a2.5 2.5 0 0 0-1.5996-0.58008 2.5 2.5 0 0 0-2.5 2.5 2.5 2.5 0 0 0 2.5 2.5 2.5 2.5 0 0 0 1.4141-0.4375l4.1133 2.5723a2.5 2.5 0 0 0-0.027344 0.36523 2.5 2.5 0 0 0 2.5 2.5 2.5 2.5 0 0 0 2.5-2.5 2.5 2.5 0 0 0-2.5-2.5 2.5 2.5 0 0 0-1.4141 0.43945l-4.1133-2.5684a2.5 2.5 0 0 0 0.027344-0.37109 2.5 2.5 0 0 0-0.003906-0.12891l3.9043-1.9512a2.5 2.5 0 0 0 1.5996 0.58008 2.5 2.5 0 0 0 2.5-2.5 2.5 2.5 0 0 0-2.5-2.5 2.5 2.5 0 0 0-0.070312 0z" style="paint-order:fill markers stroke"/>
 </g>
</svg>
