<?xml version="1.0" encoding="UTF-8"?>
<svg width="24" height="24" version="1.1" viewBox="0 0 6.35 6.35" xmlns="http://www.w3.org/2000/svg" xmlns:cc="http://creativecommons.org/ns#" xmlns:dc="http://purl.org/dc/elements/1.1/" xmlns:rdf="http://www.w3.org/1999/02/22-rdf-syntax-ns#">
 <g transform="translate(0 -290.65)">
  <path d="m3.176 292.37c-0.53021-2.9e-4 -0.92708 0.39688-0.92708 0.92604h0.52917c0-0.26458 0.13229-0.39688 0.39714-0.39688 0.26432 0 0.39661 0.1323 0.39661 0.39688 0 0.45397-0.66123 0.26459-0.66146 1.1905h0.5293c1.085e-4 -0.66132 0.66133-0.39674 0.66133-1.1905 0-0.52917-0.39688-0.92575-0.925-0.92604z" color="#000000" color-rendering="auto" dominant-baseline="auto" image-rendering="auto" shape-rendering="auto" solid-color="#000000" style="font-feature-settings:normal;font-variant-alternates:normal;font-variant-caps:normal;font-variant-ligatures:normal;font-variant-numeric:normal;font-variant-position:normal;isolation:auto;mix-blend-mode:normal;shape-padding:0;text-decoration-color:#000000;text-decoration-line:none;text-decoration-style:solid;text-indent:0;text-orientation:mixed;text-transform:none;white-space:normal"/>
  <path transform="matrix(.26458 0 0 .26458 0 290.65)" d="m12 2a10 10 0 0 0-10 10 10 10 0 0 0 10 10 10 10 0 0 0 10-10 10 10 0 0 0-10-10zm0 2a8 8 0 0 1 8 8 8 8 0 0 1-8 8 8 8 0 0 1-8-8 8 8 0 0 1 8-8z" style="paint-order:fill markers stroke"/>
  <circle cx="3.175" cy="295.15" r=".39687" style="paint-order:fill markers stroke"/>
 </g>
</svg>
