<?xml version="1.0" encoding="UTF-8"?>
<svg width="24" height="24" version="1.1" viewBox="0 0 6.35 6.35" xmlns="http://www.w3.org/2000/svg" xmlns:cc="http://creativecommons.org/ns#" xmlns:dc="http://purl.org/dc/elements/1.1/" xmlns:rdf="http://www.w3.org/1999/02/22-rdf-syntax-ns#">
 <g transform="translate(0 -290.65)">
  <path transform="matrix(.26458 0 0 .26458 0 290.65)" d="m12 2a10 10 0 0 0-10 10 10 10 0 0 0 10 10 10 10 0 0 0 10-10 10 10 0 0 0-10-10zm0 2a8 8 0 0 1 8 8 8 8 0 0 1-8 8 8 8 0 0 1-8-8 8 8 0 0 1 8-8z" style="paint-order:fill markers stroke"/>
  <rect x="2.9104" y="293.3" width=".52917" height="1.8521" ry="0" style="paint-order:fill markers stroke"/>
  <rect x="2.9104" y="292.5" width=".52917" height=".52917" stroke-linecap="square" stroke-width=".52917" style="paint-order:stroke fill markers"/>
 </g>
</svg>
