<?xml version="1.0" encoding="UTF-8"?>
<svg width="24" height="24" version="1.1" viewBox="0 0 6.35 6.35" xmlns="http://www.w3.org/2000/svg" xmlns:cc="http://creativecommons.org/ns#" xmlns:dc="http://purl.org/dc/elements/1.1/" xmlns:rdf="http://www.w3.org/1999/02/22-rdf-syntax-ns#">
 <g transform="translate(0 -290.65)">
  <path d="m2.9104 293.82v1.7818l-0.60771-0.60771-0.3731 0.37517 1.2454 1.2454 1.2454-1.2454-0.37517-0.37517-0.60565 0.60719v-1.7813z"/>
  <path transform="matrix(.26458 0 0 .26458 0 290.65)" d="m10 2c-2.7614 0-5 2.2386-5 5-4.54e-5 0.011339-4.54e-5 0.025771 0 0.037109-1.7215 0.24756-2.9994 1.7235-3 3.4629-3.691e-4 1.7401 1 3.5 3.5 3.5h4.5v-3.0039h4v3.0039h5.5c1.3807 0 2.5-1.1193 2.5-2.5s-1.1193-2.5-2.5-2.5c-0.1845 3.78e-4 -0.36708 0.03025-0.54688 0.070312 0.031165-0.18851 0.046843-0.37925 0.046875-0.57031-2e-6 -1.933-1.567-3.5-3.5-3.5-0.36398-1.06e-4 -0.72575 0.056565-1.0723 0.16797-0.51706-1.9299-2.7175-3.1676-4.4277-3.168z" stroke-linecap="round" stroke-linejoin="round" stroke-width="2.3333" style="paint-order:stroke fill markers"/>
 </g>
</svg>
