<?xml version="1.0" encoding="UTF-8"?>
<svg width="24" height="24" version="1.1" viewBox="0 0 6.35 6.35" xmlns="http://www.w3.org/2000/svg" xmlns:cc="http://creativecommons.org/ns#" xmlns:dc="http://purl.org/dc/elements/1.1/" xmlns:rdf="http://www.w3.org/1999/02/22-rdf-syntax-ns#">
 <g transform="translate(0 -290.65)">
  <path transform="matrix(.26458 0 0 .26458 0 290.65)" d="m4.9297 4.9297a10 10 0 0 0-2.9297 7.0703 10 10 0 0 0 10 10 10 10 0 0 0 10-10 10 10 0 0 0-2.9297-7.0703l-1.4141 1.4141a8 8 0 0 1 2.3438 5.6562 8 8 0 0 1-8 8 8 8 0 0 1-8-8 8 8 0 0 1 2.3438-5.6562l-1.4141-1.4141z" fill-opacity=".947" style="paint-order:stroke fill markers"/>
 </g>
</svg>
