<?xml version="1.0" encoding="UTF-8"?>
<svg width="24" height="24" version="1.1" viewBox="0 0 6.35 6.35" xmlns="http://www.w3.org/2000/svg" xmlns:cc="http://creativecommons.org/ns#" xmlns:dc="http://purl.org/dc/elements/1.1/" xmlns:rdf="http://www.w3.org/1999/02/22-rdf-syntax-ns#">
 <g transform="translate(0 -290.65)">
  <path transform="matrix(.26458 0 0 .26458 0 290.65)" d="m16 0.5a1.5 1.5 0 0 0-1.5 1.5 1.5 1.5 0 0 0 1.5 1.5 1.5 1.5 0 0 0 1.5-1.5 1.5 1.5 0 0 0-1.5-1.5zm-3 1.5c-1.7825 0.057827-6.345-0.2126-9.2715 4.0742-1.938 2.8388-2.0546 7.6316-0.43164 10.488 1.6229 2.8566 5.007 5.4733 8.9082 5.4375 3.9012-0.03402 7.9946-1.852 9.3164-6.1035 0.47651-1.5327 0.5627-3.3237 0.33594-5.0879-1.1302 0.19579-1.4527 0.0099-1.9512-0.20898-0.33971-0.2488-0.79886-0.25816-1.1484-0.023437-0.16414 0.11036-0.35697 0.16917-0.55469 0.16992-0.56413 0-1-0.43587-1-1-5.5e-5 -0.55226-0.44774-0.99994-1-1-0.56413 0-1-0.43587-1-1-4.7e-5 -0.19162 0.05482-0.37978 0.1582-0.54102 0.37273-0.58099 0.058742-1.356-0.61328-1.5137-0.82106-0.19208-1.4091-0.83943-1.6562-1.6895-0.24719-0.85002-0.18762-1.2741-0.091797-2.002zm7.5 0.0019531c-1.3689 0-2.5039 1.1272-2.5039 2.4961 1.7e-5 1.3689 1.135 2.502 2.5039 2.502s2.5019-1.1331 2.502-2.502c1.8e-5 -1.3689-1.1331-2.4961-2.502-2.4961zm0 2c0.28799 0 0.50196 0.20813 0.50195 0.49609-3e-6 0.288-0.21397 0.50195-0.50195 0.50195s-0.50195-0.21395-0.50195-0.50195c-4e-6 -0.28796 0.21396-0.49609 0.50195-0.49609zm-9.2734 0.046875c0.063617 0.701 0.34523 1.3196 0.76172 1.8457a1.5 1.5 0 0 0-0.48828 1.1055 1.5 1.5 0 0 0 1.5 1.5 1.5 1.5 0 0 0 0.31641-0.033203c0.29013 0.99006 1.1522 1.6984 2.1816 1.9844 0.078907 0.28406 0.19428 0.55342 0.33398 0.80469a1 1 0 0 0-0.33203 0.74219 1 1 0 0 0 1 1 1 1 0 0 0 0.81055-0.41406c0.27503 0.10244 0.57195 0.16211 0.89258 0.16211h0.001953c0.26855-2.65e-4 0.49764-0.16017 0.75391-0.23047 0.24458 0.30805 0.5335 0.57042 0.85156 0.78125-0.03809 0.61469-0.11985 1.2148-0.29102 1.7656-1.0638 3.4231-4.39 4.9375-7.5195 4.9375-3.1295 0-5.4375-2.01-6.7031-4.2734-1.2656-2.2635-1.3716-6.3903 0.22461-8.7168 1.5932-2.3221 3.9368-2.8397 5.7051-2.9609zm-4.2266 5.4512a1.5 1.5 0 0 0-1.5 1.5 1.5 1.5 0 0 0 1.5 1.5 1.5 1.5 0 0 0 1.5-1.5 1.5 1.5 0 0 0-1.5-1.5zm4.5 0.49805a1 1 0 0 0-1 1 1 1 0 0 0 1 1 1 1 0 0 0 1-1 1 1 0 0 0-1-1zm2.5 4.502a1.5 1.5 0 0 0-1.5 1.5 1.5 1.5 0 0 0 1.5 1.5 1.5 1.5 0 0 0 1.5-1.5 1.5 1.5 0 0 0-1.5-1.5zm-4.5 1.498a1 1 0 0 0-1 1 1 1 0 0 0 1 1 1 1 0 0 0 1-1 1 1 0 0 0-1-1z" style="paint-order:fill markers stroke"/>
 </g>
</svg>
