<?xml version="1.0" encoding="UTF-8"?>
<svg width="24" height="24" version="1.1" viewBox="0 0 6.35 6.35" xmlns="http://www.w3.org/2000/svg" xmlns:cc="http://creativecommons.org/ns#" xmlns:dc="http://purl.org/dc/elements/1.1/" xmlns:rdf="http://www.w3.org/1999/02/22-rdf-syntax-ns#">
 <g transform="translate(0 -290.65)">
  <path d="m2.9104 293.82v1.7818l-0.60771-0.60771-0.3731 0.37517 1.2454 1.2454 1.2454-1.2454-0.37517-0.37517-0.60565 0.60719v-1.7813z"/>
  <path transform="matrix(.26458 0 0 .26458 0 290.65)" d="m10 2c-2.7614 0-5 2.2386-5 5-4.54e-5 0.011339-4.54e-5 0.025771 0 0.037109-1.7215 0.24756-2.9994 1.7235-3 3.4629-3.691e-4 1.7401 1 3.5 3.5 3.5h4.5v-2.0039h-4.5c-0.7807 0-0.98303-0.18444-1.166-0.39844-0.18298-0.21392-0.33213-0.611-0.33203-1.0977 2.627e-4 -0.76029 0.53165-1.3763 1.2832-1.4844a2.0002 2.0002 0 0 0 1.7129-1.9863c-1.7e-5 -0.0037796-1.7e-5 -0.019658 0-0.023438a2.0002 2.0002 0 0 0 0-0.0078125c0-1.6806 1.3234-2.9961 3.0039-2.9961v0.0019531a2.0002 2.0002 0 0 0 0.015625 0c0.37498 0.0037418 1.0281 0.18634 1.5352 0.52344 0.51217 0.34054 0.84266 0.77699 0.94531 1.1602a2.0002 2.0002 0 0 0 2.5391 1.3867c0.14852-0.047622 0.30885-0.074597 0.46484-0.074219 0.85212 0 1.498 0.64791 1.498 1.5-1.3e-5 0.082016-0.008105 0.16131-0.021484 0.24219a2.0002 2.0002 0 0 0 2.4062 2.2813c0.10516-0.022678 0.14771-0.021485 0.11914-0.021485 0.29982 0 0.49414 0.20028 0.49414 0.5 0 0.29972-0.19433 0.49414-0.49414 0.49414h-5.5039v2.0039h5.5c1.3807 0 2.5-1.1193 2.5-2.5s-1.1193-2.5-2.5-2.5c-0.1845 3.78e-4 -0.36708 0.03025-0.54688 0.070312a3.5 3.5 0 0 0 0.046875-0.57031 3.5 3.5 0 0 0-3.5-3.5 3.5 3.5 0 0 0-1.0723 0.16797c-0.51706-1.9299-2.7175-3.1676-4.4277-3.168z" stroke-linecap="round" stroke-linejoin="round" stroke-width="2.3333" style="paint-order:stroke fill markers"/>
 </g>
</svg>
