<?xml version="1.0" encoding="UTF-8"?>
<svg width="24" height="24" version="1.1" viewBox="0 0 6.35 6.35" xmlns="http://www.w3.org/2000/svg" xmlns:cc="http://creativecommons.org/ns#" xmlns:dc="http://purl.org/dc/elements/1.1/" xmlns:rdf="http://www.w3.org/1999/02/22-rdf-syntax-ns#">
 <g transform="translate(0 -290.65)">
  <path d="m0.92994 294.57c-0.41459 0.41459-0.41459 1.0821 0 1.4967 0.41459 0.41459 1.0821 0.41459 1.4967 0l0.56127-0.56126c0.27745-0.27745 0.36503-0.6671 0.27113-1.0195l-1.2066 1.2066c-0.20729 0.20729-0.54106 0.20729-0.74835 0-0.20729-0.2073-0.20729-0.54106 0-0.74836l0.37418-0.37418 0.8324-0.83239c-0.35239-0.0939-0.74204-6e-3 -1.0195 0.27113zm2.4322-2.4322c-0.27745 0.27745-0.36503 0.6671-0.27113 1.0195l1.2066-1.2066c0.20729-0.20729 0.54106-0.20729 0.74835 0 0.2073 0.2073 0.20729 0.54106 0 0.74836l-0.37418 0.37418-0.8324 0.83239c0.35239 0.0939 0.74204 6e-3 1.0195-0.27113l0.56127-0.56126c0.41459-0.41459 0.41459-1.0821 0-1.4967s-1.0821-0.41459-1.4967 0zm-1.1225 2.2451c-0.10365 0.10364-0.10365 0.27053 0 0.37417 0.10365 0.10365 0.27053 0.10365 0.37418 0l1.4967-1.4967c0.10365-0.10364 0.10365-0.27053 0-0.37417-0.10365-0.10365-0.27053-0.10365-0.37418 0z" stroke-linecap="square" stroke-width=".52917" style="paint-order:stroke fill markers"/>
 </g>
</svg>
