<?xml version="1.0" encoding="UTF-8"?>
<svg width="24" height="24" version="1.1" viewBox="0 0 24 24" xmlns="http://www.w3.org/2000/svg" xmlns:cc="http://creativecommons.org/ns#" xmlns:dc="http://purl.org/dc/elements/1.1/" xmlns:rdf="http://www.w3.org/1999/02/22-rdf-syntax-ns#">
 <g transform="translate(0 -290.65)">
  <path d="m13 292.65c-1.7825 0.0578-6.345-0.2126-9.2715 4.0742-1.938 2.8388-2.0546 7.6316-0.43164 10.488 1.6229 2.8566 5.007 5.4733 8.9082 5.4375 3.9012-0.034 7.9946-1.852 9.3164-6.1035 1.3218-4.2516-0.3111-10.501-3.5215-12.602-1.6052-1.0501-3.2175-1.3527-5-1.2949zm0 2c1.5129-0.0302 2.9275 0.41762 4.1738 1.2949 1.7237 1.2133 3.4095 6.3445 2.3457 9.7676-1.0638 3.4231-4.39 4.9375-7.5195 4.9375-3.1295 0-5.4375-2.01-6.7031-4.2734-1.2656-2.2635-1.3716-6.3903 0.22461-8.7168 2.2346-3.2569 5.9656-2.9802 7.4785-3.0098zm0 1.5a1.5 1.5 0 0 0-1.5 1.5 1.5 1.5 0 0 0 1.5 1.5 1.5 1.5 0 0 0 1.5-1.5 1.5 1.5 0 0 0-1.5-1.5zm-6 4a1.5 1.5 0 0 0-1.5 1.5 1.5 1.5 0 0 0 1.5 1.5 1.5 1.5 0 0 0 1.5-1.5 1.5 1.5 0 0 0-1.5-1.5zm4.5 0.49805a1 1 0 0 0-1 1 1 1 0 0 0 1 1 1 1 0 0 0 1-1 1 1 0 0 0-1-1zm5 1a1 1 0 0 0-1 1 1 1 0 0 0 1 1 1 1 0 0 0 1-1 1 1 0 0 0-1-1zm-2.5 3.502a1.5 1.5 0 0 0-1.5 1.5 1.5 1.5 0 0 0 1.5 1.5 1.5 1.5 0 0 0 1.5-1.5 1.5 1.5 0 0 0-1.5-1.5zm-4.5 1.498a1 1 0 0 0-1 1 1 1 0 0 0 1 1 1 1 0 0 0 1-1 1 1 0 0 0-1-1z" style="paint-order:fill markers stroke"/>
 </g>
</svg>
