<?xml version="1.0" encoding="UTF-8"?>
<svg width="24" height="24" version="1.1" viewBox="0 0 6.35 6.35" xmlns="http://www.w3.org/2000/svg" xmlns:cc="http://creativecommons.org/ns#" xmlns:dc="http://purl.org/dc/elements/1.1/" xmlns:rdf="http://www.w3.org/1999/02/22-rdf-syntax-ns#">
 <g transform="translate(0 -290.65)">
  <path transform="matrix(.26458 0 0 .26458 0 290.65)" d="m12.059 4c-3.8824 3.78e-5 -5.1758 2.5875-5.1758 5.1758 0 1.2807 0.9707 1.218 0.9707 1.9414 0 0-0.32422 0.64787-0.32422 1.2949 0 0.64702 1.9414 0.64588 1.9414 1.293v0.64844s-3.54e-4 0.64648 2.5879 0.64648c2.5882 0 2.5879-0.64648 2.5879-0.64648v-0.64844c0-0.64709 1.9414-0.64595 1.9414-1.293 0-0.64706-0.32227-1.2949-0.32227-1.2949-2e-6 -0.72344 0.96875-0.66071 0.96875-1.9414 0-2.5883-1.2934-5.1757-5.1758-5.1758zm-2.0586 4a1 1 0 0 1 1 1 1 1 0 0 1-1 1 1 1 0 0 1-1-1 1 1 0 0 1 1-1zm4 0a1 1 0 0 1 1 1 1 1 0 0 1-1 1 1 1 0 0 1-1-1 1 1 0 0 1 1-1z"/>
  <path transform="matrix(.26458 0 0 .26458 0 290.65)" d="m6.3223 14.23c-0.26521 0.001888-0.51712 0.15942-0.625 0.41992-0.14433 0.34753 0.17744 0.46345 0.054688 0.75976-0.12241 0.29707-0.43038 0.15071-0.57422 0.49805-0.1439 0.34734 0.019943 0.74467 0.36719 0.88867 0.61715 0.2555 0.88415-0.34098 2.082 0.13086h0.0019531c2.896e-4 -0.001209-2.997e-4 -0.002659 0-0.003906l1.2891 0.5332 1.7754-0.73633-2.4805-1.0273c-1.2575-0.52089-0.99818-1.1497-1.627-1.4102-0.086808-0.035981-0.17527-0.053364-0.26367-0.052734zm8.7637 4.3086-1.7793 0.73633 2.4805 1.0273c1.2575 0.52093 0.99818 1.1497 1.627 1.4102 0.17369 0.071395 0.35848 0.066519 0.51953 0 0.16091-0.06652 0.29516-0.19566 0.36719-0.36914h0.001953c0.14437-0.34756-0.1773-0.46383-0.054687-0.75977 0.123-0.29613 0.43234-0.14876 0.57617-0.49609 0.14389-0.34726-0.023831-0.747-0.37109-0.89062-0.62878-0.26041-0.88701 0.36851-2.1445-0.15234l-1.2227-0.50586z"/>
  <path d="m1.5073 296.3 3.189e-4 -1.4e-4c0.019057 0.0459 0.054703 0.0803 0.097276 0.0979 0.042612 0.0176 0.091875 0.019 0.13783 1.1e-4 0.16636-0.0689 0.097459-0.23527 0.43017-0.3731l2.1585-0.89409c7.93e-5 3.3e-4 -3.65e-5 6.7e-4 4.01e-5 9.9e-4l3.346e-4 -1.3e-4c0.31694-0.12484 0.38771 0.0331 0.551-0.0345 0.091875-0.0381 0.13553-0.14337 0.097453-0.23527-0.038057-0.0919-0.1197-0.0533-0.15209-0.1319-0.032479-0.0784 0.052479-0.10887 0.014291-0.20082-0.038056-0.0919-0.1434-0.13548-0.23527-0.0974-0.16636 0.0689-0.097456 0.23526-0.43017 0.37308l-2.142 0.88723c-0.33272 0.13781-0.4013-0.0287-0.56766 0.0402-0.09188 0.038-0.13585 0.14351-0.097775 0.23539 0.038056 0.0919 0.11974 0.0531 0.15228 0.13145 0.03244 0.0783-0.052761 0.10899-0.014564 0.20095z"/>
 </g>
</svg>
