<?xml version="1.0" encoding="UTF-8"?>
<svg width="24" height="24" version="1.1" viewBox="0 0 6.35 6.35" xmlns="http://www.w3.org/2000/svg" xmlns:cc="http://creativecommons.org/ns#" xmlns:dc="http://purl.org/dc/elements/1.1/" xmlns:rdf="http://www.w3.org/1999/02/22-rdf-syntax-ns#">
 <g transform="translate(0 -290.65)">
  <path transform="matrix(.26458 0 0 .26458 0 290.65)" d="m12.059 5c-5.2941 3.78e-5 -7.0586 3.5291-7.0586 7.0586 0 1.7464 1.3242 1.66 1.3242 2.6465 0 0-0.44141 0.88329-0.44141 1.7656s2.6465 0.8813 2.6465 1.7637v0.88281s-1.184e-4 0.88281 3.5293 0.88281c3.5294 0 3.5293-0.88281 3.5293-0.88281v-0.88281c0-0.88237 2.6465-0.88134 2.6465-1.7637s-0.43945-1.7656-0.43945-1.7656c-3e-6 -0.98649 1.3223-0.90008 1.3223-2.6465 0-3.5295-1.7645-7.0586-7.0586-7.0586zm-3.0586 5.5c0.82843 0 1.5 0.67157 1.5 1.5s-0.67157 1.5-1.5 1.5-1.5-0.67157-1.5-1.5c-1e-7 -0.82843 0.67157-1.5 1.5-1.5zm6 0c0.82843 0 1.5 0.67157 1.5 1.5s-0.67157 1.5-1.5 1.5-1.5-0.67157-1.5-1.5 0.67157-1.5 1.5-1.5z"/>
 </g>
</svg>
