<?xml version="1.0" encoding="UTF-8"?>
<svg width="24" height="24" version="1.1" viewBox="0 0 6.35 6.35" xmlns="http://www.w3.org/2000/svg" xmlns:cc="http://creativecommons.org/ns#" xmlns:dc="http://purl.org/dc/elements/1.1/" xmlns:rdf="http://www.w3.org/1999/02/22-rdf-syntax-ns#">
 <g transform="translate(0 -290.65)">
  <path d="m2.9104 291.71c-1.0229 0-1.8521 0.8292-1.8521 1.8521 1.8e-6 1.0229 0.82921 1.8521 1.8521 1.8521 0.3992-8.2e-4 0.78746-0.1306 1.1069-0.37l1.3519 1.3503 0.37517-0.3731-1.3519-1.3518c0.23951-0.31959 0.3693-0.70805 0.37-1.1074-1.8e-6 -1.0229-0.82921-1.8521-1.8521-1.8521zm0 0.52916c0.73063-1e-5 1.3229 0.59229 1.3229 1.3229 7.7e-6 0.73063-0.59229 1.3229-1.3229 1.3229-0.73063 1e-5 -1.3229-0.59229-1.3229-1.3229-7.7e-6 -0.73063 0.59229-1.3229 1.3229-1.3229z" style="paint-order:fill markers stroke"/>
 </g>
</svg>
