<?xml version="1.0" encoding="UTF-8"?>
<svg width="24" height="24" version="1.1" viewBox="0 0 6.35 6.35" xmlns="http://www.w3.org/2000/svg" xmlns:cc="http://creativecommons.org/ns#" xmlns:dc="http://purl.org/dc/elements/1.1/" xmlns:rdf="http://www.w3.org/1999/02/22-rdf-syntax-ns#">
 <g transform="translate(0 -290.65)">
  <path d="m5.0167 291.21-1.0583 1.8335-0.45785-0.26458-0.26458 0.45785 1.3746 0.79375 0.26458-0.45785-0.45837-0.26458 1.0583-1.8335zm-3.0324 1.0258a0.39688 0.39688 0 0 0-0.39688 0.39687 0.39688 0.39688 0 0 0 0.39688 0.39688 0.39688 0.39688 0 0 0 0.39688-0.39688 0.39688 0.39688 0 0 0-0.39688-0.39687zm-0.92604 0.52917a0.26458 0.26458 0 0 0-0.26458 0.26458 0.26458 0.26458 0 0 0 0.26458 0.26458 0.26458 0.26458 0 0 0 0.26458-0.26458 0.26458 0.26458 0 0 0-0.26458-0.26458zm0.65836 0.52916a0.13229 0.13229 0 0 0-0.12919 0.13229 0.13229 0.13229 0 0 0 0.13229 0.1323 0.13229 0.13229 0 0 0 0.13229-0.1323 0.13229 0.13229 0 0 0-0.13229-0.13229 0.13229 0.13229 0 0 0-0.0031 0zm1.2216 0.077c-0.41276 0.39914-0.80744 0.59066-2.2128 0.5178 0.86864 1.456 1.8293 2.4148 3.4437 2.4939 0.40557-0.80652 0.48659-1.4232 0.40411-2.0681zm0.029456 0.62735 1.1291 0.65216c-0.019304 0.51009-0.10439 0.82736-0.25425 1.1524-0.51631-0.0403-1.1891-0.35388-1.5653-0.73742 0 0 0.51923-0.28218 0.55966-0.51056-0.25545 0.18786-0.76998 0.29352-0.76998 0.29352-0.14595-0.16305-0.27106-0.33038-0.38809-0.49093 0.52984 0.0457 1.008-0.18075 1.2888-0.35915z" stroke-linecap="round" stroke-linejoin="bevel" stroke-width=".52917" style="paint-order:stroke fill markers"/>
 </g>
</svg>
