<?xml version="1.0" encoding="UTF-8"?>
<svg width="24" height="24" version="1.1" viewBox="0 0 6.35 6.35" xmlns="http://www.w3.org/2000/svg" xmlns:cc="http://creativecommons.org/ns#" xmlns:dc="http://purl.org/dc/elements/1.1/" xmlns:rdf="http://www.w3.org/1999/02/22-rdf-syntax-ns#">
 <g transform="translate(0 -290.65)">
  <path d="m3.175 291.31c-0.36531 0-0.66146 0.29614-0.66146 0.66146 2.87e-5 0.26298 0.37233 0.40535 0.13229 0.79375-0.24004 0.38839-1.3229-0.26459-1.5875 0-0.26458 0.26458-0.26458 1.5875 0 1.5875 0.26458 0 0.53077-0.39685 0.79375-0.39688 0.36531 0 0.66146 0.29615 0.66146 0.66146s-0.29614 0.66146-0.66146 0.66146c-0.26298-3e-5 -0.48038-0.59055-0.79375-0.39688-0.31337 0.19368 0 1.5875 0 1.5875h4.2333s0.31337-1.3938 0-1.5875c-0.31337-0.19367-0.53077 0.39685-0.79375 0.39688-0.36531 0-0.66146-0.29615-0.66146-0.66146s0.29614-0.66146 0.66146-0.66146c0.26298 3e-5 0.65649 0.39688 0.79375 0.39688 0.26458 0 0.20302-1.3229 0-1.5875-0.20302-0.26459-1.3475 0.38839-1.5875 0-0.24004-0.3884 0.13226-0.53077 0.13229-0.79375 0-0.36532-0.29614-0.66146-0.66146-0.66146z" stroke-linecap="round" stroke-linejoin="round" stroke-width="1.0583" style="paint-order:stroke fill markers"/>
 </g>
</svg>
