<?xml version="1.0" encoding="UTF-8"?>
<svg width="24" height="24" version="1.1" viewBox="0 0 6.35 6.35" xmlns="http://www.w3.org/2000/svg" xmlns:cc="http://creativecommons.org/ns#" xmlns:dc="http://purl.org/dc/elements/1.1/" xmlns:rdf="http://www.w3.org/1999/02/22-rdf-syntax-ns#">
 <g transform="translate(0 -290.65)">
  <path transform="matrix(.26458 0 0 .26458 0 290.65)" d="m11.803 4.0254c-1.678 0.073663-3.0979 0.74769-4.0957 1.4395-0.45081 0.31445-0.56334 0.93379-0.25195 1.3867 0.31494 0.45693 0.94172 0.57001 1.3965 0.25195 0.75743-0.52517 1.8599-1.0263 3.041-1.0781 1.1811-0.051817 2.461 0.28524 3.8379 1.6172 0.39647 0.38142 1.0266 0.37095 1.4102-0.023437 0.38586-0.39665 0.37624-1.0313-0.021484-1.416-1.7223-1.6661-3.6384-2.2514-5.3164-2.1777zm-0.57812 3.0762c-0.061136 0.0022399-0.12194 0.010085-0.18164 0.023438-0.53757 0.12083-1.2476 0.4037-1.8887 1.0195-0.64104 0.61584-1.1523 1.6044-1.1523 2.8555v1.0273c0.00214 0.54924 0.44686 0.99395 0.99609 0.99609 0.55229 0.0022 1.0018-0.44381 1.0039-0.99609v-1.0273c0-0.74895 0.23721-1.1261 0.53906-1.416 0.30186-0.29 0.7242-0.45225 0.94531-0.50195 0.53816-0.12311 0.87476-0.65903 0.75195-1.1973-0.0982-0.44031-0.47905-0.76035-0.92969-0.78125-0.02795-0.00183-0.05598-0.00248-0.08399-0.00195zm-4.5859 0.24219c-0.022802-1.285e-4 -0.045602 5.229e-4 -0.068359 0.0019531-0.31171 0.025464-0.59356 0.19529-0.76172 0.45898-0.46755 0.72465-0.59766 1.5059-0.59766 1.5059-0.11616 0.53801 0.22428 1.0687 0.76172 1.1875 0.54004 0.12116 1.0758-0.21937 1.1953-0.75977 0 0 0.16943-0.60968 0.32422-0.84961 0.30296-0.4641 0.17068-1.0861-0.29492-1.3867-0.16646-0.10681-0.36085-0.16187-0.55859-0.1582zm7.4648 0.55664c-0.22386 0.0083-0.43845 0.091521-0.60938 0.23633-0.42027 0.3586-0.47012 0.99005-0.11133 1.4102 0.54978 0.64539 0.59331 0.74979 0.60547 1.3574 0.0074 0.39847 0.03025 1.5606 0.0078 1.9414-0.0729 1.1973-0.3333 1.456-1.1152 1.957-0.46472 0.29785-0.60022 0.91591-0.30273 1.3809 0.29849 0.46403 0.91641 0.59863 1.3809 0.30078 1.0859-0.69577 1.9278-1.8528 2.0293-3.5195 0.02796-0.48932 0.0087-1.6228 0-2.0977-0.019073-0.95346-0.39758-1.8134-1.084-2.6191-0.18047-0.21016-0.44002-0.33605-0.7168-0.34766-0.02798-0.00118-0.056-0.00118-0.08398 0zm3.627 0.49414c-0.1432 0.00458-0.28374 0.039887-0.41211 0.10352-0.49218 0.24547-0.69375 0.84233-0.45117 1.3359 0.11604 0.23524 0.16211 0.94531 0.16211 0.94531v0.0078l-0.05078 2.752c-0.0775 1.7755-1.6465 3.2266-1.6465 3.2266-0.41789 0.36087-0.46423 0.99213-0.10352 1.4102 0.36087 0.41789 0.99213 0.46423 1.4102 0.10352 0 0 2.2164-1.8226 2.3398-4.6504v-0.0078l0.05273-2.791s0.09433-0.94134-0.36914-1.8809c-0.17466-0.35182-0.5391-0.56881-0.93164-0.55469zm-5.7305 1.6055c-0.554 0-1 0.446-1 1v2c0 0.554 0.446 1 1 1s1-0.446 1-1v-2c0-0.554-0.446-1-1-1zm-6.0352 1.1035c-0.5531 0.0096-0.99331 0.46646-0.98242 1.0195l0.015625 1.0781v0.02148c0.13297 2.5884 1.6318 5.053 4.3105 6.2305 0.50587 0.2256 1.0988-3e-3 1.3223-0.50977 0.22334-0.50748-0.008859-1.0998-0.51758-1.3203-2.0075-0.88244-3.0171-2.5944-3.1152-4.5039l-0.015625-1.0254c-0.0053383-0.55539-0.46225-1-1.0176-0.99023zm3.4883 2.6211c-0.22553 0.01213-0.44031 0.10024-0.60938 0.25-0.41552 0.36313-0.45835 0.99422-0.095703 1.4102 0 0 0.66305 0.7964 1.6816 1.3008 0.4941 0.24389 1.0924 0.04213 1.3379-0.45117 0.24786-0.49556 0.04552-1.0982-0.45117-1.3438-0.54917-0.27194-1.0625-0.81836-1.0625-0.81836-0.18047-0.21016-0.44002-0.33606-0.7168-0.34766-0.027982-0.0012-0.056002-0.0012-0.083984 0z" fill-opacity=".98468" stroke-linecap="round" stroke-linejoin="round" stroke-width="4" style="paint-order:stroke fill markers"/>
 </g>
</svg>
