<?xml version="1.0" encoding="UTF-8"?>
<svg width="24" height="24" version="1.1" viewBox="0 0 6.35 6.35" xmlns="http://www.w3.org/2000/svg" xmlns:cc="http://creativecommons.org/ns#" xmlns:dc="http://purl.org/dc/elements/1.1/" xmlns:rdf="http://www.w3.org/1999/02/22-rdf-syntax-ns#">
 <g transform="translate(0 -290.65)">
  <path d="m0.92994 294.95c-0.31094 0.31094-0.31094 0.81159 0 1.1225 0.31093 0.31094 0.81159 0.31095 1.1225 0l0.56127-0.56126c-0.20885 0.0139-0.4193-0.0328-0.60548-0.14288l-0.32996 0.32997c-0.10365 0.10365-0.27053 0.10364-0.37418 0-0.10365-0.10365-0.10365-0.27053 0-0.37418l0.93544-0.93544c0.10365-0.10365 0.27053-0.10365 0.37418 0l0.37418-0.37418c-0.31094-0.31094-0.81159-0.31094-1.1225 0zm1.4967-1.4967s0.37418 1e-5 0.56127 0.18709c-0.18709-0.18708-0.18709-0.56126-0.18709-0.56126zm0.93544-0.93544c-0.31094 0.31094-0.31094 0.81159 0 1.1225l0.37418-0.37418c-0.10365-0.10364-0.10365-0.27052 0-0.37417l0.93544-0.93545c0.10365-0.10365 0.27053-0.10364 0.37418 0 0.10365 0.10365 0.10365 0.27053 0 0.37418l-0.32996 0.32996c0.11004 0.18618 0.15681 0.39664 0.14287 0.60548l0.56127-0.56126c0.31094-0.31094 0.31094-0.8116 0-1.1225-0.31094-0.31095-0.81159-0.31095-1.1225 0zm-1.3096 2.4322c0.31093 0.31094 0.81159 0.31094 1.1225 0l1.1225-1.1225c0.31094-0.31094 0.31094-0.8116 0-1.1225l-0.37418 0.37418c0.10365 0.10364 0.10365 0.27052 0 0.37417l-1.1225 1.1225c-0.10365 0.10365-0.27053 0.10365-0.37418 0z" stroke-linecap="square" stroke-width=".52917" style="paint-order:stroke fill markers"/>
 </g>
</svg>
