<?xml version="1.0" encoding="UTF-8"?>
<svg width="24" height="24" version="1.1" viewBox="0 0 6.35 6.35" xmlns="http://www.w3.org/2000/svg" xmlns:cc="http://creativecommons.org/ns#" xmlns:dc="http://purl.org/dc/elements/1.1/" xmlns:rdf="http://www.w3.org/1999/02/22-rdf-syntax-ns#">
 <g transform="translate(0 -290.65)">
  <path transform="matrix(.26458 0 0 .26458 0 290.65)" d="m11 4c-3.866 0-7 3.134-7 7 6.8e-6 3.866 3.134 7 7 7 1.5088-0.003099 2.9762-0.49362 4.1836-1.3984l5.1094 5.1035 1.418-1.4102-5.1094-5.1094c0.90524-1.2079 1.3958-2.6761 1.3984-4.1855-7e-6 -3.866-3.134-7-7-7zm0 2c2.7614-3.78e-5 5 2.2386 5 5 2.9e-5 2.7614-2.2386 5-5 5-2.7614 3.8e-5 -5-2.2386-5-5-2.91e-5 -2.7614 2.2386-5 5-5zm-3 4v2h6v-2h-6z" style="paint-order:fill markers stroke"/>
 </g>
</svg>
