<?xml version="1.0" encoding="UTF-8"?>
<svg width="24" height="24" version="1.1" viewBox="0 0 6.35 6.35" xmlns="http://www.w3.org/2000/svg" xmlns:cc="http://creativecommons.org/ns#" xmlns:dc="http://purl.org/dc/elements/1.1/" xmlns:rdf="http://www.w3.org/1999/02/22-rdf-syntax-ns#">
 <g transform="translate(0 -290.65)">
  <path transform="matrix(.26458 0 0 .26458 0 290.65)" d="m19.424 2.1602c-0.25593-4.6e-6 -0.51177 0.097775-0.70703 0.29297-0.70712 0.70715 1.28e-4 1.4159-1.4141 2.8301l-0.16797 0.16797c0.45876 0.32715 0.86406 0.69938 1.209 1.1133 0.077974 0.093568 0.1447 0.19241 0.2168 0.28906l0.15625-0.15625c1.4142-1.4142 2.121-0.70695 2.8281-1.4141 0.3905-0.39054 0.39054-1.0255 0-1.416-0.39048-0.39069-0.72718-0.017074-1.0605-0.35156-0.33337-0.33335 0.039622-0.67005-0.35156-1.0605h-0.001953c-0.19526-0.19536-0.4511-0.29492-0.70703-0.29492zm-14.848 0.0019532c-0.25593-4.7e-6 -0.51177 0.097699-0.70703 0.29297-0.39052 0.3905-0.020179 0.72719-0.35352 1.0605-0.33333 0.33335-0.67198-0.037666-1.0625 0.35352-0.39052 0.39054-0.39051 1.0235 0 1.4141 0.70712 0.70711 1.4159-1.233e-4 2.8301 1.4141l0.22461 0.22461c0.087198-0.11996 0.16953-0.2421 0.26562-0.35742 0.32755-0.39306 0.70771-0.7512 1.1387-1.0664l-0.21484-0.21484c-1.4142-1.4142-0.70694-2.121-1.4141-2.8281-0.19525-0.19525-0.4511-0.29296-0.70703-0.29297zm7.4824 2.8379c-5.2941 3.78e-5 -7.0586 3.5291-7.0586 7.0586 0 1.7464 1.3242 1.66 1.3242 2.6465 0 0-0.44141 0.88329-0.44141 1.7656s2.6465 0.8813 2.6465 1.7637v0.88281s-1.184e-4 0.88281 3.5293 0.88281c3.5294 0 3.5293-0.88281 3.5293-0.88281v-0.88281c0-0.88237 2.6465-0.88134 2.6465-1.7637s-0.43945-1.7656-0.43945-1.7656c-3e-6 -0.98649 1.3223-0.90008 1.3223-2.6465 0-3.5295-1.7645-7.0586-7.0586-7.0586zm-3.0586 5.5a1.5 1.5 0 0 1 1.5 1.5 1.5 1.5 0 0 1-1.5 1.5 1.5 1.5 0 0 1-1.5-1.5 1.5 1.5 0 0 1 1.5-1.5zm6 0a1.5 1.5 0 0 1 1.5 1.5 1.5 1.5 0 0 1-1.5 1.5 1.5 1.5 0 0 1-1.5-1.5 1.5 1.5 0 0 1 1.5-1.5zm-9.791 6.8672c-1.3626 1.3122-2.0598 0.65558-2.7539 1.3496-0.3905 0.39054-0.39054 1.0236 0 1.4141 0.39048 0.39069 0.72718 0.019028 1.0605 0.35352 0.33337 0.33335-0.037664 0.67001 0.35352 1.0605 0.39052 0.39069 1.0235 0.39039 1.4141 0 0.70712-0.70715-1.248e-4 -1.4139 1.4141-2.8281l0.35156-0.35156c-0.063246-0.023121-0.089958-0.04038-0.16211-0.064453-0.33088-0.11014-0.69802-0.22427-1.0781-0.43555-0.19005-0.10541-0.38599-0.2329-0.57422-0.45703-0.0093392-0.011118-0.016178-0.029277-0.025391-0.041015zm13.656 0.066406c-0.18114 0.20592-0.37708 0.33093-0.55859 0.43164-0.38011 0.21105-0.74724 0.32518-1.0781 0.43555-0.11045 0.036823-0.15725 0.061774-0.24609 0.095703l0.32031 0.32031c1.4142 1.4142 0.70694 2.1229 1.4141 2.8301 0.39051 0.3905 1.0235 0.39054 1.4141 0 0.39052-0.3905 0.020165-0.72915 0.35352-1.0625 0.33333-0.33335 0.67198 0.039619 1.0625-0.35156 0.39052-0.39054 0.39051-1.0255 0-1.416-0.68085-0.68084-1.3697-0.068657-2.6816-1.2832z"/>
 </g>
</svg>
