<?xml version="1.0" encoding="UTF-8"?>
<svg width="24" height="24" version="1.1" viewBox="0 0 6.35 6.35" xmlns="http://www.w3.org/2000/svg" xmlns:cc="http://creativecommons.org/ns#" xmlns:dc="http://purl.org/dc/elements/1.1/" xmlns:rdf="http://www.w3.org/1999/02/22-rdf-syntax-ns#">
 <g transform="translate(0 -290.65)">
  <path transform="matrix(.26458 0 0 .26458 0 290.65)" d="m15 3.5a3.5 3.5 0 0 0-3.3516 2.5h-9.6484v2h9.6465a3.5 3.5 0 0 0 3.3535 2.5 3.5 3.5 0 0 0 3.3516-2.5h3.6484v-2h-3.6465a3.5 3.5 0 0 0-3.3535-2.5zm0 2a1.5 1.5 0 0 1 1.5 1.5 1.5 1.5 0 0 1-1.5 1.5 1.5 1.5 0 0 1-1.5-1.5 1.5 1.5 0 0 1 1.5-1.5zm-6 8a3.5 3.5 0 0 0-3.3516 2.5h-3.6484v2h3.6465a3.5 3.5 0 0 0 3.3535 2.5 3.5 3.5 0 0 0 3.3516-2.5h9.6484v-2h-9.6465a3.5 3.5 0 0 0-3.3535-2.5zm0 2a1.5 1.5 0 0 1 1.5 1.5 1.5 1.5 0 0 1-1.5 1.5 1.5 1.5 0 0 1-1.5-1.5 1.5 1.5 0 0 1 1.5-1.5z" style="paint-order:fill markers stroke"/>
 </g>
</svg>
