<?xml version="1.0" encoding="UTF-8"?>
<svg width="24" height="24" version="1.1" viewBox="0 0 6.35 6.35" xmlns="http://www.w3.org/2000/svg" xmlns:cc="http://creativecommons.org/ns#" xmlns:dc="http://purl.org/dc/elements/1.1/" xmlns:rdf="http://www.w3.org/1999/02/22-rdf-syntax-ns#">
 <g transform="translate(0 -290.65)">
  <path transform="matrix(.26458 0 0 .26458 0 290.65)" d="m4 4v7l10 10 7-7-3-3v3c0 1.662-1.338 3-3 3s-3-1.338-3-3v-9l-1-1zm3 1.5c0.82843 0 1.5 0.67157 1.5 1.5s-0.67157 1.5-1.5 1.5c-0.82843 0-1.5-0.67157-1.5-1.5s0.67157-1.5 1.5-1.5z"/>
  <g transform="matrix(1 0 0 -1 .79375 587.12)">
   <rect x="2.9104" y="293.56" width=".52917" height="1.8521" ry="0" style="paint-order:fill markers stroke"/>
   <circle cx="3.175" cy="292.77" r=".39687" style="paint-order:fill markers stroke"/>
  </g>
 </g>
</svg>
