<?xml version="1.0" encoding="UTF-8"?>
<svg width="24" height="24" version="1.1" viewBox="0 0 6.35 6.35" xmlns="http://www.w3.org/2000/svg" xmlns:cc="http://creativecommons.org/ns#" xmlns:dc="http://purl.org/dc/elements/1.1/" xmlns:rdf="http://www.w3.org/1999/02/22-rdf-syntax-ns#">
 <g transform="translate(0 -290.65)" stroke-linecap="square" stroke-linejoin="round" stroke-width=".26458">
  <path d="m3.7363 293.26c-0.064881-0.0649-0.13738-0.11616-0.21267-0.16077l-0.34824 0.34824c-0.016829 0.0168-0.026375 0.0364-0.03797 0.0555 0.081908 0.0243 0.15974 0.0662 0.22469 0.13121 0.20729 0.20729 0.20729 0.54106-2.3e-6 0.74836l-1.3096 1.3096c-0.2073 0.20729-0.54106 0.20729-0.74836 0-0.20729-0.2073-0.20729-0.54106 2.3e-6 -0.74836l0.82802-0.82801c-0.084059-0.21573-0.10659-0.44836-0.073445-0.67491l-0.56748 0.56748-0.56127 0.56126c-0.41459 0.41459-0.41459 1.0821-4.73e-6 1.4967 0.41459 0.41459 1.0821 0.41458 1.4967-1e-5l1.3096-1.3096c0.41458-0.41458 0.41459-1.0821 4.7e-6 -1.4967z" style="paint-order:stroke fill markers"/>
  <path d="m2.6137 294.39c0.064881 0.0649 0.13738 0.11617 0.21267 0.16078l0.34824-0.34824c0.016829-0.0168 0.026375-0.0364 0.037971-0.0555-0.08191-0.0243-0.15974-0.0663-0.22469-0.13121-0.20729-0.2073-0.20729-0.54107 2.4e-6 -0.74836l1.3096-1.3096c0.2073-0.20729 0.54106-0.2073 0.74836 0 0.20729 0.20729 0.20729 0.54106-2.3e-6 0.74836l-0.82802 0.82801c0.084059 0.21572 0.10659 0.44836 0.073445 0.67491l1.1287-1.1288c0.41459-0.41459 0.41459-1.0821 4.7e-6 -1.4967-0.41459-0.41459-1.0821-0.41459-1.4967 0l-1.3096 1.3096c-0.41458 0.41459-0.41459 1.0821-4.8e-6 1.4967z" style="paint-order:stroke fill markers"/>
 </g>
</svg>
