<?xml version="1.0" encoding="UTF-8"?>
<svg width="24" height="24" version="1.1" viewBox="0 0 6.35 6.35" xmlns="http://www.w3.org/2000/svg" xmlns:cc="http://creativecommons.org/ns#" xmlns:dc="http://purl.org/dc/elements/1.1/" xmlns:rdf="http://www.w3.org/1999/02/22-rdf-syntax-ns#">
 <g transform="translate(0 -290.65)">
  <path d="m5.2917 291.71v1.5875h-1.5875v-0.52916h0.65009c-0.30023-0.33568-0.72891-0.52817-1.1793-0.52917-0.87675 0-1.5875 0.71075-1.5875 1.5875a1.5875 1.5875 0 0 0 1.5875 1.5875 1.5875 1.5875 0 0 0 1.1219-0.4656l0.37414 0.37413a2.1167 2.1167 0 0 1-1.496 0.62064 2.1167 2.1167 0 0 1-2.1167-2.1167c0-1.169 0.94766-2.1167 2.1167-2.1167 0.60856 2e-3 1.1869 0.26532 1.5875 0.72347v-0.72347z" style="paint-order:fill markers stroke"/>
 </g>
</svg>
