<?xml version="1.0" encoding="UTF-8"?>
<svg width="24" height="24" version="1.1" viewBox="0 0 6.35 6.35" xmlns="http://www.w3.org/2000/svg" xmlns:cc="http://creativecommons.org/ns#" xmlns:dc="http://purl.org/dc/elements/1.1/" xmlns:rdf="http://www.w3.org/1999/02/22-rdf-syntax-ns#">
 <g transform="translate(0 -290.65)">
  <path transform="matrix(.26458 0 0 .26458 0 290.65)" d="m21.998 1.793c-1.9827 1.7985-4.0853 2.207-6.002 2.207-1.9167 0-2.7715-0.44532-3.7715-0.94531s-2.1393-1.0547-4.2227-1.0547c-2.0833 0-4.8948 0.87964-6.002 1.8535v12.146h20l-0.001953-14.207zm-13.996 1.2031c1.9167 0 2.7715 0.45313 3.7715 0.95312 1 0.49999 2.1393 1.0469 4.2227 1.0469 1.6627 0 2.9906-0.33223 4.0039-0.73438v9.7383h-16v-10.172c0.93541-0.42762 2.2531-0.83203 4.002-0.83203zm2.498 9.0039c-0.277 0-0.5 0.223-0.5 0.5s0.223 0.5 0.5 0.5h3c0.277 0 0.5-0.223 0.5-0.5s-0.223-0.5-0.5-0.5h-3z" fill-opacity=".947" style="paint-order:stroke fill markers"/>
 </g>
</svg>
