<?xml version="1.0" encoding="UTF-8"?>
<svg width="24" height="24" version="1.1" viewBox="0 0 6.35 6.35" xmlns="http://www.w3.org/2000/svg" xmlns:cc="http://creativecommons.org/ns#" xmlns:dc="http://purl.org/dc/elements/1.1/" xmlns:rdf="http://www.w3.org/1999/02/22-rdf-syntax-ns#">
 <g transform="translate(0 -290.65)">
  <path d="m3.175 291.71c-1.169 0-2.1167 0.23692-2.1167 0.52917v0.52916c0 0.29225 0.94766 0.52917 2.1167 0.52917s2.1167-0.23692 2.1167-0.52917v-0.52916c0-0.29225-0.94766-0.52917-2.1167-0.52917z"/>
  <path d="m1.0583 293.3v0.79376c1.46e-5 0.29225 0.94767 0.52916 2.1167 0.52916 1.169 0 2.1167-0.23691 2.1167-0.52916v-0.79376c7.4e-6 0.29225-0.94766 0.52917-2.1167 0.52917s-2.1167-0.23692-2.1167-0.52917z"/>
  <path d="m1.0583 294.62v0.79376c1.46e-5 0.29225 0.94767 0.52916 2.1167 0.52916s2.1167-0.23691 2.1167-0.52916v-0.79376c7.3e-6 0.29225-0.94766 0.52917-2.1167 0.52917s-2.1167-0.23692-2.1167-0.52917z"/>
 </g>
</svg>
