<?xml version="1.0" encoding="UTF-8"?>
<svg width="24" height="24" version="1.1" viewBox="0 0 6.35 6.35" xmlns="http://www.w3.org/2000/svg" xmlns:cc="http://creativecommons.org/ns#" xmlns:dc="http://purl.org/dc/elements/1.1/" xmlns:rdf="http://www.w3.org/1999/02/22-rdf-syntax-ns#">
 <defs>
  <style type="text/css">.ColorScheme-Text {
        color:#4d4d4d;
      }</style>
 </defs>
 <g transform="translate(0 -290.65)">
  <path d="m2.6458 292.24c-0.73063 0-1.3229 0.59228-1.3229 1.3229-1.2e-5 3e-3 -1.2e-5 7e-3 0 0.01-0.45549 0.0657-0.79359 0.45602-0.79375 0.91622-9.766e-5 0.46041 0.26458 0.92605 0.92604 0.92605h0.31833l-0.21704-0.22635 1.6195-1.619 1.619 1.619-0.22118 0.22635h0.58549c0.36531 0 0.66146-0.29615 0.66146-0.66146s-0.29614-0.66146-0.66146-0.66146c-0.048817 1e-4 -0.097123 8e-3 -0.14469 0.0186 0.00825-0.0499 0.012394-0.10034 0.012402-0.15089-6e-7 -0.51144-0.4146-0.92604-0.92604-0.92604-0.096304-3e-5 -0.19202 0.015-0.2837 0.0444-0.13681-0.51064-0.71901-0.83808-1.1715-0.83819z" stroke-linecap="round" stroke-linejoin="round" stroke-width=".61736" style="paint-order:stroke fill markers"/>
  <path d="m2.9104 296.47v-1.5172l-0.60771 0.60771-0.3731-0.37517 1.2454-1.2454 1.2454 1.2454-0.37517 0.37517-0.60565-0.60719v1.5167z" color="#000000" color-rendering="auto" dominant-baseline="auto" image-rendering="auto" shape-rendering="auto" solid-color="#000000" stop-color="#000000" style="font-feature-settings:normal;font-variant-alternates:normal;font-variant-caps:normal;font-variant-east-asian:normal;font-variant-ligatures:normal;font-variant-numeric:normal;font-variant-position:normal;font-variation-settings:normal;inline-size:0;isolation:auto;mix-blend-mode:normal;shape-margin:0;shape-padding:0;text-decoration-color:#000000;text-decoration-line:none;text-decoration-style:solid;text-indent:0;text-orientation:mixed;text-transform:none;white-space:normal"/>
 </g>
</svg>
