<?xml version="1.0" encoding="UTF-8"?>
<svg width="24" height="24" version="1.1" viewBox="0 0 6.35 6.35" xmlns="http://www.w3.org/2000/svg" xmlns:cc="http://creativecommons.org/ns#" xmlns:dc="http://purl.org/dc/elements/1.1/" xmlns:rdf="http://www.w3.org/1999/02/22-rdf-syntax-ns#">
 <g transform="translate(0 -290.65)">
  <path d="m3.175 291.18-0.74827 0.77514h-1.1224l0.018603 1.0769-0.79375 0.79375 0.77515 0.74827v1.1224l1.0769-0.0186 0.79375 0.79375 0.74827-0.77514h1.1224l-0.018604-1.077 0.79375-0.79375-0.77515-0.74827v-1.1224l-1.0769 0.0186zm0.00672 0.75447 0.41186 0.41393 0.38499 0.15451 0.53899-0.0103v0.58394l0.1602 0.38137 0.38861 0.37466-0.41393 0.41238-0.15451 0.38447 0.00982 0.53743h-0.58395l-0.38086 0.16175-0.37517 0.38706-0.41186-0.41238-0.38499-0.154-0.53692 8e-3v-0.58187l-0.16226-0.38086-0.38654-0.37517 0.41186-0.41186 0.15451-0.38499-0.00982-0.53898h0.58394l0.38086-0.1602z" stroke-linecap="round" stroke-linejoin="round" stroke-width="1.0583" style="paint-order:stroke fill markers"/>
  <path transform="matrix(.26458 0 0 .26458 0 290.65)" d="m11.939 8a4 4 0 0 0-3.9395 4 4 4 0 0 0 4 4 4 4 0 0 0 4-4 4 4 0 0 0-4-4 4 4 0 0 0-0.060547 0zm0.011719 2a2 2 0 0 1 0.048828 0 2 2 0 0 1 2 2 2 2 0 0 1-2 2 2 2 0 0 1-2-2 2 2 0 0 1 1.9512-2z" style="paint-order:stroke fill markers"/>
 </g>
</svg>
