<?xml version="1.0" encoding="UTF-8"?>
<svg width="24" height="24" version="1.1" viewBox="0 0 6.35 6.35" xmlns="http://www.w3.org/2000/svg" xmlns:cc="http://creativecommons.org/ns#" xmlns:dc="http://purl.org/dc/elements/1.1/" xmlns:rdf="http://www.w3.org/1999/02/22-rdf-syntax-ns#">
 <g transform="translate(0 -290.65)">
  <path transform="matrix(.26458 0 0 .26458 0 290.65)" d="m2 2.3203v5.3594l-2 0.53516v12l12-3.2148 12 3.2148v-12l-2-0.53516v-5.3594l-10 2.6797-10-2.6797zm19 1.2676v3.8223l-7.1348-1.9102 7.1348-1.9121zm-9 2.4121v10l-11 2.9473v-10l11-2.9473zm5 2.3398 2 0.53516 3 8.8047-2.2559-0.60547-0.32812-1.0879-2.8379-0.75977-0.33008 0.91211-2.248-0.60352 3-7.1953zm-10.311 1.0898c-0.059334-0.0057124-0.123 0.0057499-0.18945 0.042969-0.83022 0.46602-1.3791 0.45907-1.9453 0.33594 0 0 0.2843 1.2091 1.9453 0.66602 0.36746-0.12019 0.5-0.35758 0.5-0.63477 0-0.20778-0.13254-0.39302-0.31055-0.41016zm1.3105 0.89258c-1.3459 0.58704-2.6735 0.83848-4 1.0703v0.001953c-0.0025901 0.60816 0.98038 1.2389 1 0.74805 0.33333-0.048378 0.85091-0.14777 1.5176-0.40625-0.91888 1.8807-1.5371 2.6488-2.9023 4.1152 0.032145 0.13569 0.22548 0.28459 0.38477 0.29102 0.89208-0.83168 1.8475-1.8622 2.6836-2.9922 0.37174 0.6336 0.80019 1.4734 2.5605 1.3125 0.038298-0.21694-0.072932-0.87222-0.23633-1.0352-1.1822 0.00378-1.725-0.18317-2.1328-0.5293 0.35734-0.50249 0.69308-1.0184 0.97656-1.5547 0.13472-0.25474 0.20739-0.74361 0.14844-1.0215zm10 0.97266-0.76172 2.1094 1.5215 0.40625-0.75977-2.5156zm-5 7.7051v1h1.1797c-0.7946 0.61671-1.74 0.98047-2.6797 0.98047-1.1298-1e-6 -2.1707-0.45011-3.1113-1.3906l-0.78125 0.82226c1.0594 1.0594 2.5224 1.6035 3.8926 1.6035 1.2098 2.09e-4 2.4477-0.35674 3.5-1.2188v1.2031h1v-2-1h-3z" stroke-linecap="round" stroke-linejoin="round" style="paint-order:stroke fill markers"/>
 </g>
</svg>
