<?xml version="1.0" encoding="UTF-8"?>
<svg width="24" height="24" version="1.1" viewBox="0 0 6.35 6.35" xmlns="http://www.w3.org/2000/svg" xmlns:cc="http://creativecommons.org/ns#" xmlns:dc="http://purl.org/dc/elements/1.1/" xmlns:rdf="http://www.w3.org/1999/02/22-rdf-syntax-ns#">
 <g transform="translate(0 -290.65)" stroke-linecap="round" stroke-linejoin="round">
  <path transform="matrix(.26458 0 0 .26458 0 290.65)" d="m2 6c-1.108 0-2 0.89202-2 2v8c0 1.108 0.89202 2 2 2h20c1.108 0 2-0.89202 2-2v-8c0-1.108-0.89202-2-2-2h-20zm0 1h10v10h-10c-0.55398 0-1-0.44602-1-1v-8c0-0.55398 0.44602-1 1-1zm15 1h2l3 8h-2.2559l-0.32812-1h-2.8379l-0.33008 1h-2.248l3-8zm1 2.6875-0.76172 2.3125h1.5215l-0.75977-2.3125z" style="paint-order:stroke fill markers"/>
  <path transform="matrix(.26458 0 0 .26458 0 290.65)" d="m4.5547 8.8145s0.2843 1.2835 1.9453 1.1855c0.36746-0.021675 0.5-0.22296 0.5-0.5 0-0.277-0.2342-0.57786-0.5-0.5-0.83022 0.24355-1.3791 0.089225-1.9453-0.18555zm-0.55469 1.4355c-0.00259 0.60748 0.98038 1.5031 1 1.0176 0.33333 0.04082 0.85092 0.07975 1.5176 0-0.91888 1.6345-1.5374 2.2374-2.9026 3.338 0.032144 0.14438 0.22575 0.34526 0.38503 0.39439 0.89208-0.59267 1.8475-1.3675 2.6836-2.2734 0.37174 0.73321 0.80019 1.6873 2.5605 1.998 0.038298-0.20663-0.072803-0.89114-0.2362-1.0979-1.1822-0.31168-1.7252-0.64602-2.1329-1.1013 0.35734-0.40672 0.69308-0.83265 0.97656-1.293 0.13472-0.21872 0.20739-0.68875 0.14844-0.98242-1.3459 0.22639-2.6735 0.12359-4 0z" style="paint-order:stroke fill markers"/>
 </g>
</svg>
