<?xml version="1.0" encoding="UTF-8"?>
<svg width="24" height="24" version="1.1" viewBox="0 0 6.35 6.35" xmlns="http://www.w3.org/2000/svg" xmlns:cc="http://creativecommons.org/ns#" xmlns:dc="http://purl.org/dc/elements/1.1/" xmlns:rdf="http://www.w3.org/1999/02/22-rdf-syntax-ns#">
 <g transform="translate(0 -290.65)">
  <path d="m3.175 291.44-2.6458 1.5875 2.6458 1.5875 2.6458-1.5875zm0.00103 0.61753 1.617 0.96894-1.617 0.97048-1.6175-0.97048z"/>
  <path transform="matrix(.26458 0 0 .26458 0 290.65)" d="m3.5293 11.082-1.5293 0.91797 10 6 10-6-1.5254-0.91602-0.96875 0.58203 0.55078 0.33008-8.0527 4.834-8.0547-4.834 0.55078-0.33008-0.9707-0.58398z"/>
  <path d="m0.93379 294.38-0.40463 0.24288 2.6458 1.5875 2.6458-1.5875-0.40359-0.24236-0.25632 0.15399 0.14573 0.0873-2.1306 1.279-2.1311-1.279 0.14573-0.0873z"/>
 </g>
</svg>
