<?xml version="1.0" encoding="UTF-8"?>
<svg width="24" height="24" version="1.1" viewBox="0 0 6.35 6.35" xmlns="http://www.w3.org/2000/svg" xmlns:cc="http://creativecommons.org/ns#" xmlns:dc="http://purl.org/dc/elements/1.1/" xmlns:rdf="http://www.w3.org/1999/02/22-rdf-syntax-ns#">
 <g transform="translate(0 -290.65)">
  <path d="m5.8203 291.12c-0.52458 0.47584-1.0809 0.58394-1.588 0.58394-0.50712 0-0.73329-0.11782-0.99787-0.25011-0.26458-0.13229-0.56603-0.27906-1.1172-0.27905-0.55122 0-1.2951 0.23274-1.588 0.49041v3.2138h5.2917zm-3.7031 0.31833c0.50712 0 0.73329 0.11989 0.99787 0.25218 0.26458 0.13229 0.56603 0.27698 1.1172 0.27698 0.43993 0 0.79127-0.0879 1.0594-0.1943v2.5766h-4.2333v-2.6913c0.24749-0.11314 0.59612-0.22014 1.0589-0.22014z" fill-opacity=".947" style="paint-order:stroke fill markers"/>
  <rect x="2.6458" y="293.82" width="1.0583" height=".26458" ry=".13229" stroke-linecap="square" stroke-linejoin="round" stroke-width=".26458" style="paint-order:stroke fill markers"/>
 </g>
</svg>
