<?xml version="1.0" encoding="UTF-8"?>
<svg width="24" height="24" version="1.1" viewBox="0 0 6.35 6.35" xmlns="http://www.w3.org/2000/svg" xmlns:cc="http://creativecommons.org/ns#" xmlns:dc="http://purl.org/dc/elements/1.1/" xmlns:rdf="http://www.w3.org/1999/02/22-rdf-syntax-ns#">
 <g transform="translate(0 -290.65)">
  <path transform="matrix(.26458 0 0 .26458 0 290.65)" d="m12 2c-0.554 0-1 0.446-1 1s-0.446 1-1 1h-1v2h6v-2h-1c-0.554 0-1-0.446-1-1s-0.446-1-1-1zm-7 2v16h14v-16h-3v2.002h1v11.994h-10.002v-11.994h1.002v-2.002h-3zm4 4v1h6v-1h-6zm0 2v1h6v-1h-6zm0 2v1h6v-1h-6zm0 2v1h2v-1h-2z" style="paint-order:fill markers stroke"/>
 </g>
</svg>
