<?xml version="1.0" encoding="UTF-8"?>
<svg width="24" height="24" version="1.1" viewBox="0 0 6.35 6.35" xmlns="http://www.w3.org/2000/svg" xmlns:cc="http://creativecommons.org/ns#" xmlns:dc="http://purl.org/dc/elements/1.1/" xmlns:rdf="http://www.w3.org/1999/02/22-rdf-syntax-ns#">
 <g transform="translate(0 -290.65)">
  <path transform="matrix(.26458 0 0 .26458 0 290.65)" d="m20.5 2.002c-1.3689 0-2.5039 1.1272-2.5039 2.4961 1.7e-5 1.3689 1.135 2.502 2.5039 2.502s2.5019-1.1331 2.502-2.502c1.8e-5 -1.3689-1.1331-2.4961-2.502-2.4961z" style="paint-order:fill markers stroke"/>
  <path transform="matrix(.26458 0 0 .26458 0 290.65)" d="m13 2c-1.7825 0.057827-6.345-0.2126-9.2715 4.0742-1.938 2.8388-2.0546 7.6316-0.43164 10.488 1.6229 2.8566 5.007 5.4733 8.9082 5.4375 3.9012-0.03402 7.9946-1.852 9.3164-6.1035 0.47651-1.5327 0.5627-3.3237 0.33594-5.0879-1.1302 0.19579-1.4527 0.0099-1.9512-0.20898-0.33971-0.2488-0.79886-0.25816-1.1484-0.023437-0.16414 0.11036-0.35697 0.16917-0.55469 0.16992-0.56413 0-1-0.43587-1-1-5.5e-5 -0.55226-0.44774-0.99994-1-1-0.56413 0-1-0.43587-1-1-4.7e-5 -0.19162 0.05482-0.37978 0.1582-0.54102 0.37273-0.58099 0.058742-1.356-0.61328-1.5137-0.82106-0.19208-1.4091-0.83943-1.6562-1.6895-0.24719-0.85002-0.18762-1.2741-0.091797-2.002zm0 3.5a1.5 1.5 0 0 1 1.5 1.5 1.5 1.5 0 0 1-1.5 1.5 1.5 1.5 0 0 1-1.5-1.5 1.5 1.5 0 0 1 1.5-1.5zm-6 4a1.5 1.5 0 0 1 1.5 1.5 1.5 1.5 0 0 1-1.5 1.5 1.5 1.5 0 0 1-1.5-1.5 1.5 1.5 0 0 1 1.5-1.5zm4.5 0.49805a1 1 0 0 1 1 1 1 1 0 0 1-1 1 1 1 0 0 1-1-1 1 1 0 0 1 1-1zm5 1a1 1 0 0 1 1 1 1 1 0 0 1-1 1 1 1 0 0 1-1-1 1 1 0 0 1 1-1zm-2.5 3.502a1.5 1.5 0 0 1 1.5 1.5 1.5 1.5 0 0 1-1.5 1.5 1.5 1.5 0 0 1-1.5-1.5 1.5 1.5 0 0 1 1.5-1.5zm-4.5 1.498a1 1 0 0 1 1 1 1 1 0 0 1-1 1 1 1 0 0 1-1-1 1 1 0 0 1 1-1z" style="paint-order:fill markers stroke"/>
  <path transform="matrix(.26458 0 0 .26458 0 290.65)" d="m16 0.5a1.5 1.5 0 0 0-1.5 1.5 1.5 1.5 0 0 0 1.5 1.5 1.5 1.5 0 0 0 1.5-1.5 1.5 1.5 0 0 0-1.5-1.5z" style="paint-order:fill markers stroke"/>
 </g>
</svg>
