<?xml version="1.0" encoding="UTF-8"?>
<svg width="24" height="24" version="1.1" viewBox="0 0 6.35 6.35" xmlns="http://www.w3.org/2000/svg" xmlns:cc="http://creativecommons.org/ns#" xmlns:dc="http://purl.org/dc/elements/1.1/" xmlns:rdf="http://www.w3.org/1999/02/22-rdf-syntax-ns#">
 <g transform="translate(0 -290.65)">
  <path d="m3.1802 291.18a2.6458 2.6458 0 0 1 2.6407 2.6458 2.6458 2.6458 0 0 1-2.6458 2.6458 2.6458 2.6458 0 0 1-2.6458-2.6458 2.6458 2.6458 0 0 1 2.6458-2.6458 2.6458 2.6458 0 0 1 0.00517 0zm-0.0051675 0.52916a2.1167 2.1167 0 0 0-1.2981 0.44442l2.9698 2.9698a2.1167 2.1167 0 0 0 0.44493-1.2976 2.1167 2.1167 0 0 0-2.1167-2.1167zm-1.6717 0.81907a2.1167 2.1167 0 0 0-0.44493 1.2976 2.1167 2.1167 0 0 0 2.1167 2.1167 2.1167 2.1167 0 0 0 1.2981-0.44442z" fill-opacity=".947" style="paint-order:stroke fill markers"/>
 </g>
</svg>
