<?xml version="1.0" encoding="UTF-8"?>
<svg width="24" height="24" version="1.1" viewBox="0 0 6.35 6.35" xmlns="http://www.w3.org/2000/svg" xmlns:cc="http://creativecommons.org/ns#" xmlns:dc="http://purl.org/dc/elements/1.1/" xmlns:rdf="http://www.w3.org/1999/02/22-rdf-syntax-ns#">
 <g transform="translate(0 -290.65)">
  <path transform="matrix(.26458 0 0 .26458 0 290.65)" d="m12 2a10 10 0 0 0-1.6582 0.13867l-0.4043 2.1348a8 8 0 0 0-1.9355 0.80859l-1.791-1.2207a10 10 0 0 0-2.3516 2.3457l1.2207 1.793a8 8 0 0 0-0.79883 1.9355l-2.1309 0.4043a10 10 0 0 0-0.15039 1.6602 10 10 0 0 0 0.13867 1.6582l2.1348 0.4043a8 8 0 0 0 0.80859 1.9355l-1.2207 1.791a10 10 0 0 0 2.3457 2.3516l1.793-1.2207a8 8 0 0 0 1.9355 0.79883l0.4043 2.1309a10 10 0 0 0 1.6602 0.15039 10 10 0 0 0 1.6582-0.13867l0.4043-2.1348a8 8 0 0 0 1.9355-0.80859l1.791 1.2207a10 10 0 0 0 2.3516-2.3457l-1.2207-1.793a8 8 0 0 0 0.79883-1.9355l2.1309-0.4043a10 10 0 0 0 0.15039-1.6602 10 10 0 0 0-0.13867-1.6582l-2.1348-0.4043a8 8 0 0 0-0.80859-1.9355l1.2207-1.791a10 10 0 0 0-2.3457-2.3516l-1.793 1.2207a8 8 0 0 0-1.9355-0.79883l-0.4043-2.1309a10 10 0 0 0-1.6602-0.15039zm0 4a6 6 0 0 1 6 6 6 6 0 0 1-6 6 6 6 0 0 1-6-6 6 6 0 0 1 6-6z"/>
 </g>
</svg>
