<?xml version="1.0" encoding="UTF-8"?>
<svg width="24" height="24" version="1.1" viewBox="0 0 6.35 6.35" xmlns="http://www.w3.org/2000/svg" xmlns:cc="http://creativecommons.org/ns#" xmlns:dc="http://purl.org/dc/elements/1.1/" xmlns:rdf="http://www.w3.org/1999/02/22-rdf-syntax-ns#">
 <g transform="translate(0 -290.65)">
  <path transform="matrix(.26458 0 0 .26458 0 290.65)" d="m11.98 2a10 10 0 0 0-9.9805 10 10 10 0 0 0 10 10 10 10 0 0 0 10-10 10 10 0 0 0-10-10 10 10 0 0 0-0.019531 0zm0.019531 2a8 8 0 0 1 4.9062 1.6797l-11.225 11.225a8 8 0 0 1-1.6816-4.9043 8 8 0 0 1 8-8zm6.3184 3.0957a8 8 0 0 1 1.6816 4.9043 8 8 0 0 1-8 8 8 8 0 0 1-4.9062-1.6797l11.225-11.225z" fill-opacity=".947" style="paint-order:stroke fill markers"/>
 </g>
</svg>
