<?xml version="1.0" encoding="UTF-8"?>
<svg width="24" height="24" version="1.1" viewBox="0 0 6.35 6.35" xmlns="http://www.w3.org/2000/svg" xmlns:cc="http://creativecommons.org/ns#" xmlns:dc="http://purl.org/dc/elements/1.1/" xmlns:rdf="http://www.w3.org/1999/02/22-rdf-syntax-ns#">
 <g transform="translate(0 -290.65)">
  <path transform="matrix(.26458 0 0 .26458 0 290.65)" d="m4 4v16h16v-2h-14v-14h-2zm3 0v1h3v-1h-3zm4 0v1h0.5v0.5h1v-0.5h0.5v-1h-2zm3 0v1h3.5v-1h-3.5zm4.5 0v1h0.5v0.5h1v-1.5h-1.5zm-7 2.5v3.5h1v-3.5h-1zm7.5 0v3.5h1v-3.5h-1zm-7.5 4.5v0.5h-0.5v1h0.5v0.5h1v-0.5h0.5v-1h-0.5v-0.5h-1zm7.5 0v0.5h-0.5v1h0.5v0.5h1v-2h-1zm-12 0.5v1h3v-1h-3zm7 0v1h3.5v-1h-3.5zm-2.5 2.5v3h1v-3h-1zm7.5 0v3h1v-3h-1z" stroke-linecap="square" stroke-width="2.1602" style="paint-order:stroke fill markers"/>
 </g>
</svg>
