<?xml version="1.0" encoding="UTF-8"?>
<svg width="24" height="24" version="1.1" viewBox="0 0 6.35 6.35" xmlns="http://www.w3.org/2000/svg" xmlns:cc="http://creativecommons.org/ns#" xmlns:dc="http://purl.org/dc/elements/1.1/" xmlns:rdf="http://www.w3.org/1999/02/22-rdf-syntax-ns#">
 <g transform="translate(0 -290.65)">
  <path d="m1.0583 295.94v-4.2333h4.2333v0.52917h-3.7042v3.7042zm0.79375 0v-0.26459h0.79375v0.26459zm1.0583 0v-0.26459h0.13229v-0.13229h0.26458v0.13229h0.13229v0.26459zm0.79375 0v-0.26459h0.92604v0.26459zm1.1906 0v-0.26459h0.13229v-0.13229h0.26458v0.39688zm-1.8521-0.66146v-0.92604h0.26458v0.92604zm1.9844 0v-0.92604h0.26458v0.92604zm-1.9844-1.1906v-0.13229h-0.13229v-0.26458h0.13229v-0.13229h0.26458v0.13229h0.13229v0.26458h-0.13229v0.13229zm1.9844 0v-0.13229h-0.13229v-0.26458h0.13229v-0.13229h0.26458v0.52916zm-3.175-0.13229v-0.26458h0.79375v0.26458zm1.8521 0v-0.26458h0.92604v0.26458zm-0.66146-0.66146v-0.79375h0.26458v0.79375zm1.9844 0v-0.79375h0.26458v0.79375z" stroke-linecap="square" stroke-width=".57157" style="paint-order:stroke fill markers"/>
 </g>
</svg>
