<?xml version="1.0" encoding="UTF-8"?>
<svg width="24" height="24" version="1.1" viewBox="0 0 6.35 6.35" xmlns="http://www.w3.org/2000/svg" xmlns:cc="http://creativecommons.org/ns#" xmlns:dc="http://purl.org/dc/elements/1.1/" xmlns:rdf="http://www.w3.org/1999/02/22-rdf-syntax-ns#">
 <g transform="translate(0 -290.65)">
  <path d="m1.0583 295.94h0.39688v-0.26459h-0.13229v-0.13229h-0.26459zm0-0.66146h0.26459v-0.92604h-0.26459zm0-1.1906h0.26459v-0.13229h0.13229v-0.26458h-0.13229v-0.13229h-0.26459zm0-0.79375h0.26459v-0.92604h-0.26459zm0-1.1906h0.26459v-0.13229h0.13229v-0.26459h-0.39688zm0.66146 3.8365h0.92604v-0.26459h-0.92604zm0-1.9844h0.92604v-0.26458h-0.92604zm0-1.9844h0.92604v-0.26459h-0.92604zm1.1906 3.9688h0.52916v-0.26459h-0.13229v-0.13229h-0.26458v0.13229h-0.13229zm0-1.9844h0.13229v0.13229h0.26458v-0.13229h0.13229v-0.26458h-0.13229v-0.13229h-0.26458v0.13229h-0.13229zm0-1.9844h0.13229v0.13229h0.26458v-0.13229h0.13229v-0.26459h-0.52916zm0.13229 3.3073h0.26458v-0.92604h-0.26458zm0-1.9844h0.26458v-0.92604h-0.26458zm0.66146 2.6458h0.79375v-0.26459h-0.79375zm0-1.9844h0.79375v-0.26458h-0.79375zm0-1.9844h0.79375v-0.26459h-0.79375zm1.0583 3.9688h0.52917v-4.2333h-0.52917z" stroke-linecap="square" stroke-width=".52917" style="paint-order:stroke fill markers"/>
 </g>
</svg>
