<?xml version="1.0" encoding="UTF-8"?>
<svg width="24" height="24" version="1.1" viewBox="0 0 6.35 6.35" xmlns="http://www.w3.org/2000/svg" xmlns:cc="http://creativecommons.org/ns#" xmlns:dc="http://purl.org/dc/elements/1.1/" xmlns:rdf="http://www.w3.org/1999/02/22-rdf-syntax-ns#">
 <g transform="translate(0 -290.65)" stroke-linecap="square">
  <path d="m3.7042 291.97h0.92604v-0.26459h-0.92604z" stroke-width=".57157" style="paint-order:stroke fill markers"/>
  <path d="m3.7042 293.96h0.92604v-0.26458h-0.92604z" stroke-width=".57157" style="paint-order:stroke fill markers"/>
  <path d="m3.7042 295.94h0.92604v-0.26459h-0.92604z" stroke-width=".57157" style="paint-order:stroke fill markers"/>
  <path d="m3.0427 293.3h0.26458v-0.92604h-0.26458z" stroke-width=".52917" style="paint-order:stroke fill markers"/>
  <path d="m3.0427 295.28h0.26458v-0.92604h-0.26458z" stroke-width=".52917" style="paint-order:stroke fill markers"/>
  <path d="m2.9104 291.97h0.13229v0.13229h0.26458v-0.13229h0.13229v-0.26459h-0.52916z" stroke-width=".52917" style="paint-order:stroke fill markers"/>
  <path d="m2.9104 293.96h0.13229v0.13229h0.26458v-0.13229h0.13229v-0.26458h-0.13229v-0.13229h-0.26458v0.13229h-0.13229z" stroke-width=".52917" style="paint-order:stroke fill markers"/>
  <path d="m2.9104 295.94h0.52916v-0.26459h-0.13229v-0.13229h-0.26458v0.13229h-0.13229z" stroke-width=".52917" style="paint-order:stroke fill markers"/>
  <path d="m1.7198 291.97h0.92604v-0.26459h-0.92604z" stroke-width=".52917" style="paint-order:stroke fill markers"/>
  <path d="m1.7198 293.96h0.92604v-0.26458h-0.92604z" stroke-width=".52917" style="paint-order:stroke fill markers"/>
  <path d="m1.7198 295.94h0.92604v-0.26459h-0.92604z" stroke-width=".52917" style="paint-order:stroke fill markers"/>
  <path d="m1.0583 292.11h0.26459v-0.13229h0.13229v-0.26459h-0.39688z" stroke-width=".52917" style="paint-order:stroke fill markers"/>
  <path d="m1.0583 293.3h0.26459v-0.92604h-0.26459z" stroke-width=".52917" style="paint-order:stroke fill markers"/>
  <path d="m1.0583 294.09h0.26459v-0.13229h0.13229v-0.26458h-0.13229v-0.13229h-0.26459z" stroke-width=".52917" style="paint-order:stroke fill markers"/>
  <path d="m1.0583 295.28h0.26459v-0.92604h-0.26459z" stroke-width=".52917" style="paint-order:stroke fill markers"/>
  <path d="m1.0583 295.94h0.39688v-0.26459h-0.13229v-0.13229h-0.26459z" stroke-width=".52917" style="paint-order:stroke fill markers"/>
  <path d="m5.2917 292.11h-0.26459v-0.13229h-0.13229v-0.26459h0.39688z" stroke-width=".52917" style="paint-order:stroke fill markers"/>
  <path d="m5.2917 293.3h-0.26459v-0.92604h0.26459z" stroke-width=".52917" style="paint-order:stroke fill markers"/>
  <path d="m5.2917 294.09h-0.26459v-0.13229h-0.13229v-0.26458h0.13229v-0.13229h0.26459z" stroke-width=".52917" style="paint-order:stroke fill markers"/>
  <path d="m5.2917 295.28h-0.26459v-0.92604h0.26459z" stroke-width=".52917" style="paint-order:stroke fill markers"/>
  <path d="m5.2917 295.94h-0.39688v-0.26459h0.13229v-0.13229h0.26459z" stroke-width=".52917" style="paint-order:stroke fill markers"/>
 </g>
</svg>
