<?xml version="1.0" encoding="UTF-8"?>
<svg width="24" height="24" version="1.1" viewBox="0 0 6.35 6.35" xmlns="http://www.w3.org/2000/svg" xmlns:cc="http://creativecommons.org/ns#" xmlns:dc="http://purl.org/dc/elements/1.1/" xmlns:rdf="http://www.w3.org/1999/02/22-rdf-syntax-ns#">
 <g transform="translate(0 -290.65)">
  <path d="m5.2917 295.94v-0.39688h-0.26459v0.13229h-0.13229v0.26459zm-0.66146 0v-0.26459h-0.92604v0.26459zm-1.1906 0v-0.26459h-0.13229v-0.13229h-0.26458v0.13229h-0.13229v0.26459zm-0.79375 0v-0.26459h-0.92604v0.26459zm-1.1906 0v-0.26459h-0.13229v-0.13229h-0.26459v0.39688zm3.8365-0.66146v-0.92604h-0.26459v0.92604zm-1.9844 0v-0.92604h-0.26458v0.92604zm-1.9844 0v-0.92604h-0.26459v0.92604zm3.9688-1.1906v-0.52916h-0.26459v0.13229h-0.13229v0.26458h0.13229v0.13229zm-1.9844 0v-0.13229h0.13229v-0.26458h-0.13229v-0.13229h-0.26458v0.13229h-0.13229v0.26458h0.13229v0.13229zm-1.9844 0v-0.13229h0.13229v-0.26458h-0.13229v-0.13229h-0.26459v0.52916zm3.3073-0.13229v-0.26458h-0.92604v0.26458zm-1.9844 0v-0.26458h-0.92604v0.26458zm2.6458-0.66146v-0.79375h-0.26459v0.79375zm-1.9844 0v-0.79375h-0.26458v0.79375zm-1.9844 0v-0.79375h-0.26459v0.79375zm3.9688-1.0583v-0.52917h-4.2333v0.52917z" stroke-linecap="square" stroke-width=".52917" style="paint-order:stroke fill markers"/>
 </g>
</svg>
