<?xml version="1.0" encoding="UTF-8"?>
<svg width="24" height="24" version="1.1" viewBox="0 0 6.35 6.35" xmlns="http://www.w3.org/2000/svg" xmlns:cc="http://creativecommons.org/ns#" xmlns:dc="http://purl.org/dc/elements/1.1/" xmlns:rdf="http://www.w3.org/1999/02/22-rdf-syntax-ns#">
 <g transform="translate(0 -290.65)">
  <path d="m5.2917 291.71h-0.39688v0.26459h0.13229v0.13229h0.26458zm0 0.66146h-0.26458v0.92604h0.26458zm0 1.1906h-0.26458v0.13229h-0.13229v0.26458h0.13229v0.13229h0.26458zm0 0.79375h-0.26458v0.92604h0.26458zm0 1.1906h-0.26458v0.13229h-0.13229v0.26459h0.39688zm-0.66146-3.8365h-0.92604v0.26459h0.92604zm0 1.9844h-0.92604v0.26458h0.92604zm0 1.9844h-0.92604v0.26459h0.92604zm-1.1906-3.9688h-0.52917v4.2333h0.52917zm-0.79375 0h-0.92604v0.26459h0.92604zm0 1.9844h-0.92604v0.26458h0.92604zm0 1.9844h-0.92604v0.26459h0.92604zm-1.1906-3.9688h-0.39688v0.39688h0.26458v-0.13229h0.13229zm0 1.9844h-0.13229v-0.13229h-0.26458v0.52916h0.26458v-0.13229h0.13229zm0 1.9844h-0.13229v-0.13229h-0.26458v0.39688h0.39688zm-0.13229-3.3073h-0.26458v0.92604h0.26458zm0 1.9844h-0.26458v0.92604h0.26458z" stroke-linecap="square" stroke-width=".57157" style="paint-order:stroke fill markers"/>
 </g>
</svg>
