<?xml version="1.0" encoding="UTF-8"?>
<svg width="24" height="24" version="1.1" viewBox="0 0 6.35 6.35" xmlns="http://www.w3.org/2000/svg" xmlns:cc="http://creativecommons.org/ns#" xmlns:dc="http://purl.org/dc/elements/1.1/" xmlns:rdf="http://www.w3.org/1999/02/22-rdf-syntax-ns#">
 <g transform="translate(0 -290.65)">
  <path d="m3.159 291.97c-0.57823 9e-3 -1.0424 0.48003-1.0423 1.0583-3.7e-6 0.5845 0.47383 1.0583 1.0583 1.0583s1.0583-0.47384 1.0583-1.0583c-1.8e-6 -0.5845-0.47383-1.0583-1.0583-1.0583-0.00534-4e-5 -0.01068-4e-5 -0.01602 0z" style="paint-order:fill markers stroke"/>
  <path d="m3.175 294.62a2.6458 2.6458 0 0 0-1.8697 0.77618l0.3731 0.37311a2.1167 2.1167 0 0 1 1.4965-0.62012 2.1167 2.1167 0 0 1 1.4965 0.62012l0.3731-0.37311a2.6458 2.6458 0 0 0-1.8697-0.77618z" style="paint-order:fill markers stroke"/>
 </g>
</svg>
