<?xml version="1.0" encoding="UTF-8"?>
<svg width="24" height="24" version="1.1" viewBox="0 0 6.35 6.35" xmlns="http://www.w3.org/2000/svg" xmlns:cc="http://creativecommons.org/ns#" xmlns:dc="http://purl.org/dc/elements/1.1/" xmlns:rdf="http://www.w3.org/1999/02/22-rdf-syntax-ns#">
 <g transform="translate(0 -290.65)">
  <path d="m3.159 291.97a1.0583 1.0583 0 0 0-1.0423 1.0583 1.0583 1.0583 0 0 0 1.0583 1.0583 1.0583 1.0583 0 0 0 1.0583-1.0583 1.0583 1.0583 0 0 0-1.0583-1.0583 1.0583 1.0583 0 0 0-0.01602 0zm0.0031 0.52917a0.52917 0.52917 0 0 1 0.012919 0 0.52917 0.52917 0 0 1 0.52917 0.52916 0.52917 0.52917 0 0 1-0.52917 0.52917 0.52917 0.52917 0 0 1-0.52917-0.52917 0.52917 0.52917 0 0 1 0.51625-0.52916z" style="paint-order:fill markers stroke"/>
  <path transform="matrix(.26458 0 0 .26458 0 290.65)" d="m12 15c-2.6512 0.0025-5.1929 1.0577-7.0664 2.9336l1.4102 1.4102c1.2698-1.2697 2.9298-2.0753 4.7129-2.2871l0.44336 0.94336-1 4 1.5 1 1.5-1-1-4 0.44336-0.94336c1.7831 0.21184 3.4431 1.0174 4.7129 2.2871l1.4102-1.4102c-1.8735-1.8759-4.4152-2.9311-7.0664-2.9336z" style="paint-order:fill markers stroke"/>
 </g>
</svg>
