<?xml version="1.0" encoding="UTF-8"?>
<svg width="24" height="24" version="1.1" viewBox="0 0 6.35 6.35" xmlns="http://www.w3.org/2000/svg" xmlns:cc="http://creativecommons.org/ns#" xmlns:dc="http://purl.org/dc/elements/1.1/" xmlns:rdf="http://www.w3.org/1999/02/22-rdf-syntax-ns#">
 <g transform="translate(0 -290.65)">
  <path transform="matrix(.26458 0 0 .26458 0 290.65)" d="m10 3c-1.3333-0.66667-2 4-2 4s-1.0946 0.53819-1 1c0.075188 0.36691 1.043 0.41797 1.043 0.41797-0.028476 0.19271-0.042837 0.38723-0.042969 0.58203-1e-7 2.2091 1.7909 4 4 4s4-1.7909 4-4c-1.32e-4 -0.1948-0.01449-0.38933-0.04297-0.58203 0 0 0.96778-0.051059 1.043-0.41797 0.094635-0.46181-1-1-1-1s-0.66667-4.6667-2-4l-2 1zm0.011719 6.2051 1.9883 0.79492 1.9883-0.79492c-0.10507 1.0193-0.96356 1.7943-1.9883 1.7949-1.0247-6.03e-4 -1.8832-0.77561-1.9883-1.7949z" style="paint-order:fill markers stroke"/>
  <path transform="matrix(.26458 0 0 .26458 0 290.65)" d="m7.2695 12.611c-0.28683 0.012513-0.40646 0.12098-0.26953 0.38867l0.95508 1.8672c-1.1145 0.49478-2.1432 2.187-3.0215 3.0664l4.0977 2.9375 0.96875-3.8711 2-1 2 1 0.96875 3.8711 4.0977-2.9375c-0.87828-0.87944-1.907-2.5716-3.0215-3.0664l0.95508-1.8672c0.54771-1.0708-3 0.40234-5 0.40234-1.5 0-3.87-0.82855-4.7305-0.79102zm4.7305 3.3887-1 1 0.5 1-0.98438 3.9355 1.4844 1.0645 1.4844-1.0645-0.98438-3.9355 0.5-1-1-1z" style="paint-order:fill markers stroke"/>
 </g>
</svg>
