<?xml version="1.0" encoding="UTF-8"?>
<svg width="24" height="24" version="1.1" viewBox="0 0 6.35 6.35" xmlns="http://www.w3.org/2000/svg" xmlns:cc="http://creativecommons.org/ns#" xmlns:dc="http://purl.org/dc/elements/1.1/" xmlns:rdf="http://www.w3.org/1999/02/22-rdf-syntax-ns#">
 <g transform="translate(0 -290.65)">
  <path d="m2.1006 291.97a1.0583 1.0583 0 0 0-1.0423 1.0583 1.0583 1.0583 0 0 0 1.0583 1.0583 1.0583 1.0583 0 0 0 1.0583-1.0583 1.0583 1.0583 0 0 0-1.0583-1.0583 1.0583 1.0583 0 0 0-0.01602 0zm0.0031 0.52917a0.52917 0.52917 0 0 1 0.012919 0 0.52917 0.52917 0 0 1 0.52917 0.52916 0.52917 0.52917 0 0 1-0.52917 0.52917 0.52917 0.52917 0 0 1-0.52917-0.52917 0.52917 0.52917 0 0 1 0.51625-0.52916z" style="paint-order:fill markers stroke"/>
  <path d="m2.1167 294.62a2.6458 2.6458 0 0 0-1.8697 0.77618l0.3731 0.37311a2.1167 2.1167 0 0 1 1.4965-0.62012 2.1167 2.1167 0 0 1 1.4965 0.62012l0.3731-0.37311a2.6458 2.6458 0 0 0-1.8697-0.77618z" style="paint-order:fill markers stroke"/>
  <path transform="matrix(.26458 0 0 .26458 0 290.65)" d="m14 11v2h8v-2z" style="paint-order:stroke fill markers"/>
 </g>
</svg>
