<?xml version="1.0" encoding="UTF-8"?>
<svg width="24" height="24" version="1.1" viewBox="0 0 6.35 6.35" xmlns="http://www.w3.org/2000/svg" xmlns:cc="http://creativecommons.org/ns#" xmlns:dc="http://purl.org/dc/elements/1.1/" xmlns:rdf="http://www.w3.org/1999/02/22-rdf-syntax-ns#">
 <g transform="translate(0 -290.65)">
  <path transform="matrix(.26458 0 0 .26458 0 290.65)" d="m12 2.5-1.2852 2-1.7148 0.5-1.5-1 1.0957 2.9219c-0.38148 0.62528-0.59592 1.3398-0.5957 2.0781-1e-7 2.2091 1.7909 4 4 4s4-1.7909 4-4c2.18e-4 -0.73831-0.21422-1.4528-0.5957-2.0781l1.0957-2.9219-1.5 1-1.7148-0.5-1.2852-2zm0 4.9375c0.46395 0 0.92172 0.039736 1.3594 0.10352 0.39181 0.36511 0.64062 0.88118 0.64062 1.459 0 1.1046-0.89543 2-2 2s-2-0.89543-2-2c-1.861e-4 -0.57744 0.24995-1.0933 0.64258-1.459 0.43709-0.063594 0.89414-0.10352 1.3574-0.10352z" style="paint-order:fill markers stroke"/>
  <path d="m3.175 294.62a2.6458 2.6458 0 0 0-1.8697 0.77618l0.3731 0.37311a2.1167 2.1167 0 0 1 1.4965-0.62012 2.1167 2.1167 0 0 1 1.4965 0.62012l0.3731-0.37311a2.6458 2.6458 0 0 0-1.8697-0.77618z" style="paint-order:fill markers stroke"/>
 </g>
</svg>
