<?xml version="1.0" encoding="UTF-8"?>
<svg width="24" height="24" version="1.1" viewBox="0 0 6.35 6.35" xmlns="http://www.w3.org/2000/svg" xmlns:cc="http://creativecommons.org/ns#" xmlns:dc="http://purl.org/dc/elements/1.1/" xmlns:rdf="http://www.w3.org/1999/02/22-rdf-syntax-ns#">
 <g transform="translate(0 -290.65)">
  <rect x="1.3229" y="291.97" width=".52917" height=".52917" style="paint-order:fill markers stroke"/>
  <rect x="2.1167" y="291.97" width=".52917" height=".52917" style="paint-order:fill markers stroke"/>
  <rect x="2.9104" y="291.97" width=".52917" height=".52917" style="paint-order:fill markers stroke"/>
  <rect x="3.7042" y="291.97" width=".52917" height=".52917" style="paint-order:fill markers stroke"/>
  <rect x="4.4979" y="291.97" width=".52917" height=".52917" style="paint-order:fill markers stroke"/>
  <rect x="1.3229" y="292.77" width=".52917" height=".52917" style="paint-order:fill markers stroke"/>
  <rect x="2.1167" y="292.77" width=".52917" height=".52917" style="paint-order:fill markers stroke"/>
  <rect x="2.9104" y="292.77" width=".52917" height=".52917" style="paint-order:fill markers stroke"/>
  <rect x="3.7042" y="292.77" width=".52917" height=".52917" style="paint-order:fill markers stroke"/>
  <rect x="4.4979" y="292.77" width=".52917" height=".52917" style="paint-order:fill markers stroke"/>
  <rect x="1.3229" y="293.56" width=".52917" height=".52917" style="paint-order:fill markers stroke"/>
  <rect x="2.1167" y="293.56" width=".52917" height=".52917" style="paint-order:fill markers stroke"/>
  <rect x="2.9104" y="293.56" width=".52917" height=".52917" style="paint-order:fill markers stroke"/>
  <rect x="3.7042" y="293.56" width=".52917" height=".52917" style="paint-order:fill markers stroke"/>
  <rect x="4.4979" y="293.56" width=".52917" height=".52917" style="paint-order:fill markers stroke"/>
  <rect x="1.3229" y="294.35" width=".52917" height=".52917" style="paint-order:fill markers stroke"/>
  <rect x="2.1167" y="294.35" width=".52917" height=".52917" style="paint-order:fill markers stroke"/>
  <rect x="2.9104" y="294.35" width=".52917" height=".52917" style="paint-order:fill markers stroke"/>
  <rect x="3.7042" y="294.35" width=".52917" height=".52917" style="paint-order:fill markers stroke"/>
  <rect x="4.4979" y="294.35" width=".52917" height=".52917" style="paint-order:fill markers stroke"/>
  <rect x="1.3229" y="295.15" width=".52917" height=".52917" style="paint-order:fill markers stroke"/>
  <rect x="2.1167" y="295.15" width=".52917" height=".52917" style="paint-order:fill markers stroke"/>
  <rect x="2.9104" y="295.15" width=".52917" height=".52917" style="paint-order:fill markers stroke"/>
  <rect x="3.7042" y="295.15" width=".52917" height=".52917" style="paint-order:fill markers stroke"/>
  <rect x="4.4979" y="295.15" width=".52917" height=".52917" style="paint-order:fill markers stroke"/>
 </g>
</svg>
