<?xml version="1.0" encoding="UTF-8"?>
<svg width="24" height="24" version="1.1" viewBox="0 0 6.35 6.35" xmlns="http://www.w3.org/2000/svg" xmlns:cc="http://creativecommons.org/ns#" xmlns:dc="http://purl.org/dc/elements/1.1/" xmlns:rdf="http://www.w3.org/1999/02/22-rdf-syntax-ns#">
 <g transform="translate(0 -290.65)">
  <path d="m4.2333 292.24c0.87948 0 1.5875 0.70802 1.5875 1.5875 0 0.87947-0.70802 1.5875-1.5875 1.5875h-2.1167c-0.87947 0-1.5875-0.70803-1.5875-1.5875 0-0.87948 0.70803-1.5875 1.5875-1.5875zm0.01602 0.52917a1.0583 1.0583 0 0 0-0.01602 0 1.0583 1.0583 0 0 0-1.0583 1.0583 1.0583 1.0583 0 0 0 1.0583 1.0583 1.0583 1.0583 0 0 0 1.0583-1.0583 1.0583 1.0583 0 0 0-1.0423-1.0583zm-1.1994 0h-0.94413c-0.5804 0-1.0475 0.46708-1.0475 1.0475v0.0217c0 0.5804 0.46708 1.0475 1.0475 1.0475h0.94413c-0.25098-0.2805-0.40411-0.65056-0.40411-1.0583s0.15313-0.77783 0.40411-1.0583z" stroke-linecap="round" stroke-linejoin="round" stroke-width=".52917" style="paint-order:stroke fill markers"/>
 </g>
</svg>
