<?xml version="1.0" encoding="UTF-8"?>
<svg width="24" height="24" version="1.1" viewBox="0 0 6.35 6.35" xmlns="http://www.w3.org/2000/svg" xmlns:cc="http://creativecommons.org/ns#" xmlns:dc="http://purl.org/dc/elements/1.1/" xmlns:rdf="http://www.w3.org/1999/02/22-rdf-syntax-ns#">
 <g transform="translate(0 -290.65)">
  <path transform="matrix(.26458 0 0 .26458 0 290.65)" d="m8 6c-3.324 0-6 2.676-6 6 0 3.324 2.676 6 6 6h8c3.324 0 6-2.676 6-6 0-3.324-2.676-6-6-6h-8zm-0.060547 2a4 4 0 0 1 0.060547 0 4 4 0 0 1 4 4 4 4 0 0 1-4 4 4 4 0 0 1-4-4 4 4 0 0 1 3.9395-4zm4.5332 0h3.5684c2.1936 0 3.959 1.7653 3.959 3.959v0.082032c0 2.1936-1.7653 3.959-3.959 3.959h-3.5684c0.9486-1.0602 1.5273-2.4588 1.5273-4 0-1.5412-0.57874-2.9398-1.5273-4z" stroke-linecap="round" stroke-linejoin="round" stroke-width="2" style="paint-order:stroke fill markers"/>
 </g>
</svg>
