<?xml version="1.0" encoding="UTF-8" standalone="no"?>
<svg
   xmlns:dc="http://purl.org/dc/elements/1.1/"
   xmlns:cc="http://creativecommons.org/ns#"
   xmlns:rdf="http://www.w3.org/1999/02/22-rdf-syntax-ns#"
   xmlns:svg="http://www.w3.org/2000/svg"
   xmlns="http://www.w3.org/2000/svg"
   xmlns:xlink="http://www.w3.org/1999/xlink"
   xmlns:sodipodi="http://sodipodi.sourceforge.net/DTD/sodipodi-0.dtd"
   xmlns:inkscape="http://www.inkscape.org/namespaces/inkscape"
   width="24"
   height="24"
   viewBox="0 0 6.3499999 6.3499999"
   version="1.1"
   id="svg842"
   inkscape:version="1.0.1 (1.0.1+r74)"
   sodipodi:docname="brand-github.svg">
  <defs
     id="defs836">
    <linearGradient
       inkscape:collect="always"
       id="linearGradient931">
      <stop
         style="stop-color:#892b6d;stop-opacity:1;"
         offset="0"
         id="stop927" />
      <stop
         style="stop-color:#28618c;stop-opacity:1"
         offset="1"
         id="stop929" />
    </linearGradient>
    <linearGradient
       inkscape:collect="always"
       xlink:href="#linearGradient931"
       id="linearGradient933"
       x1="2.1166666"
       y1="2.1166666"
       x2="14.816667"
       y2="14.816667"
       gradientUnits="userSpaceOnUse" />
  </defs>
  <sodipodi:namedview
     id="base"
     pagecolor="#ffffff"
     bordercolor="#666666"
     borderopacity="1.0"
     inkscape:pageopacity="0.0"
     inkscape:pageshadow="2"
     inkscape:zoom="1"
     inkscape:cx="11.604972"
     inkscape:cy="15.618151"
     inkscape:document-units="px"
     inkscape:current-layer="layer1"
     showgrid="false"
     units="px"
     showguides="true"
     inkscape:guide-bbox="true"
     inkscape:window-width="1920"
     inkscape:window-height="1017"
     inkscape:window-x="0"
     inkscape:window-y="0"
     inkscape:window-maximized="1"
     inkscape:snap-bbox="true"
     inkscape:bbox-nodes="true"
     inkscape:document-rotation="0">
    <inkscape:grid
       type="xygrid"
       id="grid1387"
       empspacing="4" />
    <sodipodi:guide
       position="0.52916666,2.9104166"
       orientation="1,0"
       id="guide1389"
       inkscape:locked="false" />
    <sodipodi:guide
       position="3.9687499,5.8208332"
       orientation="0,1"
       id="guide1391"
       inkscape:locked="false" />
    <sodipodi:guide
       position="5.8208332,2.6458333"
       orientation="1,0"
       id="guide1393"
       inkscape:locked="false" />
    <sodipodi:guide
       position="1.5875,0.52916666"
       orientation="0,1"
       id="guide1395"
       inkscape:locked="false" />
  </sodipodi:namedview>
  <metadata
     id="metadata839">
    <rdf:RDF>
      <cc:Work
         rdf:about="">
        <dc:format>image/svg+xml</dc:format>
        <dc:type
           rdf:resource="http://purl.org/dc/dcmitype/StillImage" />
        <dc:title />
      </cc:Work>
    </rdf:RDF>
  </metadata>
  <g
     inkscape:label="Guide"
     inkscape:groupmode="layer"
     id="layer1"
     transform="translate(0,-290.64998)">
    <path
       id="rect856"
       style="opacity:1;fill:#000000;fill-opacity:1;stroke-width:3.2256;stroke-linecap:round;stroke-linejoin:round;paint-order:stroke fill markers"
       d="M 11.980469 2 A 10 10 0 0 0 2 12 A 10 10 0 0 0 12 22 A 10 10 0 0 0 22 12 A 10 10 0 0 0 12 2 A 10 10 0 0 0 11.980469 2 z M 12 4 A 8.0000071 8.0000071 0 0 1 20 12 A 8.0000071 8.0000071 0 0 1 12 20 A 8.0000071 8.0000071 0 0 1 4 12 A 8.0000071 8.0000071 0 0 1 12 4 z M 16.537109 7.6914062 C 16.23967 7.676248 15.481871 7.7584977 14.169922 8.6503906 C 13.438203 8.4447843 12.660264 8.3398438 11.882812 8.3398438 C 11.105361 8.3398438 10.327422 8.4444064 9.5957031 8.6503906 C 7.846438 7.4727276 7.0800781 7.7128906 7.0800781 7.7128906 C 6.5770215 8.9705284 6.898766 9.9081326 6.9902344 10.136719 C 6.4071462 10.776971 6.0527344 11.601007 6.0527344 12.595703 C 6.0527344 16.094223 8.1777972 16.882742 10.212891 17.111328 L 13.541016 17.111328 C 15.576109 16.882667 17.712891 16.105675 17.712891 12.595703 C 17.712891 11.589593 17.360432 10.776971 16.777344 10.136719 C 16.868808 9.908057 17.188606 8.9705284 16.685547 7.7128906 C 16.685547 7.7128906 16.636256 7.6964591 16.537109 7.6914062 z M 9.8554688 11.841797 C 10.5 11.859379 11.25 12 12 12 C 14 12 16 11 16 14 C 16 16.000013 14 16 12 16 C 9.9999998 16 8 16.000013 8 14 C 8 12.125 8.7812498 11.812493 9.8554688 11.841797 z M 9.7460938 12.75 A 0.74999994 1.125 0 0 0 9 13.875 A 0.74999994 1.125 0 0 0 9.75 15 A 0.74999994 1.125 0 0 0 10.5 13.875 A 0.74999994 1.125 0 0 0 9.75 12.75 A 0.74999994 1.125 0 0 0 9.7460938 12.75 z M 14.246094 12.75 A 0.74999994 1.125 0 0 0 13.5 13.875 A 0.74999994 1.125 0 0 0 14.25 15 A 0.74999994 1.125 0 0 0 15 13.875 A 0.74999994 1.125 0 0 0 14.25 12.75 A 0.74999994 1.125 0 0 0 14.246094 12.75 z "
       transform="matrix(0.26458333,0,0,0.26458333,0,290.64998)" />
  </g>
  <g
     inkscape:groupmode="layer"
     id="layer2"
     inkscape:label="Icon"
     style="display:none"
     transform="translate(0,-10.583333)">
    <circle
       style="opacity:1;fill:url(#linearGradient933);fill-opacity:1;stroke:none;stroke-width:0.52916664;stroke-linecap:round;stroke-linejoin:bevel;stroke-miterlimit:4;stroke-dasharray:none;stroke-opacity:1;paint-order:fill markers stroke"
       id="path925"
       cx="8.4666662"
       cy="8.4666662"
       r="7.4083333" />
  </g>
</svg>
