<?xml version="1.0" encoding="UTF-8" standalone="no"?>
<svg
   xmlns:dc="http://purl.org/dc/elements/1.1/"
   xmlns:cc="http://creativecommons.org/ns#"
   xmlns:rdf="http://www.w3.org/1999/02/22-rdf-syntax-ns#"
   xmlns:svg="http://www.w3.org/2000/svg"
   xmlns="http://www.w3.org/2000/svg"
   xmlns:sodipodi="http://sodipodi.sourceforge.net/DTD/sodipodi-0.dtd"
   xmlns:inkscape="http://www.inkscape.org/namespaces/inkscape"
   width="24"
   height="24"
   viewBox="0 0 6.3499999 6.3499999"
   version="1.1"
   id="svg842"
   inkscape:version="1.0.2 (1.0.2+r75+1)"
   sodipodi:docname="brand__firefox.svg">
  <defs
     id="defs836" />
  <sodipodi:namedview
     id="base"
     pagecolor="#ffffff"
     bordercolor="#666666"
     borderopacity="1.0"
     inkscape:pageopacity="0.0"
     inkscape:pageshadow="2"
     inkscape:zoom="32"
     inkscape:cx="15.685576"
     inkscape:cy="14.136325"
     inkscape:document-units="px"
     inkscape:current-layer="layer1"
     showgrid="false"
     units="px"
     showguides="false"
     inkscape:guide-bbox="true"
     inkscape:window-width="1920"
     inkscape:window-height="1017"
     inkscape:window-x="0"
     inkscape:window-y="0"
     inkscape:window-maximized="1"
     inkscape:snap-bbox="true"
     inkscape:bbox-nodes="true"
     inkscape:document-rotation="0"
     inkscape:snap-nodes="true"
     inkscape:snap-smooth-nodes="true">
    <inkscape:grid
       type="xygrid"
       id="grid1387"
       empspacing="4" />
    <sodipodi:guide
       position="0.52916666,2.9104166"
       orientation="1,0"
       id="guide1389"
       inkscape:locked="false" />
    <sodipodi:guide
       position="3.9687499,5.8208332"
       orientation="0,1"
       id="guide1391"
       inkscape:locked="false" />
    <sodipodi:guide
       position="5.8208332,2.6458333"
       orientation="1,0"
       id="guide1393"
       inkscape:locked="false" />
    <sodipodi:guide
       position="1.5875,0.52916666"
       orientation="0,1"
       id="guide1395"
       inkscape:locked="false" />
  </sodipodi:namedview>
  <metadata
     id="metadata839">
    <rdf:RDF>
      <cc:Work
         rdf:about="">
        <dc:format>image/svg+xml</dc:format>
        <dc:type
           rdf:resource="http://purl.org/dc/dcmitype/StillImage" />
        <dc:title />
      </cc:Work>
    </rdf:RDF>
  </metadata>
  <g
     inkscape:label="Guide"
     inkscape:groupmode="layer"
     id="layer1"
     transform="translate(0,-290.64998)"
     style="opacity:1">
    <path
       id="path850"
       style="fill:#000000;fill-opacity:1;stroke-width:1.05833;stroke-linecap:square;stroke-linejoin:bevel;paint-order:stroke fill markers"
       d="m 2.92902,292.0902 c -1.1799246,-0.009 -1.6061034,0.94103 -1.6061034,0.94103 0,0 -0.083686,-0.26552 0.1260905,-0.84646 -0.4206068,0.44252 -0.65517809,1.02969 -0.65525709,1.64021 0,1.31513 1.06612189,2.38125 2.38124999,2.38125 1.3151281,0 2.3812494,-1.06612 2.3812494,-2.38125 0,-0.53203 -0.176434,-1.02158 -0.471289,-1.418 0,0 0.465581,1.83542 -1.1420698,2.01016 -1.3151707,0.14295 -1.1929636,-1.01299 -0.9001823,-1.38591 -0.6328632,0.19748 -0.6614583,0.79375 -0.6614583,0.79375 0,0 -0.044446,-1.08139 0.79375,-1.71979 -0.08546,-0.01 -0.1673183,-0.0144 -0.24598,-0.015 z"
       sodipodi:nodetypes="scccsscscccs" />
    <path
       id="path858"
       style="fill:#000000;fill-opacity:1;stroke-width:1.05833;stroke-linecap:square;stroke-linejoin:bevel;paint-order:stroke fill markers"
       d="m 3.172416,291.44373 c -0.5485973,6.2e-4 -1.0801545,0.19065 -1.5048176,0.53795 0,0 1.6429383,-0.81397 2.477885,0.13643 0.5945074,0.67671 0.5547392,1.40921 0.402825,1.82981 0.5262231,-0.52312 0.3243537,-1.63316 0.1619983,-1.94143 C 4.2956228,291.65598 3.7604914,291.44373 3.175,291.44373 Z"
       sodipodi:nodetypes="cccccsc" />
  </g>
</svg>
