<?xml version="1.0" encoding="UTF-8" standalone="no"?>
<svg
   xmlns:dc="http://purl.org/dc/elements/1.1/"
   xmlns:cc="http://creativecommons.org/ns#"
   xmlns:rdf="http://www.w3.org/1999/02/22-rdf-syntax-ns#"
   xmlns:svg="http://www.w3.org/2000/svg"
   xmlns="http://www.w3.org/2000/svg"
   xmlns:sodipodi="http://sodipodi.sourceforge.net/DTD/sodipodi-0.dtd"
   xmlns:inkscape="http://www.inkscape.org/namespaces/inkscape"
   width="24"
   height="24"
   viewBox="0 0 6.3499999 6.3499999"
   version="1.1"
   id="svg842"
   inkscape:version="1.0.2 (1.0.2+r75+1)"
   sodipodi:docname="brand__amazon__aws.svg">
  <defs
     id="defs836">
    <inkscape:perspective
       sodipodi:type="inkscape:persp3d"
       inkscape:vp_x="0 : 6.3499999 : 1"
       inkscape:vp_y="0 : 1000 : 0"
       inkscape:vp_z="6.3499999 : 6.3499999 : 1"
       inkscape:persp3d-origin="3.175 : 2.1166666 : 1"
       id="perspective824" />
  </defs>
  <sodipodi:namedview
     id="base"
     pagecolor="#ffffff"
     bordercolor="#666666"
     borderopacity="1.0"
     inkscape:pageopacity="0.0"
     inkscape:pageshadow="2"
     inkscape:zoom="24.493596"
     inkscape:cx="8.3473492"
     inkscape:cy="14.223496"
     inkscape:document-units="px"
     inkscape:current-layer="layer1"
     showgrid="true"
     units="px"
     showguides="false"
     inkscape:guide-bbox="true"
     inkscape:window-width="1920"
     inkscape:window-height="1017"
     inkscape:window-x="0"
     inkscape:window-y="0"
     inkscape:window-maximized="1"
     inkscape:snap-bbox="true"
     inkscape:bbox-nodes="true"
     inkscape:document-rotation="0"
     inkscape:snap-smooth-nodes="true"
     inkscape:snap-global="true">
    <inkscape:grid
       type="xygrid"
       id="grid1387"
       empspacing="4" />
    <sodipodi:guide
       position="0.52916666,2.9104166"
       orientation="1,0"
       id="guide1389"
       inkscape:locked="false" />
    <sodipodi:guide
       position="3.9687499,5.8208332"
       orientation="0,1"
       id="guide1391"
       inkscape:locked="false" />
    <sodipodi:guide
       position="5.8208332,2.6458333"
       orientation="1,0"
       id="guide1393"
       inkscape:locked="false" />
    <sodipodi:guide
       position="1.5875,0.52916666"
       orientation="0,1"
       id="guide1395"
       inkscape:locked="false" />
  </sodipodi:namedview>
  <metadata
     id="metadata839">
    <rdf:RDF>
      <cc:Work
         rdf:about="">
        <dc:format>image/svg+xml</dc:format>
        <dc:type
           rdf:resource="http://purl.org/dc/dcmitype/StillImage" />
        <dc:title />
      </cc:Work>
    </rdf:RDF>
  </metadata>
  <g
     inkscape:label="Guide"
     inkscape:groupmode="layer"
     id="layer1"
     transform="translate(0,-290.64998)"
     style="opacity:1">
    <path
       style="fill:#000000;fill-opacity:1;stroke-width:0.529167;stroke-linecap:round;stroke-linejoin:round;paint-order:stroke fill markers"
       d="m 1.0986409,295.38042 c 0.1507879,0.006 1.014168,0.54984 2.201416,0.54984 1.0131184,0 1.5467075,-0.44519 1.6190227,-0.35089 0.072314,0.0942 -0.6059043,0.64441 -1.6190227,0.64441 -1.2663978,0 -2.2797036,-0.76216 -2.2220865,-0.83716 0.0036,-0.005 0.010618,-0.007 0.02067,-0.006 z"
       id="path846" />
    <path
       style="fill:#000000;fill-opacity:1;stroke-width:0.529167;stroke-linecap:round;stroke-linejoin:round;paint-order:stroke fill markers"
       d="m 5.0529214,295.30032 c 0.077275,0.005 0.1398924,0.0235 0.168982,0.0625 0.1508765,0.20221 -0.2112365,0.70215 -0.2924887,0.69815 -0.1069647,-0.005 0.1976599,-0.42241 0.097152,-0.56069 -0.08009,-0.1102 -0.5287777,0.0534 -0.5529378,-0.0419 -0.015891,-0.0627 0.3474677,-0.17285 0.5792927,-0.15813 z"
       id="path844" />
    <path
       id="path987"
       style="vector-effect:none;fill:#000000;fill-opacity:1;stroke:none;stroke-width:0.284313;stroke-linecap:butt;stroke-linejoin:bevel;stroke-miterlimit:4;stroke-dasharray:none;stroke-dashoffset:0;stroke-opacity:1;paint-order:stroke markers fill"
       d="m 3.1760336,291.25614 -0.9270752,0.51315 v 1.01182 l 0.9270752,0.5147 0.925525,-0.5147 v -1.01182 z m -0.5028117,0.56999 0.5028117,0.27906 0.5017784,-0.27906 0.1591633,0.0879 v 0.12661 l -0.5291667,0.29404 v 0.59583 l -0.1322917,0.0734 -0.1322916,-0.0734 v -0.59583 l -0.5291667,-0.29404 v -0.12609 z" />
    <path
       id="path987-2"
       style="vector-effect:none;fill:#000000;fill-opacity:1;stroke:none;stroke-width:0.284313;stroke-linecap:butt;stroke-linejoin:bevel;stroke-miterlimit:4;stroke-dasharray:none;stroke-dashoffset:0;stroke-opacity:1;paint-order:stroke markers fill"
       d="m 4.2343668,293.03123 -0.9270751,0.51314 v 1.01183 l 0.9270751,0.5147 0.9255249,-0.5147 v -1.01183 z m -0.5028116,0.56999 0.5028116,0.27905 0.5017783,-0.27905 0.1591633,0.0879 v 0.12661 l -0.5291667,0.29403 v 0.59583 l -0.1322917,0.0734 -0.1322915,-0.0734 v -0.59583 l -0.5291668,-0.29403 v -0.12609 z" />
    <path
       id="path987-2-8"
       style="vector-effect:none;fill:#000000;fill-opacity:1;stroke:none;stroke-width:0.284313;stroke-linecap:butt;stroke-linejoin:bevel;stroke-miterlimit:4;stroke-dasharray:none;stroke-dashoffset:0;stroke-opacity:1;paint-order:stroke markers fill"
       d="m 2.1177001,293.03123 -0.9270751,0.51314 v 1.01183 l 0.9270751,0.5147 0.925525,-0.5147 v -1.01183 z m -0.5028117,0.56999 0.5028117,0.27905 0.5017784,-0.27905 0.1591633,0.0879 v 0.12661 l -0.5291667,0.29403 v 0.59583 l -0.1322917,0.0734 -0.1322916,-0.0734 v -0.59583 l -0.5291667,-0.29403 v -0.12609 z" />
  </g>
</svg>
