<?xml version="1.0" encoding="UTF-8" standalone="no"?>
<svg
   xmlns:dc="http://purl.org/dc/elements/1.1/"
   xmlns:cc="http://creativecommons.org/ns#"
   xmlns:rdf="http://www.w3.org/1999/02/22-rdf-syntax-ns#"
   xmlns:svg="http://www.w3.org/2000/svg"
   xmlns="http://www.w3.org/2000/svg"
   xmlns:sodipodi="http://sodipodi.sourceforge.net/DTD/sodipodi-0.dtd"
   xmlns:inkscape="http://www.inkscape.org/namespaces/inkscape"
   width="24"
   height="24"
   viewBox="0 0 6.3499999 6.3499999"
   version="1.1"
   id="svg842"
   inkscape:version="1.0.2 (1.0.2+r75+1)"
   sodipodi:docname="brand__github.svg">
  <defs
     id="defs836" />
  <sodipodi:namedview
     id="base"
     pagecolor="#ffffff"
     bordercolor="#666666"
     borderopacity="1.0"
     inkscape:pageopacity="0.0"
     inkscape:pageshadow="2"
     inkscape:zoom="24.493596"
     inkscape:cx="8.6189166"
     inkscape:cy="12.023616"
     inkscape:document-units="px"
     inkscape:current-layer="layer1"
     showgrid="true"
     units="px"
     showguides="true"
     inkscape:guide-bbox="true"
     inkscape:window-width="1920"
     inkscape:window-height="1017"
     inkscape:window-x="0"
     inkscape:window-y="0"
     inkscape:window-maximized="1"
     inkscape:snap-bbox="true"
     inkscape:bbox-nodes="true"
     inkscape:document-rotation="0">
    <inkscape:grid
       type="xygrid"
       id="grid1387"
       empspacing="4" />
    <sodipodi:guide
       position="0.52916666,2.9104166"
       orientation="1,0"
       id="guide1389"
       inkscape:locked="false" />
    <sodipodi:guide
       position="3.9687499,5.8208332"
       orientation="0,1"
       id="guide1391"
       inkscape:locked="false" />
    <sodipodi:guide
       position="5.8208332,2.6458333"
       orientation="1,0"
       id="guide1393"
       inkscape:locked="false" />
    <sodipodi:guide
       position="1.5875,0.52916666"
       orientation="0,1"
       id="guide1395"
       inkscape:locked="false" />
  </sodipodi:namedview>
  <metadata
     id="metadata839">
    <rdf:RDF>
      <cc:Work
         rdf:about="">
        <dc:format>image/svg+xml</dc:format>
        <dc:type
           rdf:resource="http://purl.org/dc/dcmitype/StillImage" />
        <dc:title />
      </cc:Work>
    </rdf:RDF>
  </metadata>
  <g
     inkscape:label="Guide"
     inkscape:groupmode="layer"
     id="layer1"
     transform="translate(0,-290.64998)">
    <path
       id="rect856"
       style="opacity:1;fill:#000000;fill-opacity:1;stroke-width:0.85344;stroke-linecap:round;stroke-linejoin:round;paint-order:stroke fill markers"
       d="m 4.3754434,291.79461 v 5.2e-4 c -0.078697,-0.004 -0.2791984,0.0178 -0.6263183,0.25373 -0.1936006,-0.0544 -0.3994295,-0.0822 -0.6051311,-0.0822 -0.2057006,0 -0.4115303,0.0277 -0.6051309,0.0822 -0.4628264,-0.31159 -0.6655925,-0.24805 -0.6655925,-0.24805 -0.1331004,0.33275 -0.047972,0.58083 -0.023771,0.64131 -0.1542754,0.1694 -0.2480469,0.38742 -0.2480469,0.6506 0,0.84189 0.465181,1.08891 0.9544637,1.17254 0,0 -0.118339,0.0819 -0.118339,0.25735 -0.5291667,0.14179 -0.5854939,-0.52916 -1.1146607,-0.26458 -0.2366505,0.11833 -0.2366511,0.38291 0,0.26458 0.5291668,-0.26458 0.3308407,0.43339 1.0583334,0.52917 0.06527,0.49578 0,0.60481 -0.2645834,0.75757 -0.229136,0.1323 0.1666788,0.14126 0.2651001,0.1323 0.1216483,-0.0111 0.2694654,-0.0521 0.3782716,-0.13023 -0.00252,0.0929 -0.029877,0.17819 -0.114205,0.26252 -0.1870875,0.18709 0.1727602,0.16751 0.2651001,0.13229 0.2217928,-0.0846 0.2640666,-0.13229 0.2640666,-0.66146 0,0.52917 0.042274,0.57686 0.2640666,0.66146 0.09234,0.0352 0.4521874,0.0548 0.2651,-0.13229 -0.084329,-0.0843 -0.1116864,-0.16962 -0.114205,-0.26252 0.1088062,0.0781 0.2566233,0.11914 0.3782716,0.13023 0.098421,0.009 0.4942361,0 0.2651001,-0.1323 C 3.96875,295.65659 3.96875,295.58095 3.96875,295.18407 c 0,-0.6126 -0.074774,-0.86183 -0.1886191,-0.92656 0.4706987,-0.0918 0.9064048,-0.34954 0.9064048,-1.16479 0,-0.2662 -0.093255,-0.4812 -0.2475302,-0.6506 0.024199,-0.0605 0.1088155,-0.30856 -0.024288,-0.64131 0,0 -0.013041,-0.004 -0.039274,-0.006 z m -1.7678506,1.09864 c 0.1705322,0.005 0.3689697,0.0419 0.5674072,0.0419 0.5291666,0 1.0583333,-0.26458 1.0583333,0.52917 0,0.52917 -0.5291667,0.52917 -1.0583333,0.52917 -0.5291668,0 -1.0583334,0 -1.0583334,-0.52917 0,-0.49609 0.2067056,-0.57878 0.4909262,-0.57103 z m -0.028939,0.33642 a 0.19843748,0.29765625 0 0 0 -0.197404,0.29765 0.19843748,0.29765625 0 0 0 0.1984375,0.29766 0.19843748,0.29765625 0 0 0 0.1984375,-0.29766 0.19843748,0.29765625 0 0 0 -0.1984375,-0.29765 0.19843748,0.29765625 0 0 0 -0.00103,0 z m 1.190625,0 a 0.19843748,0.29765625 0 0 0 -0.197404,0.29765 0.19843748,0.29765625 0 0 0 0.1984375,0.29766 0.19843748,0.29765625 0 0 0 0.1984375,-0.29766 0.19843748,0.29765625 0 0 0 -0.1984375,-0.29765 0.19843748,0.29765625 0 0 0 -0.00103,0 z" />
  </g>
</svg>
