<?xml version="1.0" encoding="UTF-8" standalone="no"?>
<svg
   xmlns:dc="http://purl.org/dc/elements/1.1/"
   xmlns:cc="http://creativecommons.org/ns#"
   xmlns:rdf="http://www.w3.org/1999/02/22-rdf-syntax-ns#"
   xmlns:svg="http://www.w3.org/2000/svg"
   xmlns="http://www.w3.org/2000/svg"
   xmlns:sodipodi="http://sodipodi.sourceforge.net/DTD/sodipodi-0.dtd"
   xmlns:inkscape="http://www.inkscape.org/namespaces/inkscape"
   width="24"
   height="24"
   viewBox="0 0 6.3499999 6.3499999"
   version="1.1"
   id="svg842"
   inkscape:version="1.0.2 (1.0.2+r75+1)"
   sodipodi:docname="brand__chrome.svg">
  <defs
     id="defs836" />
  <sodipodi:namedview
     id="base"
     pagecolor="#ffffff"
     bordercolor="#666666"
     borderopacity="1.0"
     inkscape:pageopacity="0.0"
     inkscape:pageshadow="2"
     inkscape:zoom="45.254834"
     inkscape:cx="12.481793"
     inkscape:cy="12.932604"
     inkscape:document-units="px"
     inkscape:current-layer="layer1"
     showgrid="true"
     units="px"
     showguides="false"
     inkscape:guide-bbox="true"
     inkscape:window-width="1920"
     inkscape:window-height="1017"
     inkscape:window-x="0"
     inkscape:window-y="0"
     inkscape:window-maximized="1"
     inkscape:snap-bbox="true"
     inkscape:bbox-nodes="true"
     inkscape:document-rotation="0"
     inkscape:snap-nodes="true"
     inkscape:snap-smooth-nodes="true"
     inkscape:object-paths="false"
     inkscape:snap-center="true">
    <inkscape:grid
       type="xygrid"
       id="grid1387"
       empspacing="4" />
    <sodipodi:guide
       position="0.52916666,2.9104166"
       orientation="1,0"
       id="guide1389"
       inkscape:locked="false" />
    <sodipodi:guide
       position="3.9687499,5.8208332"
       orientation="0,1"
       id="guide1391"
       inkscape:locked="false" />
    <sodipodi:guide
       position="5.8208332,2.6458333"
       orientation="1,0"
       id="guide1393"
       inkscape:locked="false" />
    <sodipodi:guide
       position="1.5875,0.52916666"
       orientation="0,1"
       id="guide1395"
       inkscape:locked="false" />
  </sodipodi:namedview>
  <metadata
     id="metadata839">
    <rdf:RDF>
      <cc:Work
         rdf:about="">
        <dc:format>image/svg+xml</dc:format>
        <dc:type
           rdf:resource="http://purl.org/dc/dcmitype/StillImage" />
        <dc:title />
      </cc:Work>
    </rdf:RDF>
  </metadata>
  <g
     inkscape:label="Guide"
     inkscape:groupmode="layer"
     id="layer1"
     transform="translate(0,-290.64998)"
     style="opacity:1">
    <path
       id="path836"
       style="fill:#000000;stroke:none;stroke-width:2;stroke-linecap:square;paint-order:stroke fill markers"
       d="M 11.990234,3 C 9.7912197,3.0030247 7.6694014,3.8110387 6.0253906,5.2714844 L 8.5839844,9.9179688 C 9.2988994,8.7448499 10.565814,8.0206878 11.939453,8 12,8 12.38671,8.0146817 12.578125,8.0429688 l 7.9375,1.0429687 C 19.335027,5.5107819 17,3 11.990234,3 Z M 5.21875,6.0839844 C 3.7885063,7.7230445 3.0003147,9.8246575 3,12 c -6.26e-5,4.314665 3.0619421,8.022337 7.298828,8.837891 l 2.128906,-4.861329 C 12.285677,15.992009 12.142894,15.999833 12,16 10.383062,15.999214 8.9256244,15.025019 8.3066406,13.53125 h -0.00195 z M 15.509766,10.083984 C 15.830981,10.671553 15.999545,11.330361 16,12 c 2.26e-4,0.702079 -0.184342,1.391851 -0.535156,2 l -4.029297,6.980469 C 11.623447,20.992883 11.811691,20.999396 12,21 c 4.970563,0 9,-4.029437 9,-9 1e-6,-0.607516 -0.06151,-1.213471 -0.183594,-1.808594 z"
       transform="matrix(0.26458333,0,0,0.26458333,0,290.64998)"
       sodipodi:nodetypes="cccccccccccccccccccsccc" />
    <path
       style="fill:#000000;stroke:none;stroke-width:0.529167;stroke-linecap:square;paint-order:stroke fill markers"
       id="path906"
       cx="3.175"
       cy="293.82498"
       r="0.79374999" />
    <circle
       style="fill:#000000;stroke-width:0.529167;stroke-linecap:square;paint-order:stroke fill markers"
       id="path837"
       cx="3.175"
       cy="293.82498"
       r="0.79374999" />
  </g>
</svg>
