<?xml version="1.0" encoding="UTF-8" standalone="no"?>
<svg
   xmlns:dc="http://purl.org/dc/elements/1.1/"
   xmlns:cc="http://creativecommons.org/ns#"
   xmlns:rdf="http://www.w3.org/1999/02/22-rdf-syntax-ns#"
   xmlns:svg="http://www.w3.org/2000/svg"
   xmlns="http://www.w3.org/2000/svg"
   xmlns:sodipodi="http://sodipodi.sourceforge.net/DTD/sodipodi-0.dtd"
   xmlns:inkscape="http://www.inkscape.org/namespaces/inkscape"
   width="24"
   height="24"
   viewBox="0 0 6.3499999 6.3499999"
   version="1.1"
   id="svg842"
   inkscape:version="1.0.2 (1.0.2+r75+1)"
   sodipodi:docname="brand__safari.svg">
  <defs
     id="defs836" />
  <sodipodi:namedview
     id="base"
     pagecolor="#ffffff"
     bordercolor="#666666"
     borderopacity="1.0"
     inkscape:pageopacity="0.0"
     inkscape:pageshadow="2"
     inkscape:zoom="1"
     inkscape:cx="7.9275838"
     inkscape:cy="14.946417"
     inkscape:document-units="px"
     inkscape:current-layer="layer1"
     showgrid="true"
     units="px"
     showguides="false"
     inkscape:guide-bbox="true"
     inkscape:window-width="1920"
     inkscape:window-height="1017"
     inkscape:window-x="0"
     inkscape:window-y="0"
     inkscape:window-maximized="1"
     inkscape:snap-bbox="true"
     inkscape:bbox-nodes="true"
     inkscape:document-rotation="0"
     inkscape:snap-nodes="true"
     inkscape:snap-smooth-nodes="true">
    <inkscape:grid
       type="xygrid"
       id="grid1387"
       empspacing="4" />
    <sodipodi:guide
       position="0.52916666,2.9104166"
       orientation="1,0"
       id="guide1389"
       inkscape:locked="false" />
    <sodipodi:guide
       position="3.9687499,5.8208332"
       orientation="0,1"
       id="guide1391"
       inkscape:locked="false" />
    <sodipodi:guide
       position="5.8208332,2.6458333"
       orientation="1,0"
       id="guide1393"
       inkscape:locked="false" />
    <sodipodi:guide
       position="1.5875,0.52916666"
       orientation="0,1"
       id="guide1395"
       inkscape:locked="false" />
  </sodipodi:namedview>
  <metadata
     id="metadata839">
    <rdf:RDF>
      <cc:Work
         rdf:about="">
        <dc:format>image/svg+xml</dc:format>
        <dc:type
           rdf:resource="http://purl.org/dc/dcmitype/StillImage" />
        <dc:title />
      </cc:Work>
    </rdf:RDF>
  </metadata>
  <g
     inkscape:label="Guide"
     inkscape:groupmode="layer"
     id="layer1"
     transform="translate(0,-290.64998)"
     style="opacity:1">
    <path
       id="path836"
       style="fill:#000000;stroke:none;stroke-width:2;stroke-linecap:square;paint-order:stroke fill markers"
       d="M 11.990234 3 A 8.9999998 8.9999998 0 0 0 3 12 A 8.9999998 8.9999998 0 0 0 12 21 A 8.9999998 8.9999998 0 0 0 21 12 A 8.9999998 8.9999998 0 0 0 12 3 A 8.9999998 8.9999998 0 0 0 11.990234 3 z M 11.90625 5 A 7.0000001 7.0000001 0 0 1 12 5 A 7.0000001 7.0000001 0 0 1 19 12 A 7.0000001 7.0000001 0 0 1 12 19 A 7.0000001 7.0000001 0 0 1 5 12 A 7.0000001 7.0000001 0 0 1 11.90625 5 z M 13.070312 6.0742188 L 12.552734 8.0078125 L 13.517578 8.265625 L 14.035156 6.3339844 L 13.070312 6.0742188 z M 10.929688 6.0761719 L 9.9628906 6.3339844 L 10.480469 8.265625 L 11.449219 8.0058594 L 10.929688 6.0761719 z M 8.1113281 7.4042969 L 7.4042969 8.1113281 L 8.8164062 9.5253906 L 9.5253906 8.8164062 L 8.1113281 7.4042969 z M 16.242188 7.7578125 L 10.585938 10.585938 L 7.7578125 16.242188 L 13.414062 13.414062 L 16.242188 7.7578125 z M 17.666016 9.9628906 L 15.734375 10.480469 L 15.994141 11.449219 L 17.923828 10.929688 L 17.666016 9.9628906 z M 6.3339844 9.9648438 L 6.0742188 10.929688 L 8.0078125 11.447266 L 8.265625 10.482422 L 6.3339844 9.9648438 z M 11.292969 11.292969 L 12.707031 12.707031 L 9.8789062 14.121094 L 11.292969 11.292969 z M 8.0058594 12.550781 L 6.0761719 13.070312 L 6.3339844 14.037109 L 8.265625 13.519531 L 8.0058594 12.550781 z M 15.992188 12.552734 L 15.734375 13.517578 L 17.666016 14.035156 L 17.925781 13.070312 L 15.992188 12.552734 z M 15.183594 14.474609 L 14.474609 15.183594 L 15.888672 16.595703 L 16.595703 15.888672 L 15.183594 14.474609 z M 10.482422 15.734375 L 9.9648438 17.666016 L 10.929688 17.925781 L 11.447266 15.994141 L 10.482422 15.734375 z M 13.519531 15.734375 L 12.550781 15.994141 L 13.070312 17.923828 L 14.037109 17.666016 L 13.519531 15.734375 z "
       transform="matrix(0.26458333,0,0,0.26458333,0,290.64998)" />
  </g>
</svg>
