<?xml version="1.0" encoding="UTF-8" standalone="no"?>
<svg
   xmlns:dc="http://purl.org/dc/elements/1.1/"
   xmlns:cc="http://creativecommons.org/ns#"
   xmlns:rdf="http://www.w3.org/1999/02/22-rdf-syntax-ns#"
   xmlns:svg="http://www.w3.org/2000/svg"
   xmlns="http://www.w3.org/2000/svg"
   xmlns:sodipodi="http://sodipodi.sourceforge.net/DTD/sodipodi-0.dtd"
   xmlns:inkscape="http://www.inkscape.org/namespaces/inkscape"
   width="24"
   height="24"
   viewBox="0 0 6.3499999 6.3499999"
   version="1.1"
   id="svg842"
   inkscape:version="1.0.2 (1.0.2+r75+1)"
   sodipodi:docname="brand__mastercard.svg">
  <defs
     id="defs836" />
  <sodipodi:namedview
     id="base"
     pagecolor="#ffffff"
     bordercolor="#666666"
     borderopacity="1.0"
     inkscape:pageopacity="0.0"
     inkscape:pageshadow="2"
     inkscape:zoom="1.0824742"
     inkscape:cx="14.655331"
     inkscape:cy="12.822022"
     inkscape:document-units="px"
     inkscape:current-layer="layer1"
     showgrid="true"
     units="px"
     showguides="false"
     inkscape:guide-bbox="true"
     inkscape:window-width="1920"
     inkscape:window-height="1017"
     inkscape:window-x="0"
     inkscape:window-y="0"
     inkscape:window-maximized="1"
     inkscape:snap-bbox="true"
     inkscape:bbox-nodes="true"
     inkscape:document-rotation="0"
     inkscape:snap-smooth-nodes="true"
     inkscape:snap-global="true">
    <inkscape:grid
       type="xygrid"
       id="grid1387"
       empspacing="4" />
    <sodipodi:guide
       position="0.52916666,2.9104166"
       orientation="1,0"
       id="guide1389"
       inkscape:locked="false" />
    <sodipodi:guide
       position="3.9687499,5.8208332"
       orientation="0,1"
       id="guide1391"
       inkscape:locked="false" />
    <sodipodi:guide
       position="5.8208332,2.6458333"
       orientation="1,0"
       id="guide1393"
       inkscape:locked="false" />
    <sodipodi:guide
       position="1.5875,0.52916666"
       orientation="0,1"
       id="guide1395"
       inkscape:locked="false" />
  </sodipodi:namedview>
  <metadata
     id="metadata839">
    <rdf:RDF>
      <cc:Work
         rdf:about="">
        <dc:format>image/svg+xml</dc:format>
        <dc:type
           rdf:resource="http://purl.org/dc/dcmitype/StillImage" />
        <dc:title />
      </cc:Work>
    </rdf:RDF>
  </metadata>
  <g
     inkscape:label="Guide"
     inkscape:groupmode="layer"
     id="layer1"
     transform="translate(0,-290.64998)"
     style="opacity:1">
    <path
       id="path850"
       style="fill:#000000;stroke-width:0.999999;stroke-linejoin:round;paint-order:stroke fill markers"
       d="M 8 6 A 6 6 0 0 0 2 12 A 6 6 0 0 0 8 18 A 6 6 0 0 0 11.1875 17.082031 A 6.9999987 6.9999987 0 0 1 9 12 A 6.9999987 6.9999987 0 0 1 11.1875 6.9179688 A 6 6 0 0 0 8 6 z "
       transform="matrix(0.26458333,0,0,0.26458333,0,290.64998)" />
    <path
       id="path850-3"
       style="fill:#000000;stroke-width:0.999999;stroke-linejoin:round;paint-order:stroke fill markers"
       d="M 16 6 A 6 6 0 0 0 12.8125 6.9179688 A 6.9999987 6.9999987 0 0 1 15 12 A 6.9999987 6.9999987 0 0 1 12.8125 17.082031 A 6 6 0 0 0 16 18 A 6 6 0 0 0 22 12 A 6 6 0 0 0 16 6 z "
       transform="matrix(0.26458333,0,0,0.26458333,0,290.64998)" />
    <path
       id="path850-7"
       style="fill:#000000;stroke-width:0.999999;stroke-linejoin:round;paint-order:stroke fill markers"
       d="M 12 7.5292969 A 6 6 0 0 0 10 12 A 6 6 0 0 0 12 16.470703 A 6 6 0 0 0 14 12 A 6 6 0 0 0 12 7.5292969 z "
       transform="matrix(0.26458333,0,0,0.26458333,0,290.64998)" />
  </g>
</svg>
