<?xml version="1.0" encoding="UTF-8" standalone="no"?>
<svg
   xmlns:dc="http://purl.org/dc/elements/1.1/"
   xmlns:cc="http://creativecommons.org/ns#"
   xmlns:rdf="http://www.w3.org/1999/02/22-rdf-syntax-ns#"
   xmlns:svg="http://www.w3.org/2000/svg"
   xmlns="http://www.w3.org/2000/svg"
   xmlns:sodipodi="http://sodipodi.sourceforge.net/DTD/sodipodi-0.dtd"
   xmlns:inkscape="http://www.inkscape.org/namespaces/inkscape"
   width="24"
   height="24"
   viewBox="0 0 6.3499999 6.3499999"
   version="1.1"
   id="svg842"
   inkscape:version="1.0.2 (1.0.2+r75+1)"
   sodipodi:docname="brand__firefox-legacy.svg">
  <defs
     id="defs836" />
  <sodipodi:namedview
     id="base"
     pagecolor="#ffffff"
     bordercolor="#666666"
     borderopacity="1.0"
     inkscape:pageopacity="0.0"
     inkscape:pageshadow="2"
     inkscape:zoom="90.509668"
     inkscape:cx="11.074724"
     inkscape:cy="6.1359913"
     inkscape:document-units="px"
     inkscape:current-layer="layer1"
     showgrid="false"
     units="px"
     showguides="false"
     inkscape:guide-bbox="true"
     inkscape:window-width="1920"
     inkscape:window-height="1017"
     inkscape:window-x="0"
     inkscape:window-y="0"
     inkscape:window-maximized="1"
     inkscape:snap-bbox="true"
     inkscape:bbox-nodes="true"
     inkscape:document-rotation="0"
     inkscape:snap-nodes="true"
     inkscape:snap-smooth-nodes="true">
    <inkscape:grid
       type="xygrid"
       id="grid1387"
       empspacing="4" />
    <sodipodi:guide
       position="0.52916666,2.9104166"
       orientation="1,0"
       id="guide1389"
       inkscape:locked="false" />
    <sodipodi:guide
       position="3.9687499,5.8208332"
       orientation="0,1"
       id="guide1391"
       inkscape:locked="false" />
    <sodipodi:guide
       position="5.8208332,2.6458333"
       orientation="1,0"
       id="guide1393"
       inkscape:locked="false" />
    <sodipodi:guide
       position="1.5875,0.52916666"
       orientation="0,1"
       id="guide1395"
       inkscape:locked="false" />
  </sodipodi:namedview>
  <metadata
     id="metadata839">
    <rdf:RDF>
      <cc:Work
         rdf:about="">
        <dc:format>image/svg+xml</dc:format>
        <dc:type
           rdf:resource="http://purl.org/dc/dcmitype/StillImage" />
        <dc:title />
      </cc:Work>
    </rdf:RDF>
  </metadata>
  <g
     inkscape:label="Guide"
     inkscape:groupmode="layer"
     id="layer1"
     transform="translate(0,-290.64998)"
     style="opacity:1">
    <path
       id="path856"
       style="fill:#000000;fill-opacity:0.944681;stroke-width:3.99999;stroke-linecap:square;stroke-linejoin:bevel;paint-order:stroke fill markers"
       d="m 16,2 c -2.237997,0.7459896 -3.18249,2.951998 -3.519531,4.0253906 -0.916951,-0.072895 -1.872605,0.097108 -2.5292971,0.3359375 0,0 -0.1294353,0.5634884 -0.066406,1.109375 C 10.546957,7.1610629 11.26899,7.0003889 12,7 c 1.895668,-1e-7 3.525226,1.0682098 4.373047,2.6230469 C 15.298418,8.9111697 14,9 14,9 c 4.499971,3 1,7 -2,7 C 10,16 8.5,13.847267 8.5,13 9.3929615,11.285462 11,11.5 11,11.5 11,11.5 12,11 12,10 10,10 10.087856,9.0648555 9,8 8.685428,7.4122169 9,6 9,6 9,6 7.81534,6.4219626 7,7.5 6.198513,6.3774042 6.5,5.5 6.5,5.5 6.5,5.5 3,7.0000001 3,12 c 0,5 4.0294372,9 9,9 5,0 9,-4 9,-9 0,-4.0000253 -0.7516,-5.3371968 -2,-7 0.232998,1.1649837 0.323317,2.0265319 0.339844,2.6972656 C 17.985092,3.9133681 16,3.5473051 16,2 Z"
       transform="matrix(0.26458333,0,0,0.26458333,0,290.64998)"
       sodipodi:nodetypes="cccccccscccccccsssccc" />
  </g>
</svg>
