<?xml version="1.0" encoding="UTF-8" standalone="no"?>
<svg
   xmlns:dc="http://purl.org/dc/elements/1.1/"
   xmlns:cc="http://creativecommons.org/ns#"
   xmlns:rdf="http://www.w3.org/1999/02/22-rdf-syntax-ns#"
   xmlns:svg="http://www.w3.org/2000/svg"
   xmlns="http://www.w3.org/2000/svg"
   xmlns:sodipodi="http://sodipodi.sourceforge.net/DTD/sodipodi-0.dtd"
   xmlns:inkscape="http://www.inkscape.org/namespaces/inkscape"
   width="24"
   height="24"
   viewBox="0 0 6.3499999 6.3499999"
   version="1.1"
   id="svg842"
   inkscape:version="1.0.2 (1.0.2+r75+1)"
   sodipodi:docname="currency__dollar.svg">
  <defs
     id="defs836" />
  <sodipodi:namedview
     id="base"
     pagecolor="#ffffff"
     bordercolor="#666666"
     borderopacity="1.0"
     inkscape:pageopacity="0.0"
     inkscape:pageshadow="2"
     inkscape:zoom="17.319588"
     inkscape:cx="-2.3605381"
     inkscape:cy="9.1333396"
     inkscape:document-units="px"
     inkscape:current-layer="layer1"
     showgrid="true"
     units="px"
     showguides="true"
     inkscape:guide-bbox="true"
     inkscape:window-width="1920"
     inkscape:window-height="1017"
     inkscape:window-x="0"
     inkscape:window-y="0"
     inkscape:window-maximized="1"
     inkscape:snap-bbox="true"
     inkscape:bbox-nodes="true"
     inkscape:document-rotation="0">
    <inkscape:grid
       type="xygrid"
       id="grid1387"
       empspacing="4" />
    <sodipodi:guide
       position="0.52916666,2.9104166"
       orientation="1,0"
       id="guide1389"
       inkscape:locked="false" />
    <sodipodi:guide
       position="1.3229166,5.8208332"
       orientation="0,1"
       id="guide1391"
       inkscape:locked="false" />
    <sodipodi:guide
       position="5.8208332,2.6458333"
       orientation="1,0"
       id="guide1393"
       inkscape:locked="false" />
    <sodipodi:guide
       position="1.5875,0.52916666"
       orientation="0,1"
       id="guide1395"
       inkscape:locked="false" />
  </sodipodi:namedview>
  <metadata
     id="metadata839">
    <rdf:RDF>
      <cc:Work
         rdf:about="">
        <dc:format>image/svg+xml</dc:format>
        <dc:type
           rdf:resource="http://purl.org/dc/dcmitype/StillImage" />
        <dc:title />
      </cc:Work>
    </rdf:RDF>
  </metadata>
  <g
     inkscape:label="Guide"
     inkscape:groupmode="layer"
     id="layer1"
     transform="translate(0,-290.64998)">
    <path
       id="path871"
       style="fill:#000000;stroke-width:3.99999;stroke-linecap:round;stroke-linejoin:round;paint-order:stroke fill markers"
       d="M 11,3 V 5.1269531 C 9.2339033,5.5829573 7.999971,7.1759832 8,9 c -1e-7,2.209139 1.790861,4 4,4 1.104563,1.5e-5 1.999985,0.895437 2,2 -1.5e-5,1.104563 -0.895437,1.999985 -2,2 -1.104563,-1.5e-5 -1.999985,-0.895437 -2,-2 -3.9e-5,-0.271293 0.05512,-0.539758 0.162109,-0.789062 L 8.3242188,13.423828 C 8.11049,13.921831 8.0001854,14.458071 8,15 c 8.612e-4,1.82329 1.2346071,3.415272 3,3.871094 V 21 h 2 V 18.873047 C 14.766097,18.417043 16.000029,16.824017 16,15 c 0,-2.209139 -1.790861,-4 -4,-4 -1.104563,-1.5e-5 -1.999985,-0.895437 -2,-2 1.5e-5,-1.1045632 0.895437,-1.9999849 2,-2 1.104563,1.51e-5 1.999985,0.8954368 2,2 3.9e-5,0.2712933 -0.05512,0.5397585 -0.162109,0.7890625 l 1.83789,0.7871095 C 15.88951,10.078169 15.999815,9.541929 16,9 15.999139,7.1767104 14.765393,5.5847284 13,5.1289062 V 3 Z"
       transform="matrix(0.26458333,0,0,0.26458333,0,290.64998)"
       sodipodi:nodetypes="ccccccccccccccccccccccccc" />
  </g>
</svg>
