<?xml version="1.0" encoding="UTF-8" standalone="no"?>
<svg
   xmlns:dc="http://purl.org/dc/elements/1.1/"
   xmlns:cc="http://creativecommons.org/ns#"
   xmlns:rdf="http://www.w3.org/1999/02/22-rdf-syntax-ns#"
   xmlns:svg="http://www.w3.org/2000/svg"
   xmlns="http://www.w3.org/2000/svg"
   xmlns:sodipodi="http://sodipodi.sourceforge.net/DTD/sodipodi-0.dtd"
   xmlns:inkscape="http://www.inkscape.org/namespaces/inkscape"
   width="24"
   height="24"
   viewBox="0 0 6.3499999 6.3499999"
   version="1.1"
   id="svg842"
   inkscape:version="1.0.2 (1.0.2+r75+1)"
   sodipodi:docname="currency__coin.svg">
  <defs
     id="defs836" />
  <sodipodi:namedview
     id="base"
     pagecolor="#ffffff"
     bordercolor="#666666"
     borderopacity="1.0"
     inkscape:pageopacity="0.0"
     inkscape:pageshadow="2"
     inkscape:zoom="1.0824742"
     inkscape:cx="11.996526"
     inkscape:cy="13.914451"
     inkscape:document-units="px"
     inkscape:current-layer="layer1"
     showgrid="true"
     units="px"
     showguides="true"
     inkscape:guide-bbox="true"
     inkscape:window-width="1920"
     inkscape:window-height="1017"
     inkscape:window-x="0"
     inkscape:window-y="0"
     inkscape:window-maximized="1"
     inkscape:snap-bbox="true"
     inkscape:bbox-nodes="true"
     inkscape:document-rotation="0">
    <inkscape:grid
       type="xygrid"
       id="grid1387"
       empspacing="4" />
    <sodipodi:guide
       position="0.52916666,2.9104166"
       orientation="1,0"
       id="guide1389"
       inkscape:locked="false" />
    <sodipodi:guide
       position="3.9687499,5.8208332"
       orientation="0,1"
       id="guide1391"
       inkscape:locked="false" />
    <sodipodi:guide
       position="5.8208332,2.6458333"
       orientation="1,0"
       id="guide1393"
       inkscape:locked="false" />
    <sodipodi:guide
       position="1.5875,0.52916666"
       orientation="0,1"
       id="guide1395"
       inkscape:locked="false" />
  </sodipodi:namedview>
  <metadata
     id="metadata839">
    <rdf:RDF>
      <cc:Work
         rdf:about="">
        <dc:format>image/svg+xml</dc:format>
        <dc:type
           rdf:resource="http://purl.org/dc/dcmitype/StillImage" />
        <dc:title />
      </cc:Work>
    </rdf:RDF>
  </metadata>
  <g
     inkscape:label="Guide"
     inkscape:groupmode="layer"
     id="layer1"
     transform="translate(0,-290.64998)">
    <path
       id="path843-6-5"
       style="fill:#000000;stroke-width:1.6;stroke-linecap:round;stroke-linejoin:round;paint-order:stroke fill markers"
       d="M 11.939453 8 A 4.0000067 4.0000067 0 0 0 8 12 A 4.0000067 4.0000067 0 0 0 12 16 A 4.0000067 4.0000067 0 0 0 16 12 A 4.0000067 4.0000067 0 0 0 12 8 A 4.0000067 4.0000067 0 0 0 11.939453 8 z M 11 10 L 13 10 L 13 14 L 11 14 L 11 10 z "
       transform="matrix(0.26458333,0,0,0.26458333,0,290.64998)" />
    <path
       id="path843-6"
       style="fill:#000000;stroke-width:3.19999;stroke-linecap:round;stroke-linejoin:round;paint-order:stroke fill markers"
       d="M 12 4 A 7.9999999 7.9999999 0 0 0 4 12 A 7.9999999 7.9999999 0 0 0 12 20 A 7.9999999 7.9999999 0 0 0 20 12 A 7.9999999 7.9999999 0 0 0 12 4 z M 12 6 A 6.0000069 6.0000069 0 0 1 18 12 A 6.0000069 6.0000069 0 0 1 12 18 A 6.0000069 6.0000069 0 0 1 6 12 A 6.0000069 6.0000069 0 0 1 12 6 z "
       transform="matrix(0.26458333,0,0,0.26458333,0,290.64998)" />
  </g>
</svg>
