<?xml version="1.0" encoding="UTF-8" standalone="no"?>
<svg
   xmlns:dc="http://purl.org/dc/elements/1.1/"
   xmlns:cc="http://creativecommons.org/ns#"
   xmlns:rdf="http://www.w3.org/1999/02/22-rdf-syntax-ns#"
   xmlns:svg="http://www.w3.org/2000/svg"
   xmlns="http://www.w3.org/2000/svg"
   xmlns:sodipodi="http://sodipodi.sourceforge.net/DTD/sodipodi-0.dtd"
   xmlns:inkscape="http://www.inkscape.org/namespaces/inkscape"
   width="24"
   height="24"
   viewBox="0 0 6.3499999 6.3499999"
   version="1.1"
   id="svg842"
   inkscape:version="1.0.2 (1.0.2+r75+1)"
   sodipodi:docname="currency__peso.svg">
  <defs
     id="defs836" />
  <sodipodi:namedview
     id="base"
     pagecolor="#ffffff"
     bordercolor="#666666"
     borderopacity="1.0"
     inkscape:pageopacity="0.0"
     inkscape:pageshadow="2"
     inkscape:zoom="24.493596"
     inkscape:cx="1.9370953"
     inkscape:cy="10.52214"
     inkscape:document-units="px"
     inkscape:current-layer="layer1"
     showgrid="true"
     units="px"
     showguides="true"
     inkscape:guide-bbox="true"
     inkscape:window-width="1920"
     inkscape:window-height="1017"
     inkscape:window-x="0"
     inkscape:window-y="0"
     inkscape:window-maximized="1"
     inkscape:snap-bbox="true"
     inkscape:bbox-nodes="true"
     inkscape:document-rotation="0">
    <inkscape:grid
       type="xygrid"
       id="grid1387"
       empspacing="4" />
    <sodipodi:guide
       position="0.52916666,2.9104166"
       orientation="1,0"
       id="guide1389"
       inkscape:locked="false" />
    <sodipodi:guide
       position="1.3229166,5.8208332"
       orientation="0,1"
       id="guide1391"
       inkscape:locked="false" />
    <sodipodi:guide
       position="5.8208332,2.6458333"
       orientation="1,0"
       id="guide1393"
       inkscape:locked="false" />
    <sodipodi:guide
       position="1.5875,0.52916666"
       orientation="0,1"
       id="guide1395"
       inkscape:locked="false" />
  </sodipodi:namedview>
  <metadata
     id="metadata839">
    <rdf:RDF>
      <cc:Work
         rdf:about="">
        <dc:format>image/svg+xml</dc:format>
        <dc:type
           rdf:resource="http://purl.org/dc/dcmitype/StillImage" />
        <dc:title />
      </cc:Work>
    </rdf:RDF>
  </metadata>
  <g
     inkscape:label="Guide"
     inkscape:groupmode="layer"
     id="layer1"
     transform="translate(0,-290.64998)">
    <path
       id="path854"
       style="fill:#000000;stroke-width:2;stroke-linecap:round;stroke-linejoin:bevel;paint-order:stroke fill markers"
       d="M 8 4 L 8 7 L 6 7 L 6 8 L 8 8 L 8 9 L 6 9 L 6 10 L 8 10 L 8 20 L 10 20 L 10 13 L 13.5 13 C 15.241011 13 17.014121 11.750153 17.695312 10 L 20 10 L 20 9 L 17.96875 9 C 17.988983 8.8359179 18 8.6691231 18 8.5 C 18 8.3308225 17.988996 8.1641334 17.96875 8 L 20 8 L 20 7 L 17.695312 7 C 17.013968 5.250113 15.240837 4 13.5 4 L 10 4 L 8 4 z M 10 6 L 13.5 6 C 14.171788 6 14.947473 6.3726924 15.455078 7 L 10 7 L 10 6 z M 10 8 L 15.941406 8 C 15.976545 8.1602323 16 8.3254358 16 8.5 C 16 8.6739491 15.974726 8.8402781 15.9375 9 L 10 9 L 10 8 z M 10 10 L 15.425781 10 C 14.897629 10.62719 14.108127 11 13.5 11 L 10 11 L 10 10 z "
       transform="matrix(0.26458333,0,0,0.26458333,0,290.64998)" />
  </g>
</svg>
