<?xml version="1.0" encoding="UTF-8" standalone="no"?>
<svg
   xmlns:dc="http://purl.org/dc/elements/1.1/"
   xmlns:cc="http://creativecommons.org/ns#"
   xmlns:rdf="http://www.w3.org/1999/02/22-rdf-syntax-ns#"
   xmlns:svg="http://www.w3.org/2000/svg"
   xmlns="http://www.w3.org/2000/svg"
   xmlns:sodipodi="http://sodipodi.sourceforge.net/DTD/sodipodi-0.dtd"
   xmlns:inkscape="http://www.inkscape.org/namespaces/inkscape"
   width="24"
   height="24"
   viewBox="0 0 6.3499999 6.3499999"
   version="1.1"
   id="svg842"
   inkscape:version="1.0.2 (1.0.2+r75+1)"
   sodipodi:docname="format__image.svg">
  <defs
     id="defs836" />
  <sodipodi:namedview
     id="base"
     pagecolor="#ffffff"
     bordercolor="#666666"
     borderopacity="1.0"
     inkscape:pageopacity="0.0"
     inkscape:pageshadow="2"
     inkscape:zoom="26.513686"
     inkscape:cx="7.2266427"
     inkscape:cy="14.14437"
     inkscape:document-units="px"
     inkscape:current-layer="layer1"
     showgrid="true"
     units="px"
     showguides="true"
     inkscape:guide-bbox="true"
     inkscape:window-width="1920"
     inkscape:window-height="1017"
     inkscape:window-x="0"
     inkscape:window-y="0"
     inkscape:window-maximized="1"
     inkscape:snap-bbox="true"
     inkscape:bbox-nodes="true"
     inkscape:lockguides="true"
     inkscape:document-rotation="0">
    <inkscape:grid
       type="xygrid"
       id="grid1387"
       empspacing="4" />
    <sodipodi:guide
       position="0.52916666,2.9104166"
       orientation="1,0"
       id="guide1389"
       inkscape:locked="true" />
    <sodipodi:guide
       position="3.9687499,5.8208332"
       orientation="0,1"
       id="guide1391"
       inkscape:locked="true" />
    <sodipodi:guide
       position="4.4979166,5.0270833"
       orientation="1,0"
       id="guide1393"
       inkscape:locked="true" />
    <sodipodi:guide
       position="1.5875,0.52916666"
       orientation="0,1"
       id="guide1395"
       inkscape:locked="true" />
  </sodipodi:namedview>
  <metadata
     id="metadata839">
    <rdf:RDF>
      <cc:Work
         rdf:about="">
        <dc:format>image/svg+xml</dc:format>
        <dc:type
           rdf:resource="http://purl.org/dc/dcmitype/StillImage" />
        <dc:title />
      </cc:Work>
    </rdf:RDF>
  </metadata>
  <g
     inkscape:label="Guide"
     inkscape:groupmode="layer"
     id="layer1"
     transform="translate(0,-290.64998)">
    <path
       id="rect842"
       style="fill:#000000;stroke-width:0.999999;stroke-linecap:square;stroke-linejoin:round;paint-order:stroke fill markers"
       d="M 2 4 L 2 20 L 22 20 L 22 4 L 2 4 z M 4 6 L 20 6 L 20 14.234375 L 17 13.488281 L 13.117188 14.455078 L 8.0019531 10.357422 L 4 13.558594 L 4 6 z M 16.951172 7 A 1.9999999 1.9999999 0 0 0 15 9 A 1.9999999 1.9999999 0 0 0 17 11 A 1.9999999 1.9999999 0 0 0 19 9 A 1.9999999 1.9999999 0 0 0 17 7 A 1.9999999 1.9999999 0 0 0 16.951172 7 z M 17 8 A 1.0000014 1.0000014 0 0 1 18 9 A 1.0000014 1.0000014 0 0 1 17 10 A 1.0000014 1.0000014 0 0 1 16 9 A 1.0000014 1.0000014 0 0 1 17 8 z M 8.0019531 11.642578 L 12.880859 15.546875 L 17 14.513672 L 20 15.267578 L 20 18 L 4 18 L 4 14.84375 L 8.0019531 11.642578 z "
       transform="matrix(0.26458333,0,0,0.26458333,0,290.64998)" />
  </g>
</svg>
