<?xml version="1.0" encoding="UTF-8" standalone="no"?>
<svg
   xmlns:dc="http://purl.org/dc/elements/1.1/"
   xmlns:cc="http://creativecommons.org/ns#"
   xmlns:rdf="http://www.w3.org/1999/02/22-rdf-syntax-ns#"
   xmlns:svg="http://www.w3.org/2000/svg"
   xmlns="http://www.w3.org/2000/svg"
   xmlns:sodipodi="http://sodipodi.sourceforge.net/DTD/sodipodi-0.dtd"
   xmlns:inkscape="http://www.inkscape.org/namespaces/inkscape"
   width="24"
   height="24"
   viewBox="0 0 6.3499999 6.3499999"
   version="1.1"
   id="svg842"
   inkscape:version="1.0.1 (1.0.1+r74)"
   sodipodi:docname="symbol__globe-lines.svg">
  <defs
     id="defs836" />
  <sodipodi:namedview
     id="base"
     pagecolor="#ffffff"
     bordercolor="#666666"
     borderopacity="1.0"
     inkscape:pageopacity="0.0"
     inkscape:pageshadow="2"
     inkscape:zoom="22.627417"
     inkscape:cx="8.7371825"
     inkscape:cy="14.263527"
     inkscape:document-units="px"
     inkscape:current-layer="layer1"
     showgrid="true"
     units="px"
     showguides="true"
     inkscape:guide-bbox="true"
     inkscape:window-width="1920"
     inkscape:window-height="1017"
     inkscape:window-x="0"
     inkscape:window-y="0"
     inkscape:window-maximized="1"
     inkscape:snap-bbox="true"
     inkscape:bbox-nodes="true"
     inkscape:document-rotation="0">
    <inkscape:grid
       type="xygrid"
       id="grid1387"
       empspacing="4" />
    <sodipodi:guide
       position="0.52916666,2.9104166"
       orientation="1,0"
       id="guide1389"
       inkscape:locked="false" />
    <sodipodi:guide
       position="3.9687499,5.8208332"
       orientation="0,1"
       id="guide1391"
       inkscape:locked="false" />
    <sodipodi:guide
       position="5.8208332,2.6458333"
       orientation="1,0"
       id="guide1393"
       inkscape:locked="false" />
    <sodipodi:guide
       position="1.5875,0.52916666"
       orientation="0,1"
       id="guide1395"
       inkscape:locked="false" />
  </sodipodi:namedview>
  <metadata
     id="metadata839">
    <rdf:RDF>
      <cc:Work
         rdf:about="">
        <dc:format>image/svg+xml</dc:format>
        <dc:type
           rdf:resource="http://purl.org/dc/dcmitype/StillImage" />
        <dc:title />
      </cc:Work>
    </rdf:RDF>
  </metadata>
  <g
     inkscape:label="Guide"
     inkscape:groupmode="layer"
     id="layer1"
     transform="translate(0,-290.64998)">
    <path
       id="path842"
       style="fill:#000000;stroke-width:3.99999;stroke-linecap:square;stroke-linejoin:bevel;paint-order:stroke fill markers"
       d="M 11.980469 2 A 10 10 0 0 0 2 12 A 10 10 0 0 0 12 22 A 10 10 0 0 0 22 12 A 10 10 0 0 0 12 2 A 10 10 0 0 0 11.980469 2 z M 12 4 A 8.0000071 8.0000071 0 0 1 12.714844 4.03125 C 12.869512 4.3618719 13.022638 4.7479914 13.162109 5.2128906 C 13.392906 5.9822076 13.583667 6.9244357 13.728516 7.9628906 A 19.000001 9.0000115 0 0 1 12 8 A 19.000001 9.0000115 0 0 1 10.273438 7.9609375 C 10.416479 6.9233067 10.605291 5.9817039 10.835938 5.2128906 C 10.975016 4.7492963 11.127014 4.3633113 11.28125 4.0332031 A 8.0000071 8.0000071 0 0 1 12 4 z M 13.886719 4.2246094 A 8.0000071 8.0000071 0 0 1 15.685547 4.9003906 A 6.0000001 8.9999945 0 0 1 17.251953 7.6484375 A 19.000001 9.0000115 0 0 1 14.736328 7.90625 A 2.9999998 10 0 0 0 13.886719 4.2246094 z M 10.115234 4.2265625 A 2.9999998 10 0 0 0 9.2636719 7.90625 A 19.000001 9.0000115 0 0 1 6.75 7.6484375 A 6.0000001 8.9999945 0 0 1 8.3125 4.9003906 A 8.0000071 8.0000071 0 0 1 10.115234 4.2265625 z M 6.1191406 6.5761719 A 7 10 0 0 0 5.75 7.4980469 A 19.000001 9.0000115 0 0 1 5.4257812 7.4433594 A 8.0000071 8.0000071 0 0 1 6.1191406 6.5761719 z M 17.878906 6.5761719 A 8.0000071 8.0000071 0 0 1 18.574219 7.4433594 A 19.000001 9.0000115 0 0 1 18.248047 7.4980469 A 7 10 0 0 0 17.878906 6.5761719 z M 4.8847656 8.3457031 A 20 10 0 0 0 5.4550781 8.4492188 A 7 10 0 0 0 5 12 A 7 10 0 0 0 5.4589844 15.550781 A 20 10 0 0 0 4.8847656 15.654297 A 8.0000071 8.0000071 0 0 1 4 12 A 8.0000071 8.0000071 0 0 1 4.8847656 8.3457031 z M 19.115234 8.3457031 A 8.0000071 8.0000071 0 0 1 20 12 A 8.0000071 8.0000071 0 0 1 19.115234 15.654297 A 20 10 0 0 0 18.544922 15.550781 A 7 10 0 0 0 19 12 A 7 10 0 0 0 18.541016 8.4492188 A 20 10 0 0 0 19.115234 8.3457031 z M 6.4433594 8.6054688 A 20 10 0 0 0 9.1484375 8.8964844 A 2.9999998 10 0 0 0 9 12 A 2.9999998 10 0 0 0 9.1484375 15.101562 A 20 10 0 0 0 6.4433594 15.392578 A 6.0000001 8.9999945 0 0 1 6 12 A 6.0000001 8.9999945 0 0 1 6.4433594 8.6054688 z M 17.556641 8.6054688 A 6.0000001 8.9999945 0 0 1 18 12 A 6.0000001 8.9999945 0 0 1 17.556641 15.394531 A 20 10 0 0 0 14.851562 15.103516 A 2.9999998 10 0 0 0 15 12 A 2.9999998 10 0 0 0 14.851562 8.8964844 A 20 10 0 0 0 17.556641 8.6054688 z M 10.162109 8.9570312 A 20 10 0 0 0 12 9 A 20 10 0 0 0 13.839844 8.9570312 C 13.936959 9.915904 14.003906 10.926888 14.003906 11.998047 C 14.003906 13.071065 13.937277 14.083058 13.839844 15.042969 A 20 10 0 0 0 12 15 A 20 10 0 0 0 11.882812 15 A 20 10 0 0 0 10.164062 15.042969 C 10.068129 14.083048 10.001954 13.071079 10.001953 11.998047 C 10.001954 10.926942 10.066502 9.9158632 10.162109 8.9570312 z M 11.990234 16 A 19.000001 9.0000115 0 0 1 12 16 A 19.000001 9.0000115 0 0 1 13.726562 16.039062 C 13.581826 17.073734 13.392294 18.013975 13.162109 18.78125 C 13.022694 19.245965 12.869451 19.63411 12.714844 19.966797 A 8.0000071 8.0000071 0 0 1 12 20 A 8.0000071 8.0000071 0 0 1 11.283203 19.96875 C 11.128318 19.635731 10.975604 19.246805 10.835938 18.78125 C 10.605609 18.013497 10.418376 17.072561 10.275391 16.037109 A 19.000001 9.0000115 0 0 1 11.990234 16 z M 9.2636719 16.09375 A 2.9999998 10 0 0 0 10.113281 19.775391 A 8.0000071 8.0000071 0 0 1 8.3144531 19.099609 A 6.0000001 8.9999945 0 0 1 6.7480469 16.351562 A 19.000001 9.0000115 0 0 1 9.2636719 16.09375 z M 14.736328 16.09375 A 19.000001 9.0000115 0 0 1 17.25 16.351562 A 6.0000001 8.9999945 0 0 1 15.6875 19.099609 A 8.0000071 8.0000071 0 0 1 13.884766 19.773438 A 2.9999998 10 0 0 0 14.736328 16.09375 z M 5.7519531 16.501953 A 7 10 0 0 0 6.1210938 17.423828 A 8.0000071 8.0000071 0 0 1 5.4257812 16.556641 A 19.000001 9.0000115 0 0 1 5.7519531 16.501953 z M 18.25 16.501953 A 19.000001 9.0000115 0 0 1 18.574219 16.556641 A 8.0000071 8.0000071 0 0 1 17.880859 17.423828 A 7 10 0 0 0 18.25 16.501953 z "
       transform="matrix(0.26458333,0,0,0.26458333,0,290.64998)" />
  </g>
</svg>
