<?xml version="1.0" encoding="UTF-8" standalone="no"?>
<svg
   xmlns:dc="http://purl.org/dc/elements/1.1/"
   xmlns:cc="http://creativecommons.org/ns#"
   xmlns:rdf="http://www.w3.org/1999/02/22-rdf-syntax-ns#"
   xmlns:svg="http://www.w3.org/2000/svg"
   xmlns="http://www.w3.org/2000/svg"
   xmlns:sodipodi="http://sodipodi.sourceforge.net/DTD/sodipodi-0.dtd"
   xmlns:inkscape="http://www.inkscape.org/namespaces/inkscape"
   width="24"
   height="24"
   viewBox="0 0 6.3499999 6.3499999"
   version="1.1"
   id="svg842"
   inkscape:version="1.0.2 (1.0.2+r75+1)"
   sodipodi:docname="globe_asia.svg">
  <defs
     id="defs836" />
  <sodipodi:namedview
     id="base"
     pagecolor="#ffffff"
     bordercolor="#666666"
     borderopacity="1.0"
     inkscape:pageopacity="0.0"
     inkscape:pageshadow="2"
     inkscape:zoom="1"
     inkscape:cx="13.960854"
     inkscape:cy="10.901521"
     inkscape:document-units="px"
     inkscape:current-layer="layer1"
     showgrid="false"
     units="px"
     showguides="true"
     inkscape:guide-bbox="true"
     inkscape:window-width="1920"
     inkscape:window-height="1017"
     inkscape:window-x="0"
     inkscape:window-y="0"
     inkscape:window-maximized="1"
     inkscape:snap-bbox="true"
     inkscape:bbox-nodes="true"
     inkscape:document-rotation="0">
    <inkscape:grid
       type="xygrid"
       id="grid1387"
       empspacing="2"
       spacingx="0.13229166"
       spacingy="0.13229166" />
    <sodipodi:guide
       position="0.52916666,2.9104166"
       orientation="1,0"
       id="guide1389"
       inkscape:locked="false" />
    <sodipodi:guide
       position="3.9687499,5.8208332"
       orientation="0,1"
       id="guide1391"
       inkscape:locked="false" />
    <sodipodi:guide
       position="5.8208332,2.6458333"
       orientation="1,0"
       id="guide1393"
       inkscape:locked="false" />
    <sodipodi:guide
       position="1.5875,0.52916666"
       orientation="0,1"
       id="guide1395"
       inkscape:locked="false" />
  </sodipodi:namedview>
  <metadata
     id="metadata839">
    <rdf:RDF>
      <cc:Work
         rdf:about="">
        <dc:format>image/svg+xml</dc:format>
        <dc:type
           rdf:resource="http://purl.org/dc/dcmitype/StillImage" />
        <dc:title />
      </cc:Work>
    </rdf:RDF>
  </metadata>
  <g
     inkscape:label="Guide"
     inkscape:groupmode="layer"
     id="layer1"
     transform="translate(0,-290.64998)">
    <path
       id="path862"
       style="fill:#000000;fill-opacity:0.947002;stroke:none;stroke-width:3.99999;stroke-linecap:square;paint-order:stroke fill markers"
       d="M 11.980469,2 C 6.4652504,2.0107718 1.9999895,6.4847709 2,12 2,17.522847 6.4771525,22 12,22 17.522847,22 22,17.522847 22,12 22,6.4771525 17.522847,2 12,2 Z M 14.90625,4.546875 C 17.977603,5.7444615 19.99987,8.703423 20,12 c -4e-6,4.418276 -3.581724,7.999996 -8,8 -4.4182764,-4e-6 -7.9999961,-3.581724 -8,-8 5.441e-4,-0.849409 0.1363597,-1.693311 0.4023438,-2.5 L 5,8.5 h 1 l 0.5,3 H 7 V 10 L 8.5,9 9,11 10,12 9.5,11 11,10.5 13,8 14.5,5.5 14,5 Z M 15,5.5 14.5,7 13.5,7.5 15,8 Z M 12.5,10 13,11.5 13.5,11 13,9.5 Z M 9,11.5 10.5,14 13,14.5 14.5,13.5 13,14 10.5,13 Z m 3,0 -1,1 V 13 h 1 l 0.5,-1 z m 2,1 1.5,1 1.5,1 -1,-1.5 z m 1,2 -1.5,0.5 -2,1 0.5,1.5 2,-0.5 1.5,1 1.5,-1.5 -1.5,-2 z"
       transform="matrix(0.26458333,0,0,0.26458333,0,290.64998)"
       sodipodi:nodetypes="ccsssccccccccccccccccccccccccccccccccccccccccccccccccccccccccc" />
  </g>
</svg>
