<?xml version="1.0" encoding="UTF-8" standalone="no"?>
<svg
   xmlns:dc="http://purl.org/dc/elements/1.1/"
   xmlns:cc="http://creativecommons.org/ns#"
   xmlns:rdf="http://www.w3.org/1999/02/22-rdf-syntax-ns#"
   xmlns:svg="http://www.w3.org/2000/svg"
   xmlns="http://www.w3.org/2000/svg"
   xmlns:xlink="http://www.w3.org/1999/xlink"
   xmlns:sodipodi="http://sodipodi.sourceforge.net/DTD/sodipodi-0.dtd"
   xmlns:inkscape="http://www.inkscape.org/namespaces/inkscape"
   width="24"
   height="24"
   viewBox="0 0 6.3499999 6.3499999"
   version="1.1"
   id="svg842"
   inkscape:version="1.0.1 (1.0.1+r74)"
   sodipodi:docname="copyright.svg">
  <defs
     id="defs836">
    <linearGradient
       inkscape:collect="always"
       id="linearGradient931">
      <stop
         style="stop-color:#892b6d;stop-opacity:1;"
         offset="0"
         id="stop927" />
      <stop
         style="stop-color:#28618c;stop-opacity:1"
         offset="1"
         id="stop929" />
    </linearGradient>
    <linearGradient
       inkscape:collect="always"
       xlink:href="#linearGradient931"
       id="linearGradient933"
       x1="2.1166666"
       y1="2.1166666"
       x2="14.816667"
       y2="14.816667"
       gradientUnits="userSpaceOnUse" />
  </defs>
  <sodipodi:namedview
     id="base"
     pagecolor="#ffffff"
     bordercolor="#666666"
     borderopacity="1.0"
     inkscape:pageopacity="0.0"
     inkscape:pageshadow="2"
     inkscape:zoom="1"
     inkscape:cx="11.952785"
     inkscape:cy="11.601465"
     inkscape:document-units="px"
     inkscape:current-layer="layer1"
     showgrid="true"
     units="px"
     showguides="true"
     inkscape:guide-bbox="true"
     inkscape:window-width="1920"
     inkscape:window-height="1017"
     inkscape:window-x="0"
     inkscape:window-y="0"
     inkscape:window-maximized="1"
     inkscape:snap-bbox="true"
     inkscape:bbox-nodes="true"
     inkscape:document-rotation="0">
    <inkscape:grid
       type="xygrid"
       id="grid1387"
       empspacing="4" />
    <sodipodi:guide
       position="0.52916666,2.9104166"
       orientation="1,0"
       id="guide1389"
       inkscape:locked="false" />
    <sodipodi:guide
       position="3.9687499,5.8208332"
       orientation="0,1"
       id="guide1391"
       inkscape:locked="false" />
    <sodipodi:guide
       position="5.8208332,2.6458333"
       orientation="1,0"
       id="guide1393"
       inkscape:locked="false" />
    <sodipodi:guide
       position="1.5875,0.52916666"
       orientation="0,1"
       id="guide1395"
       inkscape:locked="false" />
  </sodipodi:namedview>
  <metadata
     id="metadata839">
    <rdf:RDF>
      <cc:Work
         rdf:about="">
        <dc:format>image/svg+xml</dc:format>
        <dc:type
           rdf:resource="http://purl.org/dc/dcmitype/StillImage" />
        <dc:title />
      </cc:Work>
    </rdf:RDF>
  </metadata>
  <g
     inkscape:label="Guide"
     inkscape:groupmode="layer"
     id="layer1"
     transform="translate(0,-290.64998)">
    <path
       style="opacity:1;fill:#000000;fill-opacity:1;stroke:none;stroke-width:1.99999988;stroke-linecap:butt;stroke-linejoin:round;stroke-miterlimit:4;stroke-dasharray:none;stroke-opacity:1;paint-order:fill markers stroke"
       d="M 12 2 A 9.9999999 9.9999999 0 0 0 2 12 A 9.9999999 9.9999999 0 0 0 12 22 A 9.9999999 9.9999999 0 0 0 22 12 A 9.9999999 9.9999999 0 0 0 12 2 z M 12 4 A 7.9999997 7.9999997 0 0 1 20 12 A 7.9999997 7.9999997 0 0 1 12 20 A 7.9999997 7.9999997 0 0 1 4 12 A 7.9999997 7.9999997 0 0 1 12 4 z "
       transform="matrix(0.26458333,0,0,0.26458333,0,290.64998)"
       id="path824" />
    <path
       id="path843"
       style="fill:#000000;stroke-width:2;stroke-linecap:round;stroke-linejoin:round;paint-order:stroke fill markers"
       d="M 11.910156 6 A 6.0000001 6.0000001 0 0 0 9.703125 6.4570312 A 6.0000001 6.0000001 0 0 0 6 12 A 6.0000001 6.0000001 0 0 0 9.703125 17.542969 A 6.0000001 6.0000001 0 0 0 16.242188 16.242188 L 14.828125 14.828125 A 3.9999999 3.9999999 0 0 1 12 16 A 3.9999999 3.9999999 0 0 1 8 12 A 3.9999999 3.9999999 0 0 1 12 8 A 3.9999999 3.9999999 0 0 1 14.828125 9.171875 L 16.242188 7.7578125 A 6.0000001 6.0000001 0 0 0 11.910156 6 z "
       transform="matrix(0.26458333,0,0,0.26458333,0,290.64998)" />
  </g>
  <g
     inkscape:groupmode="layer"
     id="layer2"
     inkscape:label="Icon"
     style="display:none"
     transform="translate(0,-10.583333)">
    <circle
       style="opacity:1;fill:url(#linearGradient933);fill-opacity:1;stroke:none;stroke-width:0.52916664;stroke-linecap:round;stroke-linejoin:bevel;stroke-miterlimit:4;stroke-dasharray:none;stroke-opacity:1;paint-order:fill markers stroke"
       id="path925"
       cx="8.4666662"
       cy="8.4666662"
       r="7.4083333" />
  </g>
</svg>
