<?xml version="1.0" encoding="UTF-8" standalone="no"?>
<svg
   xmlns:dc="http://purl.org/dc/elements/1.1/"
   xmlns:cc="http://creativecommons.org/ns#"
   xmlns:rdf="http://www.w3.org/1999/02/22-rdf-syntax-ns#"
   xmlns:svg="http://www.w3.org/2000/svg"
   xmlns="http://www.w3.org/2000/svg"
   xmlns:sodipodi="http://sodipodi.sourceforge.net/DTD/sodipodi-0.dtd"
   xmlns:inkscape="http://www.inkscape.org/namespaces/inkscape"
   width="24"
   height="24"
   viewBox="0 0 6.3499999 6.3499999"
   version="1.1"
   id="svg842"
   inkscape:version="1.0.2 (1.0.2+r75+1)"
   sodipodi:docname="media__meta-hd.svg">
  <defs
     id="defs836" />
  <sodipodi:namedview
     id="base"
     pagecolor="#ffffff"
     bordercolor="#666666"
     borderopacity="1.0"
     inkscape:pageopacity="0.0"
     inkscape:pageshadow="2"
     inkscape:zoom="1.0824742"
     inkscape:cx="5.772776"
     inkscape:cy="8.7500044"
     inkscape:document-units="px"
     inkscape:current-layer="layer1"
     showgrid="true"
     units="px"
     showguides="true"
     inkscape:guide-bbox="true"
     inkscape:window-width="1920"
     inkscape:window-height="1017"
     inkscape:window-x="1920"
     inkscape:window-y="0"
     inkscape:window-maximized="1"
     inkscape:snap-bbox="true"
     inkscape:bbox-nodes="true"
     inkscape:document-rotation="0">
    <inkscape:grid
       type="xygrid"
       id="grid1387"
       empspacing="4" />
    <sodipodi:guide
       position="0.52916666,2.9104166"
       orientation="1,0"
       id="guide1389"
       inkscape:locked="false" />
    <sodipodi:guide
       position="3.9687499,5.8208332"
       orientation="0,1"
       id="guide1391"
       inkscape:locked="false" />
    <sodipodi:guide
       position="5.8208332,2.6458333"
       orientation="1,0"
       id="guide1393"
       inkscape:locked="false" />
    <sodipodi:guide
       position="1.5875,0.52916666"
       orientation="0,1"
       id="guide1395"
       inkscape:locked="false" />
  </sodipodi:namedview>
  <metadata
     id="metadata839">
    <rdf:RDF>
      <cc:Work
         rdf:about="">
        <dc:format>image/svg+xml</dc:format>
        <dc:type
           rdf:resource="http://purl.org/dc/dcmitype/StillImage" />
        <dc:title />
      </cc:Work>
    </rdf:RDF>
  </metadata>
  <g
     inkscape:label="Guide"
     inkscape:groupmode="layer"
     id="layer1"
     transform="translate(0,-290.64998)">
    <path
       style="opacity:1;vector-effect:none;fill:#000000;fill-opacity:1;stroke:none;stroke-width:1.99999988;stroke-linecap:round;stroke-linejoin:round;stroke-miterlimit:4;stroke-dasharray:none;stroke-dashoffset:0;stroke-opacity:1;paint-order:stroke markers fill"
       d="M 4,6 C 2.8920164,6 2,6.8920164 2,8 v 8 c 0,1.107984 0.8920164,2 2,2 h 16 c 1.107984,0 2,-0.892016 2,-2 V 8 C 22,6.8920164 21.107984,6 20,6 Z m 0,2 h 2 v 3 H 9 V 8 h 2 v 8 H 9 V 13 H 6 v 3 H 4 Z m 9,0 h 4 c 0,0 3,0 3,4 0,4 -3,4 -3,4 h -2 -2 v -6 z m 2,2 v 4 h 2 c 0,0 1,0 1,-2 0,-2 -1,-2 -1,-2 z"
       transform="matrix(0.26458333,0,0,0.26458333,0,290.64998)"
       id="rect852"
       inkscape:connector-curvature="0"
       sodipodi:nodetypes="ssssssssscccccccccccccccsccccccccscc" />
  </g>
</svg>
