<?xml version="1.0" encoding="UTF-8" standalone="no"?>
<svg
   xmlns:dc="http://purl.org/dc/elements/1.1/"
   xmlns:cc="http://creativecommons.org/ns#"
   xmlns:rdf="http://www.w3.org/1999/02/22-rdf-syntax-ns#"
   xmlns:svg="http://www.w3.org/2000/svg"
   xmlns="http://www.w3.org/2000/svg"
   xmlns:sodipodi="http://sodipodi.sourceforge.net/DTD/sodipodi-0.dtd"
   xmlns:inkscape="http://www.inkscape.org/namespaces/inkscape"
   width="24"
   height="24"
   viewBox="0 0 6.3499999 6.3499999"
   version="1.1"
   id="svg842"
   inkscape:version="1.0.2 (1.0.2+r75+1)"
   sodipodi:docname="media__meta-8kp.svg">
  <defs
     id="defs836" />
  <sodipodi:namedview
     id="base"
     pagecolor="#ffffff"
     bordercolor="#666666"
     borderopacity="1.0"
     inkscape:pageopacity="0.0"
     inkscape:pageshadow="2"
     inkscape:zoom="69.278351"
     inkscape:cx="6.5123225"
     inkscape:cy="10.325096"
     inkscape:document-units="px"
     inkscape:current-layer="layer1"
     showgrid="true"
     units="px"
     showguides="true"
     inkscape:guide-bbox="true"
     inkscape:window-width="1920"
     inkscape:window-height="1017"
     inkscape:window-x="1920"
     inkscape:window-y="0"
     inkscape:window-maximized="1"
     inkscape:snap-bbox="true"
     inkscape:bbox-nodes="true"
     inkscape:document-rotation="0">
    <inkscape:grid
       type="xygrid"
       id="grid1387"
       empspacing="4" />
    <sodipodi:guide
       position="0.52916666,2.9104166"
       orientation="1,0"
       id="guide1389"
       inkscape:locked="false" />
    <sodipodi:guide
       position="3.9687499,5.8208332"
       orientation="0,1"
       id="guide1391"
       inkscape:locked="false" />
    <sodipodi:guide
       position="5.8208332,2.6458333"
       orientation="1,0"
       id="guide1393"
       inkscape:locked="false" />
    <sodipodi:guide
       position="1.5875,0.52916666"
       orientation="0,1"
       id="guide1395"
       inkscape:locked="false" />
  </sodipodi:namedview>
  <metadata
     id="metadata839">
    <rdf:RDF>
      <cc:Work
         rdf:about="">
        <dc:format>image/svg+xml</dc:format>
        <dc:type
           rdf:resource="http://purl.org/dc/dcmitype/StillImage" />
        <dc:title />
      </cc:Work>
    </rdf:RDF>
  </metadata>
  <g
     inkscape:label="Guide"
     inkscape:groupmode="layer"
     id="layer1"
     transform="translate(0,-290.64998)">
    <path
       style="opacity:1;vector-effect:none;fill:#000000;fill-opacity:1;stroke:none;stroke-width:1.99999988;stroke-linecap:round;stroke-linejoin:round;stroke-miterlimit:4;stroke-dasharray:none;stroke-dashoffset:0;stroke-opacity:1;paint-order:stroke markers fill"
       d="M 2 6 C 0.89201639 6 0 6.8920164 0 8 L 0 16 C -2.9605947e-16 17.107984 0.89201639 18 2 18 L 22 18 C 23.107984 18 24 17.107984 24 16 L 24 13 L 22 13 L 22 15 L 20 15 L 20 13 L 18 13 L 18 11 L 20 11 L 20 9 L 22 9 L 22 11 L 24 11 L 24 8 C 24 6.8920164 23.107984 6 22 6 L 2 6 z M 4 8 L 6 8 C 7.1080305 8 8 8.8919937 8 10 L 8 11 C 8 11.366992 7.8957048 11.705197 7.7246094 12 C 7.8957048 12.295181 8 12.633008 8 13 L 8 14 C 8 15.108006 7.1080305 16 6 16 L 4 16 C 2.8919694 16 2 15.108006 2 14 L 2 13 C 2 12.633046 2.1042952 12.295181 2.2753906 12 C 2.1042952 11.705008 2 11.366992 2 11 L 2 10 C 2 8.8919937 2.8919694 8 4 8 z M 10 8 L 12 8 L 12 11 L 15 8 L 18 8 L 15.099609 10.900391 L 18.042969 16 L 15.732422 16 L 13.632812 12.367188 L 12 14 L 12 16 L 10 16 L 10 8 z M 4 10 L 4 11 L 6 11 L 6 10 L 4 10 z M 4 13 L 4 14 L 6 14 L 6 13 L 4 13 z "
       transform="matrix(0.26458333,0,0,0.26458333,0,290.64998)"
       id="rect875" />
  </g>
</svg>
