<?xml version="1.0" encoding="UTF-8" standalone="no"?>
<svg
   xmlns:dc="http://purl.org/dc/elements/1.1/"
   xmlns:cc="http://creativecommons.org/ns#"
   xmlns:rdf="http://www.w3.org/1999/02/22-rdf-syntax-ns#"
   xmlns:svg="http://www.w3.org/2000/svg"
   xmlns="http://www.w3.org/2000/svg"
   xmlns:sodipodi="http://sodipodi.sourceforge.net/DTD/sodipodi-0.dtd"
   xmlns:inkscape="http://www.inkscape.org/namespaces/inkscape"
   width="24"
   height="24"
   viewBox="0 0 6.3499999 6.3499999"
   version="1.1"
   id="svg842"
   inkscape:version="1.0.2 (1.0.2+r75+1)"
   sodipodi:docname="media__meta-xr-broken.svg">
  <defs
     id="defs836" />
  <sodipodi:namedview
     id="base"
     pagecolor="#ffffff"
     bordercolor="#666666"
     borderopacity="1.0"
     inkscape:pageopacity="0.0"
     inkscape:pageshadow="2"
     inkscape:zoom="17.319588"
     inkscape:cx="7.2245753"
     inkscape:cy="13.603681"
     inkscape:document-units="px"
     inkscape:current-layer="layer1"
     showgrid="true"
     units="px"
     showguides="false"
     inkscape:guide-bbox="true"
     inkscape:window-width="1920"
     inkscape:window-height="1017"
     inkscape:window-x="0"
     inkscape:window-y="0"
     inkscape:window-maximized="1"
     inkscape:snap-bbox="true"
     inkscape:bbox-nodes="true"
     inkscape:document-rotation="0">
    <inkscape:grid
       type="xygrid"
       id="grid1387"
       empspacing="4" />
    <sodipodi:guide
       position="0.52916666,2.9104166"
       orientation="1,0"
       id="guide1389"
       inkscape:locked="false" />
    <sodipodi:guide
       position="3.9687499,5.8208332"
       orientation="0,1"
       id="guide1391"
       inkscape:locked="false" />
    <sodipodi:guide
       position="5.8208332,2.6458333"
       orientation="1,0"
       id="guide1393"
       inkscape:locked="false" />
    <sodipodi:guide
       position="1.5875,0.52916666"
       orientation="0,1"
       id="guide1395"
       inkscape:locked="false" />
  </sodipodi:namedview>
  <metadata
     id="metadata839">
    <rdf:RDF>
      <cc:Work
         rdf:about="">
        <dc:format>image/svg+xml</dc:format>
        <dc:type
           rdf:resource="http://purl.org/dc/dcmitype/StillImage" />
        <dc:title />
      </cc:Work>
    </rdf:RDF>
  </metadata>
  <g
     inkscape:label="Guide"
     inkscape:groupmode="layer"
     id="layer1"
     transform="translate(0,-290.64998)">
    <path
       id="path832"
       style="opacity:1;vector-effect:none;fill:#000000;fill-opacity:1;stroke:none;stroke-width:2;stroke-linecap:round;stroke-linejoin:round;stroke-miterlimit:4;stroke-dasharray:none;stroke-dashoffset:0;stroke-opacity:0.240838;paint-order:stroke markers fill"
       d="M 17.599609 2.5605469 L 4.8144531 19.220703 L 6.4023438 20.439453 L 19.185547 3.7792969 L 17.599609 2.5605469 z M 6 6 C 3.7840163 6 2 7.7840163 2 10 L 2 14 C 2 15.749823 3.1186654 17.216277 4.6777344 17.761719 L 6 16.039062 L 6 16 C 4.8919696 16 4 15.10803 4 14 L 4 10 C 4 8.8919696 4.8919696 8 6 8 L 12.167969 8 L 13.703125 6 L 6 6 z M 18.685547 6.0683594 L 17.203125 8 L 18 8 C 19.10803 8 20 8.8919696 20 10 L 20 14 C 20 15.10803 19.10803 16 18 16 L 18 18 C 20.215984 18 22 16.215984 22 14 L 22 10 C 22 8.0188781 20.571231 6.3928614 18.685547 6.0683594 z M 7.9511719 10 C 6.8657169 10.026508 5.9996763 10.914221 6 12 C 5.9998699 12.948839 6.6664527 13.767178 7.5957031 13.958984 L 9.7871094 11.103516 C 9.4480332 10.427309 8.756458 10.00027 8 10 C 7.9837246 9.9998013 7.9674473 9.9998013 7.9511719 10 z M 16 10 C 15.98372 9.9998013 15.744427 10.014163 15.642578 10.033203 L 14.007812 12.164062 C 14.09317 13.201107 14.959452 13.999443 16 14 C 17.10457 14 18 13.10457 18 12 C 18 10.89543 17.10457 9.9999999 16 10 z M 12.5625 14.046875 L 10.558594 16.658203 C 11.143283 16.245778 11.430006 15.998047 12.003906 15.998047 C 12.670571 15.998047 12.858021 16.275269 13.693359 16.832031 C 14.528698 17.388907 15.829426 17.998047 17.996094 17.998047 L 17.996094 15.998047 C 16.162761 15.998047 15.473255 15.614987 14.808594 15.171875 C 14.242763 14.794651 13.571485 14.212702 12.5625 14.046875 z M 6.0332031 15.996094 C 6.0211571 15.996127 6.0140981 15.998047 6.0019531 15.998047 L 6.0019531 16.037109 L 6.0332031 15.996094 z "
       transform="matrix(0.26458333,0,0,0.26458333,0,290.64998)" />
  </g>
</svg>
