<?xml version="1.0" encoding="UTF-8" standalone="no"?>
<svg
   xmlns:dc="http://purl.org/dc/elements/1.1/"
   xmlns:cc="http://creativecommons.org/ns#"
   xmlns:rdf="http://www.w3.org/1999/02/22-rdf-syntax-ns#"
   xmlns:svg="http://www.w3.org/2000/svg"
   xmlns="http://www.w3.org/2000/svg"
   xmlns:xlink="http://www.w3.org/1999/xlink"
   xmlns:sodipodi="http://sodipodi.sourceforge.net/DTD/sodipodi-0.dtd"
   xmlns:inkscape="http://www.inkscape.org/namespaces/inkscape"
   width="24"
   height="24"
   viewBox="0 0 6.3499999 6.3499999"
   version="1.1"
   id="svg842"
   inkscape:version="1.0.1 (1.0.1+r74)"
   sodipodi:docname="media-cc.svg">
  <defs
     id="defs836">
    <linearGradient
       inkscape:collect="always"
       id="linearGradient931">
      <stop
         style="stop-color:#892b6d;stop-opacity:1;"
         offset="0"
         id="stop927" />
      <stop
         style="stop-color:#28618c;stop-opacity:1"
         offset="1"
         id="stop929" />
    </linearGradient>
    <linearGradient
       inkscape:collect="always"
       xlink:href="#linearGradient931"
       id="linearGradient933"
       x1="2.1166666"
       y1="2.1166666"
       x2="14.816667"
       y2="14.816667"
       gradientUnits="userSpaceOnUse" />
  </defs>
  <sodipodi:namedview
     id="base"
     pagecolor="#ffffff"
     bordercolor="#666666"
     borderopacity="1.0"
     inkscape:pageopacity="0.0"
     inkscape:pageshadow="2"
     inkscape:zoom="32"
     inkscape:cx="7.3764498"
     inkscape:cy="13.372376"
     inkscape:document-units="px"
     inkscape:current-layer="layer1"
     showgrid="true"
     units="px"
     showguides="true"
     inkscape:guide-bbox="true"
     inkscape:window-width="1920"
     inkscape:window-height="1017"
     inkscape:window-x="0"
     inkscape:window-y="0"
     inkscape:window-maximized="1"
     inkscape:snap-bbox="true"
     inkscape:bbox-nodes="true"
     inkscape:document-rotation="0">
    <inkscape:grid
       type="xygrid"
       id="grid1387"
       empspacing="4" />
    <sodipodi:guide
       position="0.52916666,2.9104166"
       orientation="1,0"
       id="guide1389"
       inkscape:locked="false" />
    <sodipodi:guide
       position="3.9687499,5.8208332"
       orientation="0,1"
       id="guide1391"
       inkscape:locked="false" />
    <sodipodi:guide
       position="5.8208332,2.6458333"
       orientation="1,0"
       id="guide1393"
       inkscape:locked="false" />
    <sodipodi:guide
       position="1.5875,0.52916666"
       orientation="0,1"
       id="guide1395"
       inkscape:locked="false" />
  </sodipodi:namedview>
  <metadata
     id="metadata839">
    <rdf:RDF>
      <cc:Work
         rdf:about="">
        <dc:format>image/svg+xml</dc:format>
        <dc:type
           rdf:resource="http://purl.org/dc/dcmitype/StillImage" />
        <dc:title />
      </cc:Work>
    </rdf:RDF>
  </metadata>
  <g
     inkscape:label="Guide"
     inkscape:groupmode="layer"
     id="layer1"
     transform="translate(0,-290.64998)">
    <path
       id="rect875"
       style="opacity:1;vector-effect:none;fill:#000000;fill-opacity:1;stroke:none;stroke-width:2;stroke-linecap:round;stroke-linejoin:round;stroke-miterlimit:4;stroke-dasharray:none;stroke-dashoffset:0;stroke-opacity:1;paint-order:stroke markers fill"
       d="M 4 6 C 2.8920165 6 2 6.8920315 2 8 L 2 16 C 2 17.107969 2.8920165 18 4 18 L 20 18 C 21.107984 18 22 17.107969 22 16 L 22 8 C 22 6.8920315 21.107984 6 20 6 L 4 6 z M 7.9394531 8 A 3.9999999 3.9999999 0 0 1 8 8 A 3.9999999 3.9999999 0 0 1 11.173828 9.5664062 L 9.5859375 10.783203 A 2.0000004 2.0000004 0 0 0 8 10 A 2.0000004 2.0000004 0 0 0 7.9511719 10 A 2.0000004 2.0000004 0 0 0 6 12 A 2.0000004 2.0000004 0 0 0 8 14 A 2.0000004 2.0000004 0 0 0 9.5996094 13.199219 L 11.201172 14.400391 A 3.9999999 3.9999999 0 0 1 8 16 A 3.9999999 3.9999999 0 0 1 4 12 A 3.9999999 3.9999999 0 0 1 7.9394531 8 z M 16.939453 8 A 3.9999999 3.9999999 0 0 1 17 8 A 3.9999999 3.9999999 0 0 1 20.173828 9.5664062 L 18.585938 10.783203 A 2.0000004 2.0000004 0 0 0 17 10 A 2.0000004 2.0000004 0 0 0 16.951172 10 A 2.0000004 2.0000004 0 0 0 15 12 A 2.0000004 2.0000004 0 0 0 17 14 A 2.0000004 2.0000004 0 0 0 18.599609 13.199219 L 20.201172 14.400391 A 3.9999999 3.9999999 0 0 1 17 16 A 3.9999999 3.9999999 0 0 1 13 12 A 3.9999999 3.9999999 0 0 1 16.939453 8 z "
       transform="matrix(0.26458333,0,0,0.26458333,0,290.64998)" />
  </g>
  <g
     inkscape:groupmode="layer"
     id="layer2"
     inkscape:label="Icon"
     style="display:none"
     transform="translate(0,-10.583333)">
    <circle
       style="opacity:1;fill:url(#linearGradient933);fill-opacity:1;stroke:none;stroke-width:0.52916664;stroke-linecap:round;stroke-linejoin:bevel;stroke-miterlimit:4;stroke-dasharray:none;stroke-opacity:1;paint-order:fill markers stroke"
       id="path925"
       cx="8.4666662"
       cy="8.4666662"
       r="7.4083333" />
  </g>
</svg>
