<?xml version="1.0" encoding="UTF-8" standalone="no"?>
<svg
   xmlns:dc="http://purl.org/dc/elements/1.1/"
   xmlns:cc="http://creativecommons.org/ns#"
   xmlns:rdf="http://www.w3.org/1999/02/22-rdf-syntax-ns#"
   xmlns:svg="http://www.w3.org/2000/svg"
   xmlns="http://www.w3.org/2000/svg"
   xmlns:sodipodi="http://sodipodi.sourceforge.net/DTD/sodipodi-0.dtd"
   xmlns:inkscape="http://www.inkscape.org/namespaces/inkscape"
   width="24"
   height="24"
   version="1.1"
   viewBox="0 0 6.35 6.35"
   id="svg8"
   sodipodi:docname="symbol__undo.svg"
   inkscape:version="1.0.2 (1.0.2+r75+1)">
  <defs
     id="defs12" />
  <sodipodi:namedview
     pagecolor="#ffffff"
     bordercolor="#666666"
     borderopacity="1"
     objecttolerance="10"
     gridtolerance="10"
     guidetolerance="10"
     inkscape:pageopacity="0"
     inkscape:pageshadow="2"
     inkscape:window-width="1585"
     inkscape:window-height="819"
     id="namedview10"
     showgrid="true"
     inkscape:zoom="26.135763"
     inkscape:cx="12"
     inkscape:cy="12"
     inkscape:window-x="0"
     inkscape:window-y="0"
     inkscape:window-maximized="0"
     inkscape:current-layer="svg8">
    <inkscape:grid
       type="xygrid"
       id="grid837" />
  </sodipodi:namedview>
  <metadata
     id="metadata2">
    <rdf:RDF>
      <cc:Work
         rdf:about="">
        <dc:format>image/svg+xml</dc:format>
        <dc:type
           rdf:resource="http://purl.org/dc/dcmitype/StillImage" />
        <dc:title></dc:title>
      </cc:Work>
    </rdf:RDF>
  </metadata>
  <g
     transform="matrix(-1,0,0,1,6.35003,-290.65)"
     id="g6">
    <path
       d="m 5.2917,291.71 v 1.5875 H 3.7042 v -0.52916 h 0.65009 c -0.30023,-0.33568 -0.72891,-0.52817 -1.1793,-0.52917 -0.87675,0 -1.5875,0.71075 -1.5875,1.5875 a 1.5875,1.5875 0 0 0 1.5875,1.5875 1.5875,1.5875 0 0 0 1.1219,-0.4656 l 0.37414,0.37413 a 2.1167,2.1167 0 0 1 -1.496,0.62064 2.1167,2.1167 0 0 1 -2.1167,-2.1167 c 0,-1.169 0.94766,-2.1167 2.1167,-2.1167 0.60856,0.002 1.1869,0.26532 1.5875,0.72347 v -0.72347 z"
       style="paint-order:fill markers stroke"
       id="path4" />
  </g>
</svg>
