<?xml version="1.0" encoding="UTF-8" standalone="no"?>
<svg
   xmlns:dc="http://purl.org/dc/elements/1.1/"
   xmlns:cc="http://creativecommons.org/ns#"
   xmlns:rdf="http://www.w3.org/1999/02/22-rdf-syntax-ns#"
   xmlns:svg="http://www.w3.org/2000/svg"
   xmlns="http://www.w3.org/2000/svg"
   xmlns:sodipodi="http://sodipodi.sourceforge.net/DTD/sodipodi-0.dtd"
   xmlns:inkscape="http://www.inkscape.org/namespaces/inkscape"
   width="24"
   height="24"
   viewBox="0 0 6.3499999 6.3499999"
   version="1.1"
   id="svg842"
   inkscape:version="1.0.2 (1.0.2+r75+1)"
   sodipodi:docname="symbol__skull-alt.svg">
  <defs
     id="defs836" />
  <sodipodi:namedview
     id="base"
     pagecolor="#ffffff"
     bordercolor="#666666"
     borderopacity="1.0"
     inkscape:pageopacity="0.0"
     inkscape:pageshadow="2"
     inkscape:zoom="34.639175"
     inkscape:cx="8.371275"
     inkscape:cy="12.406767"
     inkscape:document-units="mm"
     inkscape:current-layer="layer1"
     showgrid="false"
     units="px"
     showguides="true"
     inkscape:guide-bbox="true"
     inkscape:window-width="1920"
     inkscape:window-height="1017"
     inkscape:window-x="0"
     inkscape:window-y="0"
     inkscape:window-maximized="1"
     inkscape:snap-bbox="true"
     inkscape:bbox-nodes="true"
     inkscape:snap-smooth-nodes="true"
     inkscape:document-rotation="0">
    <inkscape:grid
       type="xygrid"
       id="grid1387"
       empspacing="4" />
    <sodipodi:guide
       position="0.52916666,2.9104166"
       orientation="1,0"
       id="guide1389"
       inkscape:locked="false" />
    <sodipodi:guide
       position="3.9687499,5.8208332"
       orientation="0,1"
       id="guide1391"
       inkscape:locked="false" />
    <sodipodi:guide
       position="5.8208332,2.6458333"
       orientation="1,0"
       id="guide1393"
       inkscape:locked="false" />
    <sodipodi:guide
       position="1.5875,0.52916666"
       orientation="0,1"
       id="guide1395"
       inkscape:locked="false" />
  </sodipodi:namedview>
  <metadata
     id="metadata839">
    <rdf:RDF>
      <cc:Work
         rdf:about="">
        <dc:format>image/svg+xml</dc:format>
        <dc:type
           rdf:resource="http://purl.org/dc/dcmitype/StillImage" />
        <dc:title />
      </cc:Work>
    </rdf:RDF>
  </metadata>
  <g
     inkscape:label="Guide"
     inkscape:groupmode="layer"
     id="layer1"
     transform="translate(0,-290.64998)">
    <path
       style="fill:#000000;stroke:none;stroke-width:0.882354px;stroke-linecap:butt;stroke-linejoin:miter;stroke-opacity:1"
       d="M 12.058594,5 C 6.764471,5.0000378 5,8.5291195 5,12.058594 c 0,1.746406 1.3242209,1.65999 1.3242188,2.646484 0,0 -0.4414063,0.883294 -0.4414063,1.765625 0,0.882331 2.6464844,0.881303 2.6464844,1.763672 v 0.882813 c 0,0 -1.184e-4,0.882812 3.5292971,0.882812 3.529415,0 3.529297,-0.882813 3.529297,-0.882812 v -0.882813 c 0,-0.882369 2.646484,-0.881341 2.646484,-1.763672 0,-0.882331 -0.439453,-1.765625 -0.439453,-1.765625 -3e-6,-0.986494 1.322265,-0.900078 1.322266,-2.646484 C 19.117188,8.5291195 17.352716,5.0000378 12.058594,5 Z M 9,10.5 c 0.8284272,0 1.5,0.671573 1.5,1.5 0,0.828427 -0.6715728,1.5 -1.5,1.5 -0.8284272,0 -1.5000001,-0.671573 -1.5,-1.5 -1e-7,-0.828427 0.6715728,-1.5 1.5,-1.5 z m 6,0 c 0.828427,0 1.5,0.671573 1.5,1.5 0,0.828427 -0.671573,1.5 -1.5,1.5 -0.828427,0 -1.5,-0.671573 -1.5,-1.5 0,-0.828427 0.671573,-1.5 1.5,-1.5 z"
       transform="matrix(0.26458333,0,0,0.26458333,0,290.64998)"
       id="path834"
       sodipodi:nodetypes="cscsscscsscscssssssssss" />
  </g>
</svg>
