<?xml version="1.0" encoding="UTF-8" standalone="no"?>
<svg
   xmlns:dc="http://purl.org/dc/elements/1.1/"
   xmlns:cc="http://creativecommons.org/ns#"
   xmlns:rdf="http://www.w3.org/1999/02/22-rdf-syntax-ns#"
   xmlns:svg="http://www.w3.org/2000/svg"
   xmlns="http://www.w3.org/2000/svg"
   xmlns:sodipodi="http://sodipodi.sourceforge.net/DTD/sodipodi-0.dtd"
   xmlns:inkscape="http://www.inkscape.org/namespaces/inkscape"
   width="24"
   height="24"
   viewBox="0 0 6.3499999 6.3499999"
   version="1.1"
   id="svg842"
   inkscape:version="1.0.2 (1.0.2+r75+1)"
   sodipodi:docname="symbol__download-alt.svg">
  <defs
     id="defs836" />
  <sodipodi:namedview
     id="base"
     pagecolor="#ffffff"
     bordercolor="#666666"
     borderopacity="1.0"
     inkscape:pageopacity="0.0"
     inkscape:pageshadow="2"
     inkscape:zoom="1.0824742"
     inkscape:cx="11.986063"
     inkscape:cy="15.279123"
     inkscape:document-units="px"
     inkscape:current-layer="layer1"
     showgrid="true"
     units="px"
     showguides="true"
     inkscape:guide-bbox="true"
     inkscape:window-width="1920"
     inkscape:window-height="1017"
     inkscape:window-x="0"
     inkscape:window-y="0"
     inkscape:window-maximized="1"
     inkscape:snap-bbox="true"
     inkscape:bbox-nodes="true"
     inkscape:document-rotation="0">
    <inkscape:grid
       type="xygrid"
       id="grid1387"
       empspacing="4" />
    <sodipodi:guide
       position="0.52916666,2.9104166"
       orientation="1,0"
       id="guide1389"
       inkscape:locked="false" />
    <sodipodi:guide
       position="1.3229166,5.8208332"
       orientation="0,1"
       id="guide1391"
       inkscape:locked="false" />
    <sodipodi:guide
       position="5.8208332,0.79374999"
       orientation="1,0"
       id="guide1393"
       inkscape:locked="false" />
    <sodipodi:guide
       position="1.5875,0.52916666"
       orientation="0,1"
       id="guide1395"
       inkscape:locked="false" />
  </sodipodi:namedview>
  <metadata
     id="metadata839">
    <rdf:RDF>
      <cc:Work
         rdf:about="">
        <dc:format>image/svg+xml</dc:format>
        <dc:type
           rdf:resource="http://purl.org/dc/dcmitype/StillImage" />
        <dc:title />
      </cc:Work>
    </rdf:RDF>
  </metadata>
  <g
     inkscape:label="Guide"
     inkscape:groupmode="layer"
     id="layer1"
     transform="translate(0,-290.64998)">
    <path
       style="opacity:1;fill:#000000;fill-opacity:1;stroke:none;stroke-width:0.529167;stroke-linecap:round;stroke-linejoin:round;stroke-miterlimit:4;stroke-dasharray:none;stroke-opacity:1"
       d="m 2.9104166,293.82497 v 1.7818 l -0.6077148,-0.60771 -0.3731038,0.37517 1.245402,1.2454 1.2454019,-1.2454 -0.375171,-0.37517 -0.6056476,0.60719 v -1.78128 z"
       id="rect824"
       sodipodi:nodetypes="cccccccccc" />
    <path
       id="path845"
       style="fill:#000000;stroke-width:2.33333;stroke-linecap:round;stroke-linejoin:round;paint-order:stroke fill markers"
       d="M 10,2 C 7.2385762,2 5,4.2385637 5,7 4.9999546,7.011339 4.9999546,7.025771 5,7.037109 3.2784517,7.2846684 2.0006017,8.7605858 2,10.5 1.9996309,12.240132 3,14 5.5,14 H 10 v -3.003906 h 4 V 14 h 5.5 C 20.880712,14 22,12.880699 22,11.5 22,10.119301 20.880712,9 19.5,9 19.315495,9.000378 19.132921,9.0302495 18.953125,9.0703125 18.98429,8.8818065 18.999968,8.6910649 19,8.5 18.999998,6.5670044 17.432996,5.0000024 15.5,5 15.136018,4.999894 14.774248,5.0565649 14.427734,5.1679688 13.910669,3.2380286 11.710216,2.0004157 10,2 Z"
       transform="matrix(0.26458333,0,0,0.26458333,0,290.64998)"
       sodipodi:nodetypes="ccccsccccsscccccc" />
  </g>
</svg>
