<?xml version="1.0" encoding="UTF-8" standalone="no"?>
<svg
   xmlns:dc="http://purl.org/dc/elements/1.1/"
   xmlns:cc="http://creativecommons.org/ns#"
   xmlns:rdf="http://www.w3.org/1999/02/22-rdf-syntax-ns#"
   xmlns:svg="http://www.w3.org/2000/svg"
   xmlns="http://www.w3.org/2000/svg"
   xmlns:sodipodi="http://sodipodi.sourceforge.net/DTD/sodipodi-0.dtd"
   xmlns:inkscape="http://www.inkscape.org/namespaces/inkscape"
   width="24"
   height="24"
   viewBox="0 0 6.3499999 6.3499999"
   version="1.1"
   id="svg842"
   inkscape:version="1.0.2 (1.0.2+r75+1)"
   sodipodi:docname="symbol__page-end-alt.svg">
  <defs
     id="defs836" />
  <sodipodi:namedview
     id="base"
     pagecolor="#ffffff"
     bordercolor="#666666"
     borderopacity="1.0"
     inkscape:pageopacity="0.0"
     inkscape:pageshadow="2"
     inkscape:zoom="28.700382"
     inkscape:cx="10.723035"
     inkscape:cy="12.055671"
     inkscape:document-units="px"
     inkscape:current-layer="layer1"
     showgrid="true"
     units="px"
     showguides="true"
     inkscape:guide-bbox="true"
     inkscape:window-width="1920"
     inkscape:window-height="1017"
     inkscape:window-x="0"
     inkscape:window-y="0"
     inkscape:window-maximized="1"
     inkscape:snap-bbox="true"
     inkscape:bbox-nodes="true"
     inkscape:document-rotation="0">
    <inkscape:grid
       type="xygrid"
       id="grid1387"
       empspacing="4" />
    <sodipodi:guide
       position="0.52916666,2.9104166"
       orientation="1,0"
       id="guide1389"
       inkscape:locked="false" />
    <sodipodi:guide
       position="3.9687499,5.8208332"
       orientation="0,1"
       id="guide1391"
       inkscape:locked="false" />
    <sodipodi:guide
       position="5.8208332,2.6458333"
       orientation="1,0"
       id="guide1393"
       inkscape:locked="false" />
    <sodipodi:guide
       position="1.5875,0.52916666"
       orientation="0,1"
       id="guide1395"
       inkscape:locked="false" />
  </sodipodi:namedview>
  <metadata
     id="metadata839">
    <rdf:RDF>
      <cc:Work
         rdf:about="">
        <dc:format>image/svg+xml</dc:format>
        <dc:type
           rdf:resource="http://purl.org/dc/dcmitype/StillImage" />
        <dc:title />
      </cc:Work>
    </rdf:RDF>
  </metadata>
  <g
     inkscape:label="Guide"
     inkscape:groupmode="layer"
     id="layer1"
     transform="translate(0,-290.64998)">
    <path
       id="rect842-3-6"
       style="fill:#000000;fill-opacity:0.947002;stroke:none;stroke-width:3.99999;stroke-linecap:square;paint-order:stroke fill markers"
       d="M 21.998047 1.7929688 C 20.01537 3.5914192 17.912761 4 15.996094 4 C 14.079426 4 13.224609 3.5546812 12.224609 3.0546875 C 11.224609 2.5546938 10.085285 1.9999622 8.0019531 2 C 5.9186208 2 3.1071307 2.8796447 2 3.8535156 L 2 16 L 22 16 L 21.998047 1.7929688 z M 8.0019531 2.9960938 C 9.9186211 2.9960938 10.773436 3.449225 11.773438 3.9492188 C 12.773437 4.4492125 13.912761 4.9960938 15.996094 4.9960938 C 17.658832 4.9960938 18.986733 4.6638605 20 4.2617188 L 20 14 L 4 14 L 4 3.828125 C 4.9354078 3.4005092 6.2530621 2.9960938 8.0019531 2.9960938 z M 10.5 12 C 10.223 12 10 12.223 10 12.5 C 10 12.777 10.223 13 10.5 13 L 13.5 13 C 13.777 13 14 12.777 14 12.5 C 14 12.223 13.777 12 13.5 12 L 10.5 12 z "
       transform="matrix(0.26458333,0,0,0.26458333,0,290.64998)" />
  </g>
</svg>
