<?xml version="1.0" encoding="UTF-8" standalone="no"?>
<svg
   xmlns:dc="http://purl.org/dc/elements/1.1/"
   xmlns:cc="http://creativecommons.org/ns#"
   xmlns:rdf="http://www.w3.org/1999/02/22-rdf-syntax-ns#"
   xmlns:svg="http://www.w3.org/2000/svg"
   xmlns="http://www.w3.org/2000/svg"
   xmlns:xlink="http://www.w3.org/1999/xlink"
   xmlns:sodipodi="http://sodipodi.sourceforge.net/DTD/sodipodi-0.dtd"
   xmlns:inkscape="http://www.inkscape.org/namespaces/inkscape"
   width="24"
   height="24"
   viewBox="0 0 6.3499999 6.3499999"
   version="1.1"
   id="svg842"
   inkscape:version="1.0.2 (1.0.2+r75+1)"
   sodipodi:docname="symbol__broom.svg">
  <defs
     id="defs836">
    <linearGradient
       inkscape:collect="always"
       id="linearGradient931">
      <stop
         style="stop-color:#892b6d;stop-opacity:1;"
         offset="0"
         id="stop927" />
      <stop
         style="stop-color:#28618c;stop-opacity:1"
         offset="1"
         id="stop929" />
    </linearGradient>
    <linearGradient
       inkscape:collect="always"
       xlink:href="#linearGradient931"
       id="linearGradient933"
       x1="2.1166666"
       y1="2.1166666"
       x2="14.816667"
       y2="14.816667"
       gradientUnits="userSpaceOnUse" />
  </defs>
  <sodipodi:namedview
     id="base"
     pagecolor="#ffffff"
     bordercolor="#666666"
     borderopacity="1.0"
     inkscape:pageopacity="0.0"
     inkscape:pageshadow="2"
     inkscape:zoom="22.627417"
     inkscape:cx="13.210411"
     inkscape:cy="11.536428"
     inkscape:document-units="px"
     inkscape:current-layer="layer1"
     showgrid="false"
     units="px"
     showguides="true"
     inkscape:guide-bbox="true"
     inkscape:window-width="1920"
     inkscape:window-height="1017"
     inkscape:window-x="0"
     inkscape:window-y="0"
     inkscape:window-maximized="1"
     inkscape:snap-bbox="true"
     inkscape:bbox-nodes="true"
     inkscape:document-rotation="0">
    <inkscape:grid
       type="xygrid"
       id="grid1387"
       empspacing="4" />
    <sodipodi:guide
       position="0.52916666,2.9104166"
       orientation="1,0"
       id="guide1389"
       inkscape:locked="false" />
    <sodipodi:guide
       position="3.9687499,5.8208332"
       orientation="0,1"
       id="guide1391"
       inkscape:locked="false" />
    <sodipodi:guide
       position="5.8208332,2.6458333"
       orientation="1,0"
       id="guide1393"
       inkscape:locked="false" />
    <sodipodi:guide
       position="1.5875,0.52916666"
       orientation="0,1"
       id="guide1395"
       inkscape:locked="false" />
  </sodipodi:namedview>
  <metadata
     id="metadata839">
    <rdf:RDF>
      <cc:Work
         rdf:about="">
        <dc:format>image/svg+xml</dc:format>
        <dc:type
           rdf:resource="http://purl.org/dc/dcmitype/StillImage" />
        <dc:title />
      </cc:Work>
    </rdf:RDF>
  </metadata>
  <g
     inkscape:label="Guide"
     inkscape:groupmode="layer"
     id="layer1"
     transform="translate(0,-290.64998)">
    <path
       id="rect847"
       style="fill:#000000;stroke-width:2;stroke-linecap:round;stroke-linejoin:bevel;stroke-miterlimit:4;stroke-dasharray:none;paint-order:stroke fill markers"
       d="M 19.960938 2.1230469 L 15.960938 9.0527344 L 14.230469 8.0527344 L 13.230469 9.7832031 L 18.425781 12.783203 L 19.425781 11.052734 L 17.693359 10.052734 L 21.693359 3.1230469 L 19.960938 2.1230469 z M 8.5 6 A 1.5 1.5 0 0 0 7 7.5 A 1.5 1.5 0 0 0 8.5 9 A 1.5 1.5 0 0 0 10 7.5 A 1.5 1.5 0 0 0 8.5 6 z M 5 8 A 0.99999996 0.99999996 0 0 0 4 9 A 0.99999996 0.99999996 0 0 0 5 10 A 0.99999996 0.99999996 0 0 0 6 9 A 0.99999996 0.99999996 0 0 0 5 8 z M 7.4882812 10 A 0.49999998 0.49999998 0 0 0 7 10.5 A 0.49999998 0.49999998 0 0 0 7.5 11 A 0.49999998 0.49999998 0 0 0 8 10.5 A 0.49999998 0.49999998 0 0 0 7.5 10 A 0.49999998 0.49999998 0 0 0 7.4882812 10 z M 12.105469 10.291016 C 10.545441 11.799577 9.053713 12.523442 3.7421875 12.248047 C 7.0252184 17.751003 10.656193 21.374771 16.757812 21.673828 C 18.290679 18.625555 18.59689 16.294771 18.285156 13.857422 L 12.105469 10.291016 z M 12.216797 12.662109 L 16.484375 15.126953 C 16.411415 17.054853 16.089847 18.254 15.523438 19.482422 C 13.572028 19.330052 11.029031 18.144897 9.6074219 16.695312 C 9.6074219 16.695312 11.569852 15.628818 11.722656 14.765625 C 10.757163 15.475643 8.8125 15.875 8.8125 15.875 C 8.2608955 15.258746 7.7880292 14.626336 7.3457031 14.019531 C 9.3482597 14.192126 11.15553 13.336376 12.216797 12.662109 z "
       transform="matrix(0.26458333,0,0,0.26458333,0,290.64998)" />
  </g>
  <g
     inkscape:groupmode="layer"
     id="layer2"
     inkscape:label="Icon"
     style="display:none"
     transform="translate(0,-10.583333)">
    <circle
       style="opacity:1;fill:url(#linearGradient933);fill-opacity:1;stroke:none;stroke-width:0.52916664;stroke-linecap:round;stroke-linejoin:bevel;stroke-miterlimit:4;stroke-dasharray:none;stroke-opacity:1;paint-order:fill markers stroke"
       id="path925"
       cx="8.4666662"
       cy="8.4666662"
       r="7.4083333" />
  </g>
</svg>
