<?xml version="1.0" encoding="UTF-8" standalone="no"?>
<svg
   xmlns:dc="http://purl.org/dc/elements/1.1/"
   xmlns:cc="http://creativecommons.org/ns#"
   xmlns:rdf="http://www.w3.org/1999/02/22-rdf-syntax-ns#"
   xmlns:svg="http://www.w3.org/2000/svg"
   xmlns="http://www.w3.org/2000/svg"
   xmlns:sodipodi="http://sodipodi.sourceforge.net/DTD/sodipodi-0.dtd"
   xmlns:inkscape="http://www.inkscape.org/namespaces/inkscape"
   width="24"
   height="24"
   viewBox="0 0 24 24"
   version="1.1"
   id="svg842"
   inkscape:version="1.0.2 (1.0.2+r75+1)"
   sodipodi:docname="symbol__cookie.svg">
  <defs
     id="defs836" />
  <sodipodi:namedview
     id="base"
     pagecolor="#ffffff"
     bordercolor="#666666"
     borderopacity="1.0"
     inkscape:pageopacity="0.0"
     inkscape:pageshadow="2"
     inkscape:zoom="13.256842"
     inkscape:cx="0.78422137"
     inkscape:cy="11.922372"
     inkscape:document-units="px"
     inkscape:current-layer="layer1"
     showgrid="false"
     units="px"
     showguides="true"
     inkscape:guide-bbox="true"
     inkscape:window-width="1920"
     inkscape:window-height="1017"
     inkscape:window-x="0"
     inkscape:window-y="0"
     inkscape:window-maximized="1"
     inkscape:snap-bbox="true"
     inkscape:bbox-nodes="true"
     inkscape:document-rotation="0"
     inkscape:object-paths="true"
     inkscape:snap-smooth-nodes="true"
     inkscape:snap-global="true">
    <inkscape:grid
       type="xygrid"
       id="grid1387"
       empspacing="4" />
    <sodipodi:guide
       position="0.52916666,2.9104166"
       orientation="1,0"
       id="guide1389"
       inkscape:locked="false" />
    <sodipodi:guide
       position="3.9687499,5.8208332"
       orientation="0,1"
       id="guide1391"
       inkscape:locked="false" />
    <sodipodi:guide
       position="5.8208332,2.6458333"
       orientation="1,0"
       id="guide1393"
       inkscape:locked="false" />
    <sodipodi:guide
       position="1.5875,0.52916666"
       orientation="0,1"
       id="guide1395"
       inkscape:locked="false" />
  </sodipodi:namedview>
  <metadata
     id="metadata839">
    <rdf:RDF>
      <cc:Work
         rdf:about="">
        <dc:format>image/svg+xml</dc:format>
        <dc:type
           rdf:resource="http://purl.org/dc/dcmitype/StillImage" />
        <dc:title></dc:title>
      </cc:Work>
    </rdf:RDF>
  </metadata>
  <g
     inkscape:label="Guide"
     inkscape:groupmode="layer"
     id="layer1"
     transform="translate(0,-290.64998)">
    <path
       id="path831"
       style="fill:#000000;fill-opacity:1;stroke:none;stroke-width:2;stroke-linecap:butt;stroke-linejoin:round;stroke-miterlimit:4;stroke-dasharray:none;stroke-opacity:1;paint-order:fill markers stroke"
       d="m 13,292.64998 c -1.782467,0.0578 -6.3449515,-0.2126 -9.2714844,4.07422 -1.9380359,2.83876 -2.0545808,7.63164 -0.4316406,10.48828 1.6229404,2.85664 5.007005,5.47333 8.908203,5.4375 3.901198,-0.034 7.994618,-1.85196 9.316406,-6.10352 C 22.843272,302.29487 21.210383,296.04526 18,293.9449 c -1.605193,-1.05014 -3.217533,-1.35267 -5,-1.29492 z m 0,2 c 1.512929,-0.0302 2.927465,0.41762 4.173828,1.29492 1.723703,1.21331 3.409474,6.3445 2.345703,9.76758 -1.06377,3.42308 -4.390045,4.9375 -7.519531,4.9375 -3.1294863,0 -5.4375343,-2.00995 -6.703125,-4.27344 C 4.0312847,304.11302 3.9252421,299.9862 5.5214844,297.65975 7.7560953,294.40289 11.487069,294.67954 13,294.64998 Z m 0,1.5 a 1.5,1.5 0 0 0 -1.5,1.5 1.5,1.5 0 0 0 1.5,1.5 1.5,1.5 0 0 0 1.5,-1.5 1.5,1.5 0 0 0 -1.5,-1.5 z m -6,4 a 1.5,1.5 0 0 0 -1.5,1.5 1.5,1.5 0 0 0 1.5,1.5 1.5,1.5 0 0 0 1.5,-1.5 1.5,1.5 0 0 0 -1.5,-1.5 z m 4.5,0.49805 a 0.99999997,0.99999997 0 0 0 -1,1 0.99999997,0.99999997 0 0 0 1,1 0.99999997,0.99999997 0 0 0 1,-1 0.99999997,0.99999997 0 0 0 -1,-1 z m 5,1 a 0.99999997,0.99999997 0 0 0 -1,1 0.99999997,0.99999997 0 0 0 1,1 0.99999997,0.99999997 0 0 0 1,-1 0.99999997,0.99999997 0 0 0 -1,-1 z m -2.5,3.50195 a 1.5,1.5 0 0 0 -1.5,1.5 1.5,1.5 0 0 0 1.5,1.5 1.5,1.5 0 0 0 1.5,-1.5 1.5,1.5 0 0 0 -1.5,-1.5 z m -4.5,1.49805 a 0.99999997,0.99999997 0 0 0 -1,1 0.99999997,0.99999997 0 0 0 1,1 0.99999997,0.99999997 0 0 0 1,-1 0.99999997,0.99999997 0 0 0 -1,-1 z" />
  </g>
</svg>
