<?xml version="1.0" encoding="UTF-8" standalone="no"?>
<svg
   xmlns:dc="http://purl.org/dc/elements/1.1/"
   xmlns:cc="http://creativecommons.org/ns#"
   xmlns:rdf="http://www.w3.org/1999/02/22-rdf-syntax-ns#"
   xmlns:svg="http://www.w3.org/2000/svg"
   xmlns="http://www.w3.org/2000/svg"
   xmlns:xlink="http://www.w3.org/1999/xlink"
   xmlns:sodipodi="http://sodipodi.sourceforge.net/DTD/sodipodi-0.dtd"
   xmlns:inkscape="http://www.inkscape.org/namespaces/inkscape"
   width="24"
   height="24"
   viewBox="0 0 6.3499999 6.3499999"
   version="1.1"
   id="svg842"
   inkscape:version="1.0.2 (1.0.2+r75+1)"
   sodipodi:docname="symbol__skull-alt2.svg">
  <defs
     id="defs836">
    <linearGradient
       inkscape:collect="always"
       id="linearGradient931">
      <stop
         style="stop-color:#892b6d;stop-opacity:1;"
         offset="0"
         id="stop927" />
      <stop
         style="stop-color:#28618c;stop-opacity:1"
         offset="1"
         id="stop929" />
    </linearGradient>
    <linearGradient
       inkscape:collect="always"
       xlink:href="#linearGradient931"
       id="linearGradient933"
       x1="2.1166666"
       y1="2.1166666"
       x2="14.816667"
       y2="14.816667"
       gradientUnits="userSpaceOnUse" />
  </defs>
  <sodipodi:namedview
     id="base"
     pagecolor="#ffffff"
     bordercolor="#666666"
     borderopacity="1.0"
     inkscape:pageopacity="0.0"
     inkscape:pageshadow="2"
     inkscape:zoom="1"
     inkscape:cx="6.5341205"
     inkscape:cy="11.862492"
     inkscape:document-units="mm"
     inkscape:current-layer="layer1"
     showgrid="true"
     units="px"
     showguides="true"
     inkscape:guide-bbox="true"
     inkscape:window-width="1920"
     inkscape:window-height="1017"
     inkscape:window-x="0"
     inkscape:window-y="0"
     inkscape:window-maximized="1"
     inkscape:snap-bbox="true"
     inkscape:bbox-nodes="true"
     inkscape:snap-smooth-nodes="true"
     inkscape:document-rotation="0">
    <inkscape:grid
       type="xygrid"
       id="grid1387"
       empspacing="4" />
    <sodipodi:guide
       position="0.52916666,2.9104166"
       orientation="1,0"
       id="guide1389"
       inkscape:locked="false" />
    <sodipodi:guide
       position="3.9687499,5.8208332"
       orientation="0,1"
       id="guide1391"
       inkscape:locked="false" />
    <sodipodi:guide
       position="5.8208332,2.6458333"
       orientation="1,0"
       id="guide1393"
       inkscape:locked="false" />
    <sodipodi:guide
       position="1.5875,0.52916666"
       orientation="0,1"
       id="guide1395"
       inkscape:locked="false" />
  </sodipodi:namedview>
  <metadata
     id="metadata839">
    <rdf:RDF>
      <cc:Work
         rdf:about="">
        <dc:format>image/svg+xml</dc:format>
        <dc:type
           rdf:resource="http://purl.org/dc/dcmitype/StillImage" />
        <dc:title />
      </cc:Work>
    </rdf:RDF>
  </metadata>
  <g
     inkscape:label="Guide"
     inkscape:groupmode="layer"
     id="layer1"
     transform="translate(0,-290.64998)">
    <path
       id="path846"
       style="fill:#000000;stroke:none;stroke-width:0.647059px;stroke-linecap:butt;stroke-linejoin:miter;stroke-opacity:1"
       d="M 12.058594 4 C 8.1762275 4.0000378 6.8828125 6.5874852 6.8828125 9.1757812 C 6.8828125 10.456474 7.8535168 10.393748 7.8535156 11.117188 C 7.8535156 11.117188 7.5292969 11.765054 7.5292969 12.412109 C 7.5292969 13.059127 9.4707031 13.057985 9.4707031 13.705078 L 9.4707031 14.353516 C 9.4707031 14.353516 9.4703491 15 12.058594 15 C 14.646837 15 14.646484 14.353516 14.646484 14.353516 L 14.646484 13.705078 C 14.646484 13.057985 16.587891 13.059127 16.587891 12.412109 C 16.587891 11.765054 16.265625 11.117188 16.265625 11.117188 C 16.265623 10.393748 17.234373 10.456474 17.234375 9.1757812 C 17.234375 6.5874852 15.940961 4.0000378 12.058594 4 z M 10 8 A 0.99999994 0.99999994 0 0 1 11 9 A 0.99999994 0.99999994 0 0 1 10 10 A 0.99999994 0.99999994 0 0 1 9 9 A 0.99999994 0.99999994 0 0 1 10 8 z M 14 8 A 0.99999994 0.99999994 0 0 1 15 9 A 0.99999994 0.99999994 0 0 1 14 10 A 0.99999994 0.99999994 0 0 1 13 9 A 0.99999994 0.99999994 0 0 1 14 8 z "
       transform="matrix(0.26458333,0,0,0.26458333,0,290.64998)" />
    <path
       id="path852-3"
       style="fill:#000000;stroke:none;stroke-width:0.600499px;stroke-linecap:butt;stroke-linejoin:miter;stroke-opacity:1"
       d="M 6.3222656 14.230469 C 6.057055 14.232357 5.8051409 14.389887 5.6972656 14.650391 C 5.552933 14.997918 5.8747084 15.113841 5.7519531 15.410156 C 5.6295425 15.707227 5.3215719 15.560865 5.1777344 15.908203 C 5.0338296 16.255542 5.1976778 16.652875 5.5449219 16.796875 C 6.1620753 17.052371 6.42907 16.455898 7.6269531 16.927734 L 7.6289062 16.927734 C 7.6291958 16.926525 7.6286065 16.925075 7.6289062 16.923828 L 8.9179688 17.457031 L 10.693359 16.720703 L 8.2128906 15.693359 C 6.9553787 15.172465 7.2147152 14.543613 6.5859375 14.283203 C 6.4991299 14.247222 6.4106692 14.229839 6.3222656 14.230469 z M 15.085938 18.539062 L 13.306641 19.275391 L 15.787109 20.302734 C 17.044609 20.823667 16.785285 21.452481 17.414062 21.712891 C 17.587756 21.784286 17.772541 21.77941 17.933594 21.712891 C 18.0945 21.646371 18.228755 21.51723 18.300781 21.34375 L 18.302734 21.34375 C 18.447101 20.996185 18.125439 20.879921 18.248047 20.583984 C 18.371042 20.287858 18.680385 20.435229 18.824219 20.087891 C 18.968107 19.740628 18.800388 19.340888 18.453125 19.197266 C 17.824348 18.936856 17.566111 19.565779 16.308594 19.044922 L 15.085938 18.539062 z "
       transform="matrix(0.26458333,0,0,0.26458333,0,290.64998)" />
    <path
       id="path852-3-6"
       style="fill:#000000;stroke:none;stroke-width:0.158882px;stroke-linecap:butt;stroke-linejoin:miter;stroke-opacity:1"
       d="m 1.5073344,296.2972 3.189e-4,-1.4e-4 c 0.019057,0.0459 0.054703,0.0803 0.097276,0.0979 0.042612,0.0176 0.091875,0.019 0.1378315,1.1e-4 0.166364,-0.0689 0.097459,-0.23527 0.4301725,-0.3731 l 2.158536,-0.89409 c 7.93e-5,3.3e-4 -3.65e-5,6.7e-4 4.01e-5,9.9e-4 l 3.346e-4,-1.3e-4 c 0.3169399,-0.12484 0.3877146,0.0331 0.5510031,-0.0345 0.091875,-0.0381 0.1355278,-0.14337 0.097453,-0.23527 -0.038057,-0.0919 -0.1196975,-0.0533 -0.1520853,-0.1319 -0.032479,-0.0784 0.052479,-0.10887 0.014291,-0.20082 -0.038056,-0.0919 -0.1434007,-0.13548 -0.2352721,-0.0974 -0.1663641,0.0689 -0.097456,0.23526 -0.4301727,0.37308 l -2.1419616,0.88723 c -0.3327182,0.13781 -0.4012991,-0.0287 -0.567663,0.0402 -0.09188,0.038 -0.1358454,0.14351 -0.097775,0.23539 0.038056,0.0919 0.1197407,0.0531 0.1522832,0.13145 0.03244,0.0783 -0.052761,0.10899 -0.014564,0.20095 z"
       sodipodi:nodetypes="ccsccccccccccssccccc" />
  </g>
  <g
     inkscape:groupmode="layer"
     id="layer2"
     inkscape:label="Icon"
     style="display:none"
     transform="translate(0,-10.583333)">
    <circle
       style="opacity:1;fill:url(#linearGradient933);fill-opacity:1;stroke:none;stroke-width:0.52916664;stroke-linecap:round;stroke-linejoin:bevel;stroke-miterlimit:4;stroke-dasharray:none;stroke-opacity:1;paint-order:fill markers stroke"
       id="path925"
       cx="8.4666662"
       cy="8.4666662"
       r="7.4083333" />
  </g>
</svg>
