<?xml version="1.0" encoding="UTF-8" standalone="no"?>
<svg
   xmlns:dc="http://purl.org/dc/elements/1.1/"
   xmlns:cc="http://creativecommons.org/ns#"
   xmlns:rdf="http://www.w3.org/1999/02/22-rdf-syntax-ns#"
   xmlns:svg="http://www.w3.org/2000/svg"
   xmlns="http://www.w3.org/2000/svg"
   xmlns:sodipodi="http://sodipodi.sourceforge.net/DTD/sodipodi-0.dtd"
   xmlns:inkscape="http://www.inkscape.org/namespaces/inkscape"
   width="24"
   height="24"
   viewBox="0 0 6.3499999 6.3499999"
   version="1.1"
   id="svg842"
   inkscape:version="1.0.2 (1.0.2+r75+1)"
   sodipodi:docname="symbol__settings.svg">
  <defs
     id="defs836" />
  <sodipodi:namedview
     id="base"
     pagecolor="#ffffff"
     bordercolor="#666666"
     borderopacity="1.0"
     inkscape:pageopacity="0.0"
     inkscape:pageshadow="2"
     inkscape:zoom="56.769011"
     inkscape:cx="7.9699061"
     inkscape:cy="12.466818"
     inkscape:document-units="px"
     inkscape:current-layer="layer1"
     showgrid="true"
     units="px"
     showguides="true"
     inkscape:guide-bbox="true"
     inkscape:window-width="1920"
     inkscape:window-height="1017"
     inkscape:window-x="0"
     inkscape:window-y="0"
     inkscape:window-maximized="1"
     inkscape:snap-bbox="true"
     inkscape:bbox-nodes="true"
     inkscape:document-rotation="0">
    <inkscape:grid
       type="xygrid"
       id="grid1387"
       empspacing="4" />
    <sodipodi:guide
       position="0.52916666,2.9104166"
       orientation="1,0"
       id="guide1389"
       inkscape:locked="false" />
    <sodipodi:guide
       position="3.9687499,5.8208332"
       orientation="0,1"
       id="guide1391"
       inkscape:locked="false" />
    <sodipodi:guide
       position="5.8208332,2.6458333"
       orientation="1,0"
       id="guide1393"
       inkscape:locked="false" />
    <sodipodi:guide
       position="1.5875,0.52916666"
       orientation="0,1"
       id="guide1395"
       inkscape:locked="false" />
  </sodipodi:namedview>
  <metadata
     id="metadata839">
    <rdf:RDF>
      <cc:Work
         rdf:about="">
        <dc:format>image/svg+xml</dc:format>
        <dc:type
           rdf:resource="http://purl.org/dc/dcmitype/StillImage" />
        <dc:title />
      </cc:Work>
    </rdf:RDF>
  </metadata>
  <g
     inkscape:label="Guide"
     inkscape:groupmode="layer"
     id="layer1"
     transform="translate(0,-290.64998)">
    <path
       style="opacity:1;fill:#000000;fill-opacity:1;stroke:none;stroke-width:4.66669559;stroke-linecap:round;stroke-linejoin:bevel;stroke-miterlimit:4;stroke-dasharray:none;stroke-opacity:1;paint-order:fill markers stroke"
       d="M 15 3.5 A 3.5000219 3.5000219 0 0 0 11.648438 6 L 2 6 L 2 8 L 11.646484 8 A 3.5000219 3.5000219 0 0 0 15 10.5 A 3.5000219 3.5000219 0 0 0 18.351562 8 L 22 8 L 22 6 L 18.353516 6 A 3.5000219 3.5000219 0 0 0 15 3.5 z M 15 5.5 A 1.5 1.5 0 0 1 16.5 7 A 1.5 1.5 0 0 1 15 8.5 A 1.5 1.5 0 0 1 13.5 7 A 1.5 1.5 0 0 1 15 5.5 z M 9 13.5 A 3.5000219 3.5000219 0 0 0 5.6484375 16 L 2 16 L 2 18 L 5.6464844 18 A 3.5000219 3.5000219 0 0 0 9 20.5 A 3.5000219 3.5000219 0 0 0 12.351562 18 L 22 18 L 22 16 L 12.353516 16 A 3.5000219 3.5000219 0 0 0 9 13.5 z M 9 15.5 A 1.5 1.5 0 0 1 10.5 17 A 1.5 1.5 0 0 1 9 18.5 A 1.5 1.5 0 0 1 7.5 17 A 1.5 1.5 0 0 1 9 15.5 z "
       transform="matrix(0.26458333,0,0,0.26458333,0,290.64998)"
       id="path823-3" />
  </g>
</svg>
