<?xml version="1.0" encoding="UTF-8" standalone="no"?>
<svg
   xmlns:dc="http://purl.org/dc/elements/1.1/"
   xmlns:cc="http://creativecommons.org/ns#"
   xmlns:rdf="http://www.w3.org/1999/02/22-rdf-syntax-ns#"
   xmlns:svg="http://www.w3.org/2000/svg"
   xmlns="http://www.w3.org/2000/svg"
   xmlns:sodipodi="http://sodipodi.sourceforge.net/DTD/sodipodi-0.dtd"
   xmlns:inkscape="http://www.inkscape.org/namespaces/inkscape"
   width="24"
   height="24"
   viewBox="0 0 6.3499999 6.3499999"
   version="1.1"
   id="svg842"
   inkscape:version="1.0.2 (1.0.2+r75+1)"
   sodipodi:docname="symbol__comment-dots-alt.svg">
  <defs
     id="defs836" />
  <sodipodi:namedview
     id="base"
     pagecolor="#ffffff"
     bordercolor="#666666"
     borderopacity="1.0"
     inkscape:pageopacity="0.0"
     inkscape:pageshadow="2"
     inkscape:zoom="24.493596"
     inkscape:cx="8.9151998"
     inkscape:cy="17.910871"
     inkscape:document-units="px"
     inkscape:current-layer="layer1"
     showgrid="true"
     units="px"
     showguides="true"
     inkscape:guide-bbox="true"
     inkscape:window-width="1920"
     inkscape:window-height="1017"
     inkscape:window-x="0"
     inkscape:window-y="0"
     inkscape:window-maximized="1"
     inkscape:snap-bbox="true"
     inkscape:bbox-nodes="true"
     inkscape:document-rotation="0">
    <inkscape:grid
       type="xygrid"
       id="grid1387"
       empspacing="4" />
    <sodipodi:guide
       position="0.52916666,2.9104166"
       orientation="1,0"
       id="guide1389"
       inkscape:locked="false" />
    <sodipodi:guide
       position="1.3229166,5.8208332"
       orientation="0,1"
       id="guide1391"
       inkscape:locked="false" />
    <sodipodi:guide
       position="5.8208332,2.6458333"
       orientation="1,0"
       id="guide1393"
       inkscape:locked="false" />
    <sodipodi:guide
       position="1.5875,0.52916666"
       orientation="0,1"
       id="guide1395"
       inkscape:locked="false" />
  </sodipodi:namedview>
  <metadata
     id="metadata839">
    <rdf:RDF>
      <cc:Work
         rdf:about="">
        <dc:format>image/svg+xml</dc:format>
        <dc:type
           rdf:resource="http://purl.org/dc/dcmitype/StillImage" />
        <dc:title />
      </cc:Work>
    </rdf:RDF>
  </metadata>
  <g
     inkscape:label="Guide"
     inkscape:groupmode="layer"
     id="layer1"
     transform="translate(0,-290.64998)">
    <path
       id="rect828-6-7"
       style="opacity:1;fill:#000000;fill-opacity:1;stroke:none;stroke-width:2;stroke-linecap:round;stroke-linejoin:round;stroke-miterlimit:4;stroke-dasharray:none;stroke-opacity:1;paint-order:fill markers stroke"
       d="M 2 6 L 2 18 L 9 18 L 12 21 L 15 18 L 22 18 L 22 6 L 2 6 z M 7 10.5 A 1.5 1.5 0 0 1 8.5 12 A 1.5 1.5 0 0 1 7 13.5 A 1.5 1.5 0 0 1 5.5 12 A 1.5 1.5 0 0 1 7 10.5 z M 12 10.5 A 1.5 1.5 0 0 1 13.5 12 A 1.5 1.5 0 0 1 12 13.5 A 1.5 1.5 0 0 1 10.5 12 A 1.5 1.5 0 0 1 12 10.5 z M 17 10.5 A 1.5 1.5 0 0 1 18.5 12 A 1.5 1.5 0 0 1 17 13.5 A 1.5 1.5 0 0 1 15.5 12 A 1.5 1.5 0 0 1 17 10.5 z "
       transform="matrix(0.26458333,0,0,0.26458333,0,290.64998)" />
  </g>
</svg>
