<?xml version="1.0" encoding="UTF-8" standalone="no"?>
<svg
   xmlns:dc="http://purl.org/dc/elements/1.1/"
   xmlns:cc="http://creativecommons.org/ns#"
   xmlns:rdf="http://www.w3.org/1999/02/22-rdf-syntax-ns#"
   xmlns:svg="http://www.w3.org/2000/svg"
   xmlns="http://www.w3.org/2000/svg"
   xmlns:xlink="http://www.w3.org/1999/xlink"
   xmlns:sodipodi="http://sodipodi.sourceforge.net/DTD/sodipodi-0.dtd"
   xmlns:inkscape="http://www.inkscape.org/namespaces/inkscape"
   width="24"
   height="24"
   viewBox="0 0 6.3499999 6.3499999"
   version="1.1"
   id="svg842"
   inkscape:version="1.0.2 (1.0.2+r75+1)"
   sodipodi:docname="symbol__page-break-alt.svg">
  <defs
     id="defs836">
    <linearGradient
       inkscape:collect="always"
       id="linearGradient931">
      <stop
         style="stop-color:#892b6d;stop-opacity:1;"
         offset="0"
         id="stop927" />
      <stop
         style="stop-color:#28618c;stop-opacity:1"
         offset="1"
         id="stop929" />
    </linearGradient>
    <linearGradient
       inkscape:collect="always"
       xlink:href="#linearGradient931"
       id="linearGradient933"
       x1="2.1166666"
       y1="2.1166666"
       x2="14.816667"
       y2="14.816667"
       gradientUnits="userSpaceOnUse" />
  </defs>
  <sodipodi:namedview
     id="base"
     pagecolor="#ffffff"
     bordercolor="#666666"
     borderopacity="1.0"
     inkscape:pageopacity="0.0"
     inkscape:pageshadow="2"
     inkscape:zoom="1"
     inkscape:cx="10.386306"
     inkscape:cy="12.537545"
     inkscape:document-units="px"
     inkscape:current-layer="layer1"
     showgrid="true"
     units="px"
     showguides="true"
     inkscape:guide-bbox="true"
     inkscape:window-width="1920"
     inkscape:window-height="1017"
     inkscape:window-x="0"
     inkscape:window-y="0"
     inkscape:window-maximized="1"
     inkscape:snap-bbox="true"
     inkscape:bbox-nodes="false"
     inkscape:document-rotation="0"
     inkscape:object-paths="false"
     inkscape:snap-smooth-nodes="true">
    <inkscape:grid
       type="xygrid"
       id="grid1387"
       empspacing="4" />
    <sodipodi:guide
       position="0.52916666,2.9104166"
       orientation="1,0"
       id="guide1389"
       inkscape:locked="false" />
    <sodipodi:guide
       position="3.9687499,5.8208332"
       orientation="0,1"
       id="guide1391"
       inkscape:locked="false" />
    <sodipodi:guide
       position="5.8208332,2.6458333"
       orientation="1,0"
       id="guide1393"
       inkscape:locked="false" />
    <sodipodi:guide
       position="1.5875,0.52916666"
       orientation="0,1"
       id="guide1395"
       inkscape:locked="false" />
  </sodipodi:namedview>
  <metadata
     id="metadata839">
    <rdf:RDF>
      <cc:Work
         rdf:about="">
        <dc:format>image/svg+xml</dc:format>
        <dc:type
           rdf:resource="http://purl.org/dc/dcmitype/StillImage" />
        <dc:title />
      </cc:Work>
    </rdf:RDF>
  </metadata>
  <g
     inkscape:label="Guide"
     inkscape:groupmode="layer"
     id="layer1"
     transform="translate(0,-290.64998)">
    <path
       id="rect842-3"
       style="fill:#000000;fill-opacity:0.947002;stroke:none;stroke-width:3.99999;stroke-linecap:square;paint-order:stroke fill markers"
       d="M 21.998047,1.7929688 C 20.01537,3.5914214 17.912761,4 15.996094,4 14.079426,4 13.224609,3.5546812 12.224609,3.0546875 11.224609,2.5546938 10.085285,1.9999622 8.0019531,2 5.9186208,2 3.1071307,2.8796415 2,3.8535156 V 10 H 22 Z M 8.0019531,2.9960938 c 1.916668,0 2.7714829,0.4531312 3.7714849,0.953125 0.999999,0.4999937 2.139323,1.046875 4.222656,1.046875 1.662738,0 2.990639,-0.332033 4.003906,-0.734375 V 8 H 4 V 3.828125 C 4.9354075,3.4005339 6.2530621,2.9960938 8.0019531,2.9960938 Z"
       transform="matrix(0.26458333,0,0,0.26458333,0,290.64998)"
       sodipodi:nodetypes="csscccccsssccccs" />
    <path
       id="rect842-3-7"
       style="fill:#000000;fill-opacity:0.947002;stroke:none;stroke-width:1.05833;stroke-linecap:square;paint-order:stroke fill markers"
       d="m 0.52968346,296.52559 c 0.52458334,-0.47584 1.08089854,-0.58394 1.58801674,-0.58394 0.5071184,0 0.7332887,0.11782 0.997872,0.25011 0.2645834,0.13229 0.5660295,0.27906 1.1172444,0.27905 0.551215,0 1.2950884,-0.23274 1.5880167,-0.49041 v -1.62625 H 0.52916666 Z m 3.70313314,-0.31833 c -0.5071184,0 -0.7332882,-0.11989 -0.997872,-0.25218 -0.2645831,-0.13229 -0.5660292,-0.27698 -1.1172444,-0.27698 -0.4399328,0 -0.7912732,0.0879 -1.0593668,0.1943 v -0.98909 h 4.2333333 v 1.10381 c -0.2474933,0.11314 -0.5961227,0.22014 -1.0588501,0.22014 z"
       sodipodi:nodetypes="csscccccsssccccs" />
    <rect
       style="fill:#000000;stroke-width:0.264583;stroke-linecap:square;stroke-linejoin:round;paint-order:stroke fill markers"
       id="rect2586"
       width="1.0583333"
       height="0.26458332"
       x="2.6458333"
       y="292.23749"
       ry="0.13229166" />
    <rect
       style="fill:#000000;stroke-width:0.264583;stroke-linecap:square;stroke-linejoin:round;paint-order:stroke fill markers"
       id="rect2588"
       width="1.0583333"
       height="0.26458332"
       x="2.6458333"
       y="295.14789"
       ry="0.13229166" />
  </g>
  <g
     inkscape:groupmode="layer"
     id="layer2"
     inkscape:label="Icon"
     style="display:none"
     transform="translate(0,-10.583333)">
    <circle
       style="opacity:1;fill:url(#linearGradient933);fill-opacity:1;stroke:none;stroke-width:0.52916664;stroke-linecap:round;stroke-linejoin:bevel;stroke-miterlimit:4;stroke-dasharray:none;stroke-opacity:1;paint-order:fill markers stroke"
       id="path925"
       cx="8.4666662"
       cy="8.4666662"
       r="7.4083333" />
  </g>
</svg>
