<?xml version="1.0" encoding="UTF-8" standalone="no"?>
<svg
   xmlns:dc="http://purl.org/dc/elements/1.1/"
   xmlns:cc="http://creativecommons.org/ns#"
   xmlns:rdf="http://www.w3.org/1999/02/22-rdf-syntax-ns#"
   xmlns:svg="http://www.w3.org/2000/svg"
   xmlns="http://www.w3.org/2000/svg"
   xmlns:sodipodi="http://sodipodi.sourceforge.net/DTD/sodipodi-0.dtd"
   xmlns:inkscape="http://www.inkscape.org/namespaces/inkscape"
   width="24"
   height="24"
   viewBox="0 0 6.3499999 6.3499999"
   version="1.1"
   id="svg842"
   inkscape:version="1.0.2 (1.0.2+r75+1)"
   sodipodi:docname="symbol__download-alt2.svg">
  <defs
     id="defs836" />
  <sodipodi:namedview
     id="base"
     pagecolor="#ffffff"
     bordercolor="#666666"
     borderopacity="1.0"
     inkscape:pageopacity="0.0"
     inkscape:pageshadow="2"
     inkscape:zoom="17.319588"
     inkscape:cx="10.784181"
     inkscape:cy="13.774887"
     inkscape:document-units="px"
     inkscape:current-layer="layer1"
     showgrid="true"
     units="px"
     showguides="true"
     inkscape:guide-bbox="true"
     inkscape:window-width="1920"
     inkscape:window-height="1017"
     inkscape:window-x="0"
     inkscape:window-y="0"
     inkscape:window-maximized="1"
     inkscape:snap-bbox="true"
     inkscape:bbox-nodes="true"
     inkscape:document-rotation="0">
    <inkscape:grid
       type="xygrid"
       id="grid1387"
       empspacing="4" />
    <sodipodi:guide
       position="0.52916666,2.9104166"
       orientation="1,0"
       id="guide1389"
       inkscape:locked="false" />
    <sodipodi:guide
       position="1.3229166,5.8208332"
       orientation="0,1"
       id="guide1391"
       inkscape:locked="false" />
    <sodipodi:guide
       position="5.8208332,0.79374999"
       orientation="1,0"
       id="guide1393"
       inkscape:locked="false" />
    <sodipodi:guide
       position="1.5875,0.52916666"
       orientation="0,1"
       id="guide1395"
       inkscape:locked="false" />
  </sodipodi:namedview>
  <metadata
     id="metadata839">
    <rdf:RDF>
      <cc:Work
         rdf:about="">
        <dc:format>image/svg+xml</dc:format>
        <dc:type
           rdf:resource="http://purl.org/dc/dcmitype/StillImage" />
        <dc:title />
      </cc:Work>
    </rdf:RDF>
  </metadata>
  <g
     inkscape:label="Guide"
     inkscape:groupmode="layer"
     id="layer1"
     transform="translate(0,-290.64998)">
    <path
       style="opacity:1;fill:#000000;fill-opacity:1;stroke:none;stroke-width:0.529167;stroke-linecap:round;stroke-linejoin:round;stroke-miterlimit:4;stroke-dasharray:none;stroke-opacity:1"
       d="m 2.9104166,293.82497 v 1.7818 l -0.6077148,-0.60771 -0.3731038,0.37517 1.245402,1.2454 1.2454019,-1.2454 -0.375171,-0.37517 -0.6056476,0.60719 v -1.78128 z"
       id="rect824"
       sodipodi:nodetypes="cccccccccc" />
    <path
       id="path845"
       style="fill:#000000;stroke-width:2.33333;stroke-linecap:round;stroke-linejoin:round;paint-order:stroke fill markers"
       d="M 10 2 C 7.2385762 2 5 4.2385637 5 7 C 4.9999546 7.0113386 4.9999546 7.0257708 5 7.0371094 C 3.2784517 7.2846684 2.0006017 8.7605858 2 10.5 C 1.9996309 12.240132 3 14 5.5 14 L 10 14 L 10 11.996094 L 5.5 11.996094 C 4.7192966 11.996094 4.5169676 11.811653 4.3339844 11.597656 C 4.1510023 11.383735 4.0018511 10.986652 4.0019531 10.5 C 4.0022158 9.7397102 4.5336051 9.1236817 5.2851562 9.015625 A 2.0001999 2.0001999 0 0 0 6.9980469 7.0292969 C 6.9980299 7.0255173 6.9980299 7.0096389 6.9980469 7.0058594 A 2.0001999 2.0001999 0 0 0 6.9980469 6.9980469 C 6.9980469 5.3174799 8.3214096 4.0019531 10.001953 4.0019531 L 10.001953 4.0039062 A 2.0001999 2.0001999 0 0 0 10.017578 4.0039062 C 10.392556 4.007648 11.045677 4.1902477 11.552734 4.5273438 C 12.064905 4.8678792 12.395393 5.3043315 12.498047 5.6875 A 2.0001999 2.0001999 0 0 0 15.037109 7.0742188 C 15.185626 7.0265967 15.345957 6.999622 15.501953 7 C 16.354069 7 16.999997 7.6479055 17 8.5 C 16.999987 8.5820157 16.991895 8.6613056 16.978516 8.7421875 A 2.0001999 2.0001999 0 0 0 19.384766 11.023438 C 19.489923 11.00076 19.532472 11.001953 19.503906 11.001953 C 19.803721 11.001953 19.998047 11.202237 19.998047 11.501953 C 19.998047 11.80167 19.803719 11.996094 19.503906 11.996094 L 14 11.996094 L 14 14 L 19.5 14 C 20.880712 14 22 12.880699 22 11.5 C 22 10.119301 20.880712 9 19.5 9 C 19.315495 9.000378 19.132921 9.0302495 18.953125 9.0703125 A 3.5000043 3.5000043 0 0 0 19 8.5 A 3.5000043 3.5000043 0 0 0 15.5 5 A 3.5000043 3.5000043 0 0 0 14.427734 5.1679688 C 13.910669 3.2380286 11.710216 2.0004157 10 2 z "
       transform="matrix(0.26458333,0,0,0.26458333,0,290.64998)" />
  </g>
</svg>
