<?xml version="1.0" encoding="UTF-8" standalone="no"?>
<svg
   xmlns:dc="http://purl.org/dc/elements/1.1/"
   xmlns:cc="http://creativecommons.org/ns#"
   xmlns:rdf="http://www.w3.org/1999/02/22-rdf-syntax-ns#"
   xmlns:svg="http://www.w3.org/2000/svg"
   xmlns="http://www.w3.org/2000/svg"
   xmlns:sodipodi="http://sodipodi.sourceforge.net/DTD/sodipodi-0.dtd"
   xmlns:inkscape="http://www.inkscape.org/namespaces/inkscape"
   width="24"
   height="24"
   viewBox="0 0 6.3499999 6.3499999"
   version="1.1"
   id="svg842"
   inkscape:version="1.0.2 (1.0.2+r75+1)"
   sodipodi:docname="symbol__prohbit.svg">
  <defs
     id="defs836" />
  <sodipodi:namedview
     id="base"
     pagecolor="#ffffff"
     bordercolor="#666666"
     borderopacity="1.0"
     inkscape:pageopacity="0.0"
     inkscape:pageshadow="2"
     inkscape:zoom="17.319588"
     inkscape:cx="6.269651"
     inkscape:cy="21.333438"
     inkscape:document-units="px"
     inkscape:current-layer="layer1"
     showgrid="true"
     units="px"
     showguides="true"
     inkscape:guide-bbox="true"
     inkscape:window-width="1920"
     inkscape:window-height="1017"
     inkscape:window-x="0"
     inkscape:window-y="0"
     inkscape:window-maximized="1"
     inkscape:snap-bbox="true"
     inkscape:bbox-nodes="true"
     inkscape:document-rotation="0">
    <inkscape:grid
       type="xygrid"
       id="grid1387"
       empspacing="4" />
    <sodipodi:guide
       position="0.52916666,2.9104166"
       orientation="1,0"
       id="guide1389"
       inkscape:locked="false" />
    <sodipodi:guide
       position="3.9687499,5.8208332"
       orientation="0,1"
       id="guide1391"
       inkscape:locked="false" />
    <sodipodi:guide
       position="5.8208332,2.6458333"
       orientation="1,0"
       id="guide1393"
       inkscape:locked="false" />
    <sodipodi:guide
       position="1.5875,0.52916666"
       orientation="0,1"
       id="guide1395"
       inkscape:locked="false" />
  </sodipodi:namedview>
  <metadata
     id="metadata839">
    <rdf:RDF>
      <cc:Work
         rdf:about="">
        <dc:format>image/svg+xml</dc:format>
        <dc:type
           rdf:resource="http://purl.org/dc/dcmitype/StillImage" />
        <dc:title />
      </cc:Work>
    </rdf:RDF>
  </metadata>
  <g
     inkscape:label="Guide"
     inkscape:groupmode="layer"
     id="layer1"
     transform="translate(0,-290.64998)">
    <path
       id="path862"
       style="fill:#000000;fill-opacity:0.947002;stroke:none;stroke-width:1.05833;stroke-linecap:square;paint-order:stroke fill markers"
       d="M 3.1801675,291.17915 A 2.6458333,2.6458333 0 0 1 5.8208333,293.82498 2.6458333,2.6458333 0 0 1 3.175,296.47081 2.6458333,2.6458333 0 0 1 0.52916666,293.82498 2.6458333,2.6458333 0 0 1 3.175,291.17915 a 2.6458333,2.6458333 0 0 1 0.00517,0 z M 3.175,291.70831 a 2.1166685,2.1166685 0 0 0 -1.298112,0.44442 l 2.9698445,2.96985 A 2.1166685,2.1166685 0 0 0 5.2916666,293.82498 2.1166685,2.1166685 0 0 0 3.175,291.70831 Z m -1.6717325,0.81907 a 2.1166685,2.1166685 0 0 0 -0.4449342,1.2976 2.1166685,2.1166685 0 0 0 2.1166667,2.11667 2.1166685,2.1166685 0 0 0 1.2981119,-0.44442 z" />
  </g>
</svg>
