<?xml version="1.0" encoding="UTF-8" standalone="no"?>
<svg
   xmlns:dc="http://purl.org/dc/elements/1.1/"
   xmlns:cc="http://creativecommons.org/ns#"
   xmlns:rdf="http://www.w3.org/1999/02/22-rdf-syntax-ns#"
   xmlns:svg="http://www.w3.org/2000/svg"
   xmlns="http://www.w3.org/2000/svg"
   xmlns:xlink="http://www.w3.org/1999/xlink"
   xmlns:sodipodi="http://sodipodi.sourceforge.net/DTD/sodipodi-0.dtd"
   xmlns:inkscape="http://www.inkscape.org/namespaces/inkscape"
   width="24"
   height="24"
   viewBox="0 0 6.3499999 6.3499999"
   version="1.1"
   id="svg842"
   inkscape:version="1.0.1 (1.0.1+r74)"
   sodipodi:docname="cookie-bite-alt.svg">
  <defs
     id="defs836">
    <linearGradient
       inkscape:collect="always"
       id="linearGradient931">
      <stop
         style="stop-color:#892b6d;stop-opacity:1;"
         offset="0"
         id="stop927" />
      <stop
         style="stop-color:#28618c;stop-opacity:1"
         offset="1"
         id="stop929" />
    </linearGradient>
    <linearGradient
       inkscape:collect="always"
       xlink:href="#linearGradient931"
       id="linearGradient933"
       x1="2.1166666"
       y1="2.1166666"
       x2="14.816667"
       y2="14.816667"
       gradientUnits="userSpaceOnUse" />
  </defs>
  <sodipodi:namedview
     id="base"
     pagecolor="#ffffff"
     bordercolor="#666666"
     borderopacity="1.0"
     inkscape:pageopacity="0.0"
     inkscape:pageshadow="2"
     inkscape:zoom="1"
     inkscape:cx="7.4161625"
     inkscape:cy="15.918861"
     inkscape:document-units="px"
     inkscape:current-layer="layer1"
     showgrid="true"
     units="px"
     showguides="true"
     inkscape:guide-bbox="true"
     inkscape:window-width="1920"
     inkscape:window-height="1017"
     inkscape:window-x="0"
     inkscape:window-y="0"
     inkscape:window-maximized="1"
     inkscape:snap-bbox="true"
     inkscape:bbox-nodes="true"
     inkscape:document-rotation="0"
     inkscape:object-paths="true"
     inkscape:snap-smooth-nodes="true"
     inkscape:snap-global="true">
    <inkscape:grid
       type="xygrid"
       id="grid1387"
       empspacing="4" />
    <sodipodi:guide
       position="0.52916666,2.9104166"
       orientation="1,0"
       id="guide1389"
       inkscape:locked="false" />
    <sodipodi:guide
       position="3.9687499,5.8208332"
       orientation="0,1"
       id="guide1391"
       inkscape:locked="false" />
    <sodipodi:guide
       position="5.8208332,2.6458333"
       orientation="1,0"
       id="guide1393"
       inkscape:locked="false" />
    <sodipodi:guide
       position="1.5875,0.52916666"
       orientation="0,1"
       id="guide1395"
       inkscape:locked="false" />
  </sodipodi:namedview>
  <metadata
     id="metadata839">
    <rdf:RDF>
      <cc:Work
         rdf:about="">
        <dc:format>image/svg+xml</dc:format>
        <dc:type
           rdf:resource="http://purl.org/dc/dcmitype/StillImage" />
        <dc:title />
      </cc:Work>
    </rdf:RDF>
  </metadata>
  <g
     inkscape:label="Guide"
     inkscape:groupmode="layer"
     id="layer1"
     transform="translate(0,-290.64998)">
    <path
       style="fill:#000000;fill-opacity:1;stroke:none;stroke-width:2;stroke-linecap:butt;stroke-linejoin:round;stroke-miterlimit:4;stroke-dasharray:none;stroke-opacity:1;paint-order:fill markers stroke"
       d="m 20.5,2.0019531 c -1.36888,0 -2.503924,1.1272245 -2.503906,2.4960938 C 17.996111,5.8669162 19.131144,7 20.5,7 21.868856,7 23.001936,5.8669162 23.001953,4.4980469 23.001971,3.1291776 21.86888,2.0019531 20.5,2.0019531 Z"
       transform="matrix(0.26458333,0,0,0.26458333,0,290.64998)"
       id="path846" />
    <path
       id="path844"
       style="fill:#000000;fill-opacity:1;stroke:none;stroke-width:2;stroke-linecap:butt;stroke-linejoin:round;stroke-miterlimit:4;stroke-dasharray:none;stroke-opacity:1;paint-order:fill markers stroke"
       d="M 13 2 C 11.217533 2.0578268 6.6550485 1.7874026 3.7285156 6.0742188 C 1.7904797 8.9129841 1.6739348 13.705857 3.296875 16.5625 C 4.9198154 19.419143 8.3038803 22.03583 12.205078 22 C 16.106276 21.96598 20.199696 20.148037 21.521484 15.896484 C 21.997997 14.36376 22.084181 12.572743 21.857422 10.808594 C 20.727243 11.004381 20.40477 10.818494 19.90625 10.599609 C 19.566542 10.350813 19.10739 10.341448 18.757812 10.576172 C 18.593668 10.686534 18.40084 10.745338 18.203125 10.746094 C 17.638996 10.746094 17.203125 10.310226 17.203125 9.7460938 C 17.20307 9.1938317 16.755387 8.746149 16.203125 8.7460938 C 15.638996 8.7460938 15.203125 8.310226 15.203125 7.7460938 C 15.203078 7.5544714 15.257945 7.3663128 15.361328 7.2050781 C 15.734057 6.6240863 15.42007 5.8491114 14.748047 5.6914062 C 13.926992 5.4993274 13.338988 4.8519743 13.091797 4.0019531 C 12.844607 3.1519318 12.904181 2.7278169 13 2 z M 13 5.5 A 1.5 1.5 0 0 1 14.5 7 A 1.5 1.5 0 0 1 13 8.5 A 1.5 1.5 0 0 1 11.5 7 A 1.5 1.5 0 0 1 13 5.5 z M 7 9.5 A 1.5 1.5 0 0 1 8.5 11 A 1.5 1.5 0 0 1 7 12.5 A 1.5 1.5 0 0 1 5.5 11 A 1.5 1.5 0 0 1 7 9.5 z M 11.5 9.9980469 A 0.99999997 0.99999997 0 0 1 12.5 10.998047 A 0.99999997 0.99999997 0 0 1 11.5 11.998047 A 0.99999997 0.99999997 0 0 1 10.5 10.998047 A 0.99999997 0.99999997 0 0 1 11.5 9.9980469 z M 16.5 10.998047 A 0.99999997 0.99999997 0 0 1 17.5 11.998047 A 0.99999997 0.99999997 0 0 1 16.5 12.998047 A 0.99999997 0.99999997 0 0 1 15.5 11.998047 A 0.99999997 0.99999997 0 0 1 16.5 10.998047 z M 14 14.5 A 1.5 1.5 0 0 1 15.5 16 A 1.5 1.5 0 0 1 14 17.5 A 1.5 1.5 0 0 1 12.5 16 A 1.5 1.5 0 0 1 14 14.5 z M 9.5 15.998047 A 0.99999997 0.99999997 0 0 1 10.5 16.998047 A 0.99999997 0.99999997 0 0 1 9.5 17.998047 A 0.99999997 0.99999997 0 0 1 8.5 16.998047 A 0.99999997 0.99999997 0 0 1 9.5 15.998047 z "
       transform="matrix(0.26458333,0,0,0.26458333,0,290.64998)" />
    <path
       style="fill:#000000;fill-opacity:1;stroke:none;stroke-width:2;stroke-linecap:butt;stroke-linejoin:round;stroke-miterlimit:4;stroke-dasharray:none;stroke-opacity:1;paint-order:fill markers stroke"
       d="M 16,0.5 A 1.5,1.5 0 0 0 14.5,2 1.5,1.5 0 0 0 16,3.5 1.5,1.5 0 0 0 17.5,2 1.5,1.5 0 0 0 16,0.5 Z"
       transform="matrix(0.26458333,0,0,0.26458333,0,290.64998)"
       id="path831" />
  </g>
  <g
     inkscape:groupmode="layer"
     id="layer2"
     inkscape:label="Icon"
     style="display:none"
     transform="translate(0,-10.583333)">
    <circle
       style="opacity:1;fill:url(#linearGradient933);fill-opacity:1;stroke:none;stroke-width:0.52916664;stroke-linecap:round;stroke-linejoin:bevel;stroke-miterlimit:4;stroke-dasharray:none;stroke-opacity:1;paint-order:fill markers stroke"
       id="path925"
       cx="8.4666662"
       cy="8.4666662"
       r="7.4083333" />
  </g>
</svg>
