<?xml version="1.0" encoding="UTF-8" standalone="no"?>
<svg
   xmlns:dc="http://purl.org/dc/elements/1.1/"
   xmlns:cc="http://creativecommons.org/ns#"
   xmlns:rdf="http://www.w3.org/1999/02/22-rdf-syntax-ns#"
   xmlns:svg="http://www.w3.org/2000/svg"
   xmlns="http://www.w3.org/2000/svg"
   xmlns:sodipodi="http://sodipodi.sourceforge.net/DTD/sodipodi-0.dtd"
   xmlns:inkscape="http://www.inkscape.org/namespaces/inkscape"
   width="24"
   height="24"
   viewBox="0 0 6.3499999 6.3499999"
   version="1.1"
   id="svg842"
   inkscape:version="1.0.2 (1.0.2+r75+1)"
   sodipodi:docname="symbol__cookie-bite.svg">
  <defs
     id="defs836" />
  <sodipodi:namedview
     id="base"
     pagecolor="#ffffff"
     bordercolor="#666666"
     borderopacity="1.0"
     inkscape:pageopacity="0.0"
     inkscape:pageshadow="2"
     inkscape:zoom="1.0824742"
     inkscape:cx="20.217391"
     inkscape:cy="9.6262185"
     inkscape:document-units="px"
     inkscape:current-layer="layer1"
     showgrid="true"
     units="px"
     showguides="true"
     inkscape:guide-bbox="true"
     inkscape:window-width="1920"
     inkscape:window-height="1017"
     inkscape:window-x="0"
     inkscape:window-y="0"
     inkscape:window-maximized="1"
     inkscape:snap-bbox="true"
     inkscape:bbox-nodes="true"
     inkscape:document-rotation="0"
     inkscape:object-paths="true"
     inkscape:snap-smooth-nodes="true"
     inkscape:snap-global="true">
    <inkscape:grid
       type="xygrid"
       id="grid1387"
       empspacing="4" />
    <sodipodi:guide
       position="0.52916666,2.9104166"
       orientation="1,0"
       id="guide1389"
       inkscape:locked="false" />
    <sodipodi:guide
       position="3.9687499,5.8208332"
       orientation="0,1"
       id="guide1391"
       inkscape:locked="false" />
    <sodipodi:guide
       position="5.8208332,2.6458333"
       orientation="1,0"
       id="guide1393"
       inkscape:locked="false" />
    <sodipodi:guide
       position="1.5875,0.52916666"
       orientation="0,1"
       id="guide1395"
       inkscape:locked="false" />
  </sodipodi:namedview>
  <metadata
     id="metadata839">
    <rdf:RDF>
      <cc:Work
         rdf:about="">
        <dc:format>image/svg+xml</dc:format>
        <dc:type
           rdf:resource="http://purl.org/dc/dcmitype/StillImage" />
        <dc:title />
      </cc:Work>
    </rdf:RDF>
  </metadata>
  <g
     inkscape:label="Guide"
     inkscape:groupmode="layer"
     id="layer1"
     transform="translate(0,-290.64998)">
    <path
       id="path831"
       style="fill:#000000;fill-opacity:1;stroke:none;stroke-width:2;stroke-linecap:butt;stroke-linejoin:round;stroke-miterlimit:4;stroke-dasharray:none;stroke-opacity:1;paint-order:fill markers stroke"
       d="M 16 0.5 A 1.5 1.5 0 0 0 14.5 2 A 1.5 1.5 0 0 0 16 3.5 A 1.5 1.5 0 0 0 17.5 2 A 1.5 1.5 0 0 0 16 0.5 z M 13 2 C 11.217533 2.0578268 6.6550485 1.7874027 3.7285156 6.0742188 C 1.7904797 8.9129841 1.6739348 13.705857 3.296875 16.5625 C 4.9198154 19.419143 8.3038802 22.03583 12.205078 22 C 16.106276 21.96598 20.199696 20.148037 21.521484 15.896484 C 21.997997 14.36376 22.084181 12.572743 21.857422 10.808594 C 20.727243 11.004381 20.40477 10.818494 19.90625 10.599609 C 19.566542 10.350813 19.107389 10.341445 18.757812 10.576172 C 18.593668 10.686534 18.40084 10.745338 18.203125 10.746094 C 17.638996 10.746094 17.203125 10.310226 17.203125 9.7460938 C 17.20307 9.1938318 16.755387 8.746149 16.203125 8.7460938 C 15.638996 8.7460938 15.203125 8.310226 15.203125 7.7460938 C 15.203078 7.5544715 15.257945 7.3663128 15.361328 7.2050781 C 15.734057 6.6240833 15.42007 5.8491113 14.748047 5.6914062 C 13.926992 5.4993274 13.338988 4.8519743 13.091797 4.0019531 C 12.844607 3.1519318 12.904181 2.7278169 13 2 z M 20.5 2.0019531 C 19.13112 2.0019531 17.996076 3.1291776 17.996094 4.4980469 C 17.996111 5.8669162 19.131144 7 20.5 7 C 21.868856 7 23.001936 5.8669162 23.001953 4.4980469 C 23.001971 3.1291776 21.86888 2.0019531 20.5 2.0019531 z M 20.5 4.0019531 C 20.78799 4.0019531 21.001957 4.2100847 21.001953 4.4980469 C 21.00195 4.7860469 20.787984 5 20.5 5 C 20.212016 5 19.998051 4.7860469 19.998047 4.4980469 C 19.998043 4.2100847 20.212011 4.0019531 20.5 4.0019531 z M 11.226562 4.0488281 C 11.290179 4.7498322 11.571791 5.3683797 11.988281 5.8945312 A 1.5 1.5 0 0 0 11.5 7 A 1.5 1.5 0 0 0 13 8.5 A 1.5 1.5 0 0 0 13.316406 8.4667969 C 13.606533 9.4568532 14.468642 10.165228 15.498047 10.451172 C 15.576954 10.735231 15.692322 11.004594 15.832031 11.255859 A 1 1 0 0 0 15.5 11.998047 A 1 1 0 0 0 16.5 12.998047 A 1 1 0 0 0 17.310547 12.583984 C 17.585579 12.686424 17.882497 12.746094 18.203125 12.746094 L 18.205078 12.746094 C 18.473629 12.745829 18.702721 12.585924 18.958984 12.515625 C 19.203563 12.823676 19.492487 13.08604 19.810547 13.296875 C 19.772457 13.911568 19.690697 14.511709 19.519531 15.0625 C 18.455714 18.48558 15.129486 20 12 20 C 8.8705137 20 6.5624657 17.990048 5.296875 15.726562 C 4.0312847 13.463041 3.9252421 9.3362161 5.5214844 7.0097656 C 7.1147011 4.6877155 9.4582491 4.170113 11.226562 4.0488281 z M 7 9.5 A 1.5 1.5 0 0 0 5.5 11 A 1.5 1.5 0 0 0 7 12.5 A 1.5 1.5 0 0 0 8.5 11 A 1.5 1.5 0 0 0 7 9.5 z M 11.5 9.9980469 A 1 1 0 0 0 10.5 10.998047 A 1 1 0 0 0 11.5 11.998047 A 1 1 0 0 0 12.5 10.998047 A 1 1 0 0 0 11.5 9.9980469 z M 14 14.5 A 1.5 1.5 0 0 0 12.5 16 A 1.5 1.5 0 0 0 14 17.5 A 1.5 1.5 0 0 0 15.5 16 A 1.5 1.5 0 0 0 14 14.5 z M 9.5 15.998047 A 1 1 0 0 0 8.5 16.998047 A 1 1 0 0 0 9.5 17.998047 A 1 1 0 0 0 10.5 16.998047 A 1 1 0 0 0 9.5 15.998047 z "
       transform="matrix(0.26458333,0,0,0.26458333,0,290.64998)" />
  </g>
</svg>
