<?xml version="1.0" encoding="UTF-8" standalone="no"?>
<svg
   xmlns:dc="http://purl.org/dc/elements/1.1/"
   xmlns:cc="http://creativecommons.org/ns#"
   xmlns:rdf="http://www.w3.org/1999/02/22-rdf-syntax-ns#"
   xmlns:svg="http://www.w3.org/2000/svg"
   xmlns="http://www.w3.org/2000/svg"
   xmlns:sodipodi="http://sodipodi.sourceforge.net/DTD/sodipodi-0.dtd"
   xmlns:inkscape="http://www.inkscape.org/namespaces/inkscape"
   width="24"
   height="24"
   viewBox="0 0 6.3499999 6.3499999"
   version="1.1"
   id="svg842"
   inkscape:version="1.0.2 (1.0.2+r75+1)"
   sodipodi:docname="symbol__sun.svg">
  <defs
     id="defs836" />
  <sodipodi:namedview
     id="base"
     pagecolor="#ffffff"
     bordercolor="#666666"
     borderopacity="1.0"
     inkscape:pageopacity="0.0"
     inkscape:pageshadow="2"
     inkscape:zoom="1.0824742"
     inkscape:cx="7.3137222"
     inkscape:cy="12.533115"
     inkscape:document-units="px"
     inkscape:current-layer="layer1"
     showgrid="true"
     units="px"
     showguides="true"
     inkscape:guide-bbox="true"
     inkscape:window-width="1920"
     inkscape:window-height="1017"
     inkscape:window-x="0"
     inkscape:window-y="0"
     inkscape:window-maximized="1"
     inkscape:snap-bbox="true"
     inkscape:bbox-nodes="true"
     inkscape:document-rotation="0">
    <inkscape:grid
       type="xygrid"
       id="grid1387"
       empspacing="4" />
  </sodipodi:namedview>
  <metadata
     id="metadata839">
    <rdf:RDF>
      <cc:Work
         rdf:about="">
        <dc:format>image/svg+xml</dc:format>
        <dc:type
           rdf:resource="http://purl.org/dc/dcmitype/StillImage" />
        <dc:title />
      </cc:Work>
    </rdf:RDF>
  </metadata>
  <g
     inkscape:label="Guide"
     inkscape:groupmode="layer"
     id="layer1"
     transform="translate(0,-290.64998)">
    <path
       id="path838"
       style="fill:#000000;stroke-width:1.05833;stroke-linecap:round;stroke-linejoin:round;paint-order:stroke fill markers"
       d="m 3.1749999,291.17915 -0.7482747,0.77514 H 1.3043133 l 0.018603,1.07694 -0.79374991,0.79375 0.77514661,0.74827 v 1.12242 l 1.0769367,-0.0186 0.7937499,0.79375 0.7482748,-0.77514 h 1.1224124 l -0.018604,-1.07695 0.79375,-0.79375 -0.7751465,-0.74827 v -1.12242 l -1.0769369,0.0186 z m 0.00672,0.75447 0.4118612,0.41393 0.3849895,0.15451 0.5389852,-0.0103 v 0.58394 l 0.1601969,0.38137 0.3886067,0.37466 -0.4139282,0.41238 -0.1545125,0.38447 0.00982,0.53743 H 3.9237914 l -0.3808553,0.16175 -0.3751709,0.38706 -0.4118611,-0.41238 -0.3849893,-0.154 -0.5369182,0.008 v -0.58187 l -0.1622641,-0.38086 -0.3865396,-0.37517 0.411861,-0.41186 0.1545127,-0.38499 -0.00982,-0.53898 h 0.5839436 l 0.3808552,-0.1602 z" />
    <path
       id="path887"
       style="fill:#000000;fill-opacity:1;stroke:none;stroke-width:3.99999;stroke-linecap:square;stroke-linejoin:bevel;stroke-miterlimit:4;stroke-dasharray:none;stroke-opacity:1;paint-order:stroke fill markers"
       d="M 11.939453 8 A 3.9999999 3.9999999 0 0 0 8 12 A 3.9999999 3.9999999 0 0 0 12 16 A 3.9999999 3.9999999 0 0 0 16 12 A 3.9999999 3.9999999 0 0 0 12 8 A 3.9999999 3.9999999 0 0 0 11.939453 8 z M 11.951172 10 A 2.0000067 2.0000067 0 0 1 12 10 A 2.0000067 2.0000067 0 0 1 14 12 A 2.0000067 2.0000067 0 0 1 12 14 A 2.0000067 2.0000067 0 0 1 10 12 A 2.0000067 2.0000067 0 0 1 11.951172 10 z "
       transform="matrix(0.26458333,0,0,0.26458333,0,290.64998)" />
  </g>
</svg>
