<?xml version="1.0" encoding="UTF-8" standalone="no"?>
<svg
   xmlns:dc="http://purl.org/dc/elements/1.1/"
   xmlns:cc="http://creativecommons.org/ns#"
   xmlns:rdf="http://www.w3.org/1999/02/22-rdf-syntax-ns#"
   xmlns:svg="http://www.w3.org/2000/svg"
   xmlns="http://www.w3.org/2000/svg"
   xmlns:sodipodi="http://sodipodi.sourceforge.net/DTD/sodipodi-0.dtd"
   xmlns:inkscape="http://www.inkscape.org/namespaces/inkscape"
   width="24"
   height="24"
   viewBox="0 0 6.3499999 6.3499999"
   version="1.1"
   id="svg842"
   inkscape:version="1.0.2 (1.0.2+r75+1)"
   sodipodi:docname="symbol__link-alt.svg">
  <defs
     id="defs836" />
  <sodipodi:namedview
     id="base"
     pagecolor="#ffffff"
     bordercolor="#666666"
     borderopacity="1.0"
     inkscape:pageopacity="0.0"
     inkscape:pageshadow="2"
     inkscape:zoom="16"
     inkscape:cx="16.035573"
     inkscape:cy="15.745119"
     inkscape:document-units="px"
     inkscape:current-layer="layer1"
     showgrid="false"
     units="px"
     showguides="true"
     inkscape:guide-bbox="true"
     inkscape:window-width="1920"
     inkscape:window-height="1017"
     inkscape:window-x="0"
     inkscape:window-y="0"
     inkscape:window-maximized="1"
     inkscape:snap-bbox="true"
     inkscape:bbox-nodes="true"
     inkscape:document-rotation="0">
    <inkscape:grid
       type="xygrid"
       id="grid1387"
       empspacing="4" />
    <sodipodi:guide
       position="0.52916666,2.9104166"
       orientation="1,0"
       id="guide1389"
       inkscape:locked="false" />
    <sodipodi:guide
       position="3.9687499,5.8208332"
       orientation="0,1"
       id="guide1391"
       inkscape:locked="false" />
    <sodipodi:guide
       position="5.8208332,2.6458333"
       orientation="1,0"
       id="guide1393"
       inkscape:locked="false" />
    <sodipodi:guide
       position="1.5875,0.52916666"
       orientation="0,1"
       id="guide1395"
       inkscape:locked="false" />
  </sodipodi:namedview>
  <metadata
     id="metadata839">
    <rdf:RDF>
      <cc:Work
         rdf:about="">
        <dc:format>image/svg+xml</dc:format>
        <dc:type
           rdf:resource="http://purl.org/dc/dcmitype/StillImage" />
        <dc:title />
      </cc:Work>
    </rdf:RDF>
  </metadata>
  <g
     inkscape:label="Guide"
     inkscape:groupmode="layer"
     id="layer1"
     transform="translate(0,-290.64998)">
    <path
       id="rect843-6-7"
       style="fill:#000000;stroke-width:0.529167;stroke-linecap:square;paint-order:stroke fill markers"
       d="m 0.92993596,294.94751 c -0.31094071,0.31094 -0.31094462,0.81159 0,1.12253 0.31093414,0.31094 0.81158624,0.31095 1.12253204,0 l 0.561266,-0.56126 c -0.208849,0.0139 -0.4193018,-0.0328 -0.6054804,-0.14288 l -0.329963,0.32997 c -0.1036485,0.10365 -0.2705258,0.10364 -0.3741773,0 -0.1036465,-0.10365 -0.1036486,-0.27053 0,-0.37418 l 0.9354433,-0.93544 c 0.1036487,-0.10365 0.2705309,-0.10365 0.3741774,0 l 0.3741773,-0.37418 c -0.3109447,-0.31094 -0.8115914,-0.31094 -1.122532,0 z M 2.4266453,293.4508 c 0,0 0.3741798,10e-6 0.561266,0.18709 -0.1870862,-0.18708 -0.1870887,-0.56126 -0.1870887,-0.56126 z m 0.9354433,-0.93544 c -0.3109406,0.31094 -0.3109445,0.81159 0,1.12253 l 0.3741774,-0.37418 c -0.1036517,-0.10364 -0.1036487,-0.27052 0,-0.37417 l 0.9354433,-0.93545 c 0.1036486,-0.10365 0.2705257,-0.10364 0.3741773,0 0.1036466,0.10365 0.1036486,0.27053 0,0.37418 l -0.329963,0.32996 c 0.1100422,0.18618 0.1568117,0.39664 0.1428744,0.60548 l 0.561266,-0.56126 c 0.3109408,-0.31094 0.3109391,-0.8116 0,-1.12253 -0.3109395,-0.31095 -0.8115864,-0.31095 -1.122532,0 z m -1.3096206,2.43215 c 0.3109341,0.31094 0.8115912,0.31094 1.122532,0 l 1.122532,-1.12253 c 0.3109406,-0.31094 0.3109391,-0.8116 0,-1.12253 l -0.3741774,0.37418 c 0.1036516,0.10364 0.1036486,0.27052 0,0.37417 l -1.122532,1.12253 c -0.1036486,0.10365 -0.2705307,0.10365 -0.3741773,0 z" />
  </g>
</svg>
