<?xml version="1.0" encoding="UTF-8" standalone="no"?>
<svg
   xmlns:dc="http://purl.org/dc/elements/1.1/"
   xmlns:cc="http://creativecommons.org/ns#"
   xmlns:rdf="http://www.w3.org/1999/02/22-rdf-syntax-ns#"
   xmlns:svg="http://www.w3.org/2000/svg"
   xmlns="http://www.w3.org/2000/svg"
   xmlns:sodipodi="http://sodipodi.sourceforge.net/DTD/sodipodi-0.dtd"
   xmlns:inkscape="http://www.inkscape.org/namespaces/inkscape"
   width="24"
   height="24"
   viewBox="0 0 6.3499999 6.3499999"
   version="1.1"
   id="svg842"
   inkscape:version="1.0.2 (1.0.2+r75+1)"
   sodipodi:docname="symbol__link-alt2.svg">
  <defs
     id="defs836" />
  <sodipodi:namedview
     id="base"
     pagecolor="#ffffff"
     bordercolor="#666666"
     borderopacity="1.0"
     inkscape:pageopacity="0.0"
     inkscape:pageshadow="2"
     inkscape:zoom="1"
     inkscape:cx="11.00167"
     inkscape:cy="18.405643"
     inkscape:document-units="px"
     inkscape:current-layer="layer1"
     showgrid="false"
     units="px"
     showguides="true"
     inkscape:guide-bbox="true"
     inkscape:window-width="1920"
     inkscape:window-height="1017"
     inkscape:window-x="0"
     inkscape:window-y="0"
     inkscape:window-maximized="1"
     inkscape:snap-bbox="true"
     inkscape:bbox-nodes="true"
     inkscape:document-rotation="0">
    <inkscape:grid
       type="xygrid"
       id="grid1387"
       empspacing="4" />
    <sodipodi:guide
       position="0.52916666,2.9104166"
       orientation="1,0"
       id="guide1389"
       inkscape:locked="false" />
    <sodipodi:guide
       position="3.9687499,5.8208332"
       orientation="0,1"
       id="guide1391"
       inkscape:locked="false" />
    <sodipodi:guide
       position="5.8208332,2.6458333"
       orientation="1,0"
       id="guide1393"
       inkscape:locked="false" />
    <sodipodi:guide
       position="1.5875,0.52916666"
       orientation="0,1"
       id="guide1395"
       inkscape:locked="false" />
  </sodipodi:namedview>
  <metadata
     id="metadata839">
    <rdf:RDF>
      <cc:Work
         rdf:about="">
        <dc:format>image/svg+xml</dc:format>
        <dc:type
           rdf:resource="http://purl.org/dc/dcmitype/StillImage" />
        <dc:title />
      </cc:Work>
    </rdf:RDF>
  </metadata>
  <g
     inkscape:label="Guide"
     inkscape:groupmode="layer"
     id="layer1"
     transform="translate(0,-290.64998)">
    <path
       id="rect836-3"
       style="fill:#000000;stroke-width:0.264583;stroke-linecap:square;stroke-linejoin:round;paint-order:stroke fill markers"
       d="m 3.7362658,293.2637 c -0.064881,-0.0649 -0.1373771,-0.11616 -0.2126741,-0.16077 l -0.3482359,0.34824 c -0.016829,0.0168 -0.026375,0.0364 -0.03797,0.0555 0.081908,0.0243 0.1597362,0.0662 0.2246932,0.13121 0.2072942,0.20729 0.2072931,0.54106 -2.3e-6,0.74836 l -1.3096184,1.30962 c -0.2072954,0.20729 -0.5410628,0.20729 -0.748357,0 -0.2072942,-0.2073 -0.2072931,-0.54106 2.3e-6,-0.74836 l 0.561266,-0.56126 0.266749,-0.26675 c -0.084059,-0.21573 -0.1065854,-0.44836 -0.073445,-0.67491 l -0.5674815,0.56748 -0.56126598,0.56126 c -0.41459084,0.41459 -0.41459325,1.08213 -4.73e-6,1.49672 0.41458851,0.41459 1.08212321,0.41458 1.49671401,-10e-6 l 1.3096184,-1.30962 c 0.4145837,-0.41458 0.4145932,-1.08212 4.7e-6,-1.49671 z"
       sodipodi:nodetypes="ccscsssssccccsssscc" />
    <path
       id="rect836-3-3"
       style="fill:#000000;stroke-width:0.264583;stroke-linecap:square;stroke-linejoin:round;paint-order:stroke fill markers"
       d="m 2.6137268,294.38624 c 0.064881,0.0649 0.1373771,0.11617 0.2126741,0.16078 l 0.3482359,-0.34824 c 0.016829,-0.0168 0.026375,-0.0364 0.037971,-0.0555 -0.08191,-0.0243 -0.1597371,-0.0663 -0.2246942,-0.13121 -0.2072942,-0.2073 -0.2072931,-0.54107 2.4e-6,-0.74836 l 1.3096183,-1.30962 c 0.2072954,-0.20729 0.5410628,-0.2073 0.748357,0 0.2072943,0.20729 0.2072931,0.54106 -2.3e-6,0.74836 l -0.561266,0.56126 -0.266749,0.26675 c 0.084059,0.21572 0.1065855,0.44836 0.073445,0.67491 l 0.5674815,-0.56748 0.561266,-0.56127 c 0.4145909,-0.41459 0.4145933,-1.08212 4.7e-6,-1.49671 -0.4145885,-0.41459 -1.0821232,-0.41459 -1.496714,0 l -1.3096183,1.30962 c -0.4145838,0.41459 -0.4145933,1.08213 -4.8e-6,1.49672 z"
       sodipodi:nodetypes="ccscsssssccccsssscc" />
  </g>
</svg>
