<?xml version="1.0" encoding="UTF-8" standalone="no"?>
<svg
   xmlns:dc="http://purl.org/dc/elements/1.1/"
   xmlns:cc="http://creativecommons.org/ns#"
   xmlns:rdf="http://www.w3.org/1999/02/22-rdf-syntax-ns#"
   xmlns:svg="http://www.w3.org/2000/svg"
   xmlns="http://www.w3.org/2000/svg"
   xmlns:sodipodi="http://sodipodi.sourceforge.net/DTD/sodipodi-0.dtd"
   xmlns:inkscape="http://www.inkscape.org/namespaces/inkscape"
   width="24"
   height="24"
   viewBox="0 0 6.3499999 6.3499999"
   version="1.1"
   id="svg842"
   inkscape:version="1.0.2 (1.0.2+r75+1)"
   sodipodi:docname="symbol__broom.svg">
  <defs
     id="defs836" />
  <sodipodi:namedview
     id="base"
     pagecolor="#ffffff"
     bordercolor="#666666"
     borderopacity="1.0"
     inkscape:pageopacity="0.0"
     inkscape:pageshadow="2"
     inkscape:zoom="1.0824742"
     inkscape:cx="13.210411"
     inkscape:cy="11.536428"
     inkscape:document-units="px"
     inkscape:current-layer="layer1"
     showgrid="false"
     units="px"
     showguides="true"
     inkscape:guide-bbox="true"
     inkscape:window-width="1920"
     inkscape:window-height="1017"
     inkscape:window-x="0"
     inkscape:window-y="0"
     inkscape:window-maximized="1"
     inkscape:snap-bbox="true"
     inkscape:bbox-nodes="true"
     inkscape:document-rotation="0">
    <inkscape:grid
       type="xygrid"
       id="grid1387"
       empspacing="4" />
    <sodipodi:guide
       position="0.52916666,2.9104166"
       orientation="1,0"
       id="guide1389"
       inkscape:locked="false" />
    <sodipodi:guide
       position="3.9687499,5.8208332"
       orientation="0,1"
       id="guide1391"
       inkscape:locked="false" />
    <sodipodi:guide
       position="5.8208332,2.6458333"
       orientation="1,0"
       id="guide1393"
       inkscape:locked="false" />
    <sodipodi:guide
       position="1.5875,0.52916666"
       orientation="0,1"
       id="guide1395"
       inkscape:locked="false" />
  </sodipodi:namedview>
  <metadata
     id="metadata839">
    <rdf:RDF>
      <cc:Work
         rdf:about="">
        <dc:format>image/svg+xml</dc:format>
        <dc:type
           rdf:resource="http://purl.org/dc/dcmitype/StillImage" />
        <dc:title />
      </cc:Work>
    </rdf:RDF>
  </metadata>
  <g
     inkscape:label="Guide"
     inkscape:groupmode="layer"
     id="layer1"
     transform="translate(0,-290.64998)">
    <path
       id="rect847"
       style="fill:#000000;stroke-width:0.529167;stroke-linecap:round;stroke-linejoin:bevel;stroke-miterlimit:4;stroke-dasharray:none;paint-order:stroke fill markers"
       d="m 5.0167481,291.2117 -1.0583333,1.83348 -0.4578533,-0.26458 -0.2645833,0.45785 1.374593,0.79375 0.2645833,-0.45785 -0.45837,-0.26458 1.0583333,-1.83348 z m -3.0323731,1.02578 a 0.396875,0.396875 0 0 0 -0.396875,0.39687 0.396875,0.396875 0 0 0 0.396875,0.39688 0.396875,0.396875 0 0 0 0.396875,-0.39688 0.396875,0.396875 0 0 0 -0.396875,-0.39687 z m -0.9260417,0.52917 a 0.26458332,0.26458332 0 0 0 -0.26458331,0.26458 0.26458332,0.26458332 0 0 0 0.26458331,0.26458 0.26458332,0.26458332 0 0 0 0.2645834,-0.26458 0.26458332,0.26458332 0 0 0 -0.2645834,-0.26458 z m 0.6583577,0.52916 a 0.13229166,0.13229166 0 0 0 -0.129191,0.13229 0.13229166,0.13229166 0 0 0 0.1322916,0.1323 0.13229166,0.13229166 0 0 0 0.1322917,-0.1323 0.13229166,0.13229166 0 0 0 -0.1322917,-0.13229 0.13229166,0.13229166 0 0 0 -0.0031,0 z m 1.221631,0.077 c -0.4127574,0.39914 -0.8074438,0.59066 -2.2127849,0.5178 0.8686352,1.45599 1.8293306,2.41478 3.4437173,2.4939 0.405571,-0.80652 0.4865894,-1.42321 0.4041097,-2.06809 z m 0.029456,0.62735 1.12913,0.65216 c -0.019304,0.51009 -0.1043855,0.82736 -0.2542479,1.15238 -0.5163106,-0.0403 -1.1891452,-0.35388 -1.5652793,-0.73742 0,0 0.5192263,-0.28218 0.5596557,-0.51056 -0.2554533,0.18786 -0.7699787,0.29352 -0.7699787,0.29352 -0.1459454,-0.16305 -0.2710579,-0.33038 -0.38809,-0.49093 0.5298431,0.0457 1.0080166,-0.18075 1.2888102,-0.35915 z" />
  </g>
</svg>
