<?xml version="1.0" encoding="UTF-8" standalone="no"?>
<svg
   xmlns:dc="http://purl.org/dc/elements/1.1/"
   xmlns:cc="http://creativecommons.org/ns#"
   xmlns:rdf="http://www.w3.org/1999/02/22-rdf-syntax-ns#"
   xmlns:svg="http://www.w3.org/2000/svg"
   xmlns="http://www.w3.org/2000/svg"
   xmlns:sodipodi="http://sodipodi.sourceforge.net/DTD/sodipodi-0.dtd"
   xmlns:inkscape="http://www.inkscape.org/namespaces/inkscape"
   width="24"
   height="24"
   viewBox="0 0 6.3499999 6.3499999"
   version="1.1"
   id="svg842"
   inkscape:version="1.0.2 (1.0.2+r75+1)"
   sodipodi:docname="symbol__language.svg">
  <defs
     id="defs836" />
  <sodipodi:namedview
     id="base"
     pagecolor="#ffffff"
     bordercolor="#666666"
     borderopacity="1.0"
     inkscape:pageopacity="0.0"
     inkscape:pageshadow="2"
     inkscape:zoom="1"
     inkscape:cx="7.2651143"
     inkscape:cy="13.59514"
     inkscape:document-units="px"
     inkscape:current-layer="layer1"
     showgrid="false"
     units="px"
     showguides="true"
     inkscape:guide-bbox="true"
     inkscape:window-width="1920"
     inkscape:window-height="1017"
     inkscape:window-x="0"
     inkscape:window-y="0"
     inkscape:window-maximized="1"
     inkscape:snap-bbox="true"
     inkscape:bbox-nodes="true"
     inkscape:document-rotation="0"
     inkscape:snap-global="true">
    <inkscape:grid
       type="xygrid"
       id="grid1387"
       empspacing="4" />
    <sodipodi:guide
       position="0.52916666,2.9104166"
       orientation="1,0"
       id="guide1389"
       inkscape:locked="false" />
    <sodipodi:guide
       position="3.9687499,5.8208332"
       orientation="0,1"
       id="guide1391"
       inkscape:locked="false" />
    <sodipodi:guide
       position="5.8208332,2.6458333"
       orientation="1,0"
       id="guide1393"
       inkscape:locked="false" />
    <sodipodi:guide
       position="1.5875,0.52916666"
       orientation="0,1"
       id="guide1395"
       inkscape:locked="false" />
  </sodipodi:namedview>
  <metadata
     id="metadata839">
    <rdf:RDF>
      <cc:Work
         rdf:about="">
        <dc:format>image/svg+xml</dc:format>
        <dc:type
           rdf:resource="http://purl.org/dc/dcmitype/StillImage" />
        <dc:title />
      </cc:Work>
    </rdf:RDF>
  </metadata>
  <g
     inkscape:label="Guide"
     inkscape:groupmode="layer"
     id="layer1"
     transform="translate(0,-290.64998)">
    <path
       id="rect856"
       style="fill:#000000;stroke-width:0.999999;stroke-linecap:round;stroke-linejoin:round;paint-order:stroke fill markers"
       d="M 2 6 C 0.89201639 6 0 6.8920164 0 8 L 0 16 C 0 17.107984 0.89201639 18 2 18 L 22 18 C 23.107984 18 24 17.107984 24 16 L 24 8 C 24 6.8920164 23.107984 6 22 6 L 2 6 z M 2 7 L 12 7 L 12 17 L 2 17 C 1.4460249 17 1 16.553975 1 16 L 1 8 C 1 7.4460249 1.4460249 7 2 7 z M 17 8 L 19 8 L 22 16 L 19.744141 16 L 19.416016 15 L 16.578125 15 L 16.248047 16 L 14 16 L 17 8 z M 18 10.6875 L 17.238281 13 L 18.759766 13 L 18 10.6875 z "
       transform="matrix(0.26458333,0,0,0.26458333,0,290.64998)" />
    <path
       id="rect861"
       style="fill:#000000;stroke-width:0.999999;stroke-linecap:round;stroke-linejoin:round;paint-order:stroke fill markers"
       d="m 4.5546875,8.8144531 c 0,0 0.284299,1.2835249 1.9453125,1.1855469 C 6.8674635,9.9783246 7,9.7770394 7,9.5 7,9.2229984 6.7657953,8.9221417 6.5,9 5.6697848,9.2435528 5.1208687,9.0892248 4.5546875,8.8144531 Z M 4,10.25 c -0.00259,0.607483 0.9803843,1.503134 1,1.017578 0.3333332,0.04082 0.85092,0.07975 1.5175867,0 C 5.5987091,12.90211 4.9801778,13.505011 3.6149659,14.605609 3.6471104,14.749987 3.8407118,14.950866 4,15 4.892081,14.407333 5.8474974,13.632525 6.6835938,12.726562 7.0553369,13.459774 7.483782,14.413839 9.2441406,14.724609 9.2824386,14.517983 9.1713378,13.833465 9.0079413,13.626725 7.8257646,13.31505 7.2827699,12.980708 6.875,12.525391 7.2323359,12.118669 7.5680787,11.692744 7.8515625,11.232422 7.98628,11.013701 8.0589531,10.543669 8,10.25 c -1.3459314,0.226394 -2.6735495,0.123591 -4,0 z"
       transform="matrix(0.26458333,0,0,0.26458333,0,290.64998)"
       sodipodi:nodetypes="csscccccccccccccc" />
  </g>
</svg>
