<?xml version="1.0" encoding="UTF-8" standalone="no"?>
<svg
   xmlns:dc="http://purl.org/dc/elements/1.1/"
   xmlns:cc="http://creativecommons.org/ns#"
   xmlns:rdf="http://www.w3.org/1999/02/22-rdf-syntax-ns#"
   xmlns:svg="http://www.w3.org/2000/svg"
   xmlns="http://www.w3.org/2000/svg"
   xmlns:sodipodi="http://sodipodi.sourceforge.net/DTD/sodipodi-0.dtd"
   xmlns:inkscape="http://www.inkscape.org/namespaces/inkscape"
   width="24"
   height="24"
   viewBox="0 0 6.3499999 6.3499999"
   version="1.1"
   id="svg842"
   inkscape:version="1.0.2 (1.0.2+r75+1)"
   sodipodi:docname="symbol__link.svg">
  <defs
     id="defs836" />
  <sodipodi:namedview
     id="base"
     pagecolor="#ffffff"
     bordercolor="#666666"
     borderopacity="1.0"
     inkscape:pageopacity="0.0"
     inkscape:pageshadow="2"
     inkscape:zoom="1.0824742"
     inkscape:cx="10.785434"
     inkscape:cy="15.531941"
     inkscape:document-units="px"
     inkscape:current-layer="layer1"
     showgrid="false"
     units="px"
     showguides="true"
     inkscape:guide-bbox="true"
     inkscape:window-width="1920"
     inkscape:window-height="1017"
     inkscape:window-x="0"
     inkscape:window-y="0"
     inkscape:window-maximized="1"
     inkscape:snap-bbox="true"
     inkscape:bbox-nodes="true"
     inkscape:document-rotation="0">
    <inkscape:grid
       type="xygrid"
       id="grid1387"
       empspacing="4" />
    <sodipodi:guide
       position="0.52916666,2.9104166"
       orientation="1,0"
       id="guide1389"
       inkscape:locked="false" />
    <sodipodi:guide
       position="3.9687499,5.8208332"
       orientation="0,1"
       id="guide1391"
       inkscape:locked="false" />
    <sodipodi:guide
       position="5.8208332,2.6458333"
       orientation="1,0"
       id="guide1393"
       inkscape:locked="false" />
    <sodipodi:guide
       position="1.5875,0.52916666"
       orientation="0,1"
       id="guide1395"
       inkscape:locked="false" />
  </sodipodi:namedview>
  <metadata
     id="metadata839">
    <rdf:RDF>
      <cc:Work
         rdf:about="">
        <dc:format>image/svg+xml</dc:format>
        <dc:type
           rdf:resource="http://purl.org/dc/dcmitype/StillImage" />
        <dc:title />
      </cc:Work>
    </rdf:RDF>
  </metadata>
  <g
     inkscape:label="Guide"
     inkscape:groupmode="layer"
     id="layer1"
     transform="translate(0,-290.64998)">
    <path
       id="rect842"
       style="fill:#000000;fill-opacity:1;stroke-width:0.529167;stroke-linecap:square;paint-order:stroke fill markers"
       d="m 0.92993596,294.57333 c -0.41458847,0.41459 -0.41458847,1.08213 0,1.49671 0.41458844,0.41459 1.08212084,0.41459 1.49670934,0 l 0.561266,-0.56126 c 0.2774471,-0.27745 0.3650265,-0.6671 0.2711324,-1.01949 l -0.6453097,0.64531 -0.1870887,0.18709 -0.3741773,0.37418 c -0.2072943,0.20729 -0.5410605,0.20729 -0.7483547,0 -0.2072943,-0.2073 -0.2072943,-0.54106 0,-0.74836 l 0.3741773,-0.37418 0.1870887,-0.18708 0.6453098,-0.64531 c -0.3523903,-0.0939 -0.74204,-0.006 -1.0194871,0.27113 z m 2.43215264,-2.43215 c -0.277447,0.27745 -0.365026,0.6671 -0.2711324,1.01949 l 0.6453098,-0.64531 0.1870886,-0.18709 0.3741774,-0.37418 c 0.2072942,-0.20729 0.5410593,-0.20729 0.7483546,0 0.2072954,0.2073 0.2072943,0.54106 0,0.74836 l -0.3741773,0.37418 -0.1870887,0.18708 -0.6453098,0.64531 c 0.35239,0.0939 0.7420401,0.006 1.0194872,-0.27113 l 0.561266,-0.56126 c 0.4145884,-0.41459 0.4145909,-1.08212 0,-1.49671 -0.4145909,-0.41459 -1.0821209,-0.41459 -1.4967094,0 z m -1.122532,2.24507 c -0.1036471,0.10364 -0.1036471,0.27053 0,0.37417 0.1036471,0.10365 0.2705302,0.10365 0.3741774,0 l 1.4967093,-1.49671 c 0.1036471,-0.10364 0.1036471,-0.27053 0,-0.37417 -0.1036471,-0.10365 -0.2705302,-0.10365 -0.3741773,0 z" />
  </g>
</svg>
