<?xml version="1.0" encoding="UTF-8" standalone="no"?>
<svg
   xmlns:dc="http://purl.org/dc/elements/1.1/"
   xmlns:cc="http://creativecommons.org/ns#"
   xmlns:rdf="http://www.w3.org/1999/02/22-rdf-syntax-ns#"
   xmlns:svg="http://www.w3.org/2000/svg"
   xmlns="http://www.w3.org/2000/svg"
   xmlns:xlink="http://www.w3.org/1999/xlink"
   xmlns:sodipodi="http://sodipodi.sourceforge.net/DTD/sodipodi-0.dtd"
   xmlns:inkscape="http://www.inkscape.org/namespaces/inkscape"
   width="24"
   height="24"
   viewBox="0 0 6.3499999 6.3499999"
   version="1.1"
   id="svg842"
   inkscape:version="1.0.1 (1.0.1+r74)"
   sodipodi:docname="sun.svg">
  <defs
     id="defs836">
    <linearGradient
       inkscape:collect="always"
       id="linearGradient931">
      <stop
         style="stop-color:#892b6d;stop-opacity:1;"
         offset="0"
         id="stop927" />
      <stop
         style="stop-color:#28618c;stop-opacity:1"
         offset="1"
         id="stop929" />
    </linearGradient>
    <linearGradient
       inkscape:collect="always"
       xlink:href="#linearGradient931"
       id="linearGradient933"
       x1="2.1166666"
       y1="2.1166666"
       x2="14.816667"
       y2="14.816667"
       gradientUnits="userSpaceOnUse" />
  </defs>
  <sodipodi:namedview
     id="base"
     pagecolor="#ffffff"
     bordercolor="#666666"
     borderopacity="1.0"
     inkscape:pageopacity="0.0"
     inkscape:pageshadow="2"
     inkscape:zoom="2"
     inkscape:cx="-106.34317"
     inkscape:cy="22.295397"
     inkscape:document-units="px"
     inkscape:current-layer="layer1"
     showgrid="false"
     units="px"
     showguides="true"
     inkscape:guide-bbox="true"
     inkscape:window-width="1920"
     inkscape:window-height="1017"
     inkscape:window-x="0"
     inkscape:window-y="0"
     inkscape:window-maximized="1"
     inkscape:snap-bbox="true"
     inkscape:bbox-nodes="true"
     inkscape:document-rotation="0">
    <inkscape:grid
       type="xygrid"
       id="grid1387"
       empspacing="4" />
  </sodipodi:namedview>
  <metadata
     id="metadata839">
    <rdf:RDF>
      <cc:Work
         rdf:about="">
        <dc:format>image/svg+xml</dc:format>
        <dc:type
           rdf:resource="http://purl.org/dc/dcmitype/StillImage" />
        <dc:title />
      </cc:Work>
    </rdf:RDF>
  </metadata>
  <g
     inkscape:label="Guide"
     inkscape:groupmode="layer"
     id="layer1"
     transform="translate(0,-290.64998)">
    <path
       id="rect844"
       style="fill:#000000;stroke-width:3;stroke-linecap:round;stroke-linejoin:round;paint-order:stroke fill markers"
       d="M 11 2 L 11 6 L 13 6 L 13 2 L 11 2 z M 5.6367188 4.2226562 L 4.2226562 5.6367188 L 7.0507812 8.4648438 L 8.4648438 7.0507812 L 5.6367188 4.2226562 z M 18.363281 4.2226562 L 15.535156 7.0507812 L 16.949219 8.4648438 L 19.777344 5.6367188 L 18.363281 4.2226562 z M 11.939453 8 A 3.9999999 3.9999999 0 0 0 8 12 A 3.9999999 3.9999999 0 0 0 12 16 A 3.9999999 3.9999999 0 0 0 16 12 A 3.9999999 3.9999999 0 0 0 12 8 A 3.9999999 3.9999999 0 0 0 11.939453 8 z M 11.949219 10 A 1.9999999 1.9999999 0 0 1 11.951172 10 A 1.9999999 1.9999999 0 0 1 12 10 A 1.9999999 1.9999999 0 0 1 14 12 A 1.9999999 1.9999999 0 0 1 12 14 A 1.9999999 1.9999999 0 0 1 10 12 A 1.9999999 1.9999999 0 0 1 11.949219 10 z M 2 11 L 2 13 L 6 13 L 6 11 L 2 11 z M 18 11 L 18 13 L 22 13 L 22 11 L 18 11 z M 7.0507812 15.535156 L 4.2226562 18.363281 L 5.6367188 19.777344 L 8.4648438 16.949219 L 7.0507812 15.535156 z M 16.949219 15.535156 L 15.535156 16.949219 L 18.363281 19.777344 L 19.777344 18.363281 L 16.949219 15.535156 z M 11 18 L 11 22 L 13 22 L 13 18 L 11 18 z "
       transform="matrix(0.26458333,0,0,0.26458333,0,290.64998)" />
  </g>
  <g
     inkscape:groupmode="layer"
     id="layer2"
     inkscape:label="Icon"
     style="display:none"
     transform="translate(0,-10.583333)">
    <circle
       style="opacity:1;fill:url(#linearGradient933);fill-opacity:1;stroke:none;stroke-width:0.52916664;stroke-linecap:round;stroke-linejoin:bevel;stroke-miterlimit:4;stroke-dasharray:none;stroke-opacity:1;paint-order:fill markers stroke"
       id="path925"
       cx="8.4666662"
       cy="8.4666662"
       r="7.4083333" />
  </g>
</svg>
