<?xml version="1.0" encoding="UTF-8" standalone="no"?>
<svg
   xmlns:dc="http://purl.org/dc/elements/1.1/"
   xmlns:cc="http://creativecommons.org/ns#"
   xmlns:rdf="http://www.w3.org/1999/02/22-rdf-syntax-ns#"
   xmlns:svg="http://www.w3.org/2000/svg"
   xmlns="http://www.w3.org/2000/svg"
   xmlns:sodipodi="http://sodipodi.sourceforge.net/DTD/sodipodi-0.dtd"
   xmlns:inkscape="http://www.inkscape.org/namespaces/inkscape"
   width="24"
   height="24"
   viewBox="0 0 6.3499999 6.3499999"
   version="1.1"
   id="svg842"
   inkscape:version="1.0.2 (1.0.2+r75+1)"
   sodipodi:docname="symbol__page-start-alt.svg">
  <defs
     id="defs836" />
  <sodipodi:namedview
     id="base"
     pagecolor="#ffffff"
     bordercolor="#666666"
     borderopacity="1.0"
     inkscape:pageopacity="0.0"
     inkscape:pageshadow="2"
     inkscape:zoom="23.779779"
     inkscape:cx="8.5095739"
     inkscape:cy="15.848375"
     inkscape:document-units="px"
     inkscape:current-layer="layer1"
     showgrid="true"
     units="px"
     showguides="true"
     inkscape:guide-bbox="true"
     inkscape:window-width="1920"
     inkscape:window-height="1017"
     inkscape:window-x="0"
     inkscape:window-y="0"
     inkscape:window-maximized="1"
     inkscape:snap-bbox="true"
     inkscape:bbox-nodes="true"
     inkscape:document-rotation="0">
    <inkscape:grid
       type="xygrid"
       id="grid1387"
       empspacing="4" />
    <sodipodi:guide
       position="0.52916666,2.9104166"
       orientation="1,0"
       id="guide1389"
       inkscape:locked="false" />
    <sodipodi:guide
       position="3.9687499,5.8208332"
       orientation="0,1"
       id="guide1391"
       inkscape:locked="false" />
    <sodipodi:guide
       position="5.8208332,2.6458333"
       orientation="1,0"
       id="guide1393"
       inkscape:locked="false" />
    <sodipodi:guide
       position="1.5875,0.52916666"
       orientation="0,1"
       id="guide1395"
       inkscape:locked="false" />
  </sodipodi:namedview>
  <metadata
     id="metadata839">
    <rdf:RDF>
      <cc:Work
         rdf:about="">
        <dc:format>image/svg+xml</dc:format>
        <dc:type
           rdf:resource="http://purl.org/dc/dcmitype/StillImage" />
        <dc:title />
      </cc:Work>
    </rdf:RDF>
  </metadata>
  <g
     inkscape:label="Guide"
     inkscape:groupmode="layer"
     id="layer1"
     transform="translate(0,-290.64998)">
    <path
       id="rect842-3-3"
       style="fill:#000000;fill-opacity:0.947002;stroke:none;stroke-width:3.99999;stroke-linecap:square;paint-order:stroke fill markers"
       d="M 2 8 L 2.0019531 22.207031 C 3.98463 20.408581 6.087239 20 8.0039062 20 C 9.9205742 20 10.775391 20.445319 11.775391 20.945312 C 12.775391 21.445306 13.914715 22.000038 15.998047 22 C 18.081379 22 20.892869 21.120355 22 20.146484 L 22 8 L 2 8 z M 4 10 L 20 10 L 20 20.171875 C 19.064593 20.599491 17.746938 21.003906 15.998047 21.003906 C 14.081379 21.003906 13.226564 20.550775 12.226562 20.050781 C 11.226563 19.550788 10.087239 19.003906 8.0039062 19.003906 C 6.3411681 19.003906 5.0132668 19.33614 4 19.738281 L 4 10 z M 10.5 11 C 10.223 11 10 11.223 10 11.5 C 10 11.777 10.223 12 10.5 12 L 13.5 12 C 13.777 12 14 11.777 14 11.5 C 14 11.223 13.777 11 13.5 11 L 10.5 11 z "
       transform="matrix(0.26458333,0,0,0.26458333,0,290.64998)" />
  </g>
</svg>
