<?xml version="1.0" encoding="UTF-8" standalone="no"?>
<svg
   xmlns:dc="http://purl.org/dc/elements/1.1/"
   xmlns:cc="http://creativecommons.org/ns#"
   xmlns:rdf="http://www.w3.org/1999/02/22-rdf-syntax-ns#"
   xmlns:svg="http://www.w3.org/2000/svg"
   xmlns="http://www.w3.org/2000/svg"
   xmlns:sodipodi="http://sodipodi.sourceforge.net/DTD/sodipodi-0.dtd"
   xmlns:inkscape="http://www.inkscape.org/namespaces/inkscape"
   width="24"
   height="24"
   viewBox="0 0 6.3499999 6.3499999"
   version="1.1"
   id="svg842"
   inkscape:version="1.0.2 (1.0.2+r75+1)"
   sodipodi:docname="table__border__br.svg">
  <defs
     id="defs836" />
  <sodipodi:namedview
     id="base"
     pagecolor="#ffffff"
     bordercolor="#666666"
     borderopacity="1.0"
     inkscape:pageopacity="0.0"
     inkscape:pageshadow="2"
     inkscape:zoom="34.639175"
     inkscape:cx="11.169293"
     inkscape:cy="10.944301"
     inkscape:document-units="px"
     inkscape:current-layer="layer1"
     showgrid="true"
     units="px"
     showguides="true"
     inkscape:guide-bbox="true"
     inkscape:window-width="1920"
     inkscape:window-height="1017"
     inkscape:window-x="0"
     inkscape:window-y="0"
     inkscape:window-maximized="1"
     inkscape:snap-bbox="true"
     inkscape:bbox-nodes="true"
     inkscape:document-rotation="0">
    <inkscape:grid
       type="xygrid"
       id="grid1387"
       empspacing="4" />
    <sodipodi:guide
       position="0.52916666,4.2333333"
       orientation="1,0"
       id="guide1389"
       inkscape:locked="false" />
    <sodipodi:guide
       position="3.9687499,5.8208332"
       orientation="0,1"
       id="guide1391"
       inkscape:locked="false" />
    <sodipodi:guide
       position="1.5875,0.52916666"
       orientation="0,1"
       id="guide1395"
       inkscape:locked="false" />
  </sodipodi:namedview>
  <metadata
     id="metadata839">
    <rdf:RDF>
      <cc:Work
         rdf:about="">
        <dc:format>image/svg+xml</dc:format>
        <dc:type
           rdf:resource="http://purl.org/dc/dcmitype/StillImage" />
        <dc:title />
      </cc:Work>
    </rdf:RDF>
  </metadata>
  <g
     inkscape:label="Guide"
     inkscape:groupmode="layer"
     id="layer1"
     transform="translate(0,-290.64998)">
    <path
       id="path871"
       style="fill:#000000;stroke-width:0.571566;stroke-linecap:square;paint-order:stroke fill markers"
       d="m 5.2916666,291.70831 v 4.23334 H 1.0583333 v -0.52917 h 3.7041666 v -3.70417 z m -0.79375,0 v 0.26459 h -0.79375 v -0.26459 z m -1.0583333,0 v 0.26459 H 3.3072916 v 0.13229 H 3.0427083 V 291.9729 H 2.9104166 v -0.26459 z m -0.79375,0 v 0.26459 H 1.7197916 v -0.26459 z m -1.190625,0 v 0.26459 H 1.3229167 v 0.13229 H 1.0583333 v -0.39688 z m 1.8520833,0.66146 v 0.92604 H 3.0427083 v -0.92604 z m -1.9843749,0 v 0.92604 H 1.0583333 v -0.92604 z m 1.9843749,1.19063 v 0.13229 h 0.1322917 v 0.26458 H 3.3072916 v 0.13229 H 3.0427083 v -0.13229 H 2.9104166 v -0.26458 h 0.1322917 v -0.13229 z m -1.9843749,0 v 0.13229 h 0.1322916 v 0.26458 H 1.3229167 v 0.13229 H 1.0583333 v -0.52916 z m 3.1749999,0.13229 v 0.26458 h -0.79375 v -0.26458 z m -1.8520833,0 v 0.26458 H 1.7197916 v -0.26458 z m 0.6614583,0.66146 v 0.79375 H 3.0427083 v -0.79375 z m -1.9843749,0 v 0.79375 H 1.0583333 v -0.79375 z" />
  </g>
</svg>
