<?xml version="1.0" encoding="UTF-8" standalone="no"?>
<svg
   xmlns:dc="http://purl.org/dc/elements/1.1/"
   xmlns:cc="http://creativecommons.org/ns#"
   xmlns:rdf="http://www.w3.org/1999/02/22-rdf-syntax-ns#"
   xmlns:svg="http://www.w3.org/2000/svg"
   xmlns="http://www.w3.org/2000/svg"
   xmlns:sodipodi="http://sodipodi.sourceforge.net/DTD/sodipodi-0.dtd"
   xmlns:inkscape="http://www.inkscape.org/namespaces/inkscape"
   width="24"
   height="24"
   viewBox="0 0 6.3499999 6.3499999"
   version="1.1"
   id="svg842"
   inkscape:version="1.0.2 (1.0.2+r75+1)"
   sodipodi:docname="table__border__b.svg">
  <defs
     id="defs836" />
  <sodipodi:namedview
     id="base"
     pagecolor="#ffffff"
     bordercolor="#666666"
     borderopacity="1.0"
     inkscape:pageopacity="0.0"
     inkscape:pageshadow="2"
     inkscape:zoom="34.639175"
     inkscape:cx="11.169293"
     inkscape:cy="10.944301"
     inkscape:document-units="px"
     inkscape:current-layer="layer1"
     showgrid="true"
     units="px"
     showguides="true"
     inkscape:guide-bbox="true"
     inkscape:window-width="1920"
     inkscape:window-height="1017"
     inkscape:window-x="0"
     inkscape:window-y="0"
     inkscape:window-maximized="1"
     inkscape:snap-bbox="true"
     inkscape:bbox-nodes="true"
     inkscape:document-rotation="0">
    <inkscape:grid
       type="xygrid"
       id="grid1387"
       empspacing="4" />
    <sodipodi:guide
       position="0.52916666,4.2333333"
       orientation="1,0"
       id="guide1389"
       inkscape:locked="false" />
    <sodipodi:guide
       position="3.9687499,5.8208332"
       orientation="0,1"
       id="guide1391"
       inkscape:locked="false" />
    <sodipodi:guide
       position="1.5875,0.52916666"
       orientation="0,1"
       id="guide1395"
       inkscape:locked="false" />
  </sodipodi:namedview>
  <metadata
     id="metadata839">
    <rdf:RDF>
      <cc:Work
         rdf:about="">
        <dc:format>image/svg+xml</dc:format>
        <dc:type
           rdf:resource="http://purl.org/dc/dcmitype/StillImage" />
        <dc:title />
      </cc:Work>
    </rdf:RDF>
  </metadata>
  <g
     inkscape:label="Guide"
     inkscape:groupmode="layer"
     id="layer1"
     transform="translate(0,-290.64998)">
    <path
       id="path873"
       style="fill:#000000;stroke-width:2;stroke-linecap:square;paint-order:stroke fill markers"
       d="M 4 4 L 4 5.5 L 5 5.5 L 5 5 L 5.5 5 L 5.5 4 L 4 4 z M 6.5 4 L 6.5 5 L 10 5 L 10 4 L 6.5 4 z M 11 4 L 11 5 L 11.5 5 L 11.5 5.5 L 12.5 5.5 L 12.5 5 L 13 5 L 13 4 L 11 4 z M 14 4 L 14 5 L 17.5 5 L 17.5 4 L 14 4 z M 18.5 4 L 18.5 5 L 19 5 L 19 5.5 L 20 5.5 L 20 4 L 18.5 4 z M 4 6.5 L 4 10 L 5 10 L 5 6.5 L 4 6.5 z M 11.5 6.5 L 11.5 10 L 12.5 10 L 12.5 6.5 L 11.5 6.5 z M 19 6.5 L 19 10 L 20 10 L 20 6.5 L 19 6.5 z M 4 11 L 4 13 L 5 13 L 5 12.5 L 5.5 12.5 L 5.5 11.5 L 5 11.5 L 5 11 L 4 11 z M 11.5 11 L 11.5 11.5 L 11 11.5 L 11 12.5 L 11.5 12.5 L 11.5 13 L 12.5 13 L 12.5 12.5 L 13 12.5 L 13 11.5 L 12.5 11.5 L 12.5 11 L 11.5 11 z M 19 11 L 19 11.5 L 18.5 11.5 L 18.5 12.5 L 19 12.5 L 19 13 L 20 13 L 20 11 L 19 11 z M 6.5 11.5 L 6.5 12.5 L 10 12.5 L 10 11.5 L 6.5 11.5 z M 14 11.5 L 14 12.5 L 17.5 12.5 L 17.5 11.5 L 14 11.5 z M 4 14 L 4 17 L 5 17 L 5 14 L 4 14 z M 11.5 14 L 11.5 17 L 12.5 17 L 12.5 14 L 11.5 14 z M 19 14 L 19 17 L 20 17 L 20 14 L 19 14 z M 4 18 L 4 20 L 20 20 L 20 18 L 4 18 z "
       transform="matrix(0.26458333,0,0,0.26458333,0,290.64998)" />
  </g>
</svg>
