<?xml version="1.0" encoding="UTF-8" standalone="no"?>
<svg
   xmlns:dc="http://purl.org/dc/elements/1.1/"
   xmlns:cc="http://creativecommons.org/ns#"
   xmlns:rdf="http://www.w3.org/1999/02/22-rdf-syntax-ns#"
   xmlns:svg="http://www.w3.org/2000/svg"
   xmlns="http://www.w3.org/2000/svg"
   xmlns:sodipodi="http://sodipodi.sourceforge.net/DTD/sodipodi-0.dtd"
   xmlns:inkscape="http://www.inkscape.org/namespaces/inkscape"
   width="24"
   height="24"
   viewBox="0 0 6.3499999 6.3499999"
   version="1.1"
   id="svg842"
   inkscape:version="1.0.2 (1.0.2+r75+1)"
   sodipodi:docname="user__tie.svg">
  <defs
     id="defs836" />
  <sodipodi:namedview
     id="base"
     pagecolor="#ffffff"
     bordercolor="#666666"
     borderopacity="1.0"
     inkscape:pageopacity="0.0"
     inkscape:pageshadow="2"
     inkscape:zoom="1.0824742"
     inkscape:cx="12.788182"
     inkscape:cy="19.442151"
     inkscape:document-units="mm"
     inkscape:current-layer="layer1"
     showgrid="true"
     units="px"
     showguides="true"
     inkscape:guide-bbox="true"
     inkscape:window-width="1920"
     inkscape:window-height="1017"
     inkscape:window-x="0"
     inkscape:window-y="0"
     inkscape:window-maximized="1"
     inkscape:snap-bbox="true"
     inkscape:bbox-nodes="true"
     inkscape:document-rotation="0">
    <inkscape:grid
       type="xygrid"
       id="grid1387"
       empspacing="4" />
    <sodipodi:guide
       position="0.52916666,2.9104166"
       orientation="1,0"
       id="guide1389"
       inkscape:locked="false" />
    <sodipodi:guide
       position="3.9687499,5.8208332"
       orientation="0,1"
       id="guide1391"
       inkscape:locked="false" />
    <sodipodi:guide
       position="5.8208332,2.6458333"
       orientation="1,0"
       id="guide1393"
       inkscape:locked="false" />
    <sodipodi:guide
       position="1.5875,0.52916666"
       orientation="0,1"
       id="guide1395"
       inkscape:locked="false" />
  </sodipodi:namedview>
  <metadata
     id="metadata839">
    <rdf:RDF>
      <cc:Work
         rdf:about="">
        <dc:format>image/svg+xml</dc:format>
        <dc:type
           rdf:resource="http://purl.org/dc/dcmitype/StillImage" />
        <dc:title />
      </cc:Work>
    </rdf:RDF>
  </metadata>
  <g
     inkscape:label="Guide"
     inkscape:groupmode="layer"
     id="layer1"
     transform="translate(0,-290.64998)">
    <path
       id="path823"
       style="opacity:1;fill:#000000;fill-opacity:1;stroke:none;stroke-width:0.529167;stroke-linecap:round;stroke-linejoin:bevel;stroke-miterlimit:4;stroke-dasharray:none;stroke-opacity:1;paint-order:fill markers stroke"
       d="M 3.1589802,291.97289 A 1.0583333,1.0583333 0 0 0 2.1166666,293.03122 1.0583333,1.0583333 0 0 0 3.175,294.08956 1.0583333,1.0583333 0 0 0 4.2333333,293.03122 1.0583333,1.0583333 0 0 0 3.175,291.97289 a 1.0583333,1.0583333 0 0 0 -0.01602,0 z m 0.0031,0.52917 a 0.52916674,0.52916674 0 0 1 0.012919,0 0.52916674,0.52916674 0 0 1 0.5291666,0.52916 0.52916674,0.52916674 0 0 1 -0.5291658,0.52917 0.52916674,0.52916674 0 0 1 -0.5291667,-0.52917 0.52916674,0.52916674 0 0 1 0.5162469,-0.52916 z" />
    <path
       id="path825"
       style="opacity:1;fill:#000000;fill-opacity:1;stroke:none;stroke-width:2;stroke-linecap:round;stroke-linejoin:bevel;stroke-miterlimit:4;stroke-dasharray:none;stroke-opacity:1;paint-order:fill markers stroke"
       d="M 12,15 C 9.3487815,15.0025 6.8070519,16.057662 4.9335938,17.933594 L 6.34375,19.34375 c 1.2697635,-1.269687 2.9297675,-2.075267 4.712891,-2.287109 L 11.5,18 l -1,4 1.5,1 1.5,-1 -1,-4 0.443359,-0.943359 c 1.783123,0.211842 3.443127,1.017422 4.712891,2.287109 l 1.410156,-1.410156 C 17.192948,16.057662 14.651218,15.002472 12,15 Z"
       transform="matrix(0.26458333,0,0,0.26458333,0,290.64998)"
       sodipodi:nodetypes="ccccccccccccc" />
  </g>
</svg>
